<svg width="33" height="22" viewBox="0 0 33 22" fill="none" xmlns="http://www.w3.org/2000/svg">
<g clip-path="url(#clip0_1493_15719)">
<path d="M0 0H33V22H0V0Z" fill="#FFDA44" style="fill:#FFDA44;fill-opacity:1;"/>
<path d="M0 0H11V22H0V0Z" fill="#0052B4" style="fill:#0052B4;fill-opacity:1;"/>
<path d="M22 0H33V22H22V0ZM12.7947 7.3076H16.4678V11.476H12.7947V7.3076Z" fill="#D80027" style="fill:#D80027;fill-opacity:1;"/>
<path d="M17.2141 7.30762V11.4696ZM18.2819 7.30762V11.4696ZM19.3497 7.30762V11.4696Z" fill="black" style="fill:black;fill-opacity:1;"/>
<path d="M17.2141 7.30762V11.4696M18.2819 7.30762V11.4696M19.3497 7.30762V11.4696" stroke="#D80027" style="stroke:#D80027;stroke:color(display-p3 0.8471 0.0000 0.1529);stroke-opacity:1;" stroke-width="7"/>
<path d="M15.9146 11.476V15.638ZM15.0591 11.476V15.638ZM14.2035 11.4824V14.9497ZM13.3222 11.4824V14.5123Z" fill="black" style="fill:black;fill-opacity:1;"/>
<path d="M15.9146 11.476V15.638M15.0591 11.476V15.638M14.2035 11.4824V14.9497M13.3222 11.4824V14.5123" stroke="#D80027" style="stroke:#D80027;stroke:color(display-p3 0.8471 0.0000 0.1529);stroke-opacity:1;" stroke-width="5"/>
<path d="M12.8591 9.39183L14.6345 7.30762L16.4678 9.38539L14.6602 11.4696L12.8591 9.39183Z" fill="#FFDA44" style="fill:#FFDA44;fill-opacity:1;"/>
<path d="M11.7205 6.16901V12.1C11.7205 14.3064 13.4766 15.5866 14.8468 16.2491C14.7953 16.3392 16.4614 16.783 16.4614 16.783C16.4614 16.783 18.1275 16.3392 18.076 16.2491C19.4526 15.5866 21.2023 14.3129 21.2023 12.1V6.16901H11.7205ZM20.0766 12.1C20.0766 13.1871 19.4333 13.9912 17.9667 14.924C17.4134 15.2778 16.8409 15.5029 16.4678 15.6316C16.0947 15.5029 15.5222 15.2778 14.969 14.924C13.5023 13.9912 12.8591 13.1228 12.8591 12.1V7.3076H20.0766V12.1Z" fill="#BC8B00" style="fill:#BC8B00;fill-opacity:1;"/>
<path d="M17.0082 12.1515H18.9058V12.7047H17.0082V12.1515ZM17.0082 13.2836H18.9058V13.8368H17.0082V13.2836Z" fill="#D80027" style="fill:#D80027;fill-opacity:1;"/>
</g>
<defs>
<clipPath id="clip0_1493_15719">
<rect width="33" height="22" fill="white" style="fill:white;fill-opacity:1;"/>
</clipPath>
</defs>
</svg>
