<svg width="33" height="22" viewBox="0 0 33 22" fill="none" xmlns="http://www.w3.org/2000/svg">
<g clip-path="url(#clip0_1493_15701)">
<path d="M0 0H33V22H0V0Z" fill="white" style="fill:white;fill-opacity:1;"/>
<path d="M0 8.74854H33V13.2515H0V8.74854Z" fill="#D80027" style="fill:#D80027;fill-opacity:1;"/>
<path d="M14.2485 0H18.7515V22H14.2485V0Z" fill="#D80027" style="fill:#D80027;fill-opacity:1;"/>
<path d="M16.5 5.64795L14.9561 8.31111H11.817L13.4058 11.0193L11.817 13.7275H14.9561L16.5 16.4357L18.0439 13.7275H21.183L19.5942 11.0193L21.183 8.31111H18.0439L16.5 5.64795Z" fill="white" stroke="#231F20" style="fill:white;fill-opacity:1;stroke:#231F20;stroke:color(display-p3 0.1373 0.1216 0.1255);stroke-opacity:1;" stroke-miterlimit="10"/>
<path d="M16.6351 8.40112C16.4228 8.40112 16.4228 8.6134 16.4228 8.6134V10.2924H16.2942V8.87715C16.2942 8.87715 16.2942 8.61984 16.0819 8.61984C15.8246 8.61984 15.8246 8.87715 15.8246 8.87715V10.3824L15.6959 10.4274V9.35317C15.6959 9.35317 15.6959 9.09586 15.4836 9.09586C15.2263 9.09586 15.2263 9.35317 15.2263 9.35317V11.1929C15.2263 11.6239 15.4386 12.0549 15.7409 12.3122V13.2128H17.2848V12.4795C17.6708 12.2672 17.9731 11.8748 18.0567 11.4052C18.0567 11.1479 18.1404 10.9356 18.2304 10.7169L18.4041 10.1122C18.4041 10.1122 18.4491 9.89995 18.2304 9.80989C18.0117 9.71984 17.9281 9.93855 17.9281 9.93855L17.5871 10.7555H17.4585V8.73563C17.4585 8.73563 17.4585 8.52334 17.2462 8.52334C16.9889 8.52334 16.9889 8.73563 16.9889 8.73563V10.2795H16.9053V8.60054C16.8924 8.6134 16.8924 8.40112 16.6351 8.40112Z" fill="#D80027" style="fill:#D80027;fill-opacity:1;"/>
<path d="M16.0304 1.65332V2.12291H15.5608V3.06853H16.0304V3.96911C15.7731 3.7118 15.4257 3.58314 15.0848 3.58314C14.3 3.57671 13.6632 4.20069 13.6503 4.98548C13.6439 5.37788 13.8047 5.75741 14.0941 6.03402V6.89601H18.9058V6.03402C19.1632 5.73168 19.3368 5.39075 19.3368 5.00478C19.324 4.21999 18.6743 3.59601 17.8959 3.61531C17.555 3.62174 17.2269 3.7504 16.976 3.97554V3.07496H17.4456V2.12934H16.976V1.65975L16.0304 1.65332Z" fill="#FFDA44" stroke="#231F20" style="fill:#FFDA44;fill-opacity:1;stroke:#231F20;stroke:color(display-p3 0.1373 0.1216 0.1255);stroke-opacity:1;" stroke-miterlimit="10"/>
</g>
<defs>
<clipPath id="clip0_1493_15701">
<rect width="33" height="22" fill="white" style="fill:white;fill-opacity:1;"/>
</clipPath>
</defs>
</svg>
