<svg width="33" height="22" viewBox="0 0 33 22" fill="none" xmlns="http://www.w3.org/2000/svg">
<g clip-path="url(#clip0_1493_15586)">
<path d="M0 0H33V22H0V0Z" fill="#D80027" style="fill:#D80027;fill-opacity:1;"/>
<path d="M0.71405 0.714111H32.2152V21.241H0.71405V0.714111Z" fill="#0052B4" style="fill:#0052B4;fill-opacity:1;"/>
<path d="M16.4678 18.3526C16.4678 18.3526 21.3825 15.0526 21.3825 10.9807C21.3825 6.90873 16.4678 3.60229 16.4678 3.60229C16.4678 3.60229 11.5532 6.9023 11.5532 10.9742C11.5532 15.0462 16.4678 18.3526 16.4678 18.3526Z" fill="#7DBEF1" style="fill:#7DBEF1;fill-opacity:1;"/>
<path d="M11.5661 11.624H21.3824L19.4976 15.7989H13.3737L11.5661 11.624Z" fill="#1C8AE6" style="fill:#1C8AE6;fill-opacity:1;"/>
<path d="M12.3702 13.2451C12.3702 13.2451 14.9754 15.7024 15.6509 15.7024C16.4485 15.7024 16.4614 14.5188 17.2912 14.0621C18.5906 13.348 20.5719 13.2451 20.5719 13.2451L19.1053 15.9983L16.4678 18.3527L13.4573 15.7989L12.3702 13.2451Z" fill="#FFF042" style="fill:#FFF042;fill-opacity:1;"/>
<path d="M16.4678 10.1315L15.0205 11.135L15.5287 9.44959L14.1263 8.38819L15.8889 8.35602L16.4678 6.68994L17.0468 8.35602L18.8094 8.38819L17.407 9.45602L17.9152 11.1414L16.4678 10.1315Z" fill="#259C7B" style="fill:#259C7B;fill-opacity:1;"/>
<path d="M16.0626 9.30186C16.0047 9.89367 15.9661 10.4855 15.9532 11.0773C15.9339 11.8428 15.9725 12.4089 16.0819 12.7498C16.2234 13.1744 16.545 13.5796 16.9953 13.9656C17.3363 14.2615 17.6772 14.4867 17.9088 14.6153C18.1082 14.7247 18.3591 14.6539 18.4684 14.4609C18.5778 14.2615 18.507 14.0106 18.314 13.9013C18.0374 13.7405 17.7737 13.5539 17.5292 13.3416C17.1819 13.0457 16.9439 12.7498 16.8602 12.4861C16.7895 12.2674 16.7573 11.7592 16.7702 11.0902C16.783 10.5176 16.8216 9.94514 16.8795 9.37905C16.9053 9.15391 16.738 8.95449 16.5129 8.92876C16.2813 8.90946 16.0819 9.07672 16.0626 9.30186Z" fill="#8E5715" style="fill:#8E5715;fill-opacity:1;"/>
<path d="M14.0105 10.9807L15.6509 13.438H14.0105V10.9807Z" fill="white" style="fill:white;fill-opacity:1;"/>
<path d="M16.4678 18.3526C16.4678 18.3526 21.3825 15.0526 21.3825 10.9807C21.3825 6.90873 16.4678 3.60229 16.4678 3.60229C16.4678 3.60229 11.5532 6.9023 11.5532 10.9742C11.5532 15.0462 16.4678 18.3526 16.4678 18.3526Z" stroke="#D80027" style="stroke:#D80027;stroke:color(display-p3 0.8471 0.0000 0.1529);stroke-opacity:1;" stroke-width="12" stroke-miterlimit="10"/>
</g>
<defs>
<clipPath id="clip0_1493_15586">
<rect width="33" height="22" fill="white" style="fill:white;fill-opacity:1;"/>
</clipPath>
</defs>
</svg>
