<svg width="33" height="22" viewBox="0 0 33 22" fill="none" xmlns="http://www.w3.org/2000/svg">
<g clip-path="url(#clip0_1493_15635)">
<path d="M0 0H33V7.33333H0V0Z" fill="#FF9933" style="fill:#FF9933;fill-opacity:1;"/>
<path d="M0 7.33325H33V14.6666H0V7.33325Z" fill="white" style="fill:white;fill-opacity:1;"/>
<path d="M0 14.6667H33V22.0001H0V14.6667Z" fill="#138808" style="fill:#138808;fill-opacity:1;"/>
<path d="M16.5 13.2C17.715 13.2 18.7 12.2151 18.7 11C18.7 9.78502 17.715 8.80005 16.5 8.80005C15.285 8.80005 14.3 9.78502 14.3 11C14.3 12.2151 15.285 13.2 16.5 13.2Z" stroke="#000080" style="stroke:#000080;stroke:color(display-p3 0.0000 0.0000 0.5020);stroke-opacity:1;" stroke-width="4"/>
<path d="M16.5 11.22C16.6215 11.22 16.72 11.1215 16.72 11C16.72 10.8785 16.6215 10.78 16.5 10.78C16.3785 10.78 16.28 10.8785 16.28 11C16.28 11.1215 16.3785 11.22 16.5 11.22Z" fill="#000080" style="fill:#000080;fill-opacity:1;"/>
<path d="M17.0661 8.88754L15.9339 13.1127ZM17.0661 8.88754L15.9339 13.1127ZM17.5936 9.106L15.4064 12.8942ZM18.0466 9.45356L14.9534 12.5467ZM18.3941 9.90656L14.6059 12.0937ZM18.6126 10.434L14.3874 11.5662ZM18.6871 11.0001H14.3129ZM18.6126 11.5662L14.3874 10.434ZM18.3941 12.0937L14.6059 9.90656ZM18.0466 12.5467L14.9534 9.45356ZM17.5936 12.8942L15.4064 9.106ZM17.0661 13.1127L15.9339 8.88754ZM16.5 13.1873V8.81299ZM17.0661 8.88754L15.9339 13.1127ZM17.5936 9.106L15.4064 12.8942ZM18.0466 9.45356L14.9534 12.5467ZM18.3941 9.90656L14.6059 12.0937ZM18.6126 10.434L14.3874 11.5662ZM18.6871 11.0001H14.3129ZM18.6126 11.5662L14.3874 10.434ZM18.3941 12.0937L14.6059 9.90656ZM18.0466 12.5467L14.9534 9.45356ZM17.5936 12.8942L15.4064 9.106ZM17.0661 13.1127L15.9339 8.88754Z" fill="black" style="fill:black;fill-opacity:1;"/>
<path d="M17.0661 8.88754L15.9339 13.1127M17.5936 9.106L15.4064 12.8942M18.0466 9.45356L14.9534 12.5467M18.3941 9.90656L14.6059 12.0937M18.6126 10.434L14.3874 11.5662M18.6871 11.0001H14.3129M18.6126 11.5662L14.3874 10.434M18.3941 12.0937L14.6059 9.90656M18.0466 12.5467L14.9534 9.45356M17.5936 12.8942L15.4064 9.106M17.0661 13.1127L15.9339 8.88754M16.5 13.1873V8.81299" stroke="#000080" style="stroke:#000080;stroke:color(display-p3 0.0000 0.0000 0.5020);stroke-opacity:1;" stroke-width="2"/>
</g>
<defs>
<clipPath id="clip0_1493_15635">
<rect width="33" height="22" fill="white" style="fill:white;fill-opacity:1;"/>
</clipPath>
</defs>
</svg>
