<svg width="33" height="22" viewBox="0 0 33 22" fill="none" xmlns="http://www.w3.org/2000/svg">
<g clip-path="url(#clip0_1493_15658)">
<path d="M0 0H33V22H0V0Z" fill="#1B4991" style="fill:#1B4991;fill-opacity:1;"/>
<path d="M20.469 6.86377V13.7146C20.469 17.0532 24.8304 18.0761 24.8304 18.0761C24.8304 18.0761 29.1918 17.0532 29.1918 13.7146V6.86377H20.469Z" fill="#00A2B8" stroke="white" style="fill:#00A2B8;fill-opacity:1;stroke:white;stroke-opacity:1;" stroke-width="3"/>
<path d="M20.5655 13.6824C20.5655 16.9502 24.8304 17.9473 24.8304 17.9473C24.8304 17.9473 29.0953 16.9438 29.0953 13.6824H20.5655Z" fill="#A35023" style="fill:#A35023;fill-opacity:1;"/>
<path d="M26.7023 9.9772H25.4544V8.72925H24.2064V9.9772H22.9649V11.2252H24.2064V14.9626H25.4544V11.2252H26.7023V9.9772Z" fill="black" style="fill:black;fill-opacity:1;"/>
<path d="M16.4678 0V1.96842L13.5602 3.58304H16.4678V7.39766H12.6661L16.4678 9.5076V10.9807H14.7503L10.0222 8.34971V10.9807H6.44561V7.85439L0.816959 10.9807H0V9.01228L2.9076 7.39766H0V3.58304H3.80175L0 1.46667V0H1.71754L6.44561 2.62456V0H10.0222V3.12632L15.6509 0H16.4678Z" fill="white" style="fill:white;fill-opacity:1;"/>
<path d="M9.26316 0H7.20468V4.45789H0V6.51637H7.20468V10.9807H9.26316V6.51637H16.4678V4.45789H9.26316V0Z" fill="#D80027" style="fill:#D80027;fill-opacity:1;"/>
<path d="M10.0222 7.39771L16.4678 10.9807V9.96437L11.8491 7.39771H10.0222Z" fill="#0052B4" style="fill:#0052B4;fill-opacity:1;"/>
<path d="M10.0222 7.39771L16.4678 10.9807V9.96437L11.8491 7.39771H10.0222Z" fill="white" style="fill:white;fill-opacity:1;"/>
<path d="M10.0222 7.39771L16.4678 10.9807V9.96437L11.8491 7.39771H10.0222ZM4.61871 7.39771L0 9.96437V10.9807L6.44561 7.39771H4.61871Z" fill="#D80027" style="fill:#D80027;fill-opacity:1;"/>
<path d="M6.44561 3.57661L0 0V1.00994L4.61871 3.57661H6.44561Z" fill="#0052B4" style="fill:#0052B4;fill-opacity:1;"/>
<path d="M6.44561 3.57661L0 0V1.00994L4.61871 3.57661H6.44561Z" fill="white" style="fill:white;fill-opacity:1;"/>
<path d="M6.44561 3.57661L0 0V1.00994L4.61871 3.57661H6.44561ZM11.8491 3.57661L16.4678 1.00994V0L10.0222 3.57661H11.8491Z" fill="#D80027" style="fill:#D80027;fill-opacity:1;"/>
</g>
<defs>
<clipPath id="clip0_1493_15658">
<rect width="33" height="22" fill="white" style="fill:white;fill-opacity:1;"/>
</clipPath>
</defs>
</svg>
