<svg width="24" height="24" viewBox="0 0 24 24" fill="none" xmlns="http://www.w3.org/2000/svg">
<path d="M20.0001 13.004C20.53 13.004 20.962 13.4163 20.9962 13.9376C20.9973 13.9529 20.9988 13.9682 20.9991 13.9835C20.9993 13.9903 21.0001 13.9972 21.0001 14.004C21.0001 14.0109 20.9993 14.0177 20.9991 14.0245C20.9988 14.0431 20.9976 14.0616 20.9962 14.0802C20.9952 14.0936 20.9938 14.1069 20.9923 14.1202C20.9714 14.3055 20.8999 14.4862 20.7755 14.6388L20.7072 14.715L16.7072 18.715C16.3166 19.1055 15.6836 19.1055 15.2931 18.715C14.9026 18.3244 14.9026 17.6914 15.2931 17.3009L17.59 15.004H8.00012C7.44784 15.004 7.00012 14.5563 7.00012 14.004C7.00013 13.4517 7.44784 13.004 8.00012 13.004H20.0001Z" fill="black" style="fill:black;fill-opacity:1;"/>
<path d="M7.29309 5.29308C7.68362 4.90255 8.31663 4.90255 8.70715 5.29308C9.09764 5.6836 9.09767 6.31663 8.70715 6.70714L6.41028 9.00401H16.0001C16.5524 9.00401 17.0001 9.45174 17.0001 10.004C17.0001 10.5563 16.5524 11.004 16.0001 11.004H4.00012C3.46983 11.004 3.03677 10.5912 3.00305 10.0694C3.00202 10.0545 3.00146 10.0395 3.0011 10.0245C3.00096 10.0177 3.00012 10.0109 3.00012 10.004C3.00012 9.99716 3.00096 9.99033 3.0011 9.98351C3.00142 9.96461 3.00167 9.94572 3.00305 9.92687C3.00408 9.91344 3.00541 9.9001 3.00696 9.88683C3.02801 9.70181 3.10054 9.52154 3.22473 9.36925L3.29309 9.29308L7.29309 5.29308Z" fill="black" style="fill:black;fill-opacity:1;"/>
</svg>
