<svg width="24" height="24" viewBox="0 0 24 24" fill="none" xmlns="http://www.w3.org/2000/svg">
<path d="M18.4165 15.1724C18.8071 14.7819 19.4401 14.7819 19.8306 15.1724C20.2204 15.5629 20.2208 16.1962 19.8306 16.5864L18.4156 18.0005L19.8306 19.4146L19.899 19.4907C20.2188 19.8834 20.1963 20.4627 19.8306 20.8286C19.4646 21.1946 18.8845 21.2179 18.4917 20.898L18.4165 20.8286L17.0015 19.4136L15.5874 20.8286C15.1971 21.219 14.5639 21.2187 14.1734 20.8286C13.783 20.4381 13.7829 19.805 14.1734 19.4146L15.5874 18.0005L14.1734 16.5864L14.105 16.5103C13.7847 16.1176 13.8074 15.5385 14.1734 15.1724C14.5394 14.8064 15.1185 14.7831 15.5113 15.103L15.5874 15.1724L17.0015 16.5864L18.4165 15.1724Z" fill="black" style="fill:black;fill-opacity:1;"/>
<path d="M15.1304 3.07179C15.6109 2.87976 16.1523 3.0869 16.3872 3.53566L16.4302 3.62941L18.1783 8.0005H20.0015L20.104 8.00538C20.2272 8.01795 20.3439 8.0538 20.4497 8.10695C21.2866 8.39217 21.8603 9.21449 21.7994 10.1294L21.771 10.3579L21.44 12.1792L19.4722 11.8218L19.8033 10.0005H4.19974L5.53764 17.3579L5.57767 17.5337C5.81492 18.3927 6.59957 19.0004 7.50541 19.0005H10.0015L10.104 19.0054C10.6081 19.0568 11.0015 19.4829 11.0015 20.0005C11.0013 20.5179 10.608 20.9443 10.104 20.9956L10.0015 21.0005H7.50541C5.63297 21.0004 4.01963 19.7029 3.60599 17.8931L3.56986 17.7163L2.23197 10.3579C2.04968 9.35419 2.64726 8.41575 3.55326 8.10695C3.68808 8.03917 3.84033 8.00055 4.0015 8.0005H5.82572L7.57377 3.62941L7.61576 3.53566C7.85064 3.08663 8.39291 2.87952 8.87357 3.07179C9.38575 3.27715 9.63506 3.85913 9.43021 4.37159L7.97904 8.0005H16.0249L14.5738 4.37159L14.5406 4.27491C14.4008 3.78771 14.6497 3.26408 15.1304 3.07179Z" fill="black" style="fill:black;fill-opacity:1;"/>
<path d="M21.44 12.1792C21.341 12.7221 20.8208 13.0821 20.2779 12.9839C19.7347 12.8851 19.3738 12.3649 19.4722 11.8218L21.44 12.1792Z" fill="black" style="fill:black;fill-opacity:1;"/>
</svg>
