<svg width="24" height="24" viewBox="0 0 24 24" fill="none" xmlns="http://www.w3.org/2000/svg">
<path fill-rule="evenodd" clip-rule="evenodd" d="M12.1239 1.6286C12.6885 1.48468 13.2778 1.46544 13.8505 1.57293C14.5367 1.70192 15.1649 2.06953 16.0233 2.55243L19.0438 4.25165C19.8747 4.71902 20.4932 5.05402 20.951 5.55438C21.3331 5.97208 21.6228 6.46652 21.7997 7.00457C22.0115 7.64899 21.9999 8.35311 21.9999 9.30633V12.8942C21.9999 13.7824 22.01 14.4383 21.8231 15.0466C21.6863 15.4914 21.4729 15.9092 21.1932 16.28L21.0692 16.4362C20.661 16.9247 20.1059 17.2734 19.3612 17.7575L13.9813 21.2546C13.1557 21.7912 12.5532 22.1971 11.8768 22.3698C11.3123 22.5137 10.7222 22.5331 10.1493 22.4255C9.46301 22.2965 8.83507 21.929 7.97643 21.446L4.95592 19.7477C4.12517 19.2804 3.50652 18.9453 3.04869 18.445C2.66651 18.027 2.37693 17.5319 2.20006 16.9938C1.98839 16.3494 1.99987 15.6456 1.99987 14.6921V11.1042C1.99986 10.2159 1.98955 9.5602 2.17662 8.95184C2.33303 8.44338 2.58942 7.9704 2.93053 7.56219C3.3387 7.07395 3.89378 6.72499 4.63854 6.2409L10.0184 2.74481C10.8443 2.20799 11.4472 1.8012 12.1239 1.6286ZM3.99987 14.7087C3.99998 15.7848 4.01211 16.1023 4.09948 16.3688C4.18786 16.6377 4.33324 16.8854 4.52428 17.0944C4.71473 17.3026 4.98716 17.47 5.93737 18.0046L8.9569 19.7028C9.44821 19.9792 9.7681 20.1558 9.99987 20.2692V18.0837L3.99987 14.7087ZM11.9999 18.0427V20.1403C12.2124 20.0135 12.4939 19.8352 12.8915 19.5768L18.2704 16.0807C19.1209 15.5279 19.3641 15.3572 19.534 15.154C19.7043 14.9501 19.8328 14.7137 19.911 14.4597C19.9888 14.2064 19.9999 13.9087 19.9999 12.8942V12.8425L11.9999 18.0427ZM4.00963 10.2145C4.00338 10.4306 3.99987 10.7144 3.99987 11.1042V12.4147L9.99987 15.7897V13.5837L4.00963 10.2145ZM11.9999 13.5417V15.655L19.9999 10.4557V9.30633C19.9999 8.88605 19.9953 8.58055 19.9881 8.34832L11.9999 13.5417ZM13.4813 3.53875C13.1949 3.48501 12.9003 3.49512 12.618 3.56707C12.3368 3.63882 12.0532 3.80742 11.1083 4.42157L5.72936 7.91864C5.37297 8.15029 5.12383 8.31613 4.94127 8.44403L10.9618 11.8307L19.0526 6.57098C18.842 6.43665 18.5363 6.26142 18.0624 5.99481L15.0419 4.29559C14.0602 3.74336 13.7665 3.59236 13.4813 3.53875Z" fill="black" style="fill:black;fill-opacity:1;"/>
</svg>
