<svg width="24" height="24" viewBox="0 0 24 24" fill="none" xmlns="http://www.w3.org/2000/svg">
<path d="M11.234 6.35762C11.589 5.93454 12.2201 5.87859 12.6432 6.23359L21.3092 13.5061L21.3844 13.5754C21.7378 13.9388 21.7651 14.5186 21.4323 14.9152C21.0994 15.3116 20.5242 15.3856 20.1051 15.1008L20.0241 15.0383L16.3922 11.9904L10.1012 20.591C9.94057 20.8104 9.6969 20.9551 9.4274 20.9914C9.19156 21.0231 8.95309 20.9692 8.75455 20.842L8.67154 20.7834L2.37759 15.7834L2.30045 15.716C1.93757 15.3624 1.89469 14.7835 2.21646 14.3781C2.53852 13.9727 3.11204 13.8839 3.53873 14.1574L3.62174 14.217L9.10025 18.5695L14.3395 11.4094L14.8561 10.7014L11.3571 7.76582C10.9342 7.41084 10.8793 6.78064 11.234 6.35762Z" fill="black" style="fill:black;fill-opacity:1;"/>
<path d="M20.2575 3.33027C20.5965 2.95348 21.1726 2.88782 21.5905 3.19355C22.0359 3.51972 22.1332 4.14542 21.8073 4.59101L18.8805 8.59101C18.5544 9.03625 17.9286 9.1325 17.4831 8.80684C17.0377 8.48064 16.9412 7.85496 17.2672 7.40937L20.193 3.40937L20.2575 3.33027Z" fill="black" style="fill:black;fill-opacity:1;"/>
</svg>
