<svg width="24" height="24" viewBox="0 0 24 24" fill="none" xmlns="http://www.w3.org/2000/svg">
<path d="M4.29301 1.54313C4.68354 1.15261 5.31655 1.15261 5.70708 1.54313C6.09752 1.93367 6.09757 2.56669 5.70708 2.9572L2.70707 5.9572C2.31657 6.34769 1.68355 6.34764 1.29301 5.9572C0.902492 5.56667 0.902492 4.93366 1.29301 4.54313L4.29301 1.54313Z" fill="black" style="fill:black;fill-opacity:1;"/>
<path d="M18.293 1.54313C18.6835 1.15261 19.3166 1.15261 19.7071 1.54313L22.7071 4.54313C23.0975 4.93367 23.0975 5.56669 22.7071 5.9572C22.3166 6.34769 21.6835 6.34764 21.293 5.9572L18.293 2.9572C17.9025 2.56667 17.9025 1.93366 18.293 1.54313Z" fill="black" style="fill:black;fill-opacity:1;"/>
<path d="M11 8.00017C11 7.44789 11.4477 7.00017 12 7.00017C12.5523 7.00021 13 7.44791 13 8.00017V11.5861L15.2071 13.7931C15.5975 14.1836 15.5975 14.8167 15.2071 15.2072C14.8166 15.5977 14.1835 15.5976 13.793 15.2072L11.293 12.7072C11.1055 12.5197 11.0001 12.2653 11 12.0002V8.00017Z" fill="black" style="fill:black;fill-opacity:1;"/>
<path fill-rule="evenodd" clip-rule="evenodd" d="M22 12.0002C22 17.5229 17.5228 22.0001 12 22.0002C6.47722 22.0002 2.00009 17.5229 2.00004 12.0002C2.00004 6.47731 6.47719 2.00017 12 2.00017C17.5228 2.00021 22 6.47734 22 12.0002ZM20 12.0002C20 7.58191 16.4183 4.00021 12 4.00017C7.58176 4.00017 4.00004 7.58188 4.00004 12.0002C4.00009 16.4184 7.58179 20.0002 12 20.0002C16.4183 20.0001 20 16.4184 20 12.0002Z" fill="black" style="fill:black;fill-opacity:1;"/>
</svg>
