<svg width="24" height="24" viewBox="0 0 24 24" fill="none" xmlns="http://www.w3.org/2000/svg">
<path d="M8.65137 14.2871C10.5509 12.5709 13.4502 12.5708 15.3496 14.2871L15.5361 14.4648L15.6045 14.54C15.925 14.9328 15.9023 15.5127 15.5361 15.8789C15.17 16.2451 14.59 16.2678 14.1973 15.9473L14.1221 15.8789L14.0098 15.7725C12.8701 14.7427 11.1309 14.7428 9.99121 15.7725L9.87891 15.8789C9.48842 16.2692 8.85533 16.2692 8.46484 15.8789C8.07437 15.4884 8.07447 14.8554 8.46484 14.4648L8.65137 14.2871Z" fill="black" style="fill:black;fill-opacity:1;"/>
<path d="M9.25 8.25C9.94035 8.25 10.5 8.80965 10.5 9.5C10.5 10.1904 9.94035 10.75 9.25 10.75C8.55965 10.75 8 10.1904 8 9.5C8 8.80965 8.55965 8.25 9.25 8.25Z" fill="black" style="fill:black;fill-opacity:1;"/>
<path d="M14.75 8.25C15.4405 8.25 16 8.80972 16 9.5C16 10.1903 15.4405 10.75 14.75 10.75C14.0595 10.75 13.5 10.1903 13.5 9.5C13.5 8.80972 14.0595 8.25 14.75 8.25Z" fill="black" style="fill:black;fill-opacity:1;"/>
<path fill-rule="evenodd" clip-rule="evenodd" d="M12 2C17.5229 2 22 6.47716 22 12C22 17.5229 17.5229 22 12 22C6.47716 22 2 17.5229 2 12C2 6.47716 6.47716 2 12 2ZM12 4C7.58172 4 4 7.58172 4 12C4 16.4183 7.58172 20 12 20C16.4183 20 20 16.4183 20 12C20 7.58172 16.4183 4 12 4Z" fill="black" style="fill:black;fill-opacity:1;"/>
</svg>
