<svg width="24" height="24" viewBox="0 0 24 24" fill="none" xmlns="http://www.w3.org/2000/svg">
<path d="M8.65149 14.2872C10.551 12.571 13.4503 12.5709 15.3497 14.2872L15.5363 14.465L15.6046 14.5402C15.9251 14.9329 15.9024 15.5128 15.5363 15.879C15.1701 16.2452 14.5902 16.2679 14.1974 15.9474L14.1222 15.879L14.0099 15.7726C12.8703 14.7428 11.1311 14.7429 9.99133 15.7726L9.87903 15.879C9.48854 16.2694 8.85545 16.2694 8.46497 15.879C8.0745 15.4886 8.07459 14.8555 8.46497 14.465L8.65149 14.2872Z" fill="black" style="fill:black;fill-opacity:1;"/>
<path d="M9.25012 8.25012C9.94048 8.25012 10.5001 8.80977 10.5001 9.50012C10.5001 10.1905 9.94048 10.7501 9.25012 10.7501C8.55977 10.7501 8.00012 10.1905 8.00012 9.50012C8.00012 8.80977 8.55977 8.25012 9.25012 8.25012Z" fill="black" style="fill:black;fill-opacity:1;"/>
<path d="M14.7501 8.25012C15.4406 8.25012 16.0001 8.80985 16.0001 9.50012C16.0001 10.1904 15.4406 10.7501 14.7501 10.7501C14.0597 10.7501 13.5001 10.1904 13.5001 9.50012C13.5001 8.80985 14.0597 8.25012 14.7501 8.25012Z" fill="black" style="fill:black;fill-opacity:1;"/>
<path fill-rule="evenodd" clip-rule="evenodd" d="M12.0001 2.00012C17.523 2.00012 22.0001 6.47728 22.0001 12.0001C22.0001 17.523 17.523 22.0001 12.0001 22.0001C6.47728 22.0001 2.00012 17.523 2.00012 12.0001C2.00012 6.47728 6.47728 2.00012 12.0001 2.00012ZM12.0001 4.00012C7.58185 4.00012 4.00012 7.58185 4.00012 12.0001C4.00012 16.4184 7.58184 20.0001 12.0001 20.0001C16.4184 20.0001 20.0001 16.4184 20.0001 12.0001C20.0001 7.58184 16.4184 4.00012 12.0001 4.00012Z" fill="black" style="fill:black;fill-opacity:1;"/>
</svg>
