<svg width="24" height="24" viewBox="0 0 24 24" fill="none" xmlns="http://www.w3.org/2000/svg">
<path fill-rule="evenodd" clip-rule="evenodd" d="M12.0006 8C14.2096 8.00021 16.0006 9.79095 16.0006 12C16.0006 14.2091 14.2096 15.9998 12.0006 16C9.79146 16 8.00064 14.2092 8.00064 12C8.00064 9.79082 9.79146 8 12.0006 8ZM12.0006 10C10.896 10 10.0006 10.8954 10.0006 12C10.0006 13.1046 10.896 14 12.0006 14C13.1051 13.9998 14.0006 13.1045 14.0006 12C14.0006 10.8955 13.1051 10.0002 12.0006 10Z" fill="black" style="fill:black;fill-opacity:1;"/>
<path fill-rule="evenodd" clip-rule="evenodd" d="M11.9997 4C15.8033 3.99997 19.5068 6.10726 22.067 10.1143L22.196 10.333C22.7577 11.3714 22.7577 12.6286 22.196 13.667L22.067 13.8857C19.5068 17.8927 15.8033 20 11.9997 20C8.31495 19.9998 4.72475 18.0224 2.17642 14.2559L1.93326 13.8857C1.19967 12.7374 1.19964 11.2626 1.93326 10.1143L2.17642 9.74414C4.72475 5.97767 8.31497 4.00022 11.9997 4ZM11.9997 6C9.08076 6.00022 6.06714 7.55928 3.83169 10.8652L3.61783 11.1904C3.30368 11.6822 3.30368 12.3178 3.61783 12.8096L3.83169 13.1348C6.06715 16.4407 9.08074 17.9998 11.9997 18C15.0127 18 18.1266 16.3385 20.3815 12.8096L20.4372 12.7158C20.6779 12.2707 20.6779 11.7293 20.4372 11.2842L20.3815 11.1904C18.1266 7.66142 15.0128 5.99998 11.9997 6Z" fill="black" style="fill:black;fill-opacity:1;"/>
</svg>
