<svg width="24" height="24" viewBox="0 0 24 24" fill="none" xmlns="http://www.w3.org/2000/svg">
<path fill-rule="evenodd" clip-rule="evenodd" d="M12.172 2C12.9675 2.00007 13.7305 2.31638 14.2931 2.87891L19.1212 7.70703L19.3204 7.92676C19.758 8.46059 20.0001 9.13188 20.0001 9.82812V18C20.0001 20.2092 18.2093 22 16.0001 22H13.5861C13.0338 22 12.5861 21.5523 12.5861 21C12.5861 20.4477 13.0338 20 13.5861 20H16.0001C17.1047 20 18.0001 19.1046 18.0001 18V10H15.0001C13.3432 10 12.0001 8.65685 12.0001 7V4H8.00012C6.89556 4 6.00012 4.89543 6.00012 6V9.82812C6.00012 10.3804 5.55241 10.8281 5.00012 10.8281C4.44784 10.8281 4.00012 10.3804 4.00012 9.82812V6C4.00012 3.79087 5.79099 2 8.00012 2H12.172ZM14.0001 7C14.0001 7.5523 14.4478 8 15.0001 8H16.5861L14.0001 5.41406V7Z" fill="black" style="fill:black;fill-opacity:1;"/>
<path fill-rule="evenodd" clip-rule="evenodd" d="M7.50012 14.25C8.74279 14.25 9.75012 15.2573 9.75012 16.5C9.75012 17.7427 8.74279 18.75 7.50012 18.75C6.25746 18.75 5.25012 17.7427 5.25012 16.5C5.25012 15.2573 6.25746 14.25 7.50012 14.25ZM7.50012 15.75C7.08589 15.75 6.75012 16.0858 6.75012 16.5C6.75012 16.9142 7.08589 17.25 7.50012 17.25C7.91436 17.25 8.25012 16.9142 8.25012 16.5C8.25012 16.0858 7.91436 15.75 7.50012 15.75Z" fill="black" style="fill:black;fill-opacity:1;"/>
<path fill-rule="evenodd" clip-rule="evenodd" d="M7.50012 11.25C8.03189 11.25 8.5283 11.5157 8.82336 11.958L9.01184 12.2412L9.05579 12.2959C9.16531 12.4153 9.33192 12.4689 9.49329 12.4316L9.67883 12.3887L9.88293 12.3555C10.3595 12.3084 10.8371 12.4757 11.1808 12.8193C11.5244 13.163 11.6917 13.6406 11.6447 14.1172L11.6115 14.3213L11.5685 14.5068C11.5259 14.6913 11.6015 14.8833 11.7589 14.9883L12.0421 15.1768L12.1993 15.2959C12.5467 15.5959 12.7501 16.0345 12.7501 16.5C12.7501 16.9655 12.5467 17.4041 12.1993 17.7041L12.0421 17.8232L11.7589 18.0117C11.6015 18.1167 11.5259 18.3087 11.5685 18.4932L11.6115 18.6787L11.6447 18.8828C11.6917 19.3594 11.5244 19.837 11.1808 20.1807C10.8371 20.5243 10.3595 20.6916 9.88293 20.6445L9.67883 20.6113L9.49329 20.5684C9.3319 20.5311 9.16531 20.5847 9.05579 20.7041L9.01184 20.7588L8.82336 21.042C8.52829 21.4843 8.03189 21.75 7.50012 21.75C7.03465 21.75 6.59601 21.5466 6.29602 21.1992L6.17688 21.042L5.9884 20.7588C5.8965 20.621 5.738 20.5458 5.57629 20.5576L5.50696 20.5684L5.32141 20.6113C4.78012 20.7362 4.21224 20.5734 3.81946 20.1807C3.42665 19.7879 3.26388 19.22 3.38879 18.6787L3.43176 18.4932L3.4425 18.4238C3.45267 18.2852 3.39841 18.1496 3.29602 18.0557L3.24133 18.0117L2.95813 17.8232C2.51586 17.5282 2.25012 17.0318 2.25012 16.5C2.25012 15.9682 2.51586 15.4718 2.95813 15.1768L3.24133 14.9883L3.29602 14.9443C3.3984 14.8504 3.45266 14.7148 3.4425 14.5762L3.43176 14.5068L3.38879 14.3213C3.26389 13.78 3.42665 13.2121 3.81946 12.8193C4.21226 12.4265 4.78013 12.2638 5.32141 12.3887L5.50696 12.4316L5.57629 12.4424C5.73799 12.4542 5.8965 12.379 5.9884 12.2412L6.17688 11.958L6.29602 11.8008C6.59601 11.4534 7.03465 11.25 7.50012 11.25ZM7.45715 12.7607L7.42493 12.79L7.23645 13.0732C6.8135 13.7076 6.06348 14.0342 5.31848 13.9219L5.17004 13.8936L4.9845 13.8506C4.94715 13.842 4.90711 13.8528 4.88 13.8799C4.8529 13.907 4.84209 13.947 4.85071 13.9844L4.89368 14.1699L4.922 14.3184C5.0269 15.0139 4.74896 15.7134 4.19543 16.1475L4.07336 16.2363L3.79016 16.4248C3.76514 16.4417 3.75012 16.4698 3.75012 16.5C3.75012 16.5302 3.76514 16.5583 3.79016 16.5752L4.07336 16.7637L4.19543 16.8525C4.74896 17.2866 5.0269 17.9861 4.922 18.6816L4.89368 18.8301L4.85071 19.0156C4.8421 19.0529 4.8529 19.093 4.88 19.1201C4.90705 19.1472 4.94628 19.1569 4.98352 19.1484L5.17004 19.1064L5.31848 19.0781C6.06346 18.9658 6.81349 19.2924 7.23645 19.9268L7.42493 20.21L7.45715 20.2393C7.47017 20.2462 7.4849 20.25 7.50012 20.25C7.5303 20.25 7.55842 20.235 7.57532 20.21L7.76379 19.9268L7.85266 19.8047C8.3176 19.2117 9.08726 18.9351 9.8302 19.1064L10.0157 19.1484C10.0531 19.157 10.0931 19.1472 10.1202 19.1201C10.1472 19.0931 10.1579 19.0538 10.1495 19.0166L10.1066 18.8301C9.92385 18.0378 10.2503 17.2148 10.9269 16.7637L11.2101 16.5752L11.2394 16.543C11.2464 16.53 11.2501 16.5152 11.2501 16.5C11.2501 16.4848 11.2464 16.47 11.2394 16.457L11.2101 16.4248L10.9269 16.2363C10.2503 15.7852 9.92385 14.9622 10.1066 14.1699L10.1495 13.9834C10.1579 13.9462 10.1472 13.9069 10.1202 13.8799C10.1066 13.8663 10.0894 13.8576 10.0714 13.8525L10.0157 13.8506L9.8302 13.8936C9.08724 14.0649 8.31759 13.7883 7.85266 13.1953L7.76379 13.0732L7.57532 12.79C7.55841 12.765 7.53029 12.75 7.50012 12.75C7.48491 12.75 7.47017 12.7538 7.45715 12.7607Z" fill="black" style="fill:black;fill-opacity:1;"/>
</svg>
