<svg width="24" height="24" viewBox="0 0 24 24" fill="none" xmlns="http://www.w3.org/2000/svg">
<path d="M4.00012 19V5C4.00012 3.34315 5.34327 2 7.00012 2H12.172C12.9675 2.00007 13.7305 2.31638 14.2931 2.87891L19.1212 7.70703C19.6838 8.26959 20 9.03259 20.0001 9.82812V19C20.0001 20.6569 18.657 22 17.0001 22H7.00012C5.34328 22 4.00012 20.6569 4.00012 19ZM15.5001 16C16.0524 16 16.5001 16.4477 16.5001 17C16.5001 17.5523 16.0524 18 15.5001 18H9.00012C8.44784 18 8.00012 17.5523 8.00012 17C8.00012 16.4477 8.44784 16 9.00012 16H15.5001ZM12.0001 12C12.5524 12 13.0001 12.4477 13.0001 13C13.0001 13.5523 12.5524 14 12.0001 14H9.00012C8.44784 14 8.00012 13.5523 8.00012 13C8.00012 12.4477 8.44784 12 9.00012 12H12.0001ZM14.0001 7C14.0001 7.5523 14.4478 8 15.0001 8H16.5861L14.0001 5.41406V7ZM6.00012 19C6.00012 19.5523 6.44783 20 7.00012 20H17.0001C17.5524 20 18.0001 19.5523 18.0001 19V10H15.0001C13.3432 10 12.0001 8.65685 12.0001 7V4H7.00012C6.44784 4 6.00012 4.44771 6.00012 5V19Z" fill="black" style="fill:black;fill-opacity:1;"/>
</svg>
