<svg width="24" height="24" viewBox="0 0 24 24" fill="none" xmlns="http://www.w3.org/2000/svg">
<path d="M15.1668 11.9234C15.9951 11.9236 16.6668 12.5951 16.6668 13.4234C16.6667 14.2516 15.995 14.9233 15.1668 14.9234C14.3385 14.9234 13.667 14.2517 13.6668 13.4234C13.6668 12.595 14.3384 11.9234 15.1668 11.9234Z" fill="black" style="fill:black;fill-opacity:1;"/>
<path fill-rule="evenodd" clip-rule="evenodd" d="M11.6297 1.76426C11.8742 1.71823 12.1254 1.71822 12.37 1.76426L12.492 1.7916L12.6424 1.8375C12.9868 1.96104 13.2806 2.18739 13.5135 2.3541L22.0819 8.48789L22.1619 8.55235C22.5419 8.88747 22.6144 9.46249 22.3133 9.8834C22.0118 10.3043 21.4435 10.4215 21.0037 10.1695L20.9178 10.1148L19.9998 9.45664V15.1998C19.9998 16.0233 20.0009 16.7022 19.9559 17.2525C19.9157 17.744 19.8352 18.201 19.6502 18.6324L19.5643 18.816C19.2288 19.4744 18.718 20.0255 18.0916 20.4098L17.8162 20.5641C17.331 20.8113 16.8138 20.9097 16.2518 20.9557C15.7014 21.0006 15.0235 21.0006 14.2 21.0006H9.79964C8.9762 21.0006 8.29825 21.0006 7.74789 20.9557C7.25602 20.9155 6.79877 20.8352 6.36703 20.65L6.18343 20.5641C5.52517 20.2286 4.9749 19.7178 4.59066 19.0914L4.43539 18.816C4.18828 18.3308 4.08971 17.8134 4.04379 17.2516C3.99886 16.7013 3.99984 16.023 3.99984 15.1998V9.45664L3.08187 10.1148C2.63289 10.436 2.0078 10.3322 1.68636 9.8834C1.36518 9.43442 1.469 8.80935 1.91781 8.48789L10.4862 2.3541L10.701 2.19981C10.9295 2.03939 11.2006 1.86959 11.5077 1.7916L11.6297 1.76426ZM11.993 3.74277L11.6502 3.98008L5.99984 8.025V15.1998C5.99984 16.0562 6.00018 16.6394 6.03695 17.0895C6.07274 17.5271 6.13805 17.7514 6.21761 17.9078L6.29476 18.0455C6.48685 18.3588 6.76241 18.614 7.09164 18.7818L7.22445 18.8395C7.374 18.8929 7.58251 18.9357 7.91097 18.9625C8.361 18.9993 8.94327 19.0006 9.79964 19.0006H14.2C15.0564 19.0006 15.6387 18.9993 16.0887 18.9625C16.527 18.9267 16.7517 18.8615 16.908 18.7818L17.0457 18.7047C17.3588 18.5126 17.6144 18.2369 17.7821 17.9078L17.8387 17.776C17.8923 17.6264 17.9359 17.418 17.9627 17.0895C17.9995 16.6394 17.9998 16.0562 17.9998 15.1998V8.025L12.3494 3.98008C12.1713 3.85256 12.0773 3.78637 12.0067 3.74277C12.0045 3.74144 12.0018 3.74008 11.9998 3.73887C11.9978 3.74007 11.9952 3.74145 11.993 3.74277Z" fill="black" style="fill:black;fill-opacity:1;"/>
</svg>
