<svg width="24" height="24" viewBox="0 0 24 24" fill="none" xmlns="http://www.w3.org/2000/svg">
<path d="M4.92874 5.92857C8.83397 2.02348 15.166 2.02348 19.0713 5.92857C22.8446 9.70189 22.9715 15.7398 19.4532 19.6669C19.0846 20.0782 18.4524 20.1135 18.041 19.745C17.6298 19.3765 17.5955 18.7442 17.9639 18.3329C20.7776 15.1925 20.6755 10.3609 17.6573 7.34264C14.533 4.21858 9.46697 4.21861 6.34281 7.34264C3.32454 10.3609 3.22251 15.1925 6.03617 18.3329C6.40456 18.7442 6.37019 19.3765 5.95902 19.745C5.54769 20.1135 4.91544 20.0782 4.54691 19.6669C1.02856 15.7399 1.15542 9.70192 4.92874 5.92857Z" fill="black" style="fill:black;fill-opacity:1;"/>
<path d="M8.29203 9.29283C8.68255 8.90265 9.31567 8.90249 9.70609 9.29283L12.7061 12.2928C13.0963 12.6833 13.0962 13.3164 12.7061 13.7069C12.3156 14.0974 11.6816 14.0974 11.291 13.7069L8.29203 10.7069C7.90159 10.3164 7.90153 9.68332 8.29203 9.29283Z" fill="black" style="fill:black;fill-opacity:1;"/>
</svg>
