<svg width="24" height="24" viewBox="0 0 24 24" fill="none" xmlns="http://www.w3.org/2000/svg">
<path d="M17.2061 3.00488C19.3194 3.11215 21 4.85994 21 7V17L20.9952 17.2061C20.8914 19.2512 19.2512 20.8913 17.2061 20.9951L17 21H12.75C12.1978 21 11.75 20.5523 11.75 20C11.75 19.4477 12.1978 19 12.75 19H17L17.2041 18.9893C18.1457 18.8938 18.8938 18.1456 18.9893 17.2041L19 17V7C19 5.96434 18.2128 5.11303 17.2041 5.01074L17 5H12.75C12.1978 5 11.75 4.55228 11.75 4C11.75 3.44772 12.1978 3 12.75 3H17L17.2061 3.00488Z" fill="black" style="fill:black;fill-opacity:1;"/>
<path d="M7.79302 6.79297C8.18354 6.40248 8.81657 6.40246 9.20708 6.79297C9.59755 7.18348 9.59755 7.81652 9.20708 8.20703L6.41411 11H15.25L15.3526 11.0049C15.8567 11.0562 16.25 11.4823 16.25 12C16.25 12.5177 15.8567 12.9438 15.3526 12.9951L15.25 13H6.41411L9.20708 15.793L9.27544 15.8691C9.59574 16.2619 9.57315 16.8409 9.20708 17.207C8.84098 17.5731 8.26196 17.5957 7.86919 17.2754L7.79302 17.207L3.29302 12.707C2.90249 12.3165 2.90249 11.6835 3.29302 11.293L7.79302 6.79297Z" fill="black" style="fill:black;fill-opacity:1;"/>
</svg>
