<svg width="24" height="24" viewBox="0 0 24 24" fill="none" xmlns="http://www.w3.org/2000/svg">
<path d="M15.293 16.7069C15.6835 17.0974 16.3166 17.0974 16.7071 16.7069C17.0975 16.3164 17.0976 15.6834 16.7071 15.2929L13.4141 11.9999L16.7071 8.70692C17.0975 8.31639 17.0976 7.68335 16.7071 7.29286C16.3166 6.90236 15.6835 6.90241 15.293 7.29286L12 10.5858L8.70708 7.29286C8.31658 6.90236 7.68355 6.90241 7.29302 7.29286C6.90249 7.68338 6.90249 8.31639 7.29302 8.70692L10.586 11.9999L7.29302 15.2929C6.90249 15.6834 6.90249 16.3164 7.29302 16.7069C7.68354 17.0974 8.31655 17.0974 8.70708 16.7069L12 13.4139L15.293 16.7069Z" fill="black" style="fill:black;fill-opacity:1;"/>
</svg>
