<svg width="24" height="24" viewBox="0 0 24 24" fill="none" xmlns="http://www.w3.org/2000/svg">
<path d="M18.1481 14.4561C18.4486 13.9929 19.0676 13.8608 19.5309 14.1611C19.994 14.4617 20.1261 15.0807 19.8258 15.5439C18.7021 17.2754 16.5541 19.5759 13.0006 19.9463V21C13.0006 21.5523 12.5529 22 12.0006 22C11.4486 21.9996 11.0006 21.5521 11.0006 21V19.9463C7.68967 19.6009 5.59913 17.5803 4.42053 15.9053L4.17639 15.5439L4.12464 15.4561C3.89323 15.0053 4.03723 14.443 4.47132 14.1611C4.9057 13.8795 5.47722 13.9778 5.79456 14.373L5.85413 14.4561L6.05921 14.7598C7.137 16.293 9.00103 17.9997 12.0006 18C15.2005 18 17.1084 16.058 18.1481 14.4561Z" fill="black" style="fill:black;fill-opacity:1;"/>
<path fill-rule="evenodd" clip-rule="evenodd" d="M11.9996 2C14.761 2 16.9996 4.23857 16.9996 7V11C16.9996 13.7614 14.761 16 11.9996 16C9.23837 15.9998 6.99964 13.7613 6.99964 11V7C6.99964 4.2387 9.23838 2.0002 11.9996 2ZM11.9996 4C10.3429 4.0002 8.99964 5.34327 8.99964 7V11C8.99964 12.6567 10.343 13.9998 11.9996 14C13.6565 14 14.9996 12.6568 14.9996 11V7C14.9996 5.34315 13.6565 4 11.9996 4Z" fill="black" style="fill:black;fill-opacity:1;"/>
</svg>
