<svg width="24" height="24" viewBox="0 0 24 24" fill="none" xmlns="http://www.w3.org/2000/svg">
<path d="M12.6056 2.05271C12.9833 1.69852 13.5631 1.69439 13.9454 2.02732L14.0187 2.09763L14.4708 2.60153C16.6726 5.16666 17.9991 8.43507 17.9991 12C17.9991 15.8024 16.4895 19.2672 14.0187 21.9013L13.9454 21.9726C13.5632 22.3054 12.9833 22.3013 12.6056 21.9472C12.2028 21.5694 12.1828 20.936 12.5606 20.5332L12.9532 20.0957C14.8655 17.8682 15.9991 15.0539 15.9991 12C15.9991 8.94603 14.8655 6.1318 12.9532 3.90427L12.5606 3.46677L12.4942 3.38864C12.1863 2.98581 12.2278 2.40703 12.6056 2.05271Z" fill="black" style="fill:black;fill-opacity:1;"/>
<path d="M11.1925 4.2861C12.9439 6.37144 13.9991 9.06393 13.9991 12C13.9991 14.9358 12.9437 17.6276 11.1925 19.7129L11.1222 19.7881C10.7586 20.1412 10.1798 20.1689 9.7833 19.8359C9.36043 19.4807 9.30605 18.8496 9.66123 18.4267L9.92784 18.0957C11.2275 16.4081 11.9991 14.2953 11.9991 12C11.9991 9.55173 11.1214 7.31072 9.66123 5.57224L11.1925 4.2861Z" fill="black" style="fill:black;fill-opacity:1;"/>
<path d="M7.96397 17.331C7.5958 17.7426 6.96349 17.7782 6.55186 17.4101C6.14026 17.042 6.10561 16.4097 6.47373 15.998L7.96397 17.331Z" fill="black" style="fill:black;fill-opacity:1;"/>
<path d="M6.55186 6.58982C6.93785 6.24462 7.51837 6.25382 7.89268 6.59567L7.96397 6.66892L8.19541 6.93942C9.32223 8.31775 9.99912 10.0808 9.99912 12C9.99909 14.0471 9.22885 15.9166 7.96397 17.331L6.47373 15.998C7.42341 14.9361 7.99909 13.5364 7.99912 12C7.99912 10.5597 7.49326 9.23942 6.64756 8.20505L6.47373 8.00192L6.40928 7.92185C6.11151 7.51191 6.16614 6.93493 6.55186 6.58982Z" fill="black" style="fill:black;fill-opacity:1;"/>
<path d="M9.7833 4.16403C10.2062 3.80885 10.8373 3.86324 11.1925 4.2861L9.66123 5.57224C9.3061 5.14938 9.36054 4.51925 9.7833 4.16403Z" fill="black" style="fill:black;fill-opacity:1;"/>
</svg>
