<svg width="24" height="24" viewBox="0 0 24 24" fill="none" xmlns="http://www.w3.org/2000/svg">
<path fill-rule="evenodd" clip-rule="evenodd" d="M10.3037 2.39835C11.4656 1.84706 12.8297 1.88644 13.9629 2.51651L19.4316 5.55851C20.7002 6.26405 21.4869 7.60208 21.4873 9.05362V14.9452C21.4871 16.3969 20.7002 17.7346 19.4316 18.4403L13.9629 21.4823C12.754 22.1546 11.2831 22.1546 10.0742 21.4823L4.60547 18.4403C3.33672 17.7347 2.54996 16.397 2.5498 14.9452V9.05362C2.55024 7.60204 3.33681 6.26404 4.60547 5.55851L10.0742 2.51651L10.3037 2.39835ZM13.001 12.4892V19.7274L18.46 16.6923C19.0938 16.3394 19.4871 15.6707 19.4873 14.9452V9.05362C19.4872 8.95376 19.4784 8.85474 19.4639 8.75772L13.001 12.4892ZM4.56934 8.77628C4.55658 8.86727 4.54986 8.96018 4.5498 9.05362V14.9452C4.54996 15.6709 4.94311 16.3394 5.57715 16.6923L11.001 19.7079V12.4892L4.56934 8.77628ZM5.80469 7.1796L12.001 10.7577L14.1436 9.51944L7.96582 5.97745L5.80469 7.1796ZM12.9902 4.26456C12.3862 3.92888 11.651 3.92899 11.0469 4.26456L10.0068 4.84268L16.1475 8.36222L18.2139 7.16983L12.9902 4.26456Z" fill="black" style="fill:black;fill-opacity:1;"/>
</svg>
