<svg width="24" height="24" viewBox="0 0 24 24" fill="none" xmlns="http://www.w3.org/2000/svg">
<path fill-rule="evenodd" clip-rule="evenodd" d="M6.7527 3C8.4095 3.00018 9.87029 4.08692 10.3465 5.67383L10.6443 6.66895C10.9428 7.66424 10.671 8.74272 9.9363 9.47754C9.66971 9.74413 9.6534 10.0874 9.78786 10.3047C10.7692 11.8906 12.1102 13.2317 13.6961 14.2129C13.9134 14.347 14.2559 14.3298 14.5222 14.0635C15.257 13.3288 16.3364 13.0569 17.3318 13.3555L18.3259 13.6533C19.9132 14.1294 20.9998 15.591 20.9998 17.248C20.9996 19.2635 19.3155 21.136 17.0896 20.752C10.0322 19.5339 4.46678 13.9676 3.2488 6.91016C2.86465 4.6841 4.73712 3 6.7527 3ZM6.7527 5C5.72825 5 5.08667 5.8006 5.2195 6.57031C6.29369 12.794 11.2067 17.7072 17.4304 18.7812C18.2 18.9138 18.9996 18.2722 18.9998 17.248C18.9998 16.4742 18.4927 15.7917 17.7517 15.5693L16.7566 15.2715C16.466 15.1844 16.1508 15.2631 15.9363 15.4775C15.1013 16.3126 13.7506 16.5981 12.6433 15.9131C10.7939 14.7688 9.23099 13.2058 8.08669 11.3564C7.4018 10.2492 7.68738 8.89834 8.52224 8.06348C8.73673 7.84887 8.81645 7.53381 8.72927 7.24316L8.43044 6.24902C8.20812 5.50798 7.52635 5.00018 6.7527 5Z" fill="black" style="fill:black;fill-opacity:1;"/>
</svg>
