<svg width="24" height="24" viewBox="0 0 24 24" fill="none" xmlns="http://www.w3.org/2000/svg">
<path d="M14.998 7C15.5503 7 15.998 7.44772 15.998 8C15.998 10.2091 14.2071 12 11.998 12C9.78897 11.9999 7.99803 10.2091 7.99803 8C7.99803 7.44779 8.44585 7.00012 8.99803 7C9.55032 7 9.99803 7.44772 9.99803 8C9.99803 9.10448 10.8935 9.99986 11.998 10C13.1026 10 13.998 9.10455 13.998 8C13.998 7.4478 14.4459 7.00014 14.998 7Z" fill="black" style="fill:black;fill-opacity:1;"/>
<path fill-rule="evenodd" clip-rule="evenodd" d="M16.1797 3C18.2919 3 20.0401 4.6428 20.1719 6.75098L20.7969 16.751L20.8047 16.9658C20.8258 19.1734 19.0397 21 16.8047 21H7.19139C4.88439 20.9999 3.05555 19.0535 3.1992 16.751L3.8242 6.75098L3.84178 6.55469C4.06593 4.54163 5.77012 3.00012 7.81639 3H16.1797ZM7.81639 5C6.8263 5.00011 5.99586 5.72188 5.84178 6.68066L5.8203 6.875L5.1953 16.875C5.12334 18.0263 6.03784 18.9999 7.19139 19H16.8047C17.8862 19 18.7573 18.1445 18.8027 17.0889L18.8008 16.875L18.1758 6.875C18.1098 5.82108 17.2358 5 16.1797 5H7.81639Z" fill="black" style="fill:black;fill-opacity:1;"/>
</svg>
