<svg width="24" height="24" viewBox="0 0 24 24" fill="none" xmlns="http://www.w3.org/2000/svg">
<path fill-rule="evenodd" clip-rule="evenodd" d="M11.001 4C11.5093 4.00052 11.936 4.38258 11.9932 4.8877C12.2549 7.19864 12.9534 8.84799 14.0547 9.96973C15.1502 11.0854 16.7614 11.7971 19.0889 12.0039C19.605 12.05 20.0005 12.4827 20 13.001C19.9994 13.5194 19.6024 13.9514 19.0859 13.9961C16.798 14.1942 15.1513 14.9053 14.0283 16.0283C12.9053 17.1513 12.1942 18.798 11.9961 21.0859C11.9514 21.6024 11.5194 21.9994 11.001 22C10.4827 22.0005 10.05 21.605 10.0039 21.0889C9.79714 18.7614 9.0854 17.1502 7.96973 16.0547C6.84799 14.9534 5.19864 14.2549 2.8877 13.9932C2.38258 13.936 2.00052 13.5093 2 13.001C1.9995 12.4927 2.38076 12.0651 2.88574 12.0068C5.2366 11.7356 6.84943 11.0373 7.94336 9.94336C9.03729 8.84943 9.73564 7.2366 10.0068 4.88574L10.0215 4.79199C10.1184 4.33415 10.5245 3.99953 11.001 4ZM10.998 8.9541C10.582 9.86957 10.042 10.6729 9.35742 11.3574C8.67285 12.042 7.86957 12.582 6.9541 12.998C7.86961 13.4115 8.67938 13.9487 9.37109 14.6279C10.045 15.2896 10.5839 16.0635 10.998 16.9443C11.4097 16.0629 11.9457 15.2829 12.6143 14.6143C13.2829 13.9457 14.0629 13.4097 14.9443 12.998C14.0635 12.5839 13.2896 12.045 12.6279 11.3711C11.9487 10.6794 11.4115 9.86961 10.998 8.9541Z" fill="black" style="fill:black;fill-opacity:1;"/>
<path d="M18.5 2C18.6976 2.0002 18.8644 2.14847 18.8867 2.34473C18.9885 3.24355 19.2602 3.88504 19.6885 4.32129C20.1146 4.75514 20.7404 5.0319 21.6455 5.1123C21.8462 5.13013 22 5.29859 22 5.5C21.9998 5.70161 21.8454 5.87031 21.6445 5.8877C20.7548 5.96473 20.1145 6.24103 19.6777 6.67773C19.2411 7.11445 18.9648 7.75479 18.8877 8.64453C18.8704 8.84539 18.7016 8.99977 18.5 9C18.2986 9.00003 18.1302 8.84619 18.1123 8.64551C18.0319 7.74043 17.7552 7.1145 17.3213 6.68848C16.8851 6.26013 16.2435 5.98853 15.3447 5.88672C15.1485 5.86432 15.0002 5.69758 15 5.5C15 5.30249 15.1485 5.13592 15.3447 5.11328C16.2588 5.00779 16.8861 4.73687 17.3115 4.31152C17.7369 3.88616 18.0077 3.25877 18.1133 2.34473C18.1359 2.14847 18.3025 2 18.5 2Z" fill="black" style="fill:black;fill-opacity:1;"/>
</svg>
