<svg width="24" height="24" viewBox="0 0 24 24" fill="none" xmlns="http://www.w3.org/2000/svg">
<path d="M21.9571 15.3151C22.2963 16.2745 21.896 17.4653 20.7569 17.8795L12.6827 20.816C12.2415 20.9764 11.7577 20.9764 11.3165 20.816L3.24227 17.8795C2.10336 17.4653 1.70291 16.2745 2.04208 15.3151L12.0001 18.9362L21.9571 15.3151Z" fill="black" style="fill:black;fill-opacity:1;"/>
<path d="M21.9571 11.3151C22.2963 12.2745 21.8959 13.4653 20.7569 13.8795L12.6827 16.816C12.2415 16.9764 11.7577 16.9764 11.3165 16.816L3.24227 13.8795C2.10336 13.4653 1.70291 12.2745 2.04208 11.3151L12.0001 14.9362L21.9571 11.3151Z" fill="black" style="fill:black;fill-opacity:1;"/>
<path fill-rule="evenodd" clip-rule="evenodd" d="M11.3165 3.1842C11.7577 3.02388 12.2415 3.02389 12.6827 3.1842L20.7569 6.12073C22.5123 6.75905 22.5122 9.24117 20.7569 9.87952L12.6827 12.816C12.2415 12.9764 11.7577 12.9764 11.3165 12.816L3.24227 9.87952C1.48709 9.24114 1.48705 6.75909 3.24227 6.12073L11.3165 3.1842ZM3.92587 8.00061L12.0001 10.9362L20.0733 8.00061L12.0001 5.06409L3.92587 8.00061Z" fill="black" style="fill:black;fill-opacity:1;"/>
</svg>
