<svg width="24" height="24" viewBox="0 0 24 24" fill="none" xmlns="http://www.w3.org/2000/svg">
<path d="M21.9571 15.3153C22.2963 16.2748 21.896 17.4655 20.7569 17.8798L12.6827 20.8163C12.2415 20.9767 11.7577 20.9767 11.3165 20.8163L3.24227 17.8798C2.10336 17.4655 1.70291 16.2748 2.04208 15.3153L12.0001 18.9364L21.9571 15.3153Z" fill="black" style="fill:black;fill-opacity:1;"/>
<path d="M21.9571 11.3153C22.2963 12.2748 21.8959 13.4655 20.7569 13.8798L12.6827 16.8163C12.2415 16.9767 11.7577 16.9767 11.3165 16.8163L3.24227 13.8798C2.10336 13.4655 1.70291 12.2748 2.04208 11.3153L12.0001 14.9364L21.9571 11.3153Z" fill="black" style="fill:black;fill-opacity:1;"/>
<path fill-rule="evenodd" clip-rule="evenodd" d="M11.3165 3.18445C11.7577 3.02413 12.2415 3.02413 12.6827 3.18445L20.7569 6.12097C22.5123 6.75929 22.5122 9.24141 20.7569 9.87976L12.6827 12.8163C12.2415 12.9766 11.7577 12.9767 11.3165 12.8163L3.24227 9.87976C1.48709 9.24139 1.48705 6.75933 3.24227 6.12097L11.3165 3.18445ZM3.92587 8.00085L12.0001 10.9364L20.0733 8.00085L12.0001 5.06433L3.92587 8.00085Z" fill="black" style="fill:black;fill-opacity:1;"/>
</svg>
