<svg width="24" height="24" viewBox="0 0 24 24" fill="none" xmlns="http://www.w3.org/2000/svg">
<path d="M20.2192 15.375C20.5643 14.9439 21.1943 14.8738 21.6255 15.2188C22.0564 15.5637 22.1265 16.1938 21.7817 16.625L17.7817 21.625C17.6042 21.8469 17.3398 21.9821 17.0561 21.998C16.7722 22.0138 16.4946 21.908 16.2934 21.707L14.2934 19.707C13.9029 19.3165 13.9029 18.6835 14.2934 18.293C14.684 17.9027 15.317 17.9025 15.7075 18.293L16.9165 19.502L20.2192 15.375Z" fill="black" style="fill:black;fill-opacity:1;"/>
<path fill-rule="evenodd" clip-rule="evenodd" d="M17.3989 3C19.3892 3.00038 21.0773 4.46429 21.3589 6.43457L21.521 7.57227C21.6536 8.50081 21.4455 9.38984 21.0005 10.125V12.5C21.0005 13.0521 20.5526 13.4998 20.0005 13.5C19.4482 13.5 19.0005 13.0523 19.0005 12.5V11.7686C18.5899 11.917 18.1465 11.9999 17.6811 12C16.5534 12 15.5322 11.5163 14.8208 10.7402C14.1288 11.5106 13.1256 11.9998 12.0005 12C10.8754 12 9.8715 11.5113 9.17918 10.7412C8.46817 11.5167 7.44784 11.9997 6.32078 12C5.85529 12 5.41119 11.917 5.00047 11.7686V17C5.00047 18.1046 5.89589 19 7.00047 19H9.00047V17C9.00047 15.3431 10.3436 14 12.0005 14C12.5526 14.0002 13.0005 14.4479 13.0005 15C13.0005 15.5175 12.6069 15.9436 12.103 15.9951L11.8979 16.0049C11.3938 16.0562 11.0005 16.4823 11.0005 17V20C11.0005 20.5521 10.5526 20.9998 10.0005 21H7.00047C4.79135 21 3.00047 19.2092 3.00047 17V10.127C2.55455 9.39146 2.34721 8.50156 2.47996 7.57227L2.64305 6.43457C2.92458 4.46401 4.61243 3 6.60301 3H17.3989ZM6.60301 5C5.60782 5 4.76344 5.73169 4.62254 6.7168L4.46043 7.85547C4.29878 8.98736 5.1774 10 6.32078 10C7.30613 9.99955 8.1246 9.23783 8.19481 8.25488L8.21336 7.98828C8.21436 7.97107 8.21506 7.95378 8.21629 7.93652L8.42625 5H6.60301ZM10.2124 8.06641L10.2114 8.0791C10.1374 9.11711 10.9598 10 12.0005 10C13.0407 9.99952 13.8625 9.11686 13.7886 8.0791L13.5688 5H10.4321L10.2124 8.06641ZM15.8071 8.25488C15.8773 9.2381 16.6954 10 17.6811 10C18.8242 9.9997 19.703 8.98718 19.5415 7.85547L19.3784 6.7168C19.2374 5.7319 18.3938 5.00038 17.3989 5H15.5737L15.8071 8.25488Z" fill="black" style="fill:black;fill-opacity:1;"/>
</svg>
