<svg width="24" height="24" viewBox="0 0 24 24" fill="none" xmlns="http://www.w3.org/2000/svg">
<path fill-rule="evenodd" clip-rule="evenodd" d="M13.124 2.00802L13.5781 2.06466L13.8066 2.09982C16.0669 2.51312 17.5177 4.75672 16.9668 6.98751L16.9043 7.21017L16.3535 9.00021H18C20.4831 9.00021 22.3455 11.2309 21.9482 13.6438L21.9023 13.8781L21.0576 17.633C20.6356 19.5081 19.1475 21.0705 17.1543 21.3313L16.96 21.3527C14.4044 21.5742 11.8298 21.4158 9.33398 20.5998L8.83594 20.427C8.45098 20.2868 8.12235 20.0693 7.85254 19.802C7.12677 20.5408 6.11748 21.0002 5 21.0002C3.34317 21.0002 2.00002 19.6571 2 18.0002V12.0002C2 10.3433 3.34315 9.00021 5 9.00021C5.85919 9.00021 6.65474 9.2716 7.30664 9.73263C7.50906 9.24157 7.80433 8.79299 8.16797 8.40939L8.47168 8.08322C9.97687 6.44076 11.2276 4.64798 12.0771 2.61447L12.1533 2.46701C12.3573 2.14277 12.7342 1.95929 13.124 2.00802ZM13.6016 4.10373C12.6635 6.09812 11.3961 7.85277 9.94629 9.43478L9.61914 9.78537C9.22091 10.2055 9.00007 10.7364 9 11.2697V17.7258C9.0002 18.1342 9.23038 18.4426 9.51953 18.5481L9.9541 18.6985C12.1334 19.4111 14.4263 19.5651 16.7871 19.3606L16.9932 19.3332C18.0132 19.1538 18.8533 18.3187 19.1064 17.1936L19.9512 13.4397L19.9893 13.2053C20.1117 12.0445 19.2014 11.0002 18 11.0002H15C14.6827 11.0002 14.3838 10.8492 14.1953 10.594C14.007 10.3388 13.9508 10.0094 14.0439 9.70626L14.9932 6.62228L15.0488 6.39865C15.241 5.37402 14.6039 4.37147 13.6016 4.10373ZM5 11.0002C4.44771 11.0002 4 11.4479 4 12.0002V18.0002C4.00002 18.5525 4.44772 19.0002 5 19.0002C6.10456 19.0002 6.99998 18.1048 7 17.0002V13.0002C7 11.8956 6.10458 11.0002 5 11.0002Z" fill="black" style="fill:black;fill-opacity:1;"/>
</svg>
