<svg width="24" height="24" viewBox="0 0 24 24" fill="none" xmlns="http://www.w3.org/2000/svg">
<path fill-rule="evenodd" clip-rule="evenodd" d="M7.55327 2.60876C10.1109 2.43923 12.6814 2.66867 15.1666 3.5736L15.3804 3.66149C15.6741 3.79732 15.9301 3.98083 16.148 4.19665C16.8737 3.4585 17.8836 3.00036 19.0005 3.00036C20.6572 3.0006 22.0005 4.34366 22.0005 6.00036V12.0004C22.0005 13.6571 20.6572 15.0001 19.0005 15.0004C18.1408 15.0004 17.345 14.7275 16.6929 14.266C16.5156 14.6965 16.269 15.0955 15.9654 15.4457L15.8345 15.5912C14.1936 17.3221 12.8306 19.2171 11.9244 21.3861C11.7513 21.8002 11.3228 22.048 10.8775 21.9925L10.4244 21.9359C7.95725 21.6275 6.36608 19.1668 7.09722 16.7904L7.648 15.0004H6.00152C3.43836 15.0002 1.53665 12.6231 2.09917 10.1224L2.9439 6.36755L3.03863 6.00915C3.57785 4.2372 5.08233 2.8177 7.04253 2.64782L7.55327 2.60876ZM14.482 5.45251C12.318 4.66453 10.0374 4.44805 7.68609 4.60388L7.21538 4.64001C6.17309 4.73034 5.28321 5.50123 4.95366 6.5863L4.89507 6.807L4.05034 10.5619C3.76945 11.812 4.72022 13.0002 6.00152 13.0004H9.00152C9.3187 13.0005 9.61775 13.1515 9.8062 13.4066C9.99439 13.6617 10.0507 13.9913 9.95757 14.2943L9.00835 17.3783C8.67054 18.4764 9.3252 19.6085 10.4 19.8959C11.4079 17.7532 12.7969 15.8877 14.3824 14.2152L14.524 14.0521C14.8328 13.6619 15.0014 13.1973 15.0015 12.7308V11.0258C15.0015 11.0173 15.0005 11.0088 15.0005 11.0004V7.00036C15.0005 6.98638 15.0014 6.97232 15.0015 6.95837V6.27575C15.0015 5.91825 14.8251 5.63668 14.5875 5.50134L14.482 5.45251ZM19.0005 5.00036C17.9028 5.00036 17.0125 5.88468 17.0015 6.97985V11.0199C17.0121 12.1155 17.9025 13.0004 19.0005 13.0004C19.5526 13.0001 20.0005 12.5525 20.0005 12.0004V6.00036C20.0005 5.44821 19.5526 5.0006 19.0005 5.00036Z" fill="black" style="fill:black;fill-opacity:1;"/>
</svg>
