<svg width="24" height="24" viewBox="0 0 24 24" fill="none" xmlns="http://www.w3.org/2000/svg">
<path fill-rule="evenodd" clip-rule="evenodd" d="M7.55315 2.60851C10.1108 2.43899 12.6813 2.66842 15.1664 3.57336L15.3803 3.66125C15.674 3.79708 15.93 3.98059 16.1479 4.19641C16.8736 3.45825 17.8835 3.00012 19.0004 3.00012C20.6571 3.00035 22.0004 4.34342 22.0004 6.00012V12.0001C22.0004 13.6568 20.6571 14.9999 19.0004 15.0001C18.1407 15.0001 17.3449 14.7273 16.6928 14.2657C16.5154 14.6963 16.2689 15.0952 15.9653 15.4454L15.8344 15.5909C14.1935 17.3219 12.8305 19.2168 11.9242 21.3859C11.7511 21.7999 11.3227 22.0478 10.8774 21.9923L10.4242 21.9357C7.95713 21.6273 6.36596 19.1665 7.0971 16.7902L7.64788 15.0001H6.00139C3.43824 15 1.53652 12.6228 2.09905 10.1222L2.94378 6.3673L3.0385 6.00891C3.57773 4.23696 5.08221 2.81745 7.04241 2.64758L7.55315 2.60851ZM14.4819 5.45226C12.3179 4.66428 10.0373 4.44781 7.68596 4.60363L7.21526 4.63976C6.17297 4.73009 5.28309 5.50099 4.95354 6.58605L4.89495 6.80676L4.05022 10.5616C3.76933 11.8118 4.7201 13 6.00139 13.0001H9.00139C9.31858 13.0003 9.61763 13.1512 9.80608 13.4064C9.99427 13.6615 10.0506 13.991 9.95745 14.2941L9.00823 17.378C8.67041 18.4761 9.32508 19.6082 10.3998 19.8956C11.4078 17.753 12.7967 15.8875 14.3823 14.215L14.5239 14.0519C14.8326 13.6617 15.0013 13.197 15.0014 12.7306V11.0255C15.0013 11.017 15.0004 11.0086 15.0004 11.0001V7.00012C15.0004 6.98613 15.0013 6.97207 15.0014 6.95812V6.27551C15.0014 5.918 14.825 5.63643 14.5873 5.50109L14.4819 5.45226ZM19.0004 5.00012C17.9026 5.00012 17.0123 5.88444 17.0014 6.97961V11.0196C17.0119 12.1152 17.9024 13.0001 19.0004 13.0001C19.5525 12.9999 20.0004 12.5522 20.0004 12.0001V6.00012C20.0004 5.44797 19.5525 5.00035 19.0004 5.00012Z" fill="black" style="fill:black;fill-opacity:1;"/>
</svg>
