<svg width="24" height="24" viewBox="0 0 24 24" fill="none" xmlns="http://www.w3.org/2000/svg">
<path d="M12.1278 13.7569C12.758 13.8209 13.2498 14.3529 13.2498 15C13.2498 15.6904 12.6902 16.25 11.9998 16.25C11.3527 16.25 10.8208 15.7582 10.7567 15.128L10.7498 15L10.7567 14.8721C10.8208 14.2419 11.3527 13.7501 11.9998 13.75L12.1278 13.7569Z" fill="black" style="fill:black;fill-opacity:1;"/>
<path d="M11.9998 7.88479C12.5521 7.8848 12.9998 8.33255 12.9998 8.88479V11.919C12.9998 12.4713 12.5521 12.919 11.9998 12.919C11.4476 12.9189 10.9998 12.4712 10.9998 11.919V8.88479C10.9999 8.33258 11.4476 7.88485 11.9998 7.88479Z" fill="black" style="fill:black;fill-opacity:1;"/>
<path fill-rule="evenodd" clip-rule="evenodd" d="M8.77817 3.68167C10.402 1.36462 13.8707 1.4421 15.3719 3.91311L21.4032 13.8438L21.5438 14.0957C22.8974 16.713 21.0774 20 18.0301 20H5.96957C2.82409 19.9999 0.98605 16.4974 2.59653 13.8448L8.62778 3.91311L8.77817 3.68167ZM13.6629 4.9512C12.9164 3.72254 11.2179 3.68407 10.412 4.83597L10.3368 4.9512L4.30649 14.8828C3.46246 16.273 4.46491 17.9999 5.96957 18H18.0301C19.4879 18 20.4747 16.3789 19.7674 15.0137L19.6932 14.8828L13.6629 4.9512Z" fill="black" style="fill:black;fill-opacity:1;"/>
</svg>
