<svg width="24" height="24" viewBox="0 0 24 24" fill="none" xmlns="http://www.w3.org/2000/svg">
<path d="M5.86933 4.22482C6.2621 3.90455 6.84113 3.92709 7.20722 4.29318C7.57303 4.65929 7.59578 5.2384 7.27558 5.63107L7.20722 5.70724L4.91425 8.00021H17.0002C19.7615 8.0004 22.0002 10.239 22.0002 13.0002V14.0002C22 16.7613 19.7614 19 17.0002 19.0002H12.0002C11.448 19.0002 11.0003 18.5524 11.0002 18.0002C11.0002 17.4479 11.4479 17.0002 12.0002 17.0002H17.0002C18.6568 17 20 15.6568 20.0002 14.0002V13.0002C20.0002 11.3435 18.6569 10.0004 17.0002 10.0002H4.91425L7.20722 12.2932L7.27558 12.3694C7.59564 12.7621 7.57316 13.3412 7.20722 13.7072C6.84119 14.0732 6.26207 14.0957 5.86933 13.7756L5.79315 13.7072L2.50018 10.4143C1.71916 9.63324 1.7192 8.36721 2.50018 7.58615L5.79315 4.29318L5.86933 4.22482Z" fill="black" style="fill:black;fill-opacity:1;"/>
</svg>
