<svg width="24" height="24" viewBox="0 0 24 24" fill="none" xmlns="http://www.w3.org/2000/svg">
<path fill-rule="evenodd" clip-rule="evenodd" d="M16.4999 14.25C17.7426 14.25 18.7499 15.2573 18.7499 16.5C18.7499 17.7427 17.7426 18.75 16.4999 18.75C15.2574 18.7499 14.2499 17.7426 14.2499 16.5C14.2499 15.2574 15.2574 14.2501 16.4999 14.25ZM16.4999 15.75C16.0858 15.7501 15.7499 16.0858 15.7499 16.5C15.7499 16.9142 16.0858 17.2499 16.4999 17.25C16.9141 17.25 17.2499 16.9142 17.2499 16.5C17.2499 16.0858 16.9141 15.75 16.4999 15.75Z" fill="black" style="fill:black;fill-opacity:1;"/>
<path fill-rule="evenodd" clip-rule="evenodd" d="M16.4999 11.25C17.0316 11.25 17.5281 11.5158 17.8232 11.958L18.0116 12.2412L18.0556 12.2959C18.1651 12.4153 18.3318 12.4688 18.4931 12.4316L18.6786 12.3887L18.8827 12.3555C19.3592 12.3084 19.8369 12.4758 20.1806 12.8193C20.5242 13.163 20.6915 13.6406 20.6444 14.1172L20.6112 14.3213L20.5683 14.5068C20.5257 14.6912 20.6014 14.8833 20.7587 14.9883L21.0419 15.1768L21.1991 15.2959C21.5465 15.5959 21.7499 16.0345 21.7499 16.5C21.7499 16.9655 21.5465 17.4041 21.1991 17.7041L21.0419 17.8232L20.7587 18.0117C20.6014 18.1167 20.5257 18.3088 20.5683 18.4932L20.6112 18.6787L20.6444 18.8828C20.6915 19.3594 20.5242 19.837 20.1806 20.1807C19.8369 20.5242 19.3592 20.6916 18.8827 20.6445L18.6786 20.6113L18.4931 20.5684C18.3318 20.5312 18.1651 20.5847 18.0556 20.7041L18.0116 20.7588L17.8232 21.042C17.5281 21.4842 17.0316 21.75 16.4999 21.75C16.0345 21.7499 15.5958 21.5465 15.2958 21.1992L15.1767 21.042L14.9882 20.7588C14.8963 20.6211 14.7378 20.5458 14.5761 20.5576L14.5067 20.5684L14.3212 20.6113C13.78 20.7361 13.212 20.5734 12.8192 20.1807C12.4265 19.7879 12.2637 19.2199 12.3886 18.6787L12.4316 18.4932L12.4423 18.4238C12.4525 18.2852 12.3982 18.1496 12.2958 18.0557L12.2411 18.0117L11.9579 17.8232C11.5157 17.5282 11.2499 17.0317 11.2499 16.5C11.2499 15.9683 11.5157 15.4718 11.9579 15.1768L12.2411 14.9883L12.2958 14.9443C12.3982 14.8504 12.4525 14.7148 12.4423 14.5762L12.4316 14.5068L12.3886 14.3213C12.2637 13.7801 12.4265 13.2121 12.8192 12.8193C13.212 12.4266 13.78 12.2639 14.3212 12.3887L14.5067 12.4316L14.5761 12.4424C14.7377 12.4542 14.8963 12.3789 14.9882 12.2412L15.1767 11.958L15.2958 11.8008C15.5957 11.4535 16.0345 11.2501 16.4999 11.25ZM16.4569 12.7607L16.4247 12.79L16.2362 13.0732C15.8133 13.7075 15.0632 14.0342 14.3183 13.9219L14.1698 13.8936L13.9843 13.8506C13.947 13.8421 13.9068 13.8528 13.8798 13.8799C13.8528 13.907 13.8419 13.9471 13.8505 13.9844L13.8935 14.1699L13.9218 14.3184C14.0267 15.0139 13.7488 15.7134 13.1952 16.1475L13.0732 16.2363L12.79 16.4248C12.765 16.4417 12.7499 16.4699 12.7499 16.5C12.7499 16.5301 12.765 16.5583 12.79 16.5752L13.0732 16.7637L13.1952 16.8525C13.7488 17.2866 14.0267 17.9861 13.9218 18.6816L13.8935 18.8301L13.8505 19.0156C13.8419 19.0529 13.8528 19.093 13.8798 19.1201C13.9068 19.1471 13.9461 19.1568 13.9833 19.1484L14.1698 19.1064L14.3183 19.0781C15.0632 18.9658 15.8133 19.2924 16.2362 19.9268L16.4247 20.21L16.4569 20.2393C16.4699 20.2462 16.4848 20.25 16.4999 20.25C16.5301 20.25 16.5582 20.2349 16.5751 20.21L16.7636 19.9268L16.8525 19.8047C17.3173 19.2118 18.0871 18.9352 18.83 19.1064L19.0155 19.1484C19.0528 19.157 19.0929 19.1472 19.12 19.1201C19.147 19.0931 19.1577 19.0538 19.1493 19.0166L19.1064 18.8301C18.9237 18.0379 19.2502 17.2148 19.9267 16.7637L20.2099 16.5752L20.2392 16.543C20.2462 16.53 20.2499 16.5152 20.2499 16.5C20.2499 16.4848 20.2462 16.47 20.2392 16.457L20.2099 16.4248L19.9267 16.2363C19.2502 15.7852 18.9237 14.9621 19.1064 14.1699L19.1493 13.9834C19.1577 13.9462 19.147 13.9069 19.12 13.8799C19.1064 13.8663 19.0891 13.8576 19.0712 13.8525L19.0155 13.8506L18.83 13.8936C18.0871 14.0648 17.3173 13.7882 16.8525 13.1953L16.7636 13.0732L16.5751 12.79C16.5582 12.7651 16.53 12.75 16.4999 12.75C16.4848 12.75 16.4699 12.7538 16.4569 12.7607Z" fill="black" style="fill:black;fill-opacity:1;"/>
<path d="M9.81241 12C10.3646 12.0002 10.8124 12.4478 10.8124 13C10.8124 13.5522 10.3646 13.9998 9.81241 14C7.37566 14.0001 5.45192 15.1793 4.3378 16.9697L4.12589 17.3359C3.91832 17.7224 3.97884 18.0769 4.22941 18.3887C4.50442 18.7305 5.01149 18.9999 5.60734 19H8.81241L8.91398 19.0049C9.41843 19.0559 9.81241 19.4821 9.81241 20C9.81241 20.5179 9.41843 20.9441 8.91398 20.9951L8.81241 21H5.60734C4.43582 20.9999 3.34309 20.4792 2.66984 19.6416C1.97241 18.7739 1.73603 17.5589 2.36515 16.3887L2.50089 16.1455C3.94305 13.6577 6.55967 12.0001 9.81241 12Z" fill="black" style="fill:black;fill-opacity:1;"/>
<path fill-rule="evenodd" clip-rule="evenodd" d="M9.81241 2C12.2977 2 14.3124 4.01472 14.3124 6.5C14.3124 8.98528 12.2977 11 9.81241 11C7.32723 10.9999 5.31241 8.98521 5.31241 6.5C5.31241 4.01479 7.32723 2.00012 9.81241 2ZM9.81241 4C8.4318 4.00012 7.31241 5.11936 7.31241 6.5C7.31241 7.88064 8.4318 8.99988 9.81241 9C11.1931 9 12.3124 7.88072 12.3124 6.5C12.3124 5.11928 11.1931 4 9.81241 4Z" fill="black" style="fill:black;fill-opacity:1;"/>
</svg>
