<svg width="24" height="24" viewBox="0 0 24 24" fill="none" xmlns="http://www.w3.org/2000/svg">
<g clip-path="url(#clip0_8119_10706)">
<path d="M1.79199 9.01074C2.1548 9.01076 2.62809 9.11198 2.91309 9.40039C3.24767 9.7297 3.2464 10.1607 3.24414 10.6318C3.24395 10.6706 3.24316 10.7097 3.24316 10.749V11.9688C3.24316 12.2973 3.3593 12.4616 3.48145 12.6338C3.49589 12.6541 3.51096 12.6744 3.52539 12.6953C3.57276 12.7646 3.58315 12.8513 3.52539 12.9033C3.37302 13.0372 3.10257 13.2844 2.9541 13.4238L2.94824 13.4219C2.89921 13.4666 2.82805 13.4748 2.77148 13.4414C2.56039 13.2568 2.49715 13.1562 2.39941 13.0029C2.38265 12.9766 2.36441 12.9491 2.34473 12.9189C1.9351 13.3572 1.64495 13.4883 1.11523 13.4883C0.488005 13.4881 0 13.0807 0 12.2666C4.68442e-05 11.6307 0.330197 11.1985 0.791992 10.9863C1.13298 10.8291 1.58817 10.7805 1.98145 10.7383C2.05448 10.7304 2.1257 10.7229 2.19336 10.7148V10.5547C2.19466 10.3821 2.19584 10.1898 2.10254 10.0449C2.01154 9.90073 1.8389 9.84185 1.68457 9.8418C1.40025 9.8418 1.14701 9.99464 1.08496 10.3115C1.07712 10.3853 1.0229 10.4447 0.953125 10.4561L0.236328 10.373C0.200579 10.3677 0.168407 10.3473 0.147461 10.3164C0.126589 10.2856 0.118262 10.2471 0.125 10.21C0.290598 9.2889 1.08276 9.01074 1.79199 9.01074ZM11.5605 9.00781C11.9227 9.00787 12.396 9.10907 12.6816 9.39746C13.0168 9.72497 13.0143 10.1525 13.0117 10.6211V11.9668C13.0117 12.2947 13.1279 12.4587 13.25 12.6309C13.2644 12.6511 13.2786 12.6716 13.293 12.6924C13.3431 12.7645 13.354 12.8496 13.29 12.8975C13.1377 13.0313 12.8672 13.2783 12.7188 13.417C12.6695 13.461 12.5994 13.4686 12.543 13.4355C12.331 13.2501 12.2681 13.1514 12.1689 12.9961C12.1524 12.9702 12.1347 12.9428 12.1152 12.9131C11.7062 13.3514 11.4145 13.4824 10.8867 13.4824C10.2593 13.4824 9.77051 13.0753 9.77051 12.2617C9.77055 11.6251 10.0993 11.1927 10.5664 10.9805C10.9081 10.8227 11.3654 10.7743 11.7598 10.7324C11.8314 10.7248 11.9014 10.7177 11.9678 10.71V10.5518C11.9691 10.379 11.9701 10.1863 11.876 10.042C11.7875 9.89807 11.6116 9.83888 11.458 9.83887C11.1737 9.83887 10.9221 9.99181 10.8594 10.3086C10.8513 10.3824 10.7964 10.4417 10.7266 10.4531L10.0049 10.3711C9.96891 10.3659 9.93615 10.3455 9.91504 10.3145C9.89399 10.2834 9.88561 10.2444 9.89258 10.207C10.0588 9.28528 10.8513 9.00781 11.5605 9.00781ZM18.7617 9.00586C19.8681 9.00586 20.4668 10.0043 20.4668 11.2734C20.4668 12.5004 19.8068 13.4736 18.7617 13.4736C17.6767 13.4734 17.086 12.4748 17.0859 11.2314C17.0859 9.98802 17.6839 9.00607 18.7617 9.00586ZM7.90527 9.01953C8.29808 8.95557 8.69378 9.11974 8.93945 9.44824C9.17606 9.78669 9.12695 10.2805 9.12695 10.709V13.2471C9.12618 13.2862 9.11083 13.3235 9.08398 13.3506C9.05703 13.3778 9.02073 13.3924 8.9834 13.3916H8.23828C8.16506 13.3875 8.10739 13.3242 8.10645 13.2471V11.1152C8.10645 10.9459 8.11991 10.5232 8.08496 10.3623C8.02956 10.0919 7.86309 10.0157 7.64746 10.0156C7.44978 10.022 7.27464 10.1513 7.20215 10.3447C7.12564 10.5486 7.13183 10.8864 7.13184 11.1152V13.2471C7.13106 13.2861 7.11564 13.3235 7.08887 13.3506C7.06214 13.3776 7.02631 13.3922 6.98926 13.3916H6.24219C6.16906 13.3872 6.11162 13.3241 6.11035 13.2471V11.1152C6.11037 10.6666 6.1759 10.0061 5.64844 10.0059C5.1207 10.0059 5.13379 10.6485 5.13379 11.1152V13.2471C5.13302 13.2863 5.11676 13.3235 5.08984 13.3506C5.06299 13.3775 5.02735 13.3924 4.99023 13.3916H4.24414C4.17509 13.3877 4.11906 13.3311 4.1123 13.2588V9.23633C4.11491 9.15582 4.17823 9.09198 4.25488 9.09277H4.94922C5.02032 9.0969 5.07701 9.15673 5.08105 9.23145V9.75684H5.0957C5.27645 9.24853 5.61709 9.01179 6.07617 9.01172C6.53536 9.01172 6.8348 9.24845 7.04395 9.75684C7.18355 9.36565 7.51253 9.08354 7.90527 9.01953ZM23.0303 9C23.3641 9 23.6909 9.12685 23.9014 9.47363C24.0959 9.79547 24.0957 10.3375 24.0957 10.7266V13.2568C24.0848 13.3307 24.0232 13.3853 23.9521 13.3838H23.2031C23.1359 13.3807 23.0805 13.3269 23.0713 13.2568V11.0732C23.0713 10.6335 23.1198 9.98926 22.6045 9.98926C22.4132 9.99856 22.2444 10.1248 22.1729 10.3115C22.0687 10.557 22.0547 10.8025 22.0547 11.0742V13.2393C22.0517 13.3207 21.9876 13.3851 21.9102 13.3838H21.166C21.0929 13.3796 21.0352 13.3162 21.0342 13.2393V9.2168C21.042 9.14042 21.1047 9.08307 21.1777 9.08496H21.8691C21.932 9.08722 21.9859 9.13305 22.001 9.19727V9.8125H22.0156C22.2241 9.26265 22.5159 9.00014 23.0303 9ZM16.5127 9.07812C16.5499 9.0768 16.5866 9.0908 16.6133 9.11816C16.6399 9.14554 16.6547 9.18348 16.6543 9.22266V9.71582C16.6542 9.79834 16.5878 9.90659 16.4697 10.0771L15.2012 11.9814C15.6719 11.9697 16.1697 12.044 16.5977 12.2969C16.6767 12.3412 16.728 12.4273 16.7305 12.5215V13.1367C16.7305 13.2213 16.6419 13.3192 16.5488 13.2686C15.7363 12.8298 14.7719 12.8314 13.9609 13.2734C13.8759 13.3213 13.7872 13.2252 13.7871 13.1406V12.5547C13.7793 12.4166 13.8109 12.2792 13.8779 12.1602L15.3486 9.94043H14.0664C14.0292 9.94194 13.9926 9.92753 13.9658 9.90039C13.9391 9.87309 13.9235 9.83505 13.9238 9.7959V9.22266C13.9221 9.18343 13.9364 9.14482 13.9629 9.11719C13.9894 9.08963 14.0262 9.07593 14.0635 9.07812H16.5127ZM2.19629 11.3438C1.65736 11.3438 1.08808 11.4649 1.08789 12.1318C1.08789 12.4715 1.25464 12.7009 1.54004 12.7012C1.7497 12.7012 1.93787 12.565 2.05664 12.3447C2.19636 12.0835 2.19655 11.8383 2.19629 11.5498V11.3438ZM11.9688 11.3398C11.4297 11.3398 10.8604 11.461 10.8604 12.1289C10.8604 12.4678 11.0271 12.6961 11.3125 12.6963C11.5216 12.6963 11.711 12.5607 11.8291 12.3408C11.9692 12.0783 11.9689 11.8321 11.9688 11.54V11.3398ZM18.7695 9.82715C18.22 9.82715 18.1846 10.6134 18.1846 11.1045C18.1846 11.1096 18.1846 11.1148 18.1846 11.1201C18.1845 11.6175 18.1846 12.6431 18.7617 12.6436C19.3455 12.6436 19.3682 11.7983 19.3682 11.2822C19.3682 10.9438 19.3535 10.5369 19.2559 10.2158C19.1721 9.93856 19.0056 9.82721 18.7695 9.82715Z" fill="black"/>
<path fill-rule="evenodd" clip-rule="evenodd" d="M15.1493 15.9494C15.3188 15.5062 15.6962 14.513 15.5168 14.2723H15.5181C15.3394 14.0311 14.3366 14.1577 13.8855 14.2147L13.8845 14.2148C13.7473 14.2321 13.7262 14.1066 13.8496 14.0157C14.6505 13.4241 15.9627 13.5933 16.1152 13.7931C16.2676 13.9928 16.0736 15.3758 15.3234 16.0361C15.208 16.1373 15.0978 16.0832 15.1493 15.9494ZM9.7597 16.6334C11.5041 16.6334 13.5355 16.0543 14.9348 14.9689V14.971C15.1664 14.7879 14.9678 14.5188 14.7316 14.6242C13.2042 15.3015 11.5646 15.655 9.90683 15.6645C7.60693 15.6645 5.38224 15.0015 3.58243 13.9008C3.42475 13.8044 3.30731 13.9743 3.43926 14.0984C5.17197 15.7419 7.42601 16.6459 9.7597 16.6334Z" fill="#FF9900"/>
</g>
<defs>
<clipPath id="clip0_8119_10706">
<rect width="24" height="24" fill="white"/>
</clipPath>
</defs>
</svg>
