<svg width="24" height="24" viewBox="0 0 24 24" fill="none" xmlns="http://www.w3.org/2000/svg">
<path d="M2 1.9382V11.907V21.9382H11.9997H22V11.9385V1.9382H12.0036H2Z" fill="white"/>
<path d="M18.4333 6.84488L19.0733 5.10488H22V1.9382H2V21.9382H22V18.7782H19.24L18.22 17.5849L17.16 18.7782H9.32V12.4249H6.73331L9.96668 5.10488H13.1133L13.8733 6.76487V5.10488H17.78L18.4333 6.84488ZM16.2267 7.99821L16.22 7.2982L16.4867 7.99821L17.7867 11.4715H19.08L20.3867 7.99821L20.64 7.30488V11.4715H22V6.1382H19.74L18.7133 8.84489L18.44 9.5782L18.16 8.84489L17.1267 6.1382H14.8667V11.4715H16.2267V7.99821ZM13.3 11.4715H14.8667L12.52 6.1382H10.7L8.33999 11.4715H9.88668L10.3 10.4449H12.8867L13.3 11.4715ZM11.3267 7.94489L11.5933 7.2782L11.86 7.94489L12.4133 9.29152H10.7733L11.3267 7.94489ZM10.4133 12.4315V17.7449H14.8667V16.5915H11.7733V15.6649H14.8067V14.5182H11.7733V13.5849H14.8667V12.4315H10.4133ZM19.82 17.7449H21.5867L19.0933 15.0782L21.5867 12.4315H19.8467L18.24 14.1582L16.64 12.4315H14.8667L17.3533 15.0982L14.8667 17.7449H16.5867L18.2067 16.0115L19.82 17.7449ZM20.4933 15.0715L22 16.6049V13.5582L20.4933 15.0715Z" fill="#006FCF"/>
</svg>
