<svg width="24" height="24" viewBox="0 0 24 24" fill="none" xmlns="http://www.w3.org/2000/svg">
<path d="M4 4V11.975V20H11.9998H20V12.0002V4H12.0029H4Z" fill="white"/>
<path d="M17.1467 7.92534L17.6587 6.53334H20V4H4V20H20V17.472H17.792L16.976 16.5173L16.128 17.472H9.856V12.3893H7.78665L10.3733 6.53334H12.8906L13.4987 7.86134V6.53334H16.624L17.1467 7.92534ZM15.3813 8.84801L15.376 8.288L15.5893 8.84801L16.6293 11.6267H17.664L18.7093 8.84801L18.912 8.29334V11.6267H20V7.36H18.192L17.3707 9.52535L17.152 10.112L16.928 9.52535L16.1013 7.36H14.2933V11.6267H15.3813V8.84801ZM13.04 11.6267H14.2933L12.416 7.36H10.96L9.07199 11.6267H10.3093L10.64 10.8053H12.7093L13.04 11.6267ZM11.4614 8.80535L11.6747 8.272L11.888 8.80535L12.3307 9.88266H11.0187L11.4614 8.80535ZM10.7306 12.3946V16.6453H14.2933V15.7227H11.8187V14.9813H14.2453V14.064H11.8187V13.3173H14.2933V12.3946H10.7306ZM18.256 16.6453H19.6694L17.6747 14.512L19.6694 12.3946H18.2773L16.992 13.776L15.712 12.3946H14.2933L16.2827 14.528L14.2933 16.6453H15.6693L16.9653 15.2587L18.256 16.6453ZM18.7947 14.5067L20 15.7333V13.296L18.7947 14.5067Z" fill="#006FCF"/>
</svg>
