<svg width="24" height="24" viewBox="0 0 24 24" fill="none" xmlns="http://www.w3.org/2000/svg">
<path d="M21.5974 13.3483H21.614L23.0154 9.83173H23.9998L20.9724 16.8825H20.0378L21.1638 14.4157L19.1775 9.83173H20.1619L21.5974 13.3483ZM16.8591 9.67157C17.5287 9.6716 18.0578 9.85491 18.446 10.2145C18.8341 10.5741 19.0251 11.0763 19.0251 11.7097V14.7302H18.1589V14.0505H18.1199C17.7429 14.6099 17.2473 14.8893 16.6228 14.8893C16.0939 14.8893 15.6433 14.7295 15.2888 14.4099C14.9402 14.113 14.7435 13.6738 14.7546 13.2116C14.7546 12.7035 14.946 12.3032 15.323 12.0007C15.7 11.6983 16.2066 11.5505 16.8367 11.5505C17.3768 11.5505 17.816 11.6533 18.1648 11.8474V11.6354C18.1647 11.3216 18.029 11.0245 17.7927 10.819C17.5508 10.6023 17.2412 10.4821 16.9207 10.4821C16.4143 10.4822 16.015 10.6997 15.7224 11.1335L14.9236 10.6257C15.3512 9.99199 15.9982 9.67157 16.8591 9.67157ZM12.5652 7.57098C13.1448 7.55957 13.7081 7.78204 14.1189 8.19305C14.9404 8.96946 14.9904 10.2767 14.2195 11.1159L14.1189 11.2194C13.6969 11.6247 13.1785 11.8298 12.5652 11.8298H11.0691V14.7302H10.1628V7.57098H12.5652ZM16.9773 12.2927C16.6116 12.2927 16.302 12.3833 16.0544 12.5602C15.8125 12.7371 15.6893 12.96 15.6892 13.2282C15.6892 13.468 15.8014 13.6908 15.9871 13.8278C16.1896 13.9876 16.437 14.0737 16.6902 14.0681C17.0728 14.0681 17.4386 13.9133 17.7087 13.6393C18.0069 13.354 18.1588 13.0176 18.1589 12.6296C17.8775 12.4012 17.4838 12.287 16.9773 12.2927ZM11.0691 10.9509H12.5886C12.9262 10.9622 13.2525 10.8251 13.4832 10.5798C13.9559 10.0831 13.9445 9.28392 13.4548 8.80438C13.2242 8.57611 12.9149 8.44997 12.5886 8.44989H11.0691V10.9509Z" fill="#3C4043"/>
<path d="M7.94113 11.202C7.94113 10.9222 7.91862 10.6425 7.87361 10.3685H4.05286V11.9498H6.24177C6.15174 12.4579 5.85913 12.9146 5.43148 13.2001V14.2276H6.73695C7.50222 13.514 7.94113 12.4579 7.94113 11.202Z" fill="#4285F4"/>
<path d="M4.05299 15.221C5.14464 15.221 6.06747 14.8556 6.73709 14.2277L5.43162 13.2001C5.06586 13.4513 4.59881 13.594 4.05299 13.594C2.99511 13.594 2.10041 12.869 1.77967 11.8985H0.434814V12.9603C1.12131 14.3476 2.52244 15.221 4.05299 15.221Z" fill="#34A853"/>
<path d="M1.77983 11.8985C1.61099 11.3904 1.61099 10.8366 1.77983 10.3228V9.26669H0.434757C-0.144919 10.4256 -0.144919 11.7957 0.434757 12.9546L1.77983 11.8985Z" fill="#FBBC04"/>
<path d="M4.05299 8.62727C4.63258 8.61585 5.18965 8.83849 5.60605 9.24382L6.76522 8.0678C6.02808 7.37132 5.06023 6.98883 4.05299 7.00025C2.52244 7.00025 1.12131 7.87941 0.434814 9.26666L1.77967 10.3285C2.10041 9.35229 2.99511 8.62727 4.05299 8.62727Z" fill="#EA4335"/>
</svg>
