<svg width="24" height="24" viewBox="0 0 24 24" fill="none" xmlns="http://www.w3.org/2000/svg">
<g clip-path="url(#clip0_4582_1937)">
<path d="M17.0654 13.6056H18.5086C18.5498 13.6056 18.6474 13.5917 18.6872 13.5917C18.8343 13.5602 18.9657 13.4783 19.0586 13.3601C19.1516 13.2419 19.2002 13.0949 19.196 12.9446C19.196 12.7953 19.1458 12.6504 19.0535 12.5331C18.9613 12.4157 18.8322 12.3327 18.6872 12.2974C18.6284 12.2854 18.5685 12.2807 18.5086 12.2836H17.0654V13.6056Z" fill="url(#paint0_linear_4582_1937)"/>
<path d="M18.3435 4.5C17.6801 4.50012 17.0439 4.76354 16.5748 5.23232C16.1057 5.70111 15.8421 6.33688 15.8419 6.99985V9.5963H19.3746C19.4573 9.59371 19.5401 9.59819 19.622 9.60971C20.4195 9.65131 21.0097 10.0632 21.0097 10.7773C21.0097 11.3408 20.6115 11.8216 19.869 11.9177V11.945C20.6799 12 21.2984 12.4535 21.2984 13.1538C21.2984 13.9096 20.6115 14.4018 19.7039 14.4018H15.8276V19.4866H19.4981C20.1615 19.4865 20.7977 19.2231 21.2668 18.7543C21.7359 18.2855 21.9995 17.6497 21.9996 16.9867V4.5H18.3435Z" fill="url(#paint1_linear_4582_1937)"/>
<path d="M19.0174 10.9425C19.0201 10.7988 18.9697 10.6591 18.8759 10.5501C18.782 10.4411 18.6513 10.3705 18.5086 10.3518C18.4813 10.3518 18.4124 10.3379 18.3698 10.3379H17.0654V11.5467H18.3712C18.4124 11.5467 18.4947 11.5467 18.51 11.5333C18.6524 11.5142 18.7827 11.4434 18.8763 11.3345C18.9698 11.2256 19.0201 11.0861 19.0174 10.9425Z" fill="url(#paint2_linear_4582_1937)"/>
<path d="M4.51544 4.5C3.85198 4.5 3.2157 4.76338 2.74657 5.23219C2.27743 5.701 2.01388 6.33685 2.01388 6.99985V13.1676C2.71467 13.5111 3.44321 13.7307 4.17175 13.7307C5.03768 13.7307 5.50533 13.2088 5.50533 12.4946V9.58475H7.64933V12.4831C7.64933 13.6096 6.94854 14.5299 4.57048 14.5299C3.70382 14.5297 2.84048 14.4227 2 14.2114L2 19.4727H5.67C6.33358 19.4727 6.96998 19.2093 7.4392 18.7404C7.90842 18.2715 8.17203 17.6355 8.17203 16.9724V4.5H4.51544Z" fill="url(#paint3_linear_4582_1937)"/>
<path d="M11.4294 4.5C10.766 4.50012 10.1298 4.76354 9.66067 5.23232C9.19156 5.70111 8.92796 6.33688 8.92784 6.99985V10.2693C9.56017 9.73359 10.6597 9.39106 12.4332 9.47242C13.3814 9.51356 14.3986 9.77473 14.3986 9.77473V10.8328C13.8898 10.5721 13.2852 10.3382 12.5021 10.2832C11.1551 10.1871 10.3442 10.8467 10.3442 12.0005C10.3442 13.1681 11.1551 13.8273 12.5021 13.7173C13.2857 13.6627 13.8898 13.4154 14.3986 13.1681V14.2257C14.3986 14.2257 13.3953 14.4869 12.4332 14.528C10.6597 14.6103 9.56017 14.2669 8.92784 13.7311V19.5H12.5978C13.2613 19.5 13.8976 19.2366 14.3667 18.7678C14.8359 18.299 15.0994 17.6632 15.0994 17.0002V4.5H11.4294Z" fill="url(#paint4_linear_4582_1937)"/>
</g>
<defs>
<linearGradient id="paint0_linear_4582_1937" x1="15.8456" y1="12.9374" x2="22.0245" y2="12.9374" gradientUnits="userSpaceOnUse">
<stop stop-color="#007940"/>
<stop offset="0.23" stop-color="#00873F"/>
<stop offset="0.74" stop-color="#40A737"/>
<stop offset="1" stop-color="#5CB531"/>
</linearGradient>
<linearGradient id="paint1_linear_4582_1937" x1="15.8447" y1="11.9829" x2="22.0188" y2="11.9829" gradientUnits="userSpaceOnUse">
<stop stop-color="#007940"/>
<stop offset="0.23" stop-color="#00873F"/>
<stop offset="0.74" stop-color="#40A737"/>
<stop offset="1" stop-color="#5CB531"/>
</linearGradient>
<linearGradient id="paint2_linear_4582_1937" x1="15.8446" y1="10.9322" x2="22.0245" y2="10.9322" gradientUnits="userSpaceOnUse">
<stop stop-color="#007940"/>
<stop offset="0.23" stop-color="#00873F"/>
<stop offset="0.74" stop-color="#40A737"/>
<stop offset="1" stop-color="#5CB531"/>
</linearGradient>
<linearGradient id="paint3_linear_4582_1937" x1="2.01133" y1="11.9763" x2="8.28598" y2="11.9763" gradientUnits="userSpaceOnUse">
<stop stop-color="#1F286F"/>
<stop offset="0.48" stop-color="#004E94"/>
<stop offset="0.83" stop-color="#0066B1"/>
<stop offset="1" stop-color="#006FBC"/>
</linearGradient>
<linearGradient id="paint4_linear_4582_1937" x1="8.89474" y1="11.9895" x2="14.9892" y2="11.9895" gradientUnits="userSpaceOnUse">
<stop stop-color="#6C2C2F"/>
<stop offset="0.17" stop-color="#882730"/>
<stop offset="0.57" stop-color="#BE1833"/>
<stop offset="0.86" stop-color="#DC0436"/>
<stop offset="1" stop-color="#E60039"/>
</linearGradient>
<clipPath id="clip0_4582_1937">
<rect width="20" height="15" fill="white" transform="translate(2 4.5)"/>
</clipPath>
</defs>
</svg>
