<svg width="24" height="24" viewBox="0 0 24 24" fill="none" xmlns="http://www.w3.org/2000/svg">
<path d="M16.3562 6.49391C16.716 5.83208 17.055 5.16183 17.4221 4.5C17.5185 5.17737 17.6229 5.84761 17.7279 6.52498C18.4534 6.30416 19.1616 6.04448 19.895 5.85538C19.3797 6.42267 18.8816 7.00551 18.3836 7.58833C18.9255 7.97688 19.4668 8.34469 20.0001 8.73065C19.2746 8.80189 18.5491 8.83363 17.8237 8.88802C17.7978 9.58158 17.7452 10.2829 17.702 10.9836C17.2824 10.4791 16.8981 9.95976 16.4958 9.44752C15.8927 9.94357 15.2816 10.4403 14.6965 10.9525C14.9239 10.2402 15.1514 9.53432 15.3694 8.82456C14.6706 8.74556 13.9631 8.65943 13.2643 8.57265C13.9458 8.22555 14.6361 7.87066 15.3176 7.51643C15.0377 6.9103 14.7498 6.31129 14.4791 5.70321C15.0995 5.97908 15.7372 6.21545 16.3576 6.49133" fill="#283C93"/>
<path d="M9.61879 15.616C11.4451 14.1781 13.1399 12.6105 14.687 10.9282C13.9744 13.1374 12.6167 15.1343 10.7552 16.7111C10.3358 17.0545 9.89199 17.3729 9.42661 17.6644C7.83382 18.6726 5.94663 19.2369 4 19.2872L4.04388 19.2561C5.57634 18.4592 7.03703 17.5554 8.41254 16.5531C8.81485 16.2461 9.2431 15.9541 9.61879 15.616Z" fill="#EA2228"/>
</svg>
