<svg width="24" height="24" viewBox="0 0 24 24" fill="none" xmlns="http://www.w3.org/2000/svg">
<path d="M9.88398 8.73569L8.77136 15.3729H10.5502L11.6636 8.73569H9.88398Z" fill="#1A1F71"/>
<path d="M15.3849 8.60001C16.0748 8.60001 16.6273 8.7443 16.9799 8.87877L16.7387 10.3172L16.5792 10.2407C16.2508 10.1062 15.8291 9.97718 15.2472 9.98637C14.5504 9.98637 14.228 10.2814 14.228 10.5573C14.2239 10.8682 14.6049 11.073 15.2269 11.3801C16.2537 11.8538 16.7278 12.4284 16.7212 13.1834C16.7074 14.5612 15.4929 15.4511 13.6221 15.4511C12.824 15.4428 12.0554 15.2823 11.6397 15.097L11.8894 13.6112L12.1188 13.7167C12.7033 13.9644 13.0817 14.065 13.794 14.065C14.3055 14.065 14.8543 13.8618 14.8587 13.4169C14.8621 13.1264 14.6292 12.919 13.9365 12.5936C13.2614 12.2762 12.3672 11.7441 12.3771 10.7904C12.3877 9.50021 13.6263 8.60001 15.3849 8.60001Z" fill="#1A1F71"/>
<path fill-rule="evenodd" clip-rule="evenodd" d="M20.1844 8.73559H21.5595L23 15.3685H21.3486C21.3486 15.3685 21.1853 14.6063 21.1321 14.3739C20.9945 14.3739 20.4201 14.3731 19.88 14.3724C19.4009 14.3717 18.9489 14.3711 18.8529 14.3711C18.7837 14.5507 18.4783 15.3685 18.4783 15.3685H16.6095L19.2525 9.286C19.4396 8.85378 19.7584 8.73559 20.1844 8.73559ZM19.3777 13.0214H20.855C20.7838 12.6892 20.443 11.1048 20.443 11.1048L20.3227 10.5326C20.2754 10.6638 20.2097 10.8373 20.1595 10.9696C20.1143 11.0887 20.0818 11.1744 20.0868 11.1661C20.0868 11.1661 19.525 12.6388 19.3777 13.0214Z" fill="#1A1F71"/>
<path d="M5.51824 13.2619L7.26057 8.73559L9.14581 8.73552L6.34403 15.3602L4.46109 15.3623L2.88193 9.60887C2.33187 9.29722 1.70343 9.04687 1 8.87377L1.02275 8.73568H3.89247C4.279 8.75032 4.59151 8.87594 4.69921 9.29622L5.30454 12.255C5.31441 12.2841 5.32378 12.3131 5.33263 12.3421L5.51824 13.2619Z" fill="#1A1F71"/>
</svg>
