<svg width="33" height="22" viewBox="0 0 33 22" fill="none" xmlns="http://www.w3.org/2000/svg">
<g clip-path="url(#clip0_1493_15569)">
<path d="M0 0H33V22H0V0Z" fill="#ED2024" style="fill:#ED2024;fill:color(display-p3 0.9294 0.1255 0.1412);fill-opacity:1;"/>
<path d="M11.9167 4.47333V10.34L14.52 11.2567L12.6867 13.0533L13.5667 14.1533L15.51 12.1367L15.95 12.98L14.85 14.7767L16.17 16.83L15.51 17.7833L16.5367 19.1033L17.5267 17.7467L16.9767 16.7933L18.0767 14.6667L17.0867 12.98L17.5267 12.1367L19.4333 14.1533L20.35 13.09L18.4433 11.22L21.0833 10.2667V4.47333L19.1767 5.17L19.14 6.56333L17.93 6.67333V5.72L18.5533 4.87667L20.6067 4.07L19.7633 3.92333L20.2767 3.48333L20.6067 3.63L20.3133 3.11667L19.8 3.3L19.4333 2.89667L17.4167 3.3L17.93 3.70333L16.5367 5.5L15.1433 3.74L15.62 3.33667L13.7867 2.89667L13.2733 3.3L12.7233 3.15333L12.43 3.66667L12.76 3.44667L13.3467 3.85L12.5033 4.03333L14.52 4.76667L15.1067 5.61V6.67333L13.8967 6.56333V5.24333L11.9167 4.47333Z" fill="#212121" style="fill:#212121;fill:color(display-p3 0.1310 0.1310 0.1310);fill-opacity:1;"/>
<path d="M9.60666 9.16668H11.9533V10.0833H9.60666V9.16668ZM9.60666 7.66334H11.9533V8.65334H9.60666V7.66334ZM9.60666 6.12334H11.9533V7.07668H9.60666V6.12334ZM9.60666 4.65668H11.9533V5.57334H9.60666V4.65668Z" fill="#212121" style="fill:#212121;fill:color(display-p3 0.1310 0.1310 0.1310);fill-opacity:1;"/>
<path d="M21.0467 9.16668H23.3933V10.0833H21.0467V9.16668ZM21.0467 7.66334H23.3933V8.65334H21.0467V7.66334ZM21.0467 6.12334H23.3933V7.07668H21.0467V6.12334ZM21.0467 4.65668H23.3933V5.57334H21.0467V4.65668Z" fill="#212121" style="fill:#212121;fill:color(display-p3 0.1310 0.1310 0.1310);fill-opacity:1;"/>
<path d="M19.58 13.2367H21.9267V13.9333H19.58V13.2367ZM11.0733 13.2367H13.42V13.9333H11.0733V13.2367Z" fill="#212121" style="fill:#212121;fill:color(display-p3 0.1310 0.1310 0.1310);fill-opacity:1;"/>
</g>
<defs>
<clipPath id="clip0_1493_15569">
<rect width="33" height="22" fill="white" style="fill:white;fill-opacity:1;"/>
</clipPath>
</defs>
</svg>
