<svg width="33" height="22" viewBox="0 0 33 22" fill="none" xmlns="http://www.w3.org/2000/svg">
<g clip-path="url(#clip0_1493_15731)">
<path d="M0 0H32.9357V22H0V0Z" fill="white" style="fill:white;fill-opacity:1;"/>
<path d="M0 0H32.9357V7.33333H0V0ZM0 14.6667H32.9357V22H0V14.6667Z" fill="#338AF3" style="fill:#338AF3;fill:color(display-p3 0.2000 0.5412 0.9529);fill-opacity:1;"/>
<path d="M16.5 13C17.6046 13 18.5 12.1046 18.5 11C18.5 9.89543 17.6046 9 16.5 9C15.3954 9 14.5 9.89543 14.5 11C14.5 12.1046 15.3954 13 16.5 13Z" fill="#FFDA44" style="fill:#FFDA44;fill:color(display-p3 1.0000 0.8549 0.2667);fill-opacity:1;"/>
<path d="M18.5734 11.0002C18.5734 9.85526 17.645 8.92699 16.5001 8.92691C15.3552 8.92691 14.4269 9.85521 14.4269 11.0002C14.427 12.145 15.3552 13.0734 16.5001 13.0734C17.645 13.0733 18.5733 12.145 18.5734 11.0002ZM19.5734 11.0002C19.5733 12.6973 18.1972 14.0733 16.5001 14.0734C14.8029 14.0734 13.427 12.6973 13.4269 11.0002C13.4269 9.30293 14.8029 7.92691 16.5001 7.92691C18.1973 7.92699 19.5734 9.30297 19.5734 11.0002Z" fill="#D6AB00" style="fill:#D6AB00;fill:color(display-p3 0.8392 0.6706 0.0000);fill-opacity:1;"/>
</g>
<defs>
<clipPath id="clip0_1493_15731">
<rect width="33" height="22" fill="white" style="fill:white;fill-opacity:1;"/>
</clipPath>
</defs>
</svg>
