<svg width="33" height="22" viewBox="0 0 33 22" fill="none" xmlns="http://www.w3.org/2000/svg">
<g clip-path="url(#clip0_1493_15721)">
<path d="M0 0H33V22H0V0Z" fill="#10338C" style="fill:#10338C;fill:color(display-p3 0.0627 0.2000 0.5490);fill-opacity:1;"/>
<path d="M33 2.12281L6.13041 11L33 19.9904V22L0 11L33 0V2.12281Z" fill="#D80027" style="fill:#D80027;fill:color(display-p3 0.8471 0.0000 0.1529);fill-opacity:1;"/>
<path d="M33 18.4736V20.0547L5.25684 11L33 1.92981V3.48396" fill="white" style="fill:white;fill-opacity:1;"/>
<path d="M30.683 9.01934L29.2748 9.70636L29.0703 8.72086L31.0766 6.80583C31.0766 6.80583 30.4707 4.19092 30.1921 3.91238L22.9669 7.50314L22.5269 9.86782L20.4748 11.7069L20.4491 13.9069L22.6549 12.4429L26.9796 12.2717L26.8825 14.7233H28.3125L29.078 11.8517L31.1075 10.2686L30.683 9.01934Z" fill="#A2001D" style="fill:#A2001D;fill:color(display-p3 0.6353 0.0000 0.1137);fill-opacity:1;"/>
<path d="M20.4491 15.3363L19.0184 14.6216L20.4491 13.907H29.7418V15.3363H20.4491Z" fill="#EFC100" style="fill:#EFC100;fill:color(display-p3 0.9373 0.7569 0.0000);fill-opacity:1;"/>
<path d="M29.8417 13.8073V15.4362H20.4257L18.9735 14.7107L18.7948 14.6218L18.9735 14.532L20.4042 13.8171L20.4257 13.8073H29.8417ZM19.2421 14.6208L20.4725 15.2361H29.6415V14.0066H20.4745L19.2421 14.6208Z" fill="#231F20" style="fill:#231F20;fill:color(display-p3 0.1373 0.1216 0.1255);fill-opacity:1;"/>
</g>
<defs>
<clipPath id="clip0_1493_15721">
<rect width="33" height="22" fill="white" style="fill:white;fill-opacity:1;"/>
</clipPath>
</defs>
</svg>
