<svg width="33" height="22" viewBox="0 0 33 22" fill="none" xmlns="http://www.w3.org/2000/svg">
<g clip-path="url(#clip0_1493_15706)">
<path d="M0 0H33V22H0V0Z" fill="#EF3340" style="fill:#EF3340;fill:color(display-p3 0.9373 0.2000 0.2510);fill-opacity:1;"/>
<path d="M0 0H33V7.33333H0V0Z" fill="#00B5E2" style="fill:#00B5E2;fill:color(display-p3 0.0000 0.7098 0.8863);fill-opacity:1;"/>
<path d="M0 14.6667H33V22H0V14.6667Z" fill="#509E2F" style="fill:#509E2F;fill:color(display-p3 0.3137 0.6196 0.1843);fill-opacity:1;"/>
<path d="M17.0854 13.676C15.6058 13.676 14.4094 12.4795 14.4094 11C14.4094 9.52046 15.6058 8.32396 17.0854 8.32396C17.5485 8.32396 17.9795 8.43975 18.3591 8.6456C17.7673 8.06665 16.9503 7.70642 16.0561 7.70642C14.2357 7.70642 12.7626 9.17952 12.7626 11C12.7626 12.8205 14.2357 14.2936 16.0561 14.2936C16.9503 14.2936 17.7673 13.9333 18.3591 13.3544C17.9795 13.5602 17.5485 13.676 17.0854 13.676Z" fill="white" style="fill:white;fill-opacity:1;"/>
<path d="M19.1439 9.14734L19.4977 10.1444L20.4562 9.68769L19.9994 10.6462L20.9965 11L19.9994 11.3538L20.4562 12.3123L19.4977 11.8555L19.1439 12.8526L18.7901 11.8555L17.8316 12.3123L18.2883 11.3538L17.2913 11L18.2883 10.6462L17.8316 9.68769L18.7901 10.1444L19.1439 9.14734Z" fill="white" style="fill:white;fill-opacity:1;"/>
</g>
<defs>
<clipPath id="clip0_1493_15706">
<rect width="33" height="22" fill="white" style="fill:white;fill-opacity:1;"/>
</clipPath>
</defs>
</svg>
