<svg width="33" height="22" viewBox="0 0 33 22" fill="none" xmlns="http://www.w3.org/2000/svg">
<g clip-path="url(#clip0_1493_15654)">
<path d="M0 0H33.0064V22H0V0Z" fill="#10338C" style="fill:#10338C;fill:color(display-p3 0.0627 0.2000 0.5490);fill-opacity:1;"/>
<path d="M6.42627 0H28.4263V22" fill="#F6C500" style="fill:#F6C500;fill:color(display-p3 0.9647 0.7725 0.0000);fill-opacity:1;"/>
<path d="M1.28015 1.35731L2.59243 0.39883L3.91758 1.35088L3.47372 0H1.71758L1.28015 1.35731Z" fill="white" style="fill:white;fill-opacity:1;"/>
<path d="M5.93748 1.64034L5.42929 0.0836182L4.92753 1.64034H3.30005L4.61876 2.59239L4.11701 4.13625L5.42929 3.1842L6.75443 4.13625L6.24625 2.59239L7.56496 1.63391L5.93748 1.64034Z" fill="white" style="fill:white;fill-opacity:1;"/>
<path d="M8.76787 4.45145L8.26612 2.90759L7.76436 4.45145H6.14331L7.45559 5.40993L6.95384 6.95379L8.26612 6.00174L9.59126 6.95379L9.08951 5.40993L10.4018 4.45145H8.76787Z" fill="white" style="fill:white;fill-opacity:1;"/>
<path d="M11.5404 7.224L11.0387 5.67371L10.5369 7.224H8.90942L10.2281 8.18248L9.72638 9.72634L11.0387 8.77429L12.3638 9.72634L11.8556 8.18248L13.1743 7.21757L11.5404 7.224Z" fill="white" style="fill:white;fill-opacity:1;"/>
<path d="M14.3128 9.99009L13.8111 8.44623L13.3093 9.99009H11.6754L13.0006 10.955L12.4988 12.4989L13.8111 11.5404L15.1234 12.4989L14.6216 10.955L15.9468 9.99009H14.3128Z" fill="white" style="fill:white;fill-opacity:1;"/>
<path d="M17.0854 12.7625L16.5837 11.2187L16.0819 12.7625H14.448L15.7731 13.721L15.2714 15.2713L16.5837 14.3128L17.896 15.2713L17.3942 13.7146L18.7129 12.7625H17.0854Z" fill="white" style="fill:white;fill-opacity:1;"/>
<path d="M19.8579 15.5351L19.3497 13.9912L18.8479 15.5351H17.2205L18.5392 16.4871L18.031 18.0438L19.3561 17.0854L20.6684 18.0374L20.1667 16.4871L21.4854 15.5351H19.8579Z" fill="white" style="fill:white;fill-opacity:1;"/>
<path d="M22.624 18.3076L22.1223 16.7509L21.6205 18.3076H19.993L21.3053 19.2596L20.8036 20.8099L22.1223 19.8514L23.441 20.8099L22.9392 19.2596L24.2515 18.3076H22.624Z" fill="white" style="fill:white;fill-opacity:1;"/>
<path d="M24.8948 19.5234L24.3866 21.0737L22.7592 21.0801L24.0328 22H25.744L27.0241 21.0737H25.3966L24.8948 19.5234Z" fill="white" style="fill:white;fill-opacity:1;"/>
</g>
<defs>
<clipPath id="clip0_1493_15654">
<rect width="33" height="22" fill="white" style="fill:white;fill-opacity:1;"/>
</clipPath>
</defs>
</svg>
