<svg width="33" height="22" viewBox="0 0 33 22" fill="none" xmlns="http://www.w3.org/2000/svg">
<g clip-path="url(#clip0_1493_15696)">
<path d="M0 0H33V22H0V0Z" fill="#FFC726" style="fill:#FFC726;fill:color(display-p3 1.0000 0.7804 0.1490);fill-opacity:1;"/>
<path d="M0 0H11V22H0V0ZM22 0H33V22H22V0Z" fill="#00267F" style="fill:#00267F;fill:color(display-p3 0.0000 0.1490 0.4980);fill-opacity:1;"/>
<path d="M20.954 6.49836L18.8975 7.29602C18.8537 7.38286 18.525 7.78105 18.3713 10.7092H17.2745V6.82257L16.4678 5.06128L15.6612 6.79812V10.7092H14.5637C14.41 7.7804 14.062 7.33333 14.0189 7.24584L11.981 6.49771C11.9906 6.51765 12.9716 8.51374 12.9716 11.5159V12.3226H15.6612V16.8943H17.2745V12.3226H19.964V11.5159C19.964 9.96368 20.2323 8.6842 20.4581 7.88397C20.7038 7.01105 20.9534 6.50157 20.956 6.49643L20.954 6.49836Z" fill="black" style="fill:black;fill-opacity:1;"/>
</g>
<defs>
<clipPath id="clip0_1493_15696">
<rect width="33" height="22" fill="white" style="fill:white;fill-opacity:1;"/>
</clipPath>
</defs>
</svg>
