<svg width="33" height="22" viewBox="0 0 33 22" fill="none" xmlns="http://www.w3.org/2000/svg">
<g clip-path="url(#clip0_1493_15704)">
<path d="M0 0H33V22H0V0Z" fill="#D80027" style="fill:#D80027;fill:color(display-p3 0.8471 0.0000 0.1529);fill-opacity:1;"/>
<path d="M13.8883 10.9807L0 20.2375V1.724L13.8883 10.9807ZM33 1.724V20.2375L19.1117 10.9807L33 1.724Z" fill="#47A644" style="fill:#47A644;fill:color(display-p3 0.2784 0.6510 0.2667);fill-opacity:1;"/>
<path d="M33 1.72398L19.0474 10.9807L33 20.2374V22H30.3561L16.4678 12.6982L2.57953 22H0V20.2374L13.8883 10.9807L0 1.72398V0H2.57953L16.4678 9.25672L30.3561 0H33V1.72398Z" fill="#0052B4" style="fill:#0052B4;fill:color(display-p3 0.0000 0.3216 0.7059);fill-opacity:1;"/>
<path d="M33 1.72398L19.1117 10.9807L33 20.2374V22H30.4269L16.4678 12.6982L2.50877 22H0V20.2374L13.8883 10.9807L0 1.72398V0H2.57953L16.4678 9.25672L30.3561 0H33V1.72398Z" fill="white" style="fill:white;fill-opacity:1;"/>
<path d="M16.1848 17.4263C19.7446 17.4263 22.6304 14.5405 22.6304 10.9807C22.6304 7.42089 19.7446 4.5351 16.1848 4.5351C12.625 4.5351 9.73918 7.42089 9.73918 10.9807C9.73918 14.5405 12.625 17.4263 16.1848 17.4263Z" fill="white" style="fill:white;fill-opacity:1;"/>
<path d="M16.1719 6.66431L16.6479 7.49413H17.6L17.124 8.31752L17.6 9.14092H16.6479L16.1719 9.97074L15.6959 9.14092H14.7439L15.2199 8.31752L14.7439 7.49413H15.6959L16.1719 6.66431ZM18.6678 10.955L19.1439 11.7848H20.0959L19.6199 12.6082L20.0959 13.4316H19.1439L18.6678 14.2614L18.1918 13.4316H17.2333L17.7094 12.6082L17.2333 11.7848H18.1918L18.6678 10.955ZM13.7018 10.955L14.1778 11.7848H15.1363L14.6602 12.6082L15.1363 13.4316H14.1778L13.7018 14.2614L13.2257 13.4316H12.2737L12.7497 12.6082L12.2737 11.7848H13.2257L13.7018 10.955Z" fill="#D80027" style="fill:#D80027;fill:color(display-p3 0.8471 0.0000 0.1529);fill-opacity:1;"/>
<path d="M14.3225 11.5344H15.5696L14.9485 12.6077L15.5696 13.6819H14.3225L13.7014 14.7639L13.0813 13.6819H11.8401L12.4602 12.6077L11.8401 11.5344H13.0813L13.7014 10.4524L14.3225 11.5344ZM19.2883 11.5344H20.5295L19.9084 12.6077L20.5295 13.6819H19.2883L18.6682 14.7639L18.0471 13.6819H16.8L17.0168 13.3069L17.4192 12.6077L17.0168 11.9094L16.8 11.5344H18.0471L18.6682 10.4524L19.2883 11.5344ZM13.4426 11.9094L13.3704 12.0344H12.7073L12.9661 12.4827L13.0383 12.6086L12.7073 13.1819H13.3704L13.4426 13.3069L13.7014 13.7581L13.9612 13.3069L14.0334 13.1819H14.7034L14.4436 12.7336L14.3713 12.6086L14.4436 12.4827L14.7034 12.0344H14.0334L13.9612 11.9094L13.7014 11.4573L13.4426 11.9094ZM18.4084 11.9094L18.3362 12.0344H17.6663L17.926 12.4827L17.9983 12.6086L17.926 12.7336L17.6663 13.1819H18.3362L18.4084 13.3069L18.6672 13.7581L18.927 13.3069L18.9993 13.1819H19.6624L19.3313 12.6086L19.4036 12.4827L19.6624 12.0344H18.9993L18.927 11.9094L18.6672 11.4573L18.4084 11.9094ZM16.7932 7.24438H18.0334L17.4124 8.31763L18.0334 9.39087H16.7922L16.1721 10.4729L15.551 9.39087H14.3108L14.9309 8.31763L14.3108 7.24438H15.551L16.1721 6.16235L16.7932 7.24438ZM15.9124 7.61841L15.8411 7.74438H15.177L15.4368 8.19263L15.509 8.31763L15.4368 8.44263L15.177 8.89087H15.8411L15.9124 9.01685L16.1711 9.46802L16.4309 9.01685L16.5032 8.89087H17.1672L16.9075 8.44263L16.8352 8.31763L16.9075 8.19263L17.1672 7.74438H16.5032L16.1711 7.16626L15.9124 7.61841Z" fill="#47A644" style="fill:#47A644;fill:color(display-p3 0.2784 0.6510 0.2667);fill-opacity:1;"/>
</g>
<defs>
<clipPath id="clip0_1493_15704">
<rect width="33" height="22" fill="white" style="fill:white;fill-opacity:1;"/>
</clipPath>
</defs>
</svg>
