<svg width="33" height="22" viewBox="0 0 33 22" fill="none" xmlns="http://www.w3.org/2000/svg">
<g clip-path="url(#clip0_1493_15704)">
<path d="M0 0H33V22H0V0Z" fill="#D80027" style="fill:#D80027;fill:color(display-p3 0.8471 0.0000 0.1529);fill-opacity:1;"/>
<path d="M13.8883 10.9807L0 20.2375V1.724L13.8883 10.9807ZM33 1.724V20.2375L19.1117 10.9807L33 1.724Z" fill="#47A644" style="fill:#47A644;fill:color(display-p3 0.2784 0.6510 0.2667);fill-opacity:1;"/>
<path d="M33 1.72398L19.0474 10.9807L33 20.2374V22H30.3561L16.4678 12.6982L2.57953 22H0V20.2374L13.8883 10.9807L0 1.72398V0H2.57953L16.4678 9.25672L30.3561 0H33V1.72398Z" fill="#0052B4" style="fill:#0052B4;fill:color(display-p3 0.0000 0.3216 0.7059);fill-opacity:1;"/>
<path d="M33 1.72398L19.1117 10.9807L33 20.2374V22H30.4269L16.4678 12.6982L2.50877 22H0V20.2374L13.8883 10.9807L0 1.72398V0H2.57953L16.4678 9.25672L30.3561 0H33V1.72398Z" fill="white" style="fill:white;fill-opacity:1;"/>
<path d="M16.1848 17.4263C19.7446 17.4263 22.6304 14.5405 22.6304 10.9807C22.6304 7.42089 19.7446 4.5351 16.1848 4.5351C12.625 4.5351 9.73918 7.42089 9.73918 10.9807C9.73918 14.5405 12.625 17.4263 16.1848 17.4263Z" fill="white" style="fill:white;fill-opacity:1;"/>
<path d="M16.1719 6.66431L16.6479 7.49413H17.6L17.124 8.31752L17.6 9.14092H16.6479L16.1719 9.97074L15.6959 9.14092H14.7439L15.2199 8.31752L14.7439 7.49413H15.6959L16.1719 6.66431ZM18.6678 10.955L19.1439 11.7848H20.0959L19.6199 12.6082L20.0959 13.4316H19.1439L18.6678 14.2614L18.1918 13.4316H17.2333L17.7094 12.6082L17.2333 11.7848H18.1918L18.6678 10.955ZM13.7018 10.955L14.1778 11.7848H15.1363L14.6602 12.6082L15.1363 13.4316H14.1778L13.7018 14.2614L13.2257 13.4316H12.2737L12.7497 12.6082L12.2737 11.7848H13.2257L13.7018 10.955Z" fill="#D80027" stroke="#47A644" style="fill:#D80027;fill:color(display-p3 0.8471 0.0000 0.1529);fill-opacity:1;stroke:#47A644;stroke:color(display-p3 0.2784 0.6510 0.2667);stroke-opacity:1;" stroke-width="3"/>
</g>
<defs>
<clipPath id="clip0_1493_15704">
<rect width="33" height="22" fill="white" style="fill:white;fill-opacity:1;"/>
</clipPath>
</defs>
</svg>
