<svg width="33" height="22" viewBox="0 0 33 22" fill="none" xmlns="http://www.w3.org/2000/svg">
<g clip-path="url(#clip0_1493_15607)">
<path d="M0 0H33V22H0V0Z" fill="#C8102E" style="fill:#C8102E;fill:color(display-p3 0.7843 0.0627 0.1804);fill-opacity:1;"/>
<path d="M0 0.00640869H16.5V11.0064H0V0.00640869Z" fill="#012169" style="fill:#012169;fill:color(display-p3 0.0039 0.1294 0.4118);fill-opacity:1;"/>
<path d="M16.4678 0H15.014L10.2924 3.14561V0H6.17544V3.14561L1.4538 0H0V1.46023L2.9655 3.43509H0V7.55205H2.9655L0 9.5269V10.9807H1.4538L6.17544 7.83509V10.9807H10.2924V7.83509L15.014 10.9807H16.4678V9.5269L13.5023 7.55205H16.4678V3.43509H13.5023L16.4678 1.46023V0Z" fill="white" style="fill:white;fill-opacity:1;"/>
<path d="M9.26316 0H7.20468V4.46433H0V6.52281H7.20468V10.9807H9.26316V6.52281H16.4678V4.46433H9.26316V0Z" fill="#C8102E" style="fill:#C8102E;fill:color(display-p3 0.7843 0.0627 0.1804);fill-opacity:1;"/>
<path d="M0 10.9807V10.2731L4.02047 7.55202H5.47427L0.469591 10.9807H0ZM0.469591 0.00640869L5.47427 3.42863H4.02047L0 0.714011V0.00640869H0.469591ZM16.4678 0.00640869V0.714011L12.4474 3.43506H10.9936L15.9982 0.00640869H16.4678ZM15.9982 10.9807L10.9936 7.55202H12.4474L16.4678 10.2731V10.9807H15.9982Z" fill="#C8102E" style="fill:#C8102E;fill:color(display-p3 0.7843 0.0627 0.1804);fill-opacity:1;"/>
<path d="M20.3854 6.42889V12.8417C20.3854 16.6891 25.5155 19.2545 25.5155 19.2545C25.5155 19.2545 30.6456 16.6891 30.6456 12.8417V6.42889H20.3854Z" fill="white" style="fill:white;fill-opacity:1;"/>
<path d="M28.9068 16.6891H22.1241C23.612 18.3025 25.5155 19.2545 25.5155 19.2545C25.5155 19.2545 27.4189 18.3025 28.9068 16.6891Z" fill="#2F8F22" style="fill:#2F8F22;fill:color(display-p3 0.1843 0.5608 0.1333);fill-opacity:1;"/>
<path d="M25.5155 16.6891C26.9323 16.6891 28.0809 15.5406 28.0809 14.1237C28.0809 12.7069 26.9323 11.5583 25.5155 11.5583C24.0987 11.5583 22.9501 12.7069 22.9501 14.1237C22.9501 15.5406 24.0987 16.6891 25.5155 16.6891Z" fill="#65B5D2" style="fill:#65B5D2;fill:color(display-p3 0.3961 0.7098 0.8235);fill-opacity:1;"/>
<path d="M22.9501 14.1244C23.6585 14.1244 24.2328 13.5501 24.2328 12.8417C24.2328 12.1333 23.6585 11.559 22.9501 11.559C22.2417 11.559 21.6674 12.1333 21.6674 12.8417C21.6674 13.5501 22.2417 14.1244 22.9501 14.1244Z" fill="#C8102E" style="fill:#C8102E;fill:color(display-p3 0.7843 0.0627 0.1804);fill-opacity:1;"/>
<path d="M28.0802 14.1244C28.7886 14.1244 29.3629 13.5501 29.3629 12.8417C29.3629 12.1333 28.7886 11.559 28.0802 11.559C27.3718 11.559 26.7975 12.1333 26.7975 12.8417C26.7975 13.5501 27.3718 14.1244 28.0802 14.1244Z" fill="#C8102E" style="fill:#C8102E;fill:color(display-p3 0.7843 0.0627 0.1804);fill-opacity:1;"/>
<path d="M25.5155 11.559C26.2239 11.559 26.7982 10.9848 26.7982 10.2763C26.7982 9.56793 26.2239 8.99365 25.5155 8.99365C24.8071 8.99365 24.2328 9.56793 24.2328 10.2763C24.2328 10.9848 24.8071 11.559 25.5155 11.559Z" fill="#C8102E" style="fill:#C8102E;fill:color(display-p3 0.7843 0.0627 0.1804);fill-opacity:1;"/>
</g>
<defs>
<clipPath id="clip0_1493_15607">
<rect width="33" height="22" fill="white" style="fill:white;fill-opacity:1;"/>
</clipPath>
</defs>
</svg>
