<svg width="33" height="22" viewBox="0 0 33 22" fill="none" xmlns="http://www.w3.org/2000/svg">
<g clip-path="url(#clip0_1493_15603)">
<path d="M32.9678 0.022522H-0.0321655V22.0225H32.9678V0.022522Z" fill="white" style="fill:white;fill-opacity:1;"/>
<path d="M-0.0321655 22.0225H32.9678V0.022522L-0.0321655 22.0225Z" fill="#012A87" style="fill:#012A87;fill:color(display-p3 0.0039 0.1647 0.5294);fill-opacity:1;"/>
<path d="M16.0754 0.022522H-0.0321655V10.7588L16.0754 0.022522Z" fill="#F9D90F" style="fill:#F9D90F;fill:color(display-p3 0.9765 0.8510 0.0588);fill-opacity:1;"/>
<path d="M8.99943 7.63245L9.78423 8.99619H11.3602L10.569 10.3535L11.3602 11.7172H9.78423L8.99943 13.081L8.21463 11.7172H6.63861L7.42984 10.3535L6.63861 8.99619H8.21463L8.99943 7.63245Z" fill="#DC171D" style="fill:#DC171D;fill:color(display-p3 0.8627 0.0902 0.1137);fill-opacity:1;"/>
<path d="M12.4216 10.3535C12.4216 8.4635 10.8894 6.93131 8.99941 6.9313C7.10937 6.9313 5.57718 8.4635 5.57718 10.3535C5.57718 12.2436 7.10938 13.7758 8.99941 13.7758C10.8894 13.7758 12.4216 12.2436 12.4216 10.3535ZM13.0006 10.3535C13.0006 12.5633 11.2092 14.3547 8.99941 14.3547C6.78963 14.3547 4.99824 12.5633 4.99823 10.3535C4.99823 8.14375 6.78963 6.35236 8.99941 6.35236C11.2092 6.35236 13.0006 8.14376 13.0006 10.3535Z" fill="black" style="fill:black;fill-opacity:1;"/>
</g>
<defs>
<clipPath id="clip0_1493_15603">
<rect width="33" height="22" fill="white" style="fill:white;fill-opacity:1;"/>
</clipPath>
</defs>
</svg>
