<svg width="33" height="22" viewBox="0 0 33 22" fill="none" xmlns="http://www.w3.org/2000/svg">
<g clip-path="url(#clip0_1493_15688)">
<path d="M33 0H0V22H33V0Z" fill="#007C30" style="fill:#007C30;fill:color(display-p3 0.0000 0.4863 0.1882);fill-opacity:1;"/>
<path d="M0 14.7953H33V0H0" fill="#CE1720" style="fill:#CE1720;fill:color(display-p3 0.8078 0.0902 0.1255);fill-opacity:1;"/>
<path d="M6.43275 14.7953V13.8368V0H0V22H33H6.43275V14.7953Z" fill="white" style="fill:white;fill-opacity:1;"/>
<path fill-rule="evenodd" clip-rule="evenodd" d="M3.09473 18.7764L1.80176 20.8857L0.5 18.7764L1.80176 16.7061L3.09473 18.7764ZM1.03027 18.7783L1.80078 20.0264L2.56543 18.7783L1.80078 17.5537L1.03027 18.7783Z" fill="#CE1720" style="fill:#CE1720;fill:color(display-p3 0.8078 0.0902 0.1255);fill-opacity:1;"/>
<path fill-rule="evenodd" clip-rule="evenodd" d="M5.9707 18.7764L4.66992 20.8857L3.37598 18.7764L4.66992 16.7061L5.9707 18.7764ZM3.90527 18.7783L4.6709 20.0264L5.44043 18.7783L4.6709 17.5537L3.90527 18.7783Z" fill="#CE1720" style="fill:#CE1720;fill:color(display-p3 0.8078 0.0902 0.1255);fill-opacity:1;"/>
<path d="M3.04297 13.4961L1.80078 15.5156L0.553711 13.4961L1.80078 11.5146L3.04297 13.4961Z" fill="#CE1720" style="fill:#CE1720;fill:color(display-p3 0.8078 0.0902 0.1255);fill-opacity:1;"/>
<path d="M5.91797 13.4961L4.66992 15.5156L3.42871 13.4961L4.66992 11.5146L5.91797 13.4961Z" fill="#CE1720" style="fill:#CE1720;fill:color(display-p3 0.8078 0.0902 0.1255);fill-opacity:1;"/>
<path d="M3.04297 8.24707L1.80078 10.2666L0.553711 8.24707L1.80078 6.26562L3.04297 8.24707Z" fill="#CE1720" style="fill:#CE1720;fill:color(display-p3 0.8078 0.0902 0.1255);fill-opacity:1;"/>
<path d="M5.91797 8.24707L4.66992 10.2666L3.42871 8.24707L4.66992 6.26562L5.91797 8.24707Z" fill="#CE1720" style="fill:#CE1720;fill:color(display-p3 0.8078 0.0902 0.1255);fill-opacity:1;"/>
<path fill-rule="evenodd" clip-rule="evenodd" d="M3.0957 3.07422L1.80176 5.17578L0.5 3.07422L1.80176 1.00391L3.0957 3.07422ZM1.03125 3.07617L1.80078 4.31836L2.56543 3.07617L1.80078 1.85156L1.03125 3.07617Z" fill="#CE1720" style="fill:#CE1720;fill:color(display-p3 0.8078 0.0902 0.1255);fill-opacity:1;"/>
<path fill-rule="evenodd" clip-rule="evenodd" d="M5.97168 3.07422L4.66992 5.17578L3.37598 3.07422L4.66992 1.00391L5.97168 3.07422ZM3.90625 3.07617L4.6709 4.31836L5.44043 3.0752L4.6709 1.85156L3.90625 3.07617Z" fill="#CE1720" style="fill:#CE1720;fill:color(display-p3 0.8078 0.0902 0.1255);fill-opacity:1;"/>
</g>
<defs>
<clipPath id="clip0_1493_15688">
<rect width="33" height="22" fill="white" style="fill:white;fill-opacity:1;"/>
</clipPath>
</defs>
</svg>
