<svg width="33" height="22" viewBox="0 0 33 22" fill="none" xmlns="http://www.w3.org/2000/svg">
<g clip-path="url(#clip0_1493_15582)">
<path d="M0 -0.00012207H33V21.9999H0V-0.00012207Z" fill="#01237A" style="fill:#01237A;fill:color(display-p3 0.0039 0.1373 0.4784);fill-opacity:1;"/>
<path d="M24.7018 4.59119L25.0416 5.63677H26.1409L25.2515 6.28294L25.5912 7.32852L24.7018 6.68222L23.8124 7.32852L24.1521 6.28294L23.2627 5.63677H24.362L24.7018 4.59119ZM20.1854 6.4619L21.165 6.96095L21.9423 6.18368L21.7704 7.26946L22.7499 7.76858L21.6641 7.94053L21.4921 9.02637L20.9929 8.04686L19.9072 8.21881L20.6846 7.44147L20.1854 6.4619ZM18.3147 10.9783L19.3603 10.6386L19.3603 9.53926L20.0064 10.4286L21.052 10.0888L20.4058 10.9783L21.052 11.8677L20.0064 11.528L19.3603 12.4173V11.318L18.3147 10.9783ZM20.1854 15.4946L20.6845 14.515L19.9072 13.7377L20.9931 13.9097L21.4921 12.9302L21.6641 14.0159L22.7499 14.1878L21.7704 14.6869L21.9423 15.7729L21.165 14.9954L20.1854 15.4946ZM24.7018 17.3653L24.362 16.3198H23.2626L24.1521 15.6736L23.8124 14.628L24.7018 15.2741L25.5912 14.628L25.2515 15.6736L26.1409 16.3198H25.0416L24.7018 17.3653ZM29.2181 15.4946L28.2385 14.9956L27.4612 15.7729L27.6332 14.6869L26.6536 14.188L27.7394 14.0159L27.9115 12.9302L28.4104 13.9097L29.4963 13.7377L28.7189 14.5151L29.2181 15.4946ZM31.0888 10.9783L30.0433 11.318V12.4173L29.3971 11.5279L28.3515 11.8677L28.9977 10.9783L28.3515 10.0888L29.3971 10.4286L30.0433 9.53926V10.6386L31.0888 10.9783ZM29.2181 6.46202L28.7191 7.44147L29.4963 8.21881L28.4104 8.04686L27.9115 9.02637L27.7394 7.94053L26.6536 7.76845L27.6332 7.26946L27.4612 6.18374L28.2385 6.96095L29.2181 6.46202ZM0 6.51844V7.54768H2.9635L0 9.5233V10.0083L3.69092 7.54761H5.1462L0 10.9785H7.20468V6.51838L0 6.51844ZM6.17544 10.9783H1.4556L6.17544 7.83188V10.9783ZM11.3216 3.43072L16.4678 -0.00012207H9.26316V4.45996H16.4678V3.43072H13.5043L16.4678 1.45497V0.970001L12.7769 3.43059H11.3216V3.43072ZM10.2924 6.51399e-06H15.0122L10.2924 3.14646V6.51399e-06ZM9.26316 10.9785H16.4678L11.3216 7.54761H12.7769L16.4678 10.0083V9.52337L13.5043 7.54768H16.4678V6.51844H9.26316V10.9785ZM10.2924 7.83188L15.0122 10.9783H10.2924V7.83188ZM7.20468 -0.00012207H0L5.1462 3.43072H3.69092L0 0.970065V1.45503L2.9635 3.43066H0V4.4599H7.20468V-0.00012207ZM6.17544 3.14646L1.4556 6.51399e-06H6.17544V3.14646Z" fill="white" style="fill:white;fill-opacity:1;"/>
<path d="M9.26316 -0.00012207H7.20468V4.45996H0V6.51844H7.20468V10.9785H9.26316V6.51844H16.4678V4.45996H9.26316V-0.00012207Z" fill="#D80027" style="fill:#D80027;fill:color(display-p3 0.8471 0.0000 0.1529);fill-opacity:1;"/>
<path d="M5.1462 3.43072L0 -0.00012207V0.970065L3.69092 3.43072H5.1462ZM11.3216 3.43072H12.7769L16.4678 0.970065V-0.00012207L11.3216 3.43072ZM3.69092 7.54768L0 10.0083V10.9785L5.1462 7.54768H3.69092ZM11.3216 7.54768L16.4678 10.9785V10.0083L12.7769 7.54768H11.3216Z" fill="#D80027" style="fill:#D80027;fill:color(display-p3 0.8471 0.0000 0.1529);fill-opacity:1;"/>
</g>
<defs>
<clipPath id="clip0_1493_15582">
<rect width="33" height="22" fill="white" style="fill:white;fill-opacity:1;"/>
</clipPath>
</defs>
</svg>
