<svg width="33" height="22" viewBox="0 0 33 22" fill="none" xmlns="http://www.w3.org/2000/svg">
<g clip-path="url(#clip0_1493_15675)">
<path d="M0 0H33V22H0V0Z" fill="white" style="fill:white;fill-opacity:1;"/>
<path d="M9.11517 9.95147C9.11517 9.95147 9.12804 14.2678 13.9204 14.1521L14.2099 15.0462H14.7824C14.7824 15.0462 14.3064 12.4023 18.6485 12.3766C18.6485 12.3766 18.6485 10.6012 20.4239 10.6012H23.0935C23.0935 10.6012 18.8479 7.26902 26.8824 3.01054L26.9982 2.16785C26.9982 2.16785 18.6421 6.7351 14.2035 5.84738C14.2035 5.84738 14.8918 8.5813 13.5087 8.5813C12.814 8.5813 12.8848 8.06024 11.431 8.06024C10.228 8.06024 10.3181 9.3275 9.73915 9.31463C9.16664 9.30177 8.52979 8.5234 8.47833 8.65849C8.4333 8.79358 9.11517 9.95147 9.11517 9.95147Z" fill="#DB7D00" style="fill:#DB7D00;fill:color(display-p3 0.8588 0.4902 0.0000);fill-opacity:1;"/>
<path d="M15.2585 19.8193C15.7024 19.4977 16.0948 19.3948 16.6995 19.2854C17.3042 19.1761 17.9474 19.0024 18.2819 18.9123C18.6164 18.8223 17.1433 19.3369 16.7702 19.4462C16.3971 19.5492 15.2585 19.8193 15.2585 19.8193ZM17.6966 18.8737C17.5743 18.1082 17.8767 17.3106 18.565 16.9889C18.7258 17.5422 18.2305 18.4813 17.6966 18.8737ZM18.8673 18.4749C18.4942 17.8445 19.1246 17.0211 19.5814 16.6223C19.7936 17.0082 19.4205 18.1468 18.8673 18.4749ZM19.9545 17.986C19.5556 17.4457 20.0252 16.4936 20.5205 16.1205C20.7199 16.648 20.527 17.6129 19.9545 17.986ZM21.0416 17.3041C20.6814 16.7895 20.9322 15.9919 21.4468 15.4772C21.8199 15.9018 21.5047 16.8281 21.0416 17.3041ZM21.91 16.6158C21.6077 16.1334 21.9808 14.9819 22.4632 14.6603C22.6755 15.0848 22.5147 16.2942 21.91 16.6158ZM22.6047 16.4357C22.5147 15.741 23.724 14.9755 24.2258 14.9948C24.1679 15.5673 23.6533 16.1913 22.6047 16.4357ZM21.9293 17.2205C22.4954 16.6351 23.6018 16.6351 23.9942 16.7574C23.8849 17.0983 22.5854 17.8445 21.9293 17.2205Z" fill="#006651" style="fill:#006651;fill:color(display-p3 0.0000 0.4000 0.3176);fill-opacity:1;"/>
<path d="M21.1445 17.8059C21.9421 17.5936 22.4632 17.4135 22.9392 17.9152C22.6047 18.3398 21.3053 18.2176 21.1445 17.8059ZM20.0059 18.3205C20.7714 17.9088 21.6977 18.5135 21.8392 18.8737C20.9836 19.2275 19.993 18.4106 20.0059 18.3205ZM18.9573 18.9123C19.6521 18.6486 20.4497 19.0024 20.7714 19.3948C20.3983 19.5685 19.4205 19.7614 18.9573 18.9123ZM17.9989 19.2147C18.7965 19.1246 19.5684 19.7293 19.7357 20.0767C18.7129 20.1731 18.3205 19.8708 17.9989 19.2147ZM17.7415 19.8193C17.2977 19.4977 16.9053 19.3948 16.3006 19.2854C15.6959 19.1761 15.0527 19.0024 14.7182 18.9123C14.3772 18.8223 15.8567 19.3369 16.2298 19.4462C16.6029 19.5492 17.7415 19.8193 17.7415 19.8193ZM15.3035 18.8737C15.4258 18.1082 15.1234 17.3106 14.4351 16.9889C14.2743 17.5422 14.7696 18.4813 15.3035 18.8737ZM14.1328 18.4749C14.5059 17.8445 13.8755 17.0211 13.4187 16.6223C13.2065 17.0082 13.5796 18.1468 14.1328 18.4749ZM13.0456 17.986C13.4445 17.4457 12.9749 16.4936 12.4796 16.1205C12.2801 16.648 12.4731 17.6129 13.0456 17.986ZM11.9585 17.3041C12.3187 16.7895 12.0679 15.9919 11.5532 15.4772C11.1801 15.9018 11.4953 16.8281 11.9585 17.3041ZM11.0901 16.6158C11.3924 16.1334 11.0193 14.9819 10.5369 14.6603C10.3246 15.0848 10.4854 16.2942 11.0901 16.6158ZM10.3953 16.4357C10.4854 15.741 9.27605 14.9755 8.77429 14.9948C8.83219 15.5673 9.34681 16.1913 10.3953 16.4357ZM11.0708 17.2205C10.5047 16.6351 9.39827 16.6351 9.00587 16.7574C9.11523 17.0983 10.4146 17.8445 11.0708 17.2205Z" fill="#006651" style="fill:#006651;fill:color(display-p3 0.0000 0.4000 0.3176);fill-opacity:1;"/>
<path d="M11.8555 17.8059C11.0579 17.5936 10.5368 17.4135 10.0608 17.9153C10.3953 18.3398 11.6947 18.2176 11.8555 17.8059ZM12.9941 18.3205C12.2286 17.9088 11.3023 18.5135 11.1608 18.8737C12.0163 19.2275 13.007 18.4106 12.9941 18.3205ZM14.0427 18.9123C13.3479 18.6486 12.5503 19.0024 12.2286 19.3948C12.6017 19.5685 13.5795 19.7615 14.0427 18.9123ZM15.0011 19.2147C14.2035 19.1246 13.4316 19.7293 13.2643 20.0767C14.2871 20.1731 14.6795 19.8708 15.0011 19.2147Z" fill="#006651" style="fill:#006651;fill:color(display-p3 0.0000 0.4000 0.3176);fill-opacity:1;"/>
</g>
<defs>
<clipPath id="clip0_1493_15675">
<rect width="33" height="22" fill="white" style="fill:white;fill-opacity:1;"/>
</clipPath>
</defs>
</svg>
