<svg width="33" height="22" viewBox="0 0 33 22" fill="none" xmlns="http://www.w3.org/2000/svg">
<g clip-path="url(#clip0_1493_15631)">
<path d="M0 0H33V22H0V0Z" fill="#FFDA44" style="fill:#FFDA44;fill:color(display-p3 1.0000 0.8549 0.2667);fill-opacity:1;"/>
<path d="M0 10.9807H33V16.4678H0V10.9807Z" fill="#0052B4" style="fill:#0052B4;fill:color(display-p3 0.0000 0.3216 0.7059);fill-opacity:1;"/>
<path d="M0 16.4679H33V21.955H0V16.4679Z" fill="#D80027" style="fill:#D80027;fill:color(display-p3 0.8471 0.0000 0.1529);fill-opacity:1;"/>
<path d="M16.4678 14.8597C18.5995 14.8597 20.3275 13.1317 20.3275 11C20.3275 8.8684 18.5995 7.14038 16.4678 7.14038C14.3362 7.14038 12.6082 8.8684 12.6082 11C12.6082 13.1317 14.3362 14.8597 16.4678 14.8597Z" fill="#FFDA44" style="fill:#FFDA44;fill:color(display-p3 1.0000 0.8549 0.2667);fill-opacity:1;"/>
<path d="M23.7497 5.13976C23.7497 5.13976 22 4.25204 21.569 4.11052C21.138 3.969 18.4105 3.2614 18.4105 3.66023C18.4105 4.3228 17.5421 4.43216 17.4134 4.43216C17.2848 4.43216 17.2848 4.09122 16.4614 4.09122C15.638 4.09122 15.5801 4.39999 15.445 4.39999C15.3035 4.39999 14.5123 4.33567 14.5123 3.66023C14.5123 3.32573 11.7526 3.91754 11.3538 4.11052C10.9614 4.30994 9.1731 5.13976 9.1731 5.13976C9.1731 5.13976 12.1193 5.31344 12.6403 5.53859C13.1614 5.76374 15.4579 6.59999 15.4579 6.59999L15.2778 7.45555H17.7094L17.4649 6.59999C17.4649 6.59999 19.7228 5.78304 20.2825 5.53859C20.8421 5.29415 23.7497 5.13976 23.7497 5.13976Z" fill="#4C1F00" style="fill:#4C1F00;fill:color(display-p3 0.2980 0.1216 0.0000);fill-opacity:1;"/>
<path d="M14.0041 11.0451C14.0041 12.4024 15.1105 13.5088 16.4678 13.5088C17.8251 13.5088 18.9316 12.4024 18.9316 11.0451V10.3053H14.0105V11.0451H14.0041Z" fill="#57BA17" style="fill:#57BA17;fill:color(display-p3 0.3412 0.7294 0.0902);fill-opacity:1;"/>
<path d="M16.4678 7.10815C15.1105 7.10815 14.0041 8.21459 14.0041 9.5719V10.3117H18.9251V9.5719C18.9316 8.21459 17.8251 7.10815 16.4678 7.10815Z" fill="#338AF3" style="fill:#338AF3;fill:color(display-p3 0.2000 0.5412 0.9529);fill-opacity:1;"/>
</g>
<defs>
<clipPath id="clip0_1493_15631">
<rect width="33" height="22" fill="white" style="fill:white;fill-opacity:1;"/>
</clipPath>
</defs>
</svg>
