<svg width="33" height="22" viewBox="0 0 33 22" fill="none" xmlns="http://www.w3.org/2000/svg">
<g clip-path="url(#clip0_1493_15629)">
<path d="M0 0H33V22H0V0Z" fill="white" style="fill:white;fill-opacity:1;"/>
<path d="M0 0H33V7.33333H0V0Z" fill="#D80027" style="fill:#D80027;fill:color(display-p3 0.8471 0.0000 0.1529);fill-opacity:1;"/>
<path d="M0 14.6666H33V22H0V14.6666Z" fill="black" style="fill:black;fill-opacity:1;"/>
<path d="M14.1713 13.1485C14.1713 13.1485 14.1713 9.39181 14.4608 8.98655C14.6602 8.70994 15.5415 9.32105 15.921 9.27602C15.921 9.27602 16.1912 8.79356 16.2105 8.50409C16.2298 8.20818 16.1397 8.0152 15.8953 8.10526C15.8953 8.10526 15.8181 7.97017 15.9275 7.89298C16.0304 7.81579 16.2877 7.89941 16.2877 7.89941C16.2877 7.89941 16.2555 7.83508 16.3906 7.84152C16.5772 7.85438 16.8538 7.93158 16.8666 8.20175C16.8795 8.40117 16.8859 8.69707 16.8924 8.7614C16.9374 9.19883 17.0661 9.32105 17.0661 9.32105C17.0661 9.32105 18.2497 8.72924 18.4813 8.98655C18.6935 9.23099 18.7707 13.1485 18.7707 13.1485L17.6064 12.0678L18.3848 13.9655C18.3848 13.9655 17.4585 14.1199 16.5257 14.1199C15.593 14.1199 14.5251 13.8497 14.5251 13.8497L15.4128 12.0357L14.1713 13.1485Z" fill="#C09300" style="fill:#C09300;fill:color(display-p3 0.7529 0.5765 0.0000);fill-opacity:1;"/>
</g>
<defs>
<clipPath id="clip0_1493_15629">
<rect width="33" height="22" fill="white" style="fill:white;fill-opacity:1;"/>
</clipPath>
</defs>
</svg>
