<svg width="33" height="22" viewBox="0 0 33 22" fill="none" xmlns="http://www.w3.org/2000/svg">
<g clip-path="url(#clip0_1493_15712)">
<path d="M0 0H33V22H0V0Z" fill="#338AF3" style="fill:#338AF3;fill:color(display-p3 0.2000 0.5412 0.9529);fill-opacity:1;"/>
<path d="M0 0H33V11H0V0Z" fill="#56AF35" style="fill:#56AF35;fill:color(display-p3 0.3373 0.6863 0.2078);fill-opacity:1;"/>
<path d="M0 22L33 11L0 0V22Z" fill="#D80027" style="fill:#D80027;fill:color(display-p3 0.8471 0.0000 0.1529);fill-opacity:1;"/>
<path d="M8.66491 14.8918C10.8263 14.8918 12.576 13.1421 12.576 10.9807C12.576 8.81926 10.8263 7.06955 8.66491 7.06955C6.5035 7.06955 4.75379 8.81926 4.75379 10.9807C4.75379 13.1421 6.5035 14.8918 8.66491 14.8918ZM8.66491 16.4549C5.64151 16.4549 3.1842 14.0041 3.1842 10.9742C3.1842 7.94441 5.63508 5.49353 8.66491 5.49353C11.6947 5.49353 14.1456 7.94441 14.1456 10.9742C14.1456 14.0041 11.6883 16.4549 8.66491 16.4549Z" fill="#FFC945" style="fill:#FFC945;fill:color(display-p3 1.0000 0.7882 0.2706);fill-opacity:1;"/>
<path d="M7.68713 10.6654C8.30886 10.6654 8.81286 10.1614 8.81286 9.53967C8.81286 8.91795 8.30886 8.41394 7.68713 8.41394C7.06541 8.41394 6.5614 8.91795 6.5614 9.53967C6.5614 10.1614 7.06541 10.6654 7.68713 10.6654Z" fill="#FFC945" style="fill:#FFC945;fill:color(display-p3 1.0000 0.7882 0.2706);fill-opacity:1;"/>
<path d="M9.57837 11.3217C10.2001 11.3217 10.7041 10.8176 10.7041 10.1959C10.7041 9.5742 10.2001 9.07019 9.57837 9.07019C8.95664 9.07019 8.45264 9.5742 8.45264 10.1959C8.45264 10.8176 8.95664 11.3217 9.57837 11.3217Z" fill="#FFC945" style="fill:#FFC945;fill:color(display-p3 1.0000 0.7882 0.2706);fill-opacity:1;"/>
<path d="M8.66492 9.82275C9.28664 9.82275 9.79065 9.31874 9.79065 8.69702C9.79065 8.0753 9.28664 7.57129 8.66492 7.57129C8.04319 7.57129 7.53918 8.0753 7.53918 8.69702C7.53918 9.31874 8.04319 9.82275 8.66492 9.82275Z" fill="#FFC945" style="fill:#FFC945;fill:color(display-p3 1.0000 0.7882 0.2706);fill-opacity:1;"/>
<path d="M7.68713 12.2351C8.30886 12.2351 8.81286 11.7311 8.81286 11.1094C8.81286 10.4876 8.30886 9.98364 7.68713 9.98364C7.06541 9.98364 6.5614 10.4876 6.5614 11.1094C6.5614 11.7311 7.06541 12.2351 7.68713 12.2351Z" fill="#FFC945" style="fill:#FFC945;fill:color(display-p3 1.0000 0.7882 0.2706);fill-opacity:1;"/>
<path d="M9.6427 12.8848C10.2644 12.8848 10.7684 12.3808 10.7684 11.759C10.7684 11.1373 10.2644 10.6333 9.6427 10.6333C9.02097 10.6333 8.51697 11.1373 8.51697 11.759C8.51697 12.3808 9.02097 12.8848 9.6427 12.8848Z" fill="#FFC945" style="fill:#FFC945;fill:color(display-p3 1.0000 0.7882 0.2706);fill-opacity:1;"/>
<path d="M7.88013 13.8625C8.50185 13.8625 9.00586 13.3585 9.00586 12.7368C9.00586 12.1151 8.50185 11.6111 7.88013 11.6111C7.2584 11.6111 6.75439 12.1151 6.75439 12.7368C6.75439 13.3585 7.2584 13.8625 7.88013 13.8625Z" fill="#FFC945" style="fill:#FFC945;fill:color(display-p3 1.0000 0.7882 0.2706);fill-opacity:1;"/>
<path d="M9.38537 14.3257C10.0071 14.3257 10.5111 13.8217 10.5111 13.1999C10.5111 12.5782 10.0071 12.0742 9.38537 12.0742C8.76365 12.0742 8.25964 12.5782 8.25964 13.1999C8.25964 13.8217 8.76365 14.3257 9.38537 14.3257Z" fill="#FFC945" style="fill:#FFC945;fill:color(display-p3 1.0000 0.7882 0.2706);fill-opacity:1;"/>
</g>
<defs>
<clipPath id="clip0_1493_15712">
<rect width="33" height="22" fill="white" style="fill:white;fill-opacity:1;"/>
</clipPath>
</defs>
</svg>
