<svg width="33" height="22" viewBox="0 0 33 22" fill="none" xmlns="http://www.w3.org/2000/svg">
<g clip-path="url(#clip0_1493_15627)">
<path d="M0 0H33V22H0V0Z" fill="white" style="fill:white;fill-opacity:1;"/>
<path d="M0 0H33V5.86667H0V0ZM0 16.1333H33V22H0V16.1333Z" fill="#D03433" style="fill:#D03433;fill:color(display-p3 0.8157 0.2039 0.2000);fill-opacity:1;"/>
<path d="M0 5.8667H33V16.1334H0V5.8667Z" fill="#FBCA46" style="fill:#FBCA46;fill:color(display-p3 0.9843 0.7922 0.2745);fill-opacity:1;"/>
<path d="M11.44 10.2667H12.9067V11.0001H11.44V10.2667Z" fill="white" style="fill:white;fill-opacity:1;"/>
<path d="M10.56 12.4667C10.56 12.9067 11 13.2 11.44 13.2C11.88 13.2 12.32 12.9067 12.32 12.4667L12.4667 10.2667H10.4133L10.56 12.4667ZM9.67999 10.2667C9.67999 9.82666 9.97333 9.53333 10.2667 9.53333H12.4667C12.9067 9.53333 13.2 9.82666 13.2 10.12V10.2667L13.0533 12.4667C12.9067 13.3467 12.32 13.9333 11.44 13.9333C10.56 13.9333 9.97333 13.3467 9.82666 12.4667L9.67999 10.2667Z" fill="#A41517" style="fill:#A41517;fill:color(display-p3 0.6431 0.0824 0.0902);fill-opacity:1;"/>
<path d="M9.97333 11H12.9067V11.7334H12.1733L11.44 13.2L10.7067 11.7334H9.97333V11ZM7.77333 8.80004H9.24V13.9334H7.77333V8.80004ZM13.64 8.80004H15.1067V13.9334H13.64V8.80004ZM9.97333 8.06671C9.97333 7.62671 10.2667 7.33337 10.7067 7.33337H12.1733C12.6133 7.33337 12.9067 7.62671 12.9067 8.06671V8.36004C12.9067 8.65337 12.76 8.80004 12.4667 8.80004H10.2667C10.12 8.80004 9.97333 8.65337 9.97333 8.50671V8.06671Z" fill="#A41517" style="fill:#A41517;fill:color(display-p3 0.6431 0.0824 0.0902);fill-opacity:1;"/>
</g>
<defs>
<clipPath id="clip0_1493_15627">
<rect width="33" height="22" fill="white" style="fill:white;fill-opacity:1;"/>
</clipPath>
</defs>
</svg>
