<svg width="33" height="22" viewBox="0 0 33 22" fill="none" xmlns="http://www.w3.org/2000/svg">
<g clip-path="url(#clip0_1493_15733)">
<path d="M0 0H33V22H0V0Z" fill="#003399" style="fill:#003399;fill:color(display-p3 0.0000 0.2000 0.6000);fill-opacity:1;"/>
<path d="M16.498 2.43896L16.7724 3.28303H17.6644L16.946 3.805L17.2164 4.64997L16.498 4.12799L15.7796 4.64997L16.054 3.80545L15.3357 3.28348H16.2236L16.498 2.43896ZM12.8314 3.41674L13.1057 4.26081H13.9977L13.2793 4.78278L13.5498 5.62774L12.8314 5.10577L12.1129 5.62774L12.3874 4.78323L11.669 4.26126H12.557L12.8314 3.41674ZM10.1425 6.10563L10.4169 6.9497H11.3088L10.5905 7.47167L10.8609 8.31663L10.1425 7.79466L9.42405 8.31663L9.69848 7.47212L8.9801 6.95015H9.86808L10.1425 6.10563ZM9.16469 9.77226L9.43908 10.6164H10.3311L9.61268 11.1384L9.88312 11.9833L9.16469 11.4613L8.44627 11.9833L8.7207 11.1387L8.00232 10.6168H8.8903L9.16469 9.77226ZM10.1425 13.439L10.4169 14.2831H11.3088L10.5905 14.805L10.8609 15.65L10.1425 15.128L9.42405 15.65L9.69848 14.8055L8.9801 14.2835H9.86808L10.1425 13.439ZM12.8314 16.1279L13.1057 16.972H13.9977L13.2793 17.4939L13.5498 18.3389L12.8314 17.8169L12.1129 18.3389L12.3874 17.4943L11.669 16.9724H12.557L12.8314 16.1279ZM20.1647 3.41674L20.4391 4.26081H21.3311L20.6127 4.78278L20.8831 5.62774L20.1647 5.10577L19.4462 5.62774L19.7207 4.78323L19.0023 4.26126H19.8903L20.1647 3.41674ZM22.8536 6.10563L23.128 6.9497H24.0199L23.3016 7.47167L23.572 8.31663L22.8536 7.79466L22.1351 8.31663L22.4096 7.47212L21.6912 6.95015H22.5792L22.8536 6.10563ZM23.8314 9.7723L24.1057 10.6164H24.9977L24.2793 11.1384L24.5498 11.9833L23.8314 11.4613L23.1129 11.9833L23.3874 11.1387L22.669 10.6168H23.557L23.8314 9.7723ZM22.8536 13.439L23.128 14.2831H24.0199L23.3016 14.805L23.572 15.65L22.8536 15.128L22.1352 15.65L22.4096 14.8055L21.6912 14.2835H22.5792L22.8536 13.439ZM16.498 17.1056L16.7724 17.9497H17.6644L16.946 18.4717L17.2164 19.3166L16.498 18.7947L15.7796 19.3166L16.054 18.4721L15.3357 17.9501H16.2236L16.498 17.1056ZM20.1647 16.1278L20.4391 16.9719H21.3311L20.6127 17.4939L20.8832 18.3389L20.1647 17.8169L19.4463 18.3389L19.7207 17.4943L19.0023 16.9724H19.8903L20.1647 16.1278Z" fill="#FFCC00" style="fill:#FFCC00;fill:color(display-p3 1.0000 0.8000 0.0000);fill-opacity:1;"/>
</g>
<defs>
<clipPath id="clip0_1493_15733">
<rect width="33" height="22" fill="white" style="fill:white;fill-opacity:1;"/>
</clipPath>
</defs>
</svg>
