<svg width="33" height="22" viewBox="0 0 33 22" fill="none" xmlns="http://www.w3.org/2000/svg">
<g clip-path="url(#clip0_1493_15605)">
<path d="M0 0H33V21.955H0V0Z" fill="white" style="fill:white;fill-opacity:1;"/>
<path d="M20.0509 14.7953L33 21.955V19.9287L23.7561 14.7953H20.0509ZM12.8848 7.15965L0 0V2.02632L9.24386 7.15965H12.8848Z" fill="white" style="fill:white;fill-opacity:1;"/>
<path d="M25.3322 14.7953L33 19.0216V14.7953H25.3322ZM20.0509 14.7953L33 21.955V19.9287L23.7561 14.7953H20.0509ZM29.5006 21.955L20.0444 16.6994V21.955H29.5006ZM5.80877 14.7953L0 18.0246V14.7953H5.80877ZM12.8848 15.7088V21.9614H1.64035L12.8848 15.7088ZM7.60351 7.15965L0 2.93333V7.15965H7.60351ZM12.8848 7.15965L0 0V2.02632L9.24386 7.15965H12.8848ZM3.43509 0L12.8912 5.25556V0H3.43509ZM27.1269 7.15965L33 3.93041V7.15965H27.1269ZM20.0509 6.2462V0H31.3018L20.0509 6.2462Z" fill="#0052B4" style="fill:#0052B4;fill:color(display-p3 0.0000 0.3216 0.7059);fill-opacity:1;"/>
<path d="M18.5263 0H14.4094V8.92222H0V13.0392H14.4094V21.9614H18.5263V13.0392H32.9357V8.92222H18.5263V0Z" fill="#D80027" style="fill:#D80027;fill:color(display-p3 0.8471 0.0000 0.1529);fill-opacity:1;"/>
<path d="M20.0509 14.7953L33 21.955V19.9287L23.7561 14.7953H20.0509ZM9.24386 14.7953L0 19.9351V21.9614L12.8848 14.7953H9.24386ZM12.8848 7.15965L0 0V2.02632L9.24386 7.15965H12.8848ZM23.6918 7.15965L33 2.02632V0L20.0509 7.15965H23.6918Z" fill="#D80027" style="fill:#D80027;fill:color(display-p3 0.8471 0.0000 0.1529);fill-opacity:1;"/>
</g>
<defs>
<clipPath id="clip0_1493_15605">
<rect width="33" height="22" fill="white" style="fill:white;fill-opacity:1;"/>
</clipPath>
</defs>
</svg>
