<svg width="33" height="22" viewBox="0 0 33 22" fill="none" xmlns="http://www.w3.org/2000/svg">
<g clip-path="url(#clip0_1493_15648)">
<path d="M0.5 0.0419922H33.5V21.997H0.5V0.0419922Z" fill="white" style="fill:white;fill-opacity:1;"/>
<path d="M20.5509 14.8374L33.5 21.9971V19.9707L24.2562 14.8374H20.5509Z" fill="white" style="fill:white;fill-opacity:1;"/>
<path d="M13.3848 7.20164L0.5 0.0419922V2.06831L9.74386 7.20164H13.3848Z" fill="white" style="fill:white;fill-opacity:1;"/>
<path d="M25.8322 14.8374L33.5 19.0637V14.8374H25.8322ZM20.5509 14.8374L33.5 21.9971V19.9707L24.2561 14.8374H20.5509ZM30.0006 21.9971L20.5444 16.7415V21.9971H30.0006Z" fill="#0052B4" style="fill:#0052B4;fill:color(display-p3 0.0000 0.3216 0.7059);fill-opacity:1;"/>
<path d="M6.30877 14.8374L0.5 18.0666V14.8374H6.30877ZM13.3848 15.7509V22.0035H2.14035L13.3848 15.7509Z" fill="#0052B4" style="fill:#0052B4;fill:color(display-p3 0.0000 0.3216 0.7059);fill-opacity:1;"/>
<path d="M8.10351 7.20164L0.5 2.97533V7.20164H8.10351ZM13.3848 7.20164L0.5 0.0419922V2.06831L9.74386 7.20164H13.3848ZM3.93509 0.0419922L13.3912 5.29755V0.0419922H3.93509Z" fill="#0052B4" style="fill:#0052B4;fill:color(display-p3 0.0000 0.3216 0.7059);fill-opacity:1;"/>
<path d="M27.6269 7.20164L33.5 3.9724V7.20164H27.6269ZM20.5509 6.28819V0.0419922H31.8018L20.5509 6.28819Z" fill="#0052B4" style="fill:#0052B4;fill:color(display-p3 0.0000 0.3216 0.7059);fill-opacity:1;"/>
<path d="M19.0263 0.0419922H14.9094V8.96421H0.5V13.0812H14.9094V22.0034H19.0263V13.0812H33.4357V8.96421H19.0263V0.0419922Z" fill="#D80027" style="fill:#D80027;fill:color(display-p3 0.8471 0.0000 0.1529);fill-opacity:1;"/>
<path d="M20.5509 14.8374L33.5 21.9971V19.9707L24.2562 14.8374H20.5509Z" fill="#D80027" style="fill:#D80027;fill:color(display-p3 0.8471 0.0000 0.1529);fill-opacity:1;"/>
<path d="M9.74386 14.8374L0.5 19.9772V22.0035L13.3848 14.8374H9.74386Z" fill="#D80027" style="fill:#D80027;fill:color(display-p3 0.8471 0.0000 0.1529);fill-opacity:1;"/>
<path d="M13.3848 7.20164L0.5 0.0419922V2.06831L9.74386 7.20164H13.3848Z" fill="#D80027" style="fill:#D80027;fill:color(display-p3 0.8471 0.0000 0.1529);fill-opacity:1;"/>
<path d="M24.1918 7.20164L33.5 2.06831V0.0419922L20.5509 7.20164H24.1918Z" fill="#D80027" style="fill:#D80027;fill:color(display-p3 0.8471 0.0000 0.1529);fill-opacity:1;"/>
</g>
<defs>
<clipPath id="clip0_1493_15648">
<rect width="33" height="22" fill="white" style="fill:white;fill-opacity:1;"/>
</clipPath>
</defs>
</svg>
