<svg width="33" height="22" viewBox="0 0 33 22" fill="none" xmlns="http://www.w3.org/2000/svg">
<g clip-path="url(#clip0_1493_15619)">
<path d="M0 0H33V22H0V0Z" fill="white" style="fill:white;fill-opacity:1;"/>
<path d="M0 0H33V3.13918H0V0ZM0 6.27193H33V9.41111H0V6.27193ZM0 12.5439H33V15.683H0V12.5439ZM0 18.8222H33V21.9614H0V18.8222Z" fill="#6DA544" style="fill:#6DA544;fill:color(display-p3 0.4275 0.6471 0.2667);fill-opacity:1;"/>
<path d="M0 0H16.5V9.41111H0V0Z" fill="#D80027" style="fill:#D80027;fill:color(display-p3 0.8471 0.0000 0.1529);fill-opacity:1;"/>
<path d="M7.51993 7.35915L7.03748 6.40711V4.49658L8.23397 3.79541L9.43046 4.49658V5.93108L9.90648 5.45506L10.1767 5.64804L9.90648 6.40711L8.948 7.35915H7.51993Z" fill="white" style="fill:white;fill-opacity:1;"/>
<path d="M5.27486 5.67374C5.46671 5.67374 5.62223 5.51822 5.62223 5.32637C5.62223 5.13453 5.46671 4.979 5.27486 4.979C5.08301 4.979 4.92749 5.13453 4.92749 5.32637C4.92749 5.51822 5.08301 5.67374 5.27486 5.67374Z" fill="white" style="fill:white;fill-opacity:1;"/>
<path d="M5.8409 4.31632C6.03275 4.31632 6.18827 4.1608 6.18827 3.96895C6.18827 3.7771 6.03275 3.62158 5.8409 3.62158C5.64905 3.62158 5.49353 3.7771 5.49353 3.96895C5.49353 4.1608 5.64905 4.31632 5.8409 4.31632Z" fill="white" style="fill:white;fill-opacity:1;"/>
<path d="M6.85726 3.31925C7.0491 3.31925 7.20462 3.16373 7.20462 2.97188C7.20462 2.78003 7.0491 2.62451 6.85726 2.62451C6.66541 2.62451 6.50989 2.78003 6.50989 2.97188C6.50989 3.16373 6.66541 3.31925 6.85726 3.31925Z" fill="white" style="fill:white;fill-opacity:1;"/>
<path d="M8.23397 2.97184C8.42581 2.97184 8.58133 2.81631 8.58133 2.62447C8.58133 2.43262 8.42581 2.2771 8.23397 2.2771C8.04212 2.2771 7.8866 2.43262 7.8866 2.62447C7.8866 2.81631 8.04212 2.97184 8.23397 2.97184Z" fill="white" style="fill:white;fill-opacity:1;"/>
<path d="M9.61055 3.31925C9.8024 3.31925 9.95792 3.16373 9.95792 2.97188C9.95792 2.78003 9.8024 2.62451 9.61055 2.62451C9.41871 2.62451 9.26318 2.78003 9.26318 2.97188C9.26318 3.16373 9.41871 3.31925 9.61055 3.31925Z" fill="white" style="fill:white;fill-opacity:1;"/>
<path d="M10.6269 4.31632C10.8188 4.31632 10.9743 4.1608 10.9743 3.96895C10.9743 3.7771 10.8188 3.62158 10.6269 3.62158C10.4351 3.62158 10.2795 3.7771 10.2795 3.96895C10.2795 4.1608 10.4351 4.31632 10.6269 4.31632Z" fill="white" style="fill:white;fill-opacity:1;"/>
<path d="M11.1929 5.67374C11.3848 5.67374 11.5403 5.51822 11.5403 5.32637C11.5403 5.13453 11.3848 4.979 11.1929 4.979C11.0011 4.979 10.8456 5.13453 10.8456 5.32637C10.8456 5.51822 11.0011 5.67374 11.1929 5.67374Z" fill="white" style="fill:white;fill-opacity:1;"/>
</g>
<defs>
<clipPath id="clip0_1493_15619">
<rect width="33" height="22" fill="white" style="fill:white;fill-opacity:1;"/>
</clipPath>
</defs>
</svg>
