<svg width="33" height="22" viewBox="0 0 33 22" fill="none" xmlns="http://www.w3.org/2000/svg">
<g clip-path="url(#clip0_1493_15632)">
<path d="M0 0H33V22H0V0Z" fill="white" style="fill:white;fill-opacity:1;"/>
<path d="M14.3733 8.8H0V13.2H14.3733V22H18.7733V13.2H33.1467V8.8H18.7733V0H14.3733V8.8Z" fill="#EB000E" style="fill:#EB000E;fill:color(display-p3 0.9216 0.0000 0.0549);fill-opacity:1;"/>
<path d="M25.3732 3.9602L25.0799 2.2002H26.5466L26.2532 3.9602L28.0132 3.66686V5.13353L26.2532 4.8402L26.5466 6.6002H25.0799L25.3732 4.8402L23.6132 5.13353V3.66686L25.3732 3.9602ZM6.74657 3.9602L6.45324 2.2002H7.91991L7.62657 3.9602L9.38657 3.66686V5.13353L7.62657 4.8402L7.91991 6.6002H6.45324L6.74657 4.8402L4.98657 5.13353V3.66686L6.74657 3.9602ZM6.74657 17.1602L6.45324 15.4002H7.91991L7.62657 17.1602L9.38657 16.8669V18.3335L7.62657 18.0402L7.91991 19.8002H6.45324L6.74657 18.0402L4.98657 18.3335V16.8669L6.74657 17.1602ZM25.3732 17.1602L25.0799 15.4002H26.5466L26.2532 17.1602L28.0132 16.8669V18.3335L26.2532 18.0402L26.5466 19.8002H25.0799L25.3732 18.0402L23.6132 18.3335V16.8669L25.3732 17.1602Z" fill="#EB000E" style="fill:#EB000E;fill:color(display-p3 0.9216 0.0000 0.0549);fill-opacity:1;"/>
</g>
<defs>
<clipPath id="clip0_1493_15632">
<rect width="33" height="22" fill="white" style="fill:white;fill-opacity:1;"/>
</clipPath>
</defs>
</svg>
