<svg width="33" height="22" viewBox="0 0 33 22" fill="none" xmlns="http://www.w3.org/2000/svg">
<g clip-path="url(#clip0_1493_15589)">
<path d="M0 0H33V22H0V0Z" fill="#0052B4" style="fill:#0052B4;fill:color(display-p3 0.0000 0.3216 0.7059);fill-opacity:1;"/>
<path d="M16.4678 0V7.55205H13.5023L16.4678 9.5269V10.9807H15.014L10.2924 7.83509V10.9807H6.17544V7.83509L1.4538 10.9807H0V9.5269L2.9655 7.55205H0V3.43509H2.9655L0 1.46023V0H1.4538L6.17544 3.14561V0H10.2924V3.14561L15.014 0H16.4678Z" fill="white" style="fill:white;fill-opacity:1;"/>
<path d="M9.26316 0H7.20468V4.46433H0V6.52281H7.20468V10.9807H9.26316V6.52281H16.4678V4.46433H9.26316V0Z" fill="#D80027" style="fill:#D80027;fill:color(display-p3 0.8471 0.0000 0.1529);fill-opacity:1;"/>
<path d="M16.4678 1.46021V3.43506H13.5023L16.4678 1.46021Z" fill="#2E52B2" style="fill:#2E52B2;fill:color(display-p3 0.1804 0.3216 0.6980);fill-opacity:1;"/>
<path d="M0 10.9806V10.273L4.02047 7.55196H5.47427L0.469591 10.9806H0ZM0.469591 0.00634766L5.47427 3.42857H4.02047L0 0.71395V0.00634766H0.469591ZM16.4678 0.00634766V0.71395L12.4474 3.435H10.9936L15.9982 0.00634766H16.4678ZM15.9982 10.9806L10.9936 7.55196H12.4474L16.4678 10.273V10.9806H15.9982Z" fill="#D80027" style="fill:#D80027;fill:color(display-p3 0.8471 0.0000 0.1529);fill-opacity:1;"/>
<path d="M28.5228 17.8253C29.5531 17.8253 30.3883 16.5724 30.3883 15.027C30.3883 13.4816 29.5531 12.2288 28.5228 12.2288C27.4926 12.2288 26.6573 13.4816 26.6573 15.027C26.6573 16.5724 27.4926 17.8253 28.5228 17.8253Z" fill="white" style="fill:white;fill-opacity:1;"/>
<path d="M26.1748 21.0351C26.9564 21.0351 27.5901 20.7673 27.5901 20.4369C27.5901 20.1065 26.9564 19.8386 26.1748 19.8386C25.3933 19.8386 24.7596 20.1065 24.7596 20.4369C24.7596 20.7673 25.3933 21.0351 26.1748 21.0351Z" fill="#FFCE00" style="fill:#FFCE00;fill:color(display-p3 1.0000 0.8078 0.0000);fill-opacity:1;"/>
<path d="M23.4152 21.0351C24.1968 21.0351 24.8304 20.7673 24.8304 20.4369C24.8304 20.1065 24.1968 19.8386 23.4152 19.8386C22.6336 19.8386 22 20.1065 22 20.4369C22 20.7673 22.6336 21.0351 23.4152 21.0351Z" fill="#FFCE00" style="fill:#FFCE00;fill:color(display-p3 1.0000 0.8078 0.0000);fill-opacity:1;"/>
<path d="M22 12.2288L24.7918 17.8188L27.5901 12.2288H22Z" fill="#39B200" style="fill:#39B200;fill:color(display-p3 0.2235 0.6980 0.0000);fill-opacity:1;"/>
<path d="M21.0673 17.8253C22.0976 17.8253 22.9328 16.5724 22.9328 15.027C22.9328 13.4816 22.0976 12.2288 21.0673 12.2288C20.037 12.2288 19.2018 13.4816 19.2018 15.027C19.2018 16.5724 20.037 17.8253 21.0673 17.8253Z" fill="#9B9B9B" style="fill:#9B9B9B;fill:color(display-p3 0.6078 0.6078 0.6078);fill-opacity:1;"/>
<path d="M23.8655 11.2958L22.9327 12.2286H26.6573L25.7245 11.2958L26.6573 8.49758C26.6573 8.49758 25.821 6.63208 24.7918 6.63208C23.7625 6.63208 22.9263 8.49758 22.9263 8.49758L23.8655 11.2958Z" fill="#757575" style="fill:#757575;fill:color(display-p3 0.4588 0.4588 0.4588);fill-opacity:1;"/>
<path d="M24.7918 6.17533C25.8221 6.17533 26.6573 5.34012 26.6573 4.30983C26.6573 3.27955 25.8221 2.44434 24.7918 2.44434C23.7615 2.44434 22.9263 3.27955 22.9263 4.30983C22.9263 5.34012 23.7615 6.17533 24.7918 6.17533Z" fill="#C6B56F" style="fill:#C6B56F;fill:color(display-p3 0.7765 0.7098 0.4353);fill-opacity:1;"/>
<path d="M24.8305 7.57133C25.8607 7.57133 26.696 6.73611 26.696 5.70583C26.696 4.67554 25.8607 3.84033 24.8305 3.84033C23.8002 3.84033 22.965 4.67554 22.965 5.70583C22.965 6.73611 23.8002 7.57133 24.8305 7.57133Z" fill="#A54A00" style="fill:#A54A00;fill:color(display-p3 0.6471 0.2902 0.0000);fill-opacity:1;"/>
<path d="M28.5228 9.4368C29.5531 9.4368 30.3883 8.60159 30.3883 7.57131C30.3883 6.54102 29.5531 5.70581 28.5228 5.70581C27.4926 5.70581 26.6573 6.54102 26.6573 7.57131C26.6573 8.60159 27.4926 9.4368 28.5228 9.4368Z" fill="white" style="fill:white;fill-opacity:1;"/>
<path d="M22.0128 11.3023C23.0431 11.3023 23.8783 10.4671 23.8783 9.43679C23.8783 8.4065 23.0431 7.57129 22.0128 7.57129C20.9826 7.57129 20.1473 8.4065 20.1473 9.43679C20.1473 10.4671 20.9826 11.3023 22.0128 11.3023Z" fill="#0049FF" style="fill:#0049FF;fill:color(display-p3 0.0000 0.2863 1.0000);fill-opacity:1;"/>
<path d="M27.648 11.3023C28.6783 11.3023 29.5135 10.4671 29.5135 9.43679C29.5135 8.4065 28.6783 7.57129 27.648 7.57129C26.6177 7.57129 25.7825 8.4065 25.7825 9.43679C25.7825 10.4671 26.6177 11.3023 27.648 11.3023Z" fill="#0041F9" style="fill:#0041F9;fill:color(display-p3 0.0000 0.2549 0.9765);fill-opacity:1;"/>
<path d="M24.8305 16.8924C25.8607 16.8924 26.696 16.0572 26.696 15.0269C26.696 13.9966 25.8607 13.1614 24.8305 13.1614C23.8002 13.1614 22.965 13.9966 22.965 15.0269C22.965 16.0572 23.8002 16.8924 24.8305 16.8924Z" fill="#F7D71E" style="fill:#F7D71E;fill:color(display-p3 0.9686 0.8431 0.1176);fill-opacity:1;"/>
<path d="M29.4556 14.094C30.4859 14.094 31.3211 13.2588 31.3211 12.2285C31.3211 11.1982 30.4859 10.363 29.4556 10.363C28.4253 10.363 27.5901 11.1982 27.5901 12.2285C27.5901 13.2588 28.4253 14.094 29.4556 14.094Z" fill="#CEC851" style="fill:#CEC851;fill:color(display-p3 0.8078 0.7843 0.3176);fill-opacity:1;"/>
<path d="M24.7918 20.4883C25.8221 20.4883 26.6573 19.6531 26.6573 18.6228C26.6573 17.5925 25.8221 16.7573 24.7918 16.7573C23.7615 16.7573 22.9263 17.5925 22.9263 18.6228C22.9263 19.6531 23.7615 20.4883 24.7918 20.4883Z" fill="white" style="fill:white;fill-opacity:1;"/>
<path d="M23.8655 8.7293L24.7982 8.50415L25.731 8.7293C25.731 9.21175 24.7982 9.4369 24.7982 9.4369C24.7982 9.4369 23.8655 9.21175 23.8655 8.7293Z" fill="#7C0B29" style="fill:#7C0B29;fill:color(display-p3 0.4863 0.0431 0.1608);fill-opacity:1;"/>
<path d="M21.0673 9.41752C22.0976 9.41752 22.9328 8.58231 22.9328 7.55202C22.9328 6.52173 22.0976 5.68652 21.0673 5.68652C20.037 5.68652 19.2018 6.52173 19.2018 7.55202C19.2018 8.58231 20.037 9.41752 21.0673 9.41752Z" fill="white" style="fill:white;fill-opacity:1;"/>
</g>
<defs>
<clipPath id="clip0_1493_15589">
<rect width="33" height="22" fill="white" style="fill:white;fill-opacity:1;"/>
</clipPath>
</defs>
</svg>
