<svg width="33" height="22" viewBox="0 0 33 22" fill="none" xmlns="http://www.w3.org/2000/svg">
<g clip-path="url(#clip0_1493_15588)">
<path d="M0 0H33V22H0V0Z" fill="white" style="fill:white;fill-opacity:1;"/>
<path d="M0 0H11V22H0V0ZM22 0H33V22H22V0Z" fill="#338AF3" style="fill:#338AF3;fill:color(display-p3 0.2000 0.5412 0.9529);fill-opacity:1;"/>
<path d="M16.4678 11.6625C17.3738 11.6625 18.1082 10.9281 18.1082 10.0222C18.1082 9.11625 17.3738 8.38184 16.4678 8.38184C15.5619 8.38184 14.8275 9.11625 14.8275 10.0222C14.8275 10.9281 15.5619 11.6625 16.4678 11.6625Z" fill="#DCC26D" style="fill:#DCC26D;fill:color(display-p3 0.8627 0.7608 0.4275);fill-opacity:1;"/>
<path d="M12.4924 10.0286C12.4924 11.4503 13.2515 12.7625 14.4737 13.4701C14.8532 13.6889 15.3421 13.5602 15.5608 13.1807C15.7795 12.8011 15.6509 12.3122 15.2713 12.0935C14.5316 11.669 14.0813 10.8777 14.0813 10.0286C14.0813 9.59119 13.7275 9.23096 13.2836 9.23096C12.8398 9.23096 12.4924 9.58476 12.4924 10.0286ZM18.6099 13.3801C19.755 12.6467 20.4497 11.3859 20.4433 10.0286C20.4433 9.59119 20.0895 9.23096 19.6456 9.23096C19.2082 9.23096 18.848 9.58476 18.848 10.0286C18.848 10.8456 18.4298 11.6046 17.748 12.0421C17.3749 12.2736 17.2526 12.7625 17.4842 13.1356C17.7158 13.5087 18.2047 13.631 18.5778 13.3994C18.5906 13.3929 18.5971 13.3865 18.6099 13.3801Z" fill="#628A40" style="fill:#628A40;fill:color(display-p3 0.3843 0.5412 0.2510);fill-opacity:1;"/>
</g>
<defs>
<clipPath id="clip0_1493_15588">
<rect width="33" height="22" fill="white" style="fill:white;fill-opacity:1;"/>
</clipPath>
</defs>
</svg>
