<svg width="33" height="22" viewBox="0 0 33 22" fill="none" xmlns="http://www.w3.org/2000/svg">
<g clip-path="url(#clip0_1493_15580)">
<path fill-rule="evenodd" clip-rule="evenodd" d="M0 -0.785645H33V22.7858H0V-0.785645Z" fill="white" style="fill:white;fill-opacity:1;"/>
<path fill-rule="evenodd" clip-rule="evenodd" d="M0 0H33V22.0001H0V0Z" fill="#EE1C25" style="fill:#EE1C25;fill:color(display-p3 0.9333 0.1098 0.1451);fill-opacity:1;"/>
<path fill-rule="evenodd" clip-rule="evenodd" d="M18.8572 10.513C17.6032 9.72731 17.2858 11.1557 17.2858 10.513C17.2858 9.21188 18.6922 8.15588 20.4286 8.15588C22.1651 8.15588 23.5715 9.21188 23.5715 10.513C22.0802 10.513 21.9309 11.2987 21.2143 11.2987C20.3343 11.2987 20.1112 11.2987 18.8572 10.513ZM20.8215 10.2145C20.9257 10.2145 21.0256 10.1731 21.0993 10.0994C21.173 10.0257 21.2143 9.92579 21.2143 9.82159C21.2143 9.7174 21.173 9.61748 21.0993 9.5438C21.0256 9.47013 20.9257 9.42874 20.8215 9.42874C20.7173 9.42874 20.6174 9.47013 20.5437 9.5438C20.47 9.61748 20.4286 9.7174 20.4286 9.82159C20.4286 9.92579 20.47 10.0257 20.5437 10.0994C20.6174 10.1731 20.7173 10.2145 20.8215 10.2145ZM17.9772 13.2976C18.3355 11.8629 16.8803 12.0027 17.4901 11.8047C18.7283 11.4009 20.1662 12.4129 20.7036 14.0645C21.2395 15.7144 20.6706 17.3802 19.4323 17.7824C18.9719 16.3634 18.1783 16.4656 17.9568 15.7836C17.6849 14.946 17.6173 14.7339 17.9772 13.2976ZM18.8666 15.0733C18.8825 15.1224 18.9079 15.1679 18.9414 15.2072C18.9749 15.2465 19.0158 15.2788 19.0617 15.3023C19.1077 15.3258 19.1578 15.34 19.2093 15.3441C19.2608 15.3483 19.3125 15.3422 19.3616 15.3263C19.4107 15.3104 19.4562 15.285 19.4955 15.2515C19.5348 15.2181 19.5672 15.1772 19.5906 15.1312C19.6141 15.0852 19.6284 15.0351 19.6325 14.9836C19.6366 14.9322 19.6305 14.8804 19.6146 14.8313C19.5825 14.7321 19.5124 14.6497 19.4195 14.6023C19.3267 14.5548 19.2188 14.5462 19.1196 14.5783C19.0204 14.6104 18.9381 14.6806 18.8906 14.7734C18.8432 14.8662 18.8345 14.9741 18.8666 15.0733ZM15.0543 13.3212C16.5315 13.219 15.9501 11.877 16.3272 12.3972C17.0909 13.45 16.5739 15.1315 15.1691 16.1513C13.7642 17.1727 12.0058 17.1444 11.2405 16.0916C12.4473 15.2147 12.1048 14.4919 12.6862 14.0707C13.3981 13.5522 13.5788 13.4217 15.0543 13.3212ZM13.6416 14.7166C13.5998 14.7469 13.5644 14.7852 13.5374 14.8292C13.5104 14.8732 13.4924 14.9221 13.4843 14.9731C13.4762 15.0241 13.4782 15.0762 13.4902 15.1264C13.5023 15.1767 13.5241 15.224 13.5544 15.2658C13.5848 15.3076 13.623 15.343 13.667 15.37C13.7111 15.397 13.76 15.4151 13.811 15.4232C13.862 15.4313 13.9141 15.4292 13.9643 15.4172C14.0145 15.4052 14.0618 15.3834 14.1036 15.353C14.188 15.2918 14.2446 15.1995 14.261 15.0965C14.2773 14.9935 14.2521 14.8882 14.1908 14.8038C14.1296 14.7194 14.0373 14.6628 13.9343 14.6465C13.8313 14.6301 13.726 14.6553 13.6416 14.7166ZM14.1319 10.5492C14.6835 11.9226 15.7803 10.9546 15.4032 11.4732C14.6379 12.526 12.8795 12.5527 11.4746 11.5329C10.0698 10.5115 9.55277 8.83159 10.3181 7.77716C11.5233 8.65559 12.1063 8.10717 12.6862 8.52831C13.3981 9.04688 13.5788 9.17731 14.1319 10.5492ZM12.3656 9.63774C12.3242 9.60366 12.2763 9.57843 12.2248 9.56357C12.1733 9.54872 12.1193 9.54457 12.0661 9.55138C12.0129 9.55819 11.9617 9.57581 11.9156 9.60316C11.8694 9.63051 11.8294 9.66701 11.7979 9.71041C11.7665 9.75382 11.7442 9.8032 11.7325 9.85553C11.7209 9.90786 11.72 9.96202 11.7301 10.0147C11.7401 10.0673 11.7608 10.1174 11.791 10.1618C11.8211 10.2061 11.86 10.2438 11.9052 10.2726C11.9896 10.3263 12.0913 10.3457 12.1896 10.327C12.2879 10.3082 12.3753 10.2527 12.434 10.1717C12.4927 10.0907 12.5183 9.9904 12.5056 9.89117C12.4929 9.79195 12.4429 9.70131 12.3656 9.63774ZM16.4812 8.81431C15.3466 9.76502 16.6069 10.5083 15.9956 10.3087C14.7573 9.90645 14.1885 8.24231 14.7243 6.59231C15.2618 4.94231 16.6996 3.92874 17.9379 4.33102C17.4775 5.75002 18.1783 6.13345 17.9568 6.81545C17.6849 7.65302 17.6158 7.86517 16.4812 8.81431ZM16.8033 6.85474C16.8216 6.80516 16.8297 6.75242 16.8271 6.69965C16.8245 6.64689 16.8113 6.59519 16.7882 6.54765C16.7652 6.50011 16.7328 6.45771 16.693 6.42297C16.6532 6.38824 16.6068 6.36189 16.5566 6.3455C16.5063 6.32911 16.4533 6.32302 16.4007 6.32759C16.3481 6.33216 16.2969 6.3473 16.2503 6.3721C16.2036 6.39691 16.1624 6.43086 16.1292 6.47194C16.096 6.51301 16.0714 6.56037 16.0569 6.61116C16.029 6.70891 16.0401 6.81366 16.0878 6.90341C16.1355 6.99316 16.2162 7.06092 16.3128 7.09245C16.4095 7.12399 16.5145 7.11684 16.606 7.07251C16.6975 7.02818 16.7682 6.95012 16.8033 6.85474Z" fill="white" style="fill:white;fill-opacity:1;"/>
</g>
<defs>
<clipPath id="clip0_1493_15580">
<rect width="33" height="22" fill="white" style="fill:white;fill-opacity:1;"/>
</clipPath>
</defs>
</svg>
