<svg width="33" height="22" viewBox="0 0 33 22" fill="none" xmlns="http://www.w3.org/2000/svg">
<g clip-path="url(#clip0_1493_15579)">
<path d="M0 0H33V22H0V0Z" fill="#0052B4" style="fill:#0052B4;fill:color(display-p3 0.0000 0.3216 0.7059);fill-opacity:1;"/>
<path d="M12.1708 13.676L12.8784 15.1491L14.4673 14.7824L13.7533 16.2491L15.0334 17.2654L13.4445 17.6257V19.2596L12.1708 18.2368L10.8971 19.2596L10.9035 17.6257L9.30823 17.2654L10.5883 16.2491L9.87431 14.7824L11.4696 15.1491L12.1708 13.676ZM24.9012 15.5093L25.2357 16.2105L25.9948 16.0368L25.6538 16.7379L26.265 17.2204L25.5059 17.3876V18.1724L24.9012 17.6836L24.2901 18.1724L24.2965 17.3876L23.531 17.2204L24.1421 16.7379L23.8012 16.0368L24.5667 16.2105L24.9012 15.5093ZM21.7749 8.0473L22.1094 8.74847L22.8685 8.57478L22.5275 9.27595L23.1386 9.75841L22.3796 9.93209V10.7105L21.7749 10.2216L21.1638 10.7105V9.93209L20.4047 9.75841L21.0158 9.27595L20.6749 8.57478L21.434 8.74847L21.7749 8.0473ZM24.9012 3.78882L25.2357 4.48999L25.9948 4.3163L25.6538 5.01747L26.265 5.49993L25.5059 5.67361V6.45198L24.9012 5.96309L24.2901 6.45198L24.2965 5.67361L23.531 5.49993L24.1421 5.01747L23.8012 4.3163L24.5667 4.48999L24.9012 3.78882ZM27.6287 6.98589L27.9696 7.68706L28.7287 7.51338L28.3878 8.21455L28.9989 8.69701L28.2398 8.86426V9.64905L27.6287 9.16016L27.024 9.64905V8.86426L26.265 8.69701L26.8761 8.21455L26.5351 7.51338L27.2942 7.68706L27.6287 6.98589ZM25.6796 10.7105L25.9433 11.5274H26.7989L26.1041 12.0292L26.3679 12.8397L25.6796 12.3379L24.9848 12.8397L25.2486 12.0292L24.5603 11.5274H25.4158L25.6796 10.7105Z" fill="white" style="fill:white;fill-opacity:1;"/>
<path d="M16.4678 0V1.96842L13.5602 3.58304H16.4678V7.39766H12.6661L16.4678 9.5076V10.9807H14.7503L10.0222 8.34971V10.9807H6.44561V7.85439L0.816959 10.9807H0V9.01228L2.9076 7.39766H0V3.58304H3.80175L0 1.46667V0H1.71754L6.44561 2.62456V0H10.0222V3.12632L15.6509 0H16.4678Z" fill="white" style="fill:white;fill-opacity:1;"/>
<path d="M9.26316 0H7.20468V4.45789H0V6.51637H7.20468V10.9807H9.26316V6.51637H16.4678V4.45789H9.26316V0Z" fill="#D80027" style="fill:#D80027;fill:color(display-p3 0.8471 0.0000 0.1529);fill-opacity:1;"/>
<path d="M10.0222 7.39771L16.4678 10.9807V9.96437L11.8491 7.39771H10.0222Z" fill="#0052B4" style="fill:#0052B4;fill:color(display-p3 0.0000 0.3216 0.7059);fill-opacity:1;"/>
<path d="M10.0222 7.39771L16.4678 10.9807V9.96437L11.8491 7.39771H10.0222Z" fill="white" style="fill:white;fill-opacity:1;"/>
<path d="M10.0222 7.39771L16.4678 10.9807V9.96437L11.8491 7.39771H10.0222ZM4.61871 7.39771L0 9.96437V10.9807L6.44561 7.39771H4.61871Z" fill="#D80027" style="fill:#D80027;fill:color(display-p3 0.8471 0.0000 0.1529);fill-opacity:1;"/>
<path d="M6.44561 3.57661L0 0V1.00994L4.61871 3.57661H6.44561Z" fill="#0052B4" style="fill:#0052B4;fill:color(display-p3 0.0000 0.3216 0.7059);fill-opacity:1;"/>
<path d="M6.44561 3.57661L0 0V1.00994L4.61871 3.57661H6.44561Z" fill="white" style="fill:white;fill-opacity:1;"/>
<path d="M6.44561 3.57661L0 0V1.00994L4.61871 3.57661H6.44561ZM11.8491 3.57661L16.4678 1.00994V0L10.0222 3.57661H11.8491Z" fill="#D80027" style="fill:#D80027;fill:color(display-p3 0.8471 0.0000 0.1529);fill-opacity:1;"/>
</g>
<defs>
<clipPath id="clip0_1493_15579">
<rect width="33" height="22" fill="white" style="fill:white;fill-opacity:1;"/>
</clipPath>
</defs>
</svg>
