<svg width="33" height="22" viewBox="0 0 33 22" fill="none" xmlns="http://www.w3.org/2000/svg">
<g clip-path="url(#clip0_1493_15642)">
<path d="M0 0H33V22H0V0Z" fill="white" style="fill:white;fill-opacity:1;"/>
<path d="M0 0H33V7.33333H0V0Z" fill="#D80027" style="fill:#D80027;fill:color(display-p3 0.8471 0.0000 0.1529);fill-opacity:1;"/>
<path d="M0 14.6667H33V22.0001H0V14.6667Z" fill="#0052B4" style="fill:#0052B4;fill:color(display-p3 0.0000 0.3216 0.7059);fill-opacity:1;"/>
<path d="M19.8965 7.28187V4.45146L21.0222 3.52515L22.1608 4.45146V7.28187H19.8965ZM13.1035 7.28187V4.45146L11.9906 3.52515L10.8392 4.45146V7.28187H13.1035ZM15.3678 7.28187V4.45146L16.5 3.52515L17.6322 4.45146V7.28187H15.3678Z" fill="#338AF3" style="fill:#338AF3;fill:color(display-p3 0.2000 0.5412 0.9529);fill-opacity:1;"/>
<path d="M19.8965 7.28187H17.6322V4.45146L18.7579 3.52515L19.8965 4.45146V7.28187ZM15.3678 7.28187H13.1035V4.45146L14.2292 3.52515L15.3678 4.45146V7.28187Z" fill="#0052B4" style="fill:#0052B4;fill:color(display-p3 0.0000 0.3216 0.7059);fill-opacity:1;"/>
<path d="M10.8392 7.28198V13.837C10.8392 15.4001 11.7655 16.8089 13.1164 17.658C14.4865 18.52 15.8246 18.6036 16.5 18.6036C17.1754 18.6036 18.5199 18.4943 19.8836 17.6516C21.2345 16.8153 22.1608 15.3937 22.1608 13.837V7.28198H10.8392Z" fill="white" stroke="#D80027" style="fill:white;fill-opacity:1;stroke:#D80027;stroke:color(display-p3 0.8471 0.0000 0.1529);stroke-opacity:1;"/>
<path d="M10.8392 7.28198H13.1035V9.54631H10.8392V7.28198ZM15.3678 7.28198H17.6322V9.54631H15.3678V7.28198ZM19.8965 7.28198H22.1608V9.54631H19.8965V7.28198ZM13.1035 9.54631H15.3678V11.8106H13.1035V9.54631ZM17.6322 9.54631H19.8965V11.8106H17.6322V9.54631ZM10.8392 11.8106H13.1035V14.075H10.8392V11.8106ZM13.1035 14.075H15.3678V16.3393H13.1035V14.075ZM15.3678 11.8106H17.6322V14.075H15.3678V11.8106ZM19.8965 11.8106H22.1608V14.075H19.8965V11.8106ZM17.6322 14.075H19.8965V16.3393H17.6322V14.075ZM19.8965 17.6451C20.4497 17.2978 20.9386 16.8539 21.3117 16.3393H19.8965V17.6451ZM11.6883 16.3393C12.0614 16.8539 12.5439 17.2978 13.1035 17.6516V16.3393H11.6883ZM15.3678 16.3393V18.5071C15.831 18.5843 16.2234 18.6036 16.5 18.6036C16.7766 18.6036 17.169 18.5843 17.6322 18.5007V16.3393H15.3678Z" fill="#D80027" style="fill:#D80027;fill:color(display-p3 0.8471 0.0000 0.1529);fill-opacity:1;"/>
</g>
<defs>
<clipPath id="clip0_1493_15642">
<rect width="33" height="22" fill="white" style="fill:white;fill-opacity:1;"/>
</clipPath>
</defs>
</svg>
