<svg width="33" height="22" viewBox="0 0 33 22" fill="none" xmlns="http://www.w3.org/2000/svg">
<g clip-path="url(#clip0_1493_15674)">
<path d="M0 -0.0192871H33V22H0V-0.0192871Z" fill="white" style="fill:white;fill-opacity:1;"/>
<path d="M29.7772 12.7433C29.5199 12.7433 28.8766 12.4217 28.4263 12.1644C27.7187 11.7784 27.0754 11.3924 26.4257 11.3924C25.776 11.3924 25.1392 11.7784 24.4251 12.1644C23.9749 12.4217 23.3959 12.7433 23.1386 12.7433C22.8813 12.7433 22.238 12.4217 21.852 12.1644C21.1444 11.7784 20.4368 11.3924 19.7871 11.3924C19.2082 11.3924 18.5006 11.7784 17.7866 12.1644C17.3363 12.4217 16.7573 12.7433 16.5 12.7433C16.2427 12.7433 15.6637 12.4217 15.2135 12.1644C14.5058 11.7784 13.7982 11.3924 13.2129 11.3924C12.5696 11.3924 11.862 11.7784 11.148 12.1644C10.762 12.4217 10.1187 12.7433 9.8614 12.7433C9.60409 12.7433 9.02515 12.4217 8.57485 12.1644C7.86725 11.7784 7.22398 11.3924 6.57427 11.3924C5.92456 11.3924 5.28772 11.7784 4.57368 12.1644C4.12339 12.4217 3.48012 12.7433 3.22281 12.7433C2.9655 12.7433 2.38655 12.4217 1.93626 12.1644C1.29298 11.7784 0.649708 11.3924 0 11.3924V12.8076L1.22222 13.4509C1.92982 13.8369 2.5731 14.2229 3.22281 14.2229C3.87251 14.2229 4.57368 13.8369 5.28772 13.4509C5.67368 13.1936 6.31696 12.8076 6.57427 12.8076C6.83158 12.8076 7.41053 13.1936 7.86082 13.4509C8.56842 13.8369 9.2117 14.2229 9.8614 14.2229C10.5111 14.2229 11.148 13.8369 11.862 13.4509C12.3123 13.1936 12.9556 12.8076 13.2129 12.8076C13.4702 12.8076 14.0491 13.1936 14.4994 13.4509C15.207 13.8369 15.8503 14.2229 16.5 14.2229C17.1497 14.2229 17.7866 13.8369 18.5006 13.4509C18.9509 13.1936 19.5298 12.8076 19.7871 12.8076C20.0444 12.8076 20.6877 13.1936 21.138 13.4509C21.8456 13.8369 22.4889 14.2229 23.1386 14.2229C23.7883 14.2229 24.4251 13.8369 25.1392 13.4509C25.5895 13.1936 26.1684 12.8076 26.4257 12.8076C26.683 12.8076 27.3263 13.1936 27.7123 13.4509C28.4199 13.8369 29.1275 14.2229 29.7772 14.2229C30.4269 14.2229 31.0637 13.8369 31.7778 13.4509L33 12.8076V11.3924C32.3567 11.3924 31.7134 11.7784 31.0637 12.1644C30.6135 12.4217 30.0345 12.7433 29.7772 12.7433ZM0 2.03923L1.22222 2.6825C1.92982 3.06847 2.5731 3.45443 3.22281 3.45443C3.87251 3.45443 4.57368 3.06847 5.28772 2.6825C5.67368 2.42519 6.31696 2.03923 6.57427 2.03923C6.83158 2.03923 7.41053 2.42519 7.86082 2.6825C8.56842 3.06847 9.2117 3.45443 9.8614 3.45443C10.5111 3.45443 11.148 3.06847 11.862 2.6825C12.3123 2.42519 12.9556 2.03923 13.2129 2.03923C13.4702 2.03923 14.0491 2.42519 14.4994 2.6825C15.207 3.06847 15.8503 3.45443 16.5 3.45443C17.1497 3.45443 17.7866 3.06847 18.5006 2.6825C18.9509 2.42519 19.5298 2.03923 19.7871 2.03923C20.0444 2.03923 20.6877 2.42519 21.138 2.6825C21.8456 3.06847 22.4889 3.45443 23.1386 3.45443C23.7883 3.45443 24.4251 3.06847 25.1392 2.6825C25.5895 2.42519 26.1684 2.03923 26.4257 2.03923C26.683 2.03923 27.3263 2.42519 27.7123 2.6825C28.4199 3.06847 29.1275 3.45443 29.7772 3.45443C30.4269 3.45443 31.0637 3.06847 31.7778 2.6825L33 2.03923V0.624023C32.3567 0.688351 31.7134 1.00999 31.0637 1.39595C30.6135 1.65326 30.0345 1.9749 29.7772 1.9749C29.5199 1.9749 28.8766 1.65326 28.4263 1.39595C27.7187 1.00999 27.0754 0.624023 26.4257 0.624023C25.776 0.624023 25.1392 1.00999 24.4251 1.39595C23.9749 1.65326 23.3959 1.9749 23.1386 1.9749C22.8813 1.9749 22.238 1.65326 21.852 1.39595C21.1444 1.00999 20.4368 0.624023 19.7871 0.624023C19.1374 0.624023 18.5006 1.00999 17.7866 1.39595C17.3363 1.65326 16.7573 1.9749 16.5 1.9749C16.2427 1.9749 15.6637 1.65326 15.2135 1.39595C14.5058 1.00999 13.7982 0.624023 13.2129 0.624023C12.6275 0.624023 11.862 1.00999 11.148 1.39595C10.762 1.65326 10.1187 1.9749 9.8614 1.9749C9.60409 1.9749 9.02515 1.65326 8.57485 1.39595C7.86725 1.00999 7.22398 0.624023 6.57427 0.624023C5.92456 0.624023 5.28772 1.00999 4.57368 1.39595C4.12339 1.65326 3.48012 1.9749 3.22281 1.9749C2.9655 1.9749 2.38655 1.65326 1.93626 1.39595C1.29298 1.00999 0.649708 0.688351 0 0.624023L0 2.03923ZM29.7772 5.59011C29.5199 5.59011 28.8766 5.26847 28.4263 5.01116C27.7187 4.62519 27.0754 4.23923 26.4257 4.23923C25.776 4.23923 25.1392 4.62519 24.4251 5.01116C23.9749 5.26847 23.3959 5.59011 23.1386 5.59011C22.8813 5.59011 22.238 5.26847 21.852 5.01116C21.1444 4.62519 20.4368 4.23923 19.7871 4.23923C19.2082 4.23923 18.5006 4.62519 17.7866 5.01116C17.3363 5.26847 16.7573 5.59011 16.5 5.59011C16.2427 5.59011 15.6637 5.26847 15.2135 5.01116C14.5058 4.62519 13.7982 4.23923 13.2129 4.23923C12.5696 4.23923 11.862 4.62519 11.148 5.01116C10.762 5.26847 10.1187 5.59011 9.8614 5.59011C9.60409 5.59011 9.02515 5.26847 8.57485 5.01116C7.86725 4.62519 7.22398 4.23923 6.57427 4.23923C5.92456 4.23923 5.28772 4.62519 4.57368 5.01116C4.12339 5.26847 3.48012 5.59011 3.22281 5.59011C2.9655 5.59011 2.38655 5.26847 1.93626 5.01116C1.29298 4.62519 0.649708 4.23923 0 4.23923V5.65443L1.22222 6.23338C1.92982 6.61935 2.5731 7.00531 3.22281 7.00531C3.87251 7.00531 4.57368 6.61935 5.28772 6.23338C5.67368 5.97607 6.31696 5.65443 6.57427 5.65443C6.83158 5.65443 7.41053 5.97607 7.86082 6.23338C8.56842 6.61935 9.2117 7.00531 9.8614 7.00531C10.5111 7.00531 11.148 6.61935 11.862 6.23338C12.3123 5.97607 12.9556 5.65443 13.2129 5.65443C13.4702 5.65443 14.0491 5.97607 14.4994 6.23338C15.207 6.61935 15.8503 7.00531 16.5 7.00531C17.1497 7.00531 17.7866 6.61935 18.5006 6.23338C18.9509 5.97607 19.5298 5.65443 19.7871 5.65443C20.0444 5.65443 20.6877 5.97607 21.138 6.23338C21.8456 6.61935 22.4889 7.00531 23.1386 7.00531C23.7883 7.00531 24.4251 6.61935 25.1392 6.23338C25.5895 5.97607 26.1684 5.65443 26.4257 5.65443C26.683 5.65443 27.3263 5.97607 27.7123 6.23338C28.4199 6.61935 29.1275 7.00531 29.7772 7.00531C30.4269 7.00531 31.0637 6.61935 31.7778 6.23338L33 5.65443V4.23923C32.3567 4.23923 31.7134 4.62519 31.0637 5.01116C30.6135 5.26204 30.0345 5.59011 29.7772 5.59011ZM33 7.77724C32.3567 7.84157 31.7134 8.1632 31.0637 8.54917C30.6135 8.80648 30.0345 9.19244 29.7772 9.19244C29.5199 9.19244 28.8766 8.80648 28.4263 8.54917C27.7187 8.1632 27.0754 7.77724 26.4257 7.77724C25.776 7.77724 25.1392 8.1632 24.4251 8.54917C23.9749 8.80648 23.3959 9.19244 23.1386 9.19244C22.8813 9.19244 22.238 8.80648 21.852 8.54917C21.1444 8.1632 20.4368 7.77724 19.7871 7.77724C19.1374 7.77724 18.5006 8.1632 17.7866 8.54917C17.3363 8.80648 16.7573 9.19244 16.5 9.19244C16.2427 9.19244 15.6637 8.80648 15.2135 8.54917C14.5058 8.1632 13.7982 7.77724 13.2129 7.77724C12.6275 7.77724 11.862 8.1632 11.148 8.54917C10.762 8.80648 10.1187 9.19244 9.8614 9.19244C9.60409 9.19244 9.02515 8.80648 8.57485 8.54917C7.86725 8.1632 7.22398 7.77724 6.57427 7.77724C5.92456 7.77724 5.28772 8.1632 4.57368 8.54917C4.12339 8.80648 3.48012 9.19244 3.22281 9.19244C2.9655 9.19244 2.38655 8.80648 1.93626 8.54917C1.29298 8.1632 0.649708 7.84157 0 7.77724V9.25677C0.25731 9.3211 0.836257 9.57841 1.22222 9.83572C1.92982 10.2217 2.5731 10.6076 3.22281 10.6076C3.87251 10.6076 4.57368 10.2217 5.28772 9.83572C5.67368 9.57841 6.31696 9.25677 6.57427 9.25677C6.83158 9.25677 7.41053 9.57841 7.86082 9.83572C8.56842 10.2217 9.2117 10.6076 9.8614 10.6076C10.5111 10.6076 11.148 10.2217 11.862 9.83572C12.3123 9.57841 12.9556 9.25677 13.2129 9.25677C13.4702 9.25677 14.0491 9.57841 14.4994 9.83572C15.207 10.2217 15.8503 10.6076 16.5 10.6076C17.1497 10.6076 17.7866 10.2217 18.5006 9.83572C18.9509 9.57841 19.5298 9.25677 19.7871 9.25677C20.0444 9.25677 20.6877 9.57841 21.138 9.83572C21.8456 10.2217 22.4889 10.6076 23.1386 10.6076C23.7883 10.6076 24.4251 10.2217 25.1392 9.83572C25.5895 9.57841 26.1684 9.25677 26.4257 9.25677C26.683 9.25677 27.3263 9.57841 27.7123 9.83572C28.4199 10.2217 29.1275 10.6076 29.7772 10.6076C30.4269 10.6076 31.0637 10.2217 31.7778 9.83572C32.1637 9.57841 32.7427 9.3211 33 9.25677V7.77724ZM29.7772 16.3521C29.5199 16.3521 28.8766 16.0305 28.4263 15.7731C27.7187 15.3872 27.0754 15.0012 26.4257 15.0012C25.776 15.0012 25.1392 15.3872 24.4251 15.7731C23.9749 16.0305 23.3959 16.3521 23.1386 16.3521C22.8813 16.3521 22.238 16.0305 21.852 15.7731C21.1444 15.3872 20.4368 15.0012 19.7871 15.0012C19.2082 15.0012 18.5006 15.3872 17.7866 15.7731C17.3363 16.0305 16.7573 16.3521 16.5 16.3521C16.2427 16.3521 15.6637 16.0305 15.2135 15.7731C14.5058 15.3872 13.7982 15.0012 13.2129 15.0012C12.5696 15.0012 11.862 15.3872 11.148 15.7731C10.762 16.0305 10.1187 16.3521 9.8614 16.3521C9.60409 16.3521 9.02515 16.0305 8.57485 15.7731C7.86725 15.3872 7.22398 15.0012 6.57427 15.0012C5.92456 15.0012 5.28772 15.3872 4.57368 15.7731C4.12339 16.0305 3.48012 16.3521 3.22281 16.3521C2.9655 16.3521 2.38655 16.0305 1.93626 15.7731C1.29298 15.3872 0.649708 15.0012 0 15.0012V16.4164L1.22222 16.9954C1.92982 17.3813 2.5731 17.7673 3.22281 17.7673C3.87251 17.7673 4.57368 17.3813 5.28772 16.9954C5.67368 16.7381 6.31696 16.4164 6.57427 16.4164C6.83158 16.4164 7.41053 16.7381 7.86082 16.9954C8.56842 17.3813 9.2117 17.7673 9.8614 17.7673C10.5111 17.7673 11.148 17.3813 11.862 16.9954C12.3123 16.7381 12.9556 16.4164 13.2129 16.4164C13.4702 16.4164 14.0491 16.7381 14.4994 16.9954C15.207 17.3813 15.8503 17.7673 16.5 17.7673C17.1497 17.7673 17.7866 17.3813 18.5006 16.9954C18.9509 16.7381 19.5298 16.4164 19.7871 16.4164C20.0444 16.4164 20.6877 16.7381 21.138 16.9954C21.8456 17.3813 22.4889 17.7673 23.1386 17.7673C23.7883 17.7673 24.4251 17.3813 25.1392 16.9954C25.5895 16.7381 26.1684 16.4164 26.4257 16.4164C26.683 16.4164 27.3263 16.7381 27.7123 16.9954C28.4199 17.3813 29.1275 17.7673 29.7772 17.7673C30.4269 17.7673 31.0637 17.3813 31.7778 16.9954L33 16.4164V15.0012C32.3567 15.0012 31.7134 15.3872 31.0637 15.7731C30.6135 16.0305 30.0345 16.3521 29.7772 16.3521ZM33 18.5392C32.3567 18.6036 31.7134 18.9252 31.0637 19.3112C30.6135 19.5685 30.0345 19.9544 29.7772 19.9544C29.5199 19.9544 28.8766 19.5685 28.4263 19.3112C27.7187 18.9252 27.0754 18.5392 26.4257 18.5392C25.776 18.5392 25.1392 18.9252 24.4251 19.3112C23.9749 19.5685 23.3959 19.9544 23.1386 19.9544C22.8813 19.9544 22.238 19.5685 21.852 19.3112C21.1444 18.9252 20.4368 18.5392 19.7871 18.5392C19.1374 18.5392 18.5006 18.9252 17.7866 19.3112C17.3363 19.5685 16.7573 19.9544 16.5 19.9544C16.2427 19.9544 15.6637 19.5685 15.2135 19.3112C14.5058 18.9252 13.7982 18.5392 13.2129 18.5392C12.6275 18.5392 11.862 18.9252 11.148 19.3112C10.762 19.5685 10.1187 19.9544 9.8614 19.9544C9.60409 19.9544 9.02515 19.5685 8.57485 19.3112C7.86725 18.9252 7.22398 18.5392 6.57427 18.5392C5.92456 18.5392 5.28772 18.9252 4.57368 19.3112C4.12339 19.5685 3.48012 19.9544 3.22281 19.9544C2.9655 19.9544 2.38655 19.5685 1.93626 19.3112C1.29298 18.9252 0.649708 18.6036 0 18.5392V20.0188C0.25731 20.0188 0.836257 20.3404 1.22222 20.5977C1.92982 20.9837 2.5731 21.3696 3.22281 21.3696C3.87251 21.3696 4.57368 20.9837 5.28772 20.5977C5.67368 20.3404 6.31696 20.0188 6.57427 20.0188C6.83158 20.0188 7.41053 20.3404 7.86082 20.5977C8.56842 20.9837 9.2117 21.3696 9.8614 21.3696C10.5111 21.3696 11.148 20.9837 11.862 20.5977C12.3123 20.3404 12.9556 20.0188 13.2129 20.0188C13.4702 20.0188 14.0491 20.3404 14.4994 20.5977C15.207 20.9837 15.8503 21.3696 16.5 21.3696C17.1497 21.3696 17.7866 20.9837 18.5006 20.5977C18.9509 20.3404 19.5298 20.0188 19.7871 20.0188C20.0444 20.0188 20.6877 20.3404 21.138 20.5977C21.8456 20.9837 22.4889 21.3696 23.1386 21.3696C23.7883 21.3696 24.4251 20.9837 25.1392 20.5977C25.5895 20.3404 26.1684 20.0188 26.4257 20.0188C26.683 20.0188 27.3263 20.3404 27.7123 20.5977C28.4199 20.9837 29.1275 21.3696 29.7772 21.3696C30.4269 21.3696 31.0637 20.9837 31.7778 20.5977C32.1637 20.3404 32.7427 20.0188 33 20.0188V18.5392Z" fill="#0052B4" style="fill:#0052B4;fill:color(display-p3 0.0000 0.3216 0.7059);fill-opacity:1;"/>
<path d="M0 -0.0192871H16.4678V10.9807H0V-0.0192871Z" fill="white" style="fill:white;fill-opacity:1;"/>
<path d="M25.0749 7.71289H26.2457V12.7819H25.0685L25.0749 7.71289ZM25.0749 15.2907H26.2457V20.1217H25.0685L25.0749 15.2907Z" fill="#A2001D" style="fill:#A2001D;fill:color(display-p3 0.6353 0.0000 0.1137);fill-opacity:1;"/>
<path d="M9.26316 -0.0192871H7.20468V4.48364H0V6.54212H7.20468V10.9807H9.26316V6.54212H16.4678V4.48364H9.26316V-0.0192871Z" fill="#D80027" style="fill:#D80027;fill:color(display-p3 0.8471 0.0000 0.1529);fill-opacity:1;"/>
<path d="M0 -0.0192871V0.945625L3.66667 3.4544H5.1462L0 -0.0192871ZM16.4678 -0.0192871V0.945625L12.8012 3.4544H11.3216L16.4678 -0.0192871Z" fill="#D80027" style="fill:#D80027;fill:color(display-p3 0.8471 0.0000 0.1529);fill-opacity:1;"/>
<path d="M0 -0.0192871V0.945625L3.66667 3.4544H5.1462L0 -0.0192871ZM16.4678 -0.0192871V0.945625L12.8012 3.4544H11.3216L16.4678 -0.0192871ZM0 10.9807V10.0158L3.66667 7.57136H5.1462L0 10.9807ZM16.4678 10.9807V10.0158L12.8012 7.57136H11.3216L16.4678 10.9807Z" fill="#D80027" style="fill:#D80027;fill:color(display-p3 0.8471 0.0000 0.1529);fill-opacity:1;"/>
<path d="M0 1.46025V3.4544H2.95906L0 1.46025ZM6.17544 -0.0192871V3.13276L1.47953 -0.0192871H6.17544ZM16.4678 1.46025V3.4544H13.5088L16.4678 1.46025ZM10.2924 -0.0192871V3.13276L14.9883 -0.0192871H10.2924Z" fill="#2E52B2" style="fill:#2E52B2;fill:color(display-p3 0.1804 0.3216 0.6980);fill-opacity:1;"/>
<path d="M0 1.46025V3.4544H2.95906L0 1.46025ZM6.17544 -0.0192871V3.13276L1.47953 -0.0192871H6.17544ZM16.4678 1.46025V3.4544H13.5088L16.4678 1.46025ZM10.2924 -0.0192871V3.13276L14.9883 -0.0192871H10.2924ZM0 9.50118V7.57136H2.95906L0 9.50118ZM6.17544 10.9807V7.82867L1.47953 10.9807H6.17544ZM16.4678 9.50118V7.57136H13.5088L16.4678 9.50118ZM10.2924 10.9807V7.82867L14.9883 10.9807H10.2924Z" fill="#2E52B2" style="fill:#2E52B2;fill:color(display-p3 0.1804 0.3216 0.6980);fill-opacity:1;"/>
<path d="M29.7708 5.88597H27.8988L29.5521 4.23276C29.8415 3.94972 29.8415 3.49942 29.5521 3.21638L29.3333 2.99767C29.0503 2.71463 28.6 2.71463 28.317 2.99767L26.6509 4.66375V2.40586C26.6509 2.00703 26.3228 1.67896 25.924 1.67896H25.6216C25.2228 1.67896 24.8947 2.00703 24.8947 2.40586V4.44504L23.383 2.91404C23.0807 2.6117 22.5983 2.6117 22.2959 2.91404L22.0643 3.14562C21.762 3.44796 21.762 3.94328 22.0643 4.25205L23.6725 5.88597H21.7041C21.3181 5.88597 21.0029 6.20118 21.0029 6.58714V6.88305C21.0029 7.26901 21.3181 7.58422 21.7041 7.58422H23.7368L22.4053 8.9158C22.1222 9.19884 22.1222 9.64913 22.4053 9.93217L22.624 10.1509C22.907 10.4339 23.3573 10.4339 23.6404 10.1509L24.9012 8.89007V10.7427C24.9012 11.1351 25.2292 11.4567 25.6281 11.4696H25.9304C26.3292 11.4696 26.6573 11.1415 26.6573 10.7427V8.92223L28.0854 10.376C28.3877 10.6784 28.883 10.6784 29.1854 10.376L29.417 10.1445C29.7193 9.84211 29.7193 9.34679 29.417 9.03802L27.9953 7.59065H29.7708C30.1503 7.59065 30.4591 7.27545 30.4719 6.88948V6.59358C30.4719 6.20118 30.1567 5.88597 29.7708 5.88597Z" fill="#5DA51E" style="fill:#5DA51E;fill:color(display-p3 0.3647 0.6471 0.1176);fill-opacity:1;"/>
<path d="M26.1514 2.40552C26.1512 2.28298 26.0464 2.17896 25.9238 2.17896H25.6221C25.4995 2.17896 25.3947 2.28298 25.3945 2.40552V5.66333L23.0293 3.26685C22.9222 3.16024 22.7563 3.1609 22.6494 3.26782L22.418 3.49927C22.3131 3.60412 22.3075 3.78512 22.4209 3.90161L24.8662 6.38599H21.7041C21.5943 6.38599 21.5029 6.47733 21.5029 6.58716V6.88306C21.5029 6.99288 21.5943 7.08423 21.7041 7.08423H24.9443L22.7588 9.26978C22.6713 9.35751 22.6712 9.49066 22.7588 9.57837L22.9775 9.79712C23.0653 9.8849 23.1993 9.8849 23.2871 9.79712L25.4014 7.68286V10.7424C25.4014 10.8473 25.4975 10.9652 25.6445 10.97H25.9307C26.0532 10.9698 26.1572 10.865 26.1572 10.7424V7.69946L28.4424 10.0256C28.5498 10.1294 28.7261 10.1287 28.832 10.0227L29.0635 9.79126C29.1685 9.68621 29.1736 9.50441 29.0596 9.38794L26.8037 7.09106H29.7705C29.8605 7.09106 29.9637 7.01083 29.9717 6.88013V6.59399C29.9717 6.47476 29.8774 6.38599 29.7705 6.38599H26.6914L29.2021 3.87524L29.2314 3.84106C29.2899 3.75721 29.28 3.64959 29.2021 3.57349L28.9795 3.35083C28.8918 3.26352 28.7586 3.26355 28.6709 3.35083L26.1514 5.87134V2.40552ZM27.1514 3.45532L27.9639 2.6438C28.4421 2.166 29.2083 2.16597 29.6865 2.6438L29.9014 2.85864C30.3901 3.33654 30.3905 4.10575 29.9043 4.58521L29.9053 4.58618L29.1055 5.38599H29.7705C30.4356 5.38599 30.9717 5.92843 30.9717 6.59399V6.90649C30.9503 7.54324 30.4378 8.09106 29.7705 8.09106H29.1875L29.7734 8.68774C30.2641 9.18882 30.2701 9.99866 29.7705 10.4983L29.5391 10.7297C29.0415 11.2273 28.229 11.2273 27.7314 10.7297L27.7285 10.7268L27.1572 10.1448V10.7424C27.1572 11.4173 26.6055 11.9698 25.9307 11.97H25.6201L25.6123 11.969C24.9617 11.948 24.4014 11.4223 24.4014 10.7424V10.0969L23.9941 10.5042C23.5158 10.9825 22.7488 10.9825 22.2705 10.5042L22.0518 10.2854C21.5736 9.80709 21.5735 9.04002 22.0518 8.56177L22.5293 8.08423H21.7041C21.042 8.08423 20.5029 7.54516 20.5029 6.88306V6.58716C20.5029 5.92505 21.042 5.38599 21.7041 5.38599H22.4795L21.708 4.60278L21.707 4.60181C21.2164 4.10073 21.2113 3.29185 21.7109 2.79224L21.9424 2.56079C22.4088 2.09436 23.14 2.0649 23.6396 2.4729L23.7363 2.56079L23.7393 2.56274L24.3945 3.22583V2.40552C24.3947 1.7307 24.9472 1.17896 25.6221 1.17896H25.9238C26.5987 1.17896 27.1512 1.7307 27.1514 2.40552V3.45532Z" fill="#45602C" style="fill:#45602C;fill:color(display-p3 0.2706 0.3765 0.1725);fill-opacity:1;"/>
<path d="M28.2527 16.024H23.1193C23.1193 16.024 23.0615 15.162 22.7334 14.6217C22.3346 13.9527 21.8392 12.8141 22.6433 12.2609C23.6661 11.5597 24.8112 12.3123 25.7439 12.3123C26.503 12.3187 27.4743 11.4117 28.6386 12.2609C29.4234 12.8334 28.8895 14.0749 28.555 14.6217C28.1047 15.3614 28.2527 16.024 28.2527 16.024Z" fill="#E2DD24" style="fill:#E2DD24;fill:color(display-p3 0.8863 0.8667 0.1412);fill-opacity:1;"/>
<path d="M26.9187 11.4856C27.4599 11.3514 28.1088 11.3225 28.7956 11.7629L28.9333 11.8567L29.0427 11.9436C29.5556 12.3924 29.5951 13.0359 29.5095 13.5354C29.4178 14.0704 29.1668 14.5775 28.9812 14.8811C28.8044 15.1714 28.7477 15.4433 28.7331 15.6379C28.7259 15.7352 28.7295 15.8128 28.7341 15.8625C28.7364 15.8873 28.7395 15.9051 28.7409 15.9143C28.7413 15.9163 28.7407 15.918 28.7409 15.9192L28.7419 15.9201L28.8767 16.5237H22.6521L22.6208 16.0578C22.6208 16.0571 22.62 16.0552 22.6199 16.053C22.6195 16.0484 22.6188 16.0406 22.6179 16.0305C22.616 16.01 22.6128 15.979 22.6081 15.9397C22.5987 15.8601 22.5831 15.7478 22.5583 15.6213C22.5064 15.3567 22.4242 15.0752 22.3064 14.8811L22.3034 14.8781C22.0937 14.5263 21.8325 14.0102 21.7439 13.4807C21.6528 12.9364 21.7377 12.277 22.3601 11.8488H22.3611C23.0351 11.3868 23.7396 11.4225 24.3201 11.5324C24.5983 11.5851 24.8954 11.6655 25.1238 11.719C25.3719 11.7771 25.5715 11.8127 25.7439 11.8127H25.7478C25.8483 11.8136 25.9834 11.7822 26.197 11.7121C26.3858 11.6502 26.6534 11.5514 26.9187 11.4856ZM28.1863 12.5627C27.8246 12.3567 27.5004 12.3719 27.1599 12.4563C26.9422 12.5103 26.7516 12.5826 26.5085 12.6623C26.2912 12.7336 26.0214 12.8133 25.7439 12.8117H25.7409L25.74 12.8127V12.8117C25.4475 12.8112 25.1558 12.7534 24.8962 12.6926C24.6156 12.6269 24.3869 12.5627 24.1345 12.5149C23.7138 12.4352 23.3709 12.4332 23.0583 12.594L22.9265 12.6731C22.745 12.7981 22.6749 12.9853 22.7302 13.3156C22.7878 13.6596 22.9726 14.0461 23.1609 14.3625L23.2351 14.4953C23.3976 14.8114 23.4881 15.1654 23.5398 15.4289C23.5461 15.4611 23.5491 15.4933 23.5544 15.5237H27.7409C27.7696 15.2067 27.8651 14.7928 28.1277 14.3615L28.1286 14.3606C28.2775 14.1172 28.4616 13.7314 28.5242 13.3664C28.5871 12.9991 28.5127 12.7884 28.3445 12.6653L28.1863 12.5627Z" fill="#525625" style="fill:#525625;fill:color(display-p3 0.3216 0.3373 0.1451);fill-opacity:1;"/>
</g>
<defs>
<clipPath id="clip0_1493_15674">
<rect width="33" height="22" fill="white" style="fill:white;fill-opacity:1;"/>
</clipPath>
</defs>
</svg>
