<svg width="33" height="22" viewBox="0 0 33 22" fill="none" xmlns="http://www.w3.org/2000/svg">
<g clip-path="url(#clip0_1493_15566)">
<path d="M0 0H33V22H0V0Z" fill="#6DA544" style="fill:#6DA544;fill:color(display-p3 0.4275 0.6471 0.2667);fill-opacity:1;"/>
<path d="M13.8883 10.9999L0 20.2373V1.72388L13.8883 10.9999ZM33 1.72388V20.2373L19.0474 10.9999L33 1.72388Z" fill="black" style="fill:black;fill-opacity:1;"/>
<path d="M33 1.72398L19.0474 11L33 20.2374V22H30.3561L16.4678 12.6982L2.57953 22H0V20.2374L13.8883 11L0 1.72398V0H2.57953L16.4678 9.25672L30.3561 0H33V1.72398Z" fill="#0052B4" style="fill:#0052B4;fill:color(display-p3 0.0000 0.3216 0.7059);fill-opacity:1;"/>
<path d="M33 1.72398L19.0474 11L33 20.2374V22H30.3561L16.4678 12.6982L2.57953 22H0V20.2374L13.8883 11L0 1.72398V0H2.57953L16.4678 9.25672L30.3561 0H33V1.72398Z" fill="#FFDA44" style="fill:#FFDA44;fill:color(display-p3 1.0000 0.8549 0.2667);fill-opacity:1;"/>
</g>
<defs>
<clipPath id="clip0_1493_15566">
<rect width="33" height="22" fill="white" style="fill:white;fill-opacity:1;"/>
</clipPath>
</defs>
</svg>
