<svg width="33" height="22" viewBox="0 0 33 22" fill="none" xmlns="http://www.w3.org/2000/svg">
<g clip-path="url(#clip0_1493_15692)">
<path d="M0 0H33V22H0V0Z" fill="#FFDA44" style="fill:#FFDA44;fill:color(display-p3 1.0000 0.8549 0.2667);fill-opacity:1;"/>
<path d="M1.43445 1.43457H14.3192V20.527H1.43445V1.43457Z" fill="#D80027" style="fill:#D80027;fill:color(display-p3 0.8471 0.0000 0.1529);fill-opacity:1;"/>
<path d="M12.8848 0H14.3193V22H12.8848V0Z" fill="#FFDA44" style="fill:#FFDA44;fill:color(display-p3 1.0000 0.8549 0.2667);fill-opacity:1;"/>
<path d="M1.43445 1.43457H7.15959V20.527H1.43445V1.43457Z" fill="#6DA544" style="fill:#6DA544;fill:color(display-p3 0.4275 0.6471 0.2667);fill-opacity:1;"/>
<path d="M7.15967 1.43457H12.8848V20.527H7.15967V1.43457Z" fill="#FF9811" style="fill:#FF9811;fill:color(display-p3 1.0000 0.5961 0.0667);fill-opacity:1;"/>
<path d="M25.6553 7.19727C26.0449 7.17125 26.5022 7.28971 26.7617 7.40039L26.8604 7.44629C26.9784 7.51022 27.14 7.62284 27.3672 7.77539C27.521 7.87863 27.6975 7.99478 27.8799 8.09961C27.5762 8.07434 27.2541 8.08153 26.9316 8.13281L26.666 8.18457C26.1124 8.31381 25.6843 8.2572 25.4209 8.13574C25.1651 8.01764 25.0929 7.86231 25.0928 7.73242C25.0928 7.48182 25.1685 7.38193 25.2266 7.33203C25.3022 7.26725 25.4386 7.21183 25.6553 7.19727Z" fill="#A2001D" style="fill:#A2001D;fill:color(display-p3 0.6353 0.0000 0.1137);fill-opacity:1;"/>
<path fill-rule="evenodd" clip-rule="evenodd" d="M31.501 20.5273H14.3193V1.43457H31.501V20.5273ZM16.8672 17.9541C16.8579 17.9593 16.405 18.2122 15.9658 18.2695C15.619 18.3145 15.4001 18.3273 15.0918 18.4492C14.783 18.578 14.2744 19.1898 14.9561 19.8779C15.6056 20.5336 16.2875 20.141 16.4355 19.7744C16.5577 19.4786 16.5774 19.2017 16.5967 18.8994C16.6222 18.4159 16.862 17.9637 16.8672 17.9541ZM29.0059 17.9609C29.0173 17.9812 29.2699 18.4335 29.3203 18.8672C29.3589 19.2143 29.3721 19.4336 29.4941 19.7422C29.623 20.051 30.2348 20.5653 30.9229 19.8838C31.5782 19.241 31.1926 18.5533 30.8262 18.3984C30.5304 18.2763 30.2533 18.2566 29.9512 18.2373C29.4675 18.2058 29.0261 17.9718 29.0059 17.9609ZM18.6748 4.11719C18.9894 3.57099 17.214 4.76724 17.2139 7.38477V9.71387C17.2138 10.1386 17.1246 11.1553 17.3818 11.9014C17.3814 11.9523 17.3564 14.9187 17.4775 15.0918C17.6001 15.2651 18.2938 15.2329 18.4297 15.0918C18.5634 14.9517 18.4324 13.1984 18.4297 13.1621C18.9249 13.1752 19.6073 14.2873 20.5205 14.2168C21.8454 14.1139 22.3663 13.5806 22.7266 13.8955C23.2473 14.3522 23.0808 15.3869 22.7529 15.9209C22.6112 16.1458 21.8337 16.2238 21.7432 16.4102C21.6545 16.5941 21.7722 16.7536 21.7754 16.7578H23.6855C23.6855 16.7578 23.7758 15.4401 23.8594 15.0791C23.943 14.7126 23.821 14.3903 24.2383 14.4092C25.7498 14.4798 26.7993 13.4262 27.166 13.8955C27.3716 14.1614 27.5257 15.8185 27.3779 16.0371C27.2363 16.2555 26.4911 16.2174 26.4004 16.4678C26.314 16.7148 26.441 16.7487 26.4512 16.751H28.3623C28.362 16.7319 28.3384 15.3853 28.5234 14.9697C28.7099 14.5517 28.8383 14.3004 29.1211 13.8633C29.4041 13.4259 29.8476 12.8528 29.8477 11.5342C29.8476 11.0125 29.6759 10.6092 29.5303 10.3584C29.6613 10.132 29.761 9.83379 29.7871 9.44629C29.812 9.08906 29.613 8.81486 29.4131 8.64258C29.3173 8.56011 29.207 8.48842 29.0889 8.42578C29.2227 8.40147 29.3588 8.3495 29.4824 8.25586C29.6427 8.13434 29.7512 7.9693 29.8203 7.78906L29.3525 7.61035L28.8857 7.43066C28.8843 7.43427 28.8812 7.43743 28.8799 7.44043C28.8223 7.43454 28.7114 7.40639 28.5381 7.31934C28.3452 7.22239 28.1365 7.08747 27.9248 6.94531C27.7298 6.81441 27.5063 6.65935 27.332 6.56543L27.3301 6.56348L27.1777 6.49023C26.7865 6.3194 26.1645 6.16078 25.5889 6.19922C25.2546 6.22163 24.8762 6.31492 24.5752 6.57324C24.2566 6.84697 24.0928 7.24658 24.0928 7.73242C24.093 8.34199 24.4814 8.80361 25.002 9.04395C25.5153 9.2807 26.1806 9.32466 26.8936 9.1582L27.0918 9.11914C27.5548 9.04605 28.0157 9.09247 28.3604 9.20215C28.5584 9.26524 28.691 9.34032 28.7607 9.40039C28.7718 9.41 28.7791 9.41944 28.7852 9.42578C28.7568 9.73044 28.665 9.8731 28.6162 9.93066C28.5884 9.96332 28.565 9.97903 28.5566 9.98438L28.5557 9.98535C28.5578 9.98442 28.562 9.98325 28.5664 9.98145C28.5686 9.98057 28.5714 9.97956 28.5742 9.97852L28.5791 9.97656L28.582 9.97559L28.584 9.97461C28.584 9.97461 28.5897 9.99089 28.6162 10.0674H26.8242C25.9174 10.0803 23.7782 10.2151 23.6855 10.0869C23.5961 9.95801 23.6846 7.67254 23.6855 7.64844C23.7433 7.17293 23.6922 7.10783 23.75 6.91504C23.8077 6.72984 24.0921 6.17964 24.0977 6.16895C24.0886 6.16553 23.7079 6.02287 23.4346 6.13086C23.1574 6.23971 21.8457 5.64868 21.4277 6.34961C21.1446 6.79964 19.9102 7.39066 19.8447 7.25C19.7801 7.10852 19.4657 6.92849 19.4014 7.06348C19.3371 7.19899 19.3564 7.9576 19.4014 8.09277C19.4534 8.25957 20.0312 8.22148 20.1924 8.29199C20.4305 8.40792 20.9773 8.8197 20.958 8.98047C20.9373 9.14051 19.5107 8.59498 19.4014 8.69141C19.3116 8.77006 19.2797 9.54028 19.376 9.65625C19.4954 9.79137 20.88 10.0166 20.9834 10.1387C21.085 10.2611 20.1412 10.6149 20.1924 11.7461C20.237 12.6813 20.6971 12.8624 20.707 12.8662C20.6991 12.8778 20.5431 13.0966 20.2051 13.0654C19.8084 13.0262 18.461 11.9418 18.4424 11.9268C18.4424 11.9268 18.2183 4.91549 18.6748 4.11719ZM30.916 2.07129C30.2602 1.42211 29.5783 1.81414 29.4365 2.18066C29.3208 2.47001 29.3015 2.75346 29.2822 3.05566C29.25 3.54448 29.0117 4.00195 29.0117 4.00195C29.0171 3.99883 29.4711 3.73736 29.9121 3.67969C30.2592 3.6347 30.4786 3.62847 30.7871 3.5C31.0959 3.37128 31.604 2.75303 30.916 2.07129ZM16.3652 2.21289C16.2364 1.9041 15.6246 1.39643 14.9365 2.07812C14.2874 2.72763 14.6735 3.40956 15.04 3.55762C15.3358 3.67969 15.6129 3.69946 15.915 3.71875C16.3965 3.74423 16.847 3.98121 16.8604 3.98828C16.8525 3.97421 16.602 3.52468 16.5449 3.08789C16.4999 2.74071 16.4874 2.52149 16.3652 2.21289Z" fill="#A2001D" style="fill:#A2001D;fill:color(display-p3 0.6353 0.0000 0.1137);fill-opacity:1;"/>
</g>
<defs>
<clipPath id="clip0_1493_15692">
<rect width="33" height="22" fill="white" style="fill:white;fill-opacity:1;"/>
</clipPath>
</defs>
</svg>
