<svg width="33" height="22" viewBox="0 0 33 22" fill="none" xmlns="http://www.w3.org/2000/svg">
<g clip-path="url(#clip0_1493_15692)">
<path d="M0 0H33V22H0V0Z" fill="#FFDA44" style="fill:#FFDA44;fill:color(display-p3 1.0000 0.8549 0.2667);fill-opacity:1;"/>
<path d="M14.3193 1.43457H31.5012V20.527H14.3193V1.43457Z" fill="#A2001D" style="fill:#A2001D;fill:color(display-p3 0.6353 0.0000 0.1137);fill-opacity:1;"/>
<path d="M1.43445 1.43457H14.3192V20.527H1.43445V1.43457Z" fill="#D80027" style="fill:#D80027;fill:color(display-p3 0.8471 0.0000 0.1529);fill-opacity:1;"/>
<path d="M12.8848 0H14.3193V22H12.8848V0Z" fill="#FFDA44" style="fill:#FFDA44;fill:color(display-p3 1.0000 0.8549 0.2667);fill-opacity:1;"/>
<path d="M1.43445 1.43457H7.15959V20.527H1.43445V1.43457Z" fill="#6DA544" style="fill:#6DA544;fill:color(display-p3 0.4275 0.6471 0.2667);fill-opacity:1;"/>
<path d="M7.15967 1.43457H12.8848V20.527H7.15967V1.43457Z" fill="#FF9811" style="fill:#FF9811;fill:color(display-p3 1.0000 0.5961 0.0667);fill-opacity:1;"/>
<path d="M23.6854 10.0866C23.5953 9.95793 23.6854 7.64857 23.6854 7.64857C23.7433 7.17255 23.6918 7.10822 23.7497 6.91524C23.8076 6.72869 24.0971 6.16904 24.0971 6.16904C24.0971 6.16904 23.7111 6.02109 23.4345 6.13044C23.1579 6.2398 21.8456 5.64799 21.4275 6.34915C21.1444 6.79945 19.9094 7.39126 19.845 7.24974C19.7807 7.10822 19.4655 6.9281 19.4012 7.06319C19.3368 7.19828 19.3561 7.95734 19.4012 8.09243C19.4526 8.25968 20.0316 8.22108 20.1924 8.29184C20.4304 8.40763 20.9772 8.81933 20.9579 8.98015C20.9386 9.14097 19.5105 8.59418 19.4012 8.69068C19.3111 8.76787 19.2789 9.5398 19.3754 9.65559C19.4912 9.79068 20.8807 10.0158 20.9836 10.138C21.0865 10.2603 20.1409 10.6141 20.1924 11.7462C20.2374 12.6918 20.707 12.8655 20.707 12.8655C20.707 12.8655 20.5526 13.0971 20.2053 13.0649C19.8064 13.0263 18.4427 11.9263 18.4427 11.9263C18.4427 11.9263 18.2175 4.91465 18.6743 4.11699C18.9895 3.57021 17.214 4.7667 17.214 7.38483V9.71348C17.214 10.138 17.124 11.1544 17.3813 11.9006C17.3813 11.9006 17.3556 14.9176 17.4778 15.0913C17.6 15.2649 18.2947 15.2328 18.4298 15.0913C18.5649 14.9497 18.4298 13.1614 18.4298 13.1614C18.9251 13.1743 19.607 14.2872 20.5205 14.2164C21.8456 14.1135 22.3667 13.5796 22.7269 13.8948C23.2479 14.3515 23.0807 15.3872 22.7526 15.9211C22.6111 16.1462 21.8327 16.2234 21.7427 16.41C21.6526 16.5965 21.7748 16.7573 21.7748 16.7573H23.6854C23.6854 16.7573 23.7754 15.4386 23.8591 15.0784C23.9427 14.7117 23.8205 14.3901 24.2386 14.4094C25.7503 14.4801 26.7988 13.4252 27.1655 13.8948C27.3713 14.1585 27.5257 15.8182 27.3778 16.0369C27.2363 16.2556 26.4901 16.217 26.4 16.4679C26.3099 16.7252 26.4515 16.7509 26.4515 16.7509H28.362C28.362 16.7509 28.3363 15.3872 28.5228 14.969C28.7094 14.5509 28.838 14.3 29.121 13.8626C29.4041 13.4252 29.8479 12.8527 29.8479 11.534C29.8479 10.6205 29.3269 10.0673 29.3269 10.0673H26.8246C25.9175 10.0801 23.7754 10.2152 23.6854 10.0866ZM14.9368 2.07781C15.6251 1.39594 16.2363 1.90413 16.3649 2.2129C16.4871 2.52167 16.5 2.74038 16.545 3.08775C16.6029 3.53161 16.8602 3.98834 16.8602 3.98834C16.8602 3.98834 16.4035 3.74389 15.9146 3.71816C15.6123 3.69886 15.3357 3.67956 15.0398 3.55734C14.6731 3.40939 14.2871 2.72752 14.9368 2.07781ZM30.9158 2.07138C31.6041 2.75325 31.0959 3.37079 30.7871 3.49945C30.4784 3.6281 30.2596 3.63454 29.9123 3.67956C29.4684 3.73746 29.0117 4.0012 29.0117 4.0012C29.0117 4.0012 29.2497 3.54448 29.2819 3.05559C29.3012 2.75325 29.3205 2.47021 29.4363 2.18073C29.5778 1.81407 30.2596 1.42167 30.9158 2.07138ZM30.9222 19.8837C30.2339 20.5655 29.6228 20.0509 29.4941 19.7421C29.3719 19.4334 29.3591 19.2147 29.3205 18.8673C29.269 18.4234 29.0053 17.9603 29.0053 17.9603C29.0053 17.9603 29.4556 18.2047 29.9509 18.2369C30.2532 18.2562 30.5298 18.2755 30.8257 18.3977C31.1924 18.5521 31.5784 19.2404 30.9222 19.8837ZM14.9561 19.8772C14.2743 19.1889 14.7825 18.5778 15.0912 18.4492C15.4 18.3269 15.6187 18.3141 15.9661 18.269C16.4099 18.2111 16.8667 17.9538 16.8667 17.9538C16.8667 17.9538 16.6222 18.4106 16.5965 18.8994C16.5772 19.2018 16.5579 19.4784 16.4357 19.7743C16.2877 20.141 15.6058 20.5334 14.9561 19.8772Z" fill="#FFDA44" style="fill:#FFDA44;fill:color(display-p3 1.0000 0.8549 0.2667);fill-opacity:1;"/>
<path d="M28.748 10.4468C28.748 10.4468 29.2304 10.2795 29.2883 9.41112C29.3269 8.8579 28.0146 8.38188 26.7795 8.67135C25.5123 8.96726 24.5924 8.47193 24.5924 7.73217C24.5924 6.25907 26.5029 6.69006 27.0947 7.00527C27.6801 7.32047 29.0053 8.51696 29.3526 7.60995" stroke="#FFDA44" style="stroke:#FFDA44;stroke:color(display-p3 1.0000 0.8549 0.2667);stroke-opacity:1;" stroke-width="6" stroke-miterlimit="10"/>
</g>
<defs>
<clipPath id="clip0_1493_15692">
<rect width="33" height="22" fill="white" style="fill:white;fill-opacity:1;"/>
</clipPath>
</defs>
</svg>
