<svg width="33" height="22" viewBox="0 0 33 22" fill="none" xmlns="http://www.w3.org/2000/svg">
<g clip-path="url(#clip0_1493_15677)">
<path d="M0 0.0192871V22H33V0.0192871H0Z" fill="#D80027" style="fill:#D80027;fill:color(display-p3 0.8471 0.0000 0.1529);fill-opacity:1;"/>
<path d="M23.1451 9.57835H18.4299L16.9696 5.09473L15.5094 9.57835H10.7942L14.6088 12.3509L13.1486 16.8345L16.9632 14.062L20.7778 16.8345L19.3304 12.3509L23.1451 9.57835ZM15.6766 12.0035L16.172 10.4854H17.7673L18.2626 12.0035L16.9696 12.9427L15.6766 12.0035ZM17.4714 9.57835H16.4679L16.9696 8.03449L17.4714 9.57835ZM19.0345 11.4438L18.7258 10.4854H20.3533L19.0345 11.4438ZM15.2199 10.4854L14.9111 11.4438L13.5924 10.4854H15.2199ZM14.879 14.4608L15.3807 12.9169L16.1913 13.5088L14.879 14.4608ZM17.7416 13.5023L18.5521 12.9105L19.0538 14.4544L17.7416 13.5023Z" fill="#20661B" style="fill:#20661B;fill:color(display-p3 0.1255 0.4000 0.1059);fill-opacity:1;"/>
</g>
<defs>
<clipPath id="clip0_1493_15677">
<rect width="33" height="22" fill="white" style="fill:white;fill-opacity:1;"/>
</clipPath>
</defs>
</svg>
