<svg width="33" height="22" viewBox="0 0 33 22" fill="none" xmlns="http://www.w3.org/2000/svg">
<g clip-path="url(#clip0_1493_15604)">
<path d="M0 0H33V22H0V0Z" fill="#003787" style="fill:#003787;fill:color(display-p3 0.0000 0.2157 0.5294);fill-opacity:1;"/>
<path d="M0 0H33L18.3333 14.6667V22H14.6667V14.6667L0 0Z" fill="white" style="fill:white;fill-opacity:1;"/>
<path d="M16.5 11.6111C17.85 11.6111 18.9444 10.5166 18.9444 9.16661C18.9444 7.81658 17.85 6.72217 16.5 6.72217C15.15 6.72217 14.0555 7.81658 14.0555 9.16661C14.0555 10.5166 15.15 11.6111 16.5 11.6111Z" fill="#F9D90F" style="fill:#F9D90F;fill:color(display-p3 0.9765 0.8510 0.0588);fill-opacity:1;"/>
<path d="M13.4445 9.16675H19.5556L16.5 14.6667L13.4445 9.16675Z" fill="white" style="fill:white;fill-opacity:1;"/>
<path d="M16.5 14.6666L11.6111 10.0833H21.3889L16.5 14.6666Z" fill="#CF142B" style="fill:#CF142B;fill:color(display-p3 0.8118 0.0784 0.1686);fill-opacity:1;"/>
</g>
<defs>
<clipPath id="clip0_1493_15604">
<rect width="33" height="22" fill="white" style="fill:white;fill-opacity:1;"/>
</clipPath>
</defs>
</svg>
