<svg width="33" height="22" viewBox="0 0 33 22" fill="none" xmlns="http://www.w3.org/2000/svg">
<g clip-path="url(#clip0_1493_15593)">
<path d="M0 0H33V22.0003H0V0Z" fill="#FFDA44" style="fill:#FFDA44;fill:color(display-p3 1.0000 0.8549 0.2667);fill-opacity:1;"/>
<path d="M24.7419 21.9997L16.5 10.7606L18.2291 21.9997H24.7419ZM8.60868 -0.000244141L16.5 10.7606L14.8445 -0.000244141H8.60868ZM14.7708 21.9997L16.5 10.7606L8.25799 21.9997H14.7708ZM0 -0.000244141V8.22205L16.5 10.7606L1.82615 -0.000244141H0ZM0 21.9997H1.17382L16.5 10.7606L0 13.299V21.9997ZM16.5 10.7606L33 8.22205V-0.000244141H31.174L16.5 10.7606ZM18.1555 -0.000244141L16.5 10.7606L24.3913 -0.000244141H18.1555ZM33 21.9997V13.2991L16.5 10.7606L31.8261 21.9997H33Z" fill="#D80027" style="fill:#D80027;fill:color(display-p3 0.8471 0.0000 0.1529);fill-opacity:1;"/>
<path d="M16.5 14.5868C18.613 14.5868 20.3259 12.8739 20.3259 10.7609C20.3259 8.64796 18.613 6.93506 16.5 6.93506C14.387 6.93506 12.6741 8.64796 12.6741 10.7609C12.6741 12.8739 14.387 14.5868 16.5 14.5868Z" fill="#D80027" style="fill:#D80027;fill:color(display-p3 0.8471 0.0000 0.1529);fill-opacity:1;"/>
<path d="M16.5 13.6305C18.0848 13.6305 19.3696 12.3458 19.3696 10.7609C19.3696 9.17611 18.0848 7.89136 16.5 7.89136C14.9152 7.89136 13.6304 9.17611 13.6304 10.7609C13.6304 12.3458 14.9152 13.6305 16.5 13.6305Z" fill="#FFDA44" style="fill:#FFDA44;fill:color(display-p3 1.0000 0.8549 0.2667);fill-opacity:1;"/>
</g>
<defs>
<clipPath id="clip0_1493_15593">
<rect width="33" height="22" fill="white" style="fill:white;fill-opacity:1;"/>
</clipPath>
</defs>
</svg>
