<svg width="33" height="22" viewBox="0 0 33 22" fill="none" xmlns="http://www.w3.org/2000/svg">
<g clip-path="url(#clip0_1493_15658)">
<path d="M0 0H33V22H0V0Z" fill="#1B4991" style="fill:#1B4991;fill:color(display-p3 0.1059 0.2863 0.5686);fill-opacity:1;"/>
<path d="M20.469 6.86377V13.7146C20.469 17.0532 24.8304 18.0761 24.8304 18.0761C24.8304 18.0761 29.1918 17.0532 29.1918 13.7146V6.86377H20.469Z" fill="#00A2B8" style="fill:#00A2B8;fill:color(display-p3 0.0000 0.6353 0.7216);fill-opacity:1;"/>
<path d="M28.6917 7.36377H20.969V13.7144C20.969 15.1304 21.8856 16.0884 22.9124 16.7222C23.42 17.0355 23.9324 17.2538 24.3196 17.394C24.512 17.4637 24.6714 17.5136 24.7815 17.5454C24.7988 17.5504 24.8155 17.554 24.8303 17.5581C24.8451 17.554 24.8618 17.5504 24.8792 17.5454C24.9893 17.5136 25.1494 17.4638 25.342 17.394C25.7292 17.2538 26.2408 17.0354 26.7483 16.7222C27.7751 16.0884 28.6917 15.1304 28.6917 13.7144V7.36377ZM29.6917 13.7144C29.6917 15.6369 28.4276 16.8605 27.2737 17.5728C26.6911 17.9324 26.1124 18.1786 25.6819 18.3345C25.4659 18.4127 25.2848 18.4692 25.1565 18.5063C25.0924 18.5249 25.0411 18.538 25.0051 18.5474C24.9874 18.552 24.9733 18.5556 24.9631 18.5581C24.958 18.5594 24.9535 18.5603 24.9504 18.561C24.9489 18.5614 24.9475 18.5618 24.9465 18.562L24.9456 18.563H24.9446L24.8303 18.5894L24.7161 18.563L24.7141 18.562L24.6555 18.5474C24.6195 18.538 24.5682 18.5249 24.5042 18.5063C24.3758 18.4692 24.1948 18.4127 23.9788 18.3345C23.5482 18.1786 22.9696 17.9324 22.387 17.5728C21.2331 16.8605 19.969 15.6369 19.969 13.7144V6.36377H29.6917V13.7144Z" fill="white" style="fill:white;fill-opacity:1;"/>
<path d="M20.5655 13.6824C20.5655 16.9502 24.8304 17.9473 24.8304 17.9473C24.8304 17.9473 29.0953 16.9438 29.0953 13.6824H20.5655Z" fill="#A35023" style="fill:#A35023;fill:color(display-p3 0.6392 0.3137 0.1373);fill-opacity:1;"/>
<path d="M26.7023 9.9772H25.4544V8.72925H24.2064V9.9772H22.9649V11.2252H24.2064V14.9626H25.4544V11.2252H26.7023V9.9772Z" fill="black" style="fill:black;fill-opacity:1;"/>
<path d="M16.4678 0V1.96842L13.5602 3.58304H16.4678V7.39766H12.6661L16.4678 9.5076V10.9807H14.7503L10.0222 8.34971V10.9807H6.44561V7.85439L0.816959 10.9807H0V9.01228L2.9076 7.39766H0V3.58304H3.80175L0 1.46667V0H1.71754L6.44561 2.62456V0H10.0222V3.12632L15.6509 0H16.4678Z" fill="white" style="fill:white;fill-opacity:1;"/>
<path d="M9.26316 0H7.20468V4.45789H0V6.51637H7.20468V10.9807H9.26316V6.51637H16.4678V4.45789H9.26316V0Z" fill="#D80027" style="fill:#D80027;fill:color(display-p3 0.8471 0.0000 0.1529);fill-opacity:1;"/>
<path d="M10.0222 7.39771L16.4678 10.9807V9.96437L11.8491 7.39771H10.0222Z" fill="#0052B4" style="fill:#0052B4;fill:color(display-p3 0.0000 0.3216 0.7059);fill-opacity:1;"/>
<path d="M10.0222 7.39771L16.4678 10.9807V9.96437L11.8491 7.39771H10.0222Z" fill="white" style="fill:white;fill-opacity:1;"/>
<path d="M10.0222 7.39771L16.4678 10.9807V9.96437L11.8491 7.39771H10.0222ZM4.61871 7.39771L0 9.96437V10.9807L6.44561 7.39771H4.61871Z" fill="#D80027" style="fill:#D80027;fill:color(display-p3 0.8471 0.0000 0.1529);fill-opacity:1;"/>
<path d="M6.44561 3.57661L0 0V1.00994L4.61871 3.57661H6.44561Z" fill="#0052B4" style="fill:#0052B4;fill:color(display-p3 0.0000 0.3216 0.7059);fill-opacity:1;"/>
<path d="M6.44561 3.57661L0 0V1.00994L4.61871 3.57661H6.44561Z" fill="white" style="fill:white;fill-opacity:1;"/>
<path d="M6.44561 3.57661L0 0V1.00994L4.61871 3.57661H6.44561ZM11.8491 3.57661L16.4678 1.00994V0L10.0222 3.57661H11.8491Z" fill="#D80027" style="fill:#D80027;fill:color(display-p3 0.8471 0.0000 0.1529);fill-opacity:1;"/>
</g>
<defs>
<clipPath id="clip0_1493_15658">
<rect width="33" height="22" fill="white" style="fill:white;fill-opacity:1;"/>
</clipPath>
</defs>
</svg>
