<svg width="33" height="22" viewBox="0 0 33 22" fill="none" xmlns="http://www.w3.org/2000/svg">
<g clip-path="url(#clip0_1493_15725)">
<path d="M0 0H33V22H0V0Z" fill="white" style="fill:white;fill-opacity:1;"/>
<path d="M0 0H33V1.56959H0V0ZM0 3.14561H33V4.7152H0V3.14561ZM0 6.28479H33V7.85439H0V6.28479ZM0 9.43041H33V11H0V9.43041ZM0 12.5696H33V14.1392H0V12.5696ZM0 15.7152H33V17.2848H0V15.7152ZM0 18.8544H33V20.424H0V18.8544Z" fill="#CC0000" style="fill:#CC0000;fill:color(display-p3 0.8000 0.0000 0.0000);fill-opacity:1;"/>
<path d="M0 0H16.5V12.5696H0V0Z" fill="#000066" style="fill:#000066;fill:color(display-p3 0.0000 0.0000 0.4000);fill-opacity:1;"/>
<path d="M9.86139 2.70816C7.88654 1.97482 5.69297 2.97833 4.95964 4.95319C4.22631 6.92804 5.22981 9.12161 7.20467 9.85494C8.06022 10.1766 9.00584 10.1766 9.86783 9.85494C7.89297 11.431 5.01753 11.1158 3.43508 9.14091C1.85262 7.16605 2.17426 4.29061 4.14911 2.70816C5.82163 1.37658 8.19531 1.37658 9.86139 2.70816ZM11.5789 7.53272L10.2538 9.03155L10.6012 7.06313L8.60701 6.9602L10.3631 6.00172L9.19882 4.37424L11.0386 5.14617L11.5789 3.22278L12.1193 5.14617L13.9591 4.37424L12.8012 6.00816L14.5573 6.96664L12.5631 7.06956L12.9105 9.03798L11.5789 7.53272Z" fill="#FFCC00" style="fill:#FFCC00;fill:color(display-p3 1.0000 0.8000 0.0000);fill-opacity:1;"/>
</g>
<defs>
<clipPath id="clip0_1493_15725">
<rect width="33" height="22" fill="white" style="fill:white;fill-opacity:1;"/>
</clipPath>
</defs>
</svg>
