<svg width="33" height="22" viewBox="0 0 33 22" fill="none" xmlns="http://www.w3.org/2000/svg">
<g clip-path="url(#clip0_1493_15584)">
<path d="M0 0.000244141H33V21.9998H0V0.000244141Z" fill="#496E2D" style="fill:#496E2D;fill:color(display-p3 0.2863 0.4314 0.1765);fill-opacity:1;"/>
<path d="M0 21.9998V0.000244141H33" fill="#0052B4" style="fill:#0052B4;fill:color(display-p3 0.0000 0.3216 0.7059);fill-opacity:1;"/>
<path d="M33 4.3112V0.000244141H26.5334L0 17.6888V21.9998H6.46658L33 4.3112Z" fill="white" style="fill:white;fill-opacity:1;"/>
<path d="M33 0.000244141V2.58643L3.87963 21.9998H0V19.4136L29.1204 0.000244141H33Z" fill="#A2001D" style="fill:#A2001D;fill:color(display-p3 0.6353 0.0000 0.1137);fill-opacity:1;"/>
<path d="M12.1003 6.69542L10.6346 7.38481L11.4151 8.80433L9.82354 8.49985L9.62187 10.1076L8.51334 8.92511L7.40474 10.1076L7.20307 8.49985L5.61153 8.80426L6.39199 7.38481L4.92639 6.69542L6.39206 6.00596L5.61153 4.58658L7.20307 4.89092L7.40481 3.2832L8.51334 4.46573L9.62193 3.2832L9.82354 4.89092L11.4151 4.58658L10.6347 6.00609L12.1003 6.69542Z" fill="#FFDA44" style="fill:#FFDA44;fill:color(display-p3 1.0000 0.8549 0.2667);fill-opacity:1;"/>
</g>
<defs>
<clipPath id="clip0_1493_15584">
<rect width="33" height="22" fill="white" style="fill:white;fill-opacity:1;"/>
</clipPath>
</defs>
</svg>
