<svg width="33" height="22" viewBox="0 0 33 22" fill="none" xmlns="http://www.w3.org/2000/svg">
<g clip-path="url(#clip0_1493_15576)">
<path d="M0 15.1067H33V22.0001H0V15.1067Z" fill="#009543" style="fill:#009543;fill:color(display-p3 0.0000 0.5843 0.2627);fill-opacity:1;"/>
<path d="M0 6.80566H33V15.122H0V6.80566Z" fill="#ED4135" style="fill:#ED4135;fill:color(display-p3 0.9294 0.2549 0.2078);fill-opacity:1;"/>
<path d="M0 0H33V6.87274H0V0Z" fill="#0035AD" style="fill:#0035AD;fill:color(display-p3 0.0000 0.2078 0.6784);fill-opacity:1;"/>
<path d="M12.3749 19.1075C16.8544 19.1075 20.4857 15.4765 20.4857 10.9974C20.4857 6.51824 16.8544 2.88721 12.3749 2.88721C7.89548 2.88721 4.26416 6.51824 4.26416 10.9974C4.26416 15.4765 7.89548 19.1075 12.3749 19.1075Z" fill="#FAE600" style="fill:#FAE600;fill:color(display-p3 0.9804 0.9020 0.0000);fill-opacity:1;"/>
<path fill-rule="evenodd" clip-rule="evenodd" d="M12.375 2.13672C17.2684 2.13698 21.2363 6.10483 21.2363 10.998C21.236 15.8909 17.2682 19.8581 12.375 19.8584C7.48181 19.8582 3.51405 15.891 3.51367 10.998C3.51367 6.10481 7.48158 2.13695 12.375 2.13672ZM12.6729 4.42773L13.1836 4.17383L13.4707 4.75098L12.667 5.15137L12.6582 6.36719V6.39941C13.0462 6.56244 13.3184 6.94631 13.3184 7.39355C13.3183 7.84065 13.0461 8.22363 12.6582 8.38672V9.12598H13.4473V9.6416H12.6582V10.3027C13.0439 10.3923 13.3181 10.6178 13.3184 10.8838C13.3184 11.1499 13.044 11.3752 12.6582 11.4648V12.0645H13.4473V12.5801H12.6582V13.248C12.9368 13.4751 13.1278 13.9332 13.1279 14.4619C13.1279 14.9906 12.9367 15.4486 12.6582 15.6758V16.251C12.6582 16.251 13.4472 16.3134 13.7979 16.4629C14.1531 16.6169 14.8459 17.2596 15.334 17.7363C17.9251 16.5969 19.7361 14.0097 19.7363 10.998C19.7363 7.03511 16.603 3.80407 12.6787 3.64453L12.6729 4.42773ZM11.8154 3.65918C8.01156 3.94511 5.01465 7.12145 5.01465 10.998C5.01492 13.91 6.70608 16.4267 9.16016 17.6201C9.64295 17.1677 10.3061 16.5905 10.6738 16.4629C11.1122 16.3101 11.8121 16.2723 11.8281 16.2715V15.6436C11.5699 15.407 11.3955 14.9668 11.3955 14.4619C11.3956 13.9569 11.5698 13.5167 11.8281 13.2803V12.5801H11.0244V12.0645H11.8281V11.4375C11.4952 11.3344 11.2666 11.1265 11.2666 10.8838C11.2668 10.6412 11.4953 10.4331 11.8281 10.3301V9.6416H11.0244V9.12598H11.8281V8.38867C11.4379 8.22664 11.1631 7.84235 11.1631 7.39355C11.1631 6.94462 11.4378 6.55943 11.8281 6.39746V6.29004L11.8242 5.57129L11.2559 5.85547L10.9688 5.27832L11.8213 4.85254L11.8154 3.65918Z" fill="black" style="fill:black;fill-opacity:1;"/>
</g>
<defs>
<clipPath id="clip0_1493_15576">
<rect width="33" height="22" fill="white" style="fill:white;fill-opacity:1;"/>
</clipPath>
</defs>
</svg>
