<svg width="33" height="22" viewBox="0 0 33 22" fill="none" xmlns="http://www.w3.org/2000/svg">
<g clip-path="url(#clip0_1493_15576)">
<path d="M0 15.1067H33V22.0001H0V15.1067Z" fill="#009543" style="fill:#009543;fill:color(display-p3 0.0000 0.5843 0.2627);fill-opacity:1;"/>
<path d="M0 6.80566H33V15.122H0V6.80566Z" fill="#ED4135" style="fill:#ED4135;fill:color(display-p3 0.9294 0.2549 0.2078);fill-opacity:1;"/>
<path d="M0 0H33V6.87274H0V0Z" fill="#0035AD" style="fill:#0035AD;fill:color(display-p3 0.0000 0.2078 0.6784);fill-opacity:1;"/>
<path d="M12.3749 19.1075C16.8544 19.1075 20.4857 15.4765 20.4857 10.9974C20.4857 6.51824 16.8544 2.88721 12.3749 2.88721C7.89548 2.88721 4.26416 6.51824 4.26416 10.9974C4.26416 15.4765 7.89548 19.1075 12.3749 19.1075Z" fill="#FAE600" stroke="black" style="fill:#FAE600;fill:color(display-p3 0.9804 0.9020 0.0000);fill-opacity:1;stroke:black;stroke-opacity:1;" stroke-width="5.3"/>
<path d="M15.8761 18.2774L14.2364 18.8961L12.375 19.1127L10.4259 18.9889L8.57483 18.1898C8.57483 18.1898 10.0495 16.6791 10.6734 16.4626C11.1169 16.3079 11.8284 16.2718 11.8284 16.2718V6.29007L11.813 2.88721H12.6844L12.6586 6.3674V16.2512C12.6586 16.2512 13.4475 16.313 13.7981 16.4626C14.3808 16.7152 15.8761 18.2774 15.8761 18.2774Z" fill="black" style="fill:black;fill-opacity:1;"/>
<path d="M10.9688 5.27835L13.1836 4.17407L13.4712 4.75086L11.2563 5.85508L10.9688 5.27835Z" fill="black" style="fill:black;fill-opacity:1;"/>
<path d="M12.2615 15.8285C12.7399 15.8285 13.1278 15.2168 13.1278 14.4622C13.1278 13.7077 12.7399 13.0959 12.2615 13.0959C11.7831 13.0959 11.3953 13.7077 11.3953 14.4622C11.3953 15.2168 11.7831 15.8285 12.2615 15.8285Z" fill="black" style="fill:black;fill-opacity:1;"/>
<path d="M12.241 8.47106C12.8362 8.47106 13.3186 7.98862 13.3186 7.39349C13.3186 6.79836 12.8362 6.31592 12.241 6.31592C11.6458 6.31592 11.1633 6.79836 11.1633 7.39349C11.1633 7.98862 11.6458 8.47106 12.241 8.47106Z" fill="black" style="fill:black;fill-opacity:1;"/>
<path d="M12.2925 11.508C12.8591 11.508 13.3185 11.2287 13.3185 10.8841C13.3185 10.5396 12.8591 10.2603 12.2925 10.2603C11.7258 10.2603 11.2664 10.5396 11.2664 10.8841C11.2664 11.2287 11.7258 11.508 12.2925 11.508Z" fill="black" style="fill:black;fill-opacity:1;"/>
<path d="M11.024 9.12573H13.4475V9.64132H11.024V9.12573ZM11.024 12.0646H13.4475V12.5801H11.024V12.0646Z" fill="black" style="fill:black;fill-opacity:1;"/>
</g>
<defs>
<clipPath id="clip0_1493_15576">
<rect width="33" height="22" fill="white" style="fill:white;fill-opacity:1;"/>
</clipPath>
</defs>
</svg>
