<svg width="33" height="22" viewBox="0 0 33 22" fill="none" xmlns="http://www.w3.org/2000/svg">
<g clip-path="url(#clip0_1493_15729)">
<path d="M0 0.000488281H33V22H0V0.000488281Z" fill="white" style="fill:white;fill-opacity:1;"/>
<path d="M0 0.000488281H33V7.33365H0V0.000488281ZM0 14.6669H33V22H0V14.6669Z" fill="#338AF3" style="fill:#338AF3;fill:color(display-p3 0.2000 0.5412 0.9529);fill-opacity:1;"/>
<path d="M16.5 8.32178C15.0209 8.32178 13.8218 9.5208 13.8218 11C13.8218 12.4792 15.0208 13.6782 16.5 13.6782C17.9791 13.6782 19.1782 12.4792 19.1782 11C19.1782 9.5208 17.9791 8.32178 16.5 8.32178ZM16.5 12.5304C15.6548 12.5304 14.9696 11.8452 14.9696 11C14.9696 10.1548 15.6548 9.46956 16.5 9.46956C17.3452 9.46956 18.0304 10.1548 18.0304 11C18.0304 11.8452 17.3452 12.5304 16.5 12.5304Z" fill="#FFDA44" style="fill:#FFDA44;fill:color(display-p3 1.0000 0.8549 0.2667);fill-opacity:1;"/>
<path d="M17.8254 11.3826L16.5 11L15.1747 11.3826L14.7328 12.1478H18.2672L17.8254 11.3826Z" fill="#0052B4" style="fill:#0052B4;fill:color(display-p3 0.0000 0.3216 0.7059);fill-opacity:1;"/>
<path d="M16.5 9.08691L15.6164 10.6173L16.5 10.9999L17.3836 10.6173L16.5 9.08691Z" fill="#338AF3" style="fill:#338AF3;fill:color(display-p3 0.2000 0.5412 0.9529);fill-opacity:1;"/>
<path d="M15.1746 11.3829H17.8253L17.3836 10.6177H15.6164L15.1746 11.3829Z" fill="#6DA544" style="fill:#6DA544;fill:color(display-p3 0.4275 0.6471 0.2667);fill-opacity:1;"/>
</g>
<defs>
<clipPath id="clip0_1493_15729">
<rect width="33" height="22" fill="white" style="fill:white;fill-opacity:1;"/>
</clipPath>
</defs>
</svg>
