<svg width="33" height="22" viewBox="0 0 33 22" fill="none" xmlns="http://www.w3.org/2000/svg">
<g clip-path="url(#clip0_1493_15709)">
<path d="M33 0H0V22H33V0Z" fill="#D80027" style="fill:#D80027;fill:color(display-p3 0.8471 0.0000 0.1529);fill-opacity:1;"/>
<path d="M33.1287 0H8.8772V7.33333H33.1287V0Z" fill="white" style="fill:white;fill-opacity:1;"/>
<path d="M33.1287 14.7954H8.8772V22.1287H33.1287V14.7954Z" fill="#4A7C3A" style="fill:#4A7C3A;fill:color(display-p3 0.2902 0.4863 0.2275);fill-opacity:1;"/>
<path d="M6.43273 2.26451C6.68177 2.46802 6.68175 2.46811 6.68175 2.46811L6.68162 2.46817C6.68162 2.46817 6.68146 2.46843 6.68131 2.46861C6.68101 2.46898 6.68052 2.46952 6.67993 2.47024C6.67875 2.47168 6.67701 2.47385 6.67471 2.47665C6.67013 2.48226 6.66334 2.49054 6.65449 2.50134C6.63673 2.52299 6.61065 2.55478 6.57728 2.59532C6.51055 2.67638 6.41458 2.79258 6.29754 2.93341C6.08553 3.18853 5.80384 3.52463 5.50124 3.87917H5.7637V4.52244H4.94528C4.94099 4.52734 4.9367 4.53225 4.93241 4.53714C5.02514 4.63539 5.11649 4.72987 5.20542 4.81895C5.55693 5.17107 5.8351 5.40242 5.99808 5.47975C6.42648 5.68301 6.67951 5.76519 6.81543 5.79768C6.8828 5.81379 6.91772 5.81676 6.92825 5.81728C6.9333 5.81753 6.93166 5.81717 6.92448 5.81772C6.92087 5.818 6.91576 5.81852 6.90941 5.81948C6.90623 5.81996 6.90272 5.82057 6.89892 5.8213C6.89701 5.82167 6.89501 5.82206 6.89295 5.8225C6.89193 5.82272 6.89087 5.82295 6.88981 5.82319L6.88736 5.82375C6.88715 5.8238 6.88705 5.82419 6.89603 5.86302L7.02443 6.41106C7.03327 6.44929 7.03324 6.45025 7.03304 6.45032C7.0329 6.45035 7.03249 6.45044 7.03222 6.45051L7.02713 6.45164C7.02486 6.45212 7.0225 6.45257 7.02016 6.45302C7.01547 6.45392 7.01063 6.45478 7.00565 6.45553C6.99565 6.45704 6.98499 6.45824 6.97367 6.45911C6.95108 6.46084 6.92542 6.4612 6.89622 6.45974C6.83818 6.45685 6.76331 6.44658 6.66592 6.42331C6.47215 6.37699 6.17515 6.27582 5.7223 6.06096C5.44465 5.92922 5.09398 5.6178 4.75017 5.27339C4.66904 5.19212 4.58634 5.10687 4.50272 5.01884C4.46632 5.05886 4.43047 5.09819 4.39511 5.13657C4.08923 5.46858 3.80273 5.76054 3.61809 5.89518C3.27507 6.1453 2.94069 6.28488 2.69062 6.36224C2.56538 6.40099 2.46046 6.42437 2.38494 6.43826C2.34714 6.4452 2.3166 6.44982 2.29441 6.45277C2.28331 6.45424 2.27426 6.45529 2.26746 6.45603C2.26408 6.45641 2.26125 6.45675 2.25898 6.45698C2.25784 6.45709 2.25682 6.45715 2.25597 6.45723C2.25556 6.45727 2.25518 6.45732 2.25484 6.45735C2.25467 6.45737 2.25448 6.45734 2.25433 6.45735L2.25408 6.45742L2.19729 5.81665H2.19711L2.19679 5.81672C2.1966 5.81674 2.19642 5.8167 2.19629 5.81672C2.19654 5.81669 2.19691 5.81664 2.19736 5.81659C2.19944 5.81636 2.20358 5.81589 2.20967 5.81508C2.22191 5.81346 2.24193 5.81051 2.26866 5.8056C2.32219 5.79576 2.40222 5.77815 2.50053 5.74774C2.69751 5.6868 2.9646 5.57556 3.2391 5.37541C3.36323 5.2849 3.60667 5.04288 3.92195 4.70066C3.96882 4.64979 4.01668 4.59718 4.06549 4.5433C4.0593 4.53636 4.05315 4.52938 4.04696 4.52244H3.32566V3.87917H3.48918C3.1963 3.53301 2.93028 3.20665 2.72818 2.95477C2.60866 2.80581 2.5113 2.68269 2.44374 2.5967C2.40996 2.55371 2.38361 2.51999 2.36565 2.49694C2.35668 2.48543 2.34977 2.47657 2.34511 2.47056C2.34278 2.46756 2.34098 2.46521 2.33977 2.46365C2.33918 2.46288 2.3387 2.4623 2.33839 2.46189C2.33823 2.46169 2.3381 2.4615 2.33801 2.46139L2.33795 2.46126C2.33837 2.46088 2.34886 2.45272 2.59237 2.26451C2.84087 2.07244 2.84671 2.06792 2.84685 2.06782L2.84691 2.06788C2.84691 2.06788 2.8471 2.0681 2.84723 2.06826C2.84749 2.0686 2.84789 2.06914 2.84842 2.06983C2.84951 2.07124 2.85118 2.0734 2.85338 2.07624C2.8578 2.08193 2.86442 2.09046 2.87311 2.10162C2.89054 2.124 2.91637 2.15706 2.94956 2.1993C3.01596 2.2838 3.11196 2.4052 3.22993 2.55222C3.46603 2.84647 3.78953 3.24264 4.13993 3.65126C4.16853 3.6846 4.19737 3.71792 4.22625 3.75133V2.26451H4.86952V3.62814C4.8857 3.60929 4.90191 3.59052 4.91802 3.57173C5.25354 3.18015 5.57004 2.80236 5.80277 2.52232C5.9191 2.38235 6.01444 2.26689 6.08063 2.18649C6.11372 2.14629 6.13951 2.1148 6.15702 2.09345C6.16575 2.08279 6.17245 2.07467 6.17693 2.0692C6.17917 2.06647 6.1809 2.06435 6.18202 2.06298L6.18359 2.0611L6.18365 2.06104C6.18417 2.06143 6.19517 2.07037 6.43273 2.26451Z" fill="white" style="fill:white;fill-opacity:1;"/>
</g>
<defs>
<clipPath id="clip0_1493_15709">
<rect width="33" height="22" fill="white" style="fill:white;fill-opacity:1;"/>
</clipPath>
</defs>
</svg>
