<svg width="33" height="22" viewBox="0 0 33 22" fill="none" xmlns="http://www.w3.org/2000/svg">
<g clip-path="url(#clip0_1493_15552)">
<path d="M25.3629 5.49023L26.4916 6.70679L27.9974 6.00934L27.1891 7.4587L28.3179 8.67532L26.6896 8.35447L25.8814 9.80389L25.6833 8.15621L24.0551 7.83536L25.5609 7.13798L25.3629 5.49023Z" fill="white" style="fill:white;fill-opacity:1;"/>
<path d="M0 0.000488281H33V22H0V0.000488281Z" fill="white" style="fill:white;fill-opacity:1;"/>
<path d="M8.25 0H33V22.0003H8.25V0Z" fill="#01411C" style="fill:#01411C;fill:color(display-p3 0.0039 0.2549 0.1098);fill-opacity:1;"/>
<path d="M23.3262 13.758C21.3258 15.2035 18.5323 14.7536 17.0869 12.7531C15.6414 10.7526 16.0913 7.95912 18.0919 6.51376C18.7156 6.0631 19.4164 5.79672 20.1294 5.70403C18.7577 5.49888 17.3079 5.808 16.0948 6.68443C13.6327 8.46347 13.0789 11.9015 14.8579 14.3637C16.6369 16.8258 20.075 17.3796 22.5372 15.6005C23.7502 14.7241 24.4989 13.4447 24.7347 12.0778C24.4229 12.7256 23.95 13.3073 23.3262 13.758ZM23.2405 5.64312L24.3674 6.85755L25.8706 6.16133L25.0637 7.60811L26.1906 8.82266L24.5651 8.50246L23.7582 9.94943L23.5605 8.30453L21.935 7.98426L23.4383 7.28803L23.2405 5.64312Z" fill="white" style="fill:white;fill-opacity:1;"/>
</g>
<defs>
<clipPath id="clip0_1493_15552">
<rect width="33" height="22" fill="white" style="fill:white;fill-opacity:1;"/>
</clipPath>
</defs>
</svg>
