<svg width="33" height="22" viewBox="0 0 33 22" fill="none" xmlns="http://www.w3.org/2000/svg">
<g clip-path="url(#clip0_1493_15610)">
<path d="M0 0.000488281H33V22H0V0.000488281Z" fill="#D80027" style="fill:#D80027;fill:color(display-p3 0.8471 0.0000 0.1529);fill-opacity:1;"/>
<path d="M12.6741 0.000488281V22H0V0.000488281H12.6741Z" fill="#6DA544" style="fill:#6DA544;fill:color(display-p3 0.4275 0.6471 0.2667);fill-opacity:1;"/>
<path d="M12.6741 15.125C14.9522 15.125 16.7991 13.2782 16.7991 11C16.7991 8.72183 14.9522 6.875 12.6741 6.875C10.3959 6.875 8.54907 8.72183 8.54907 11C8.54907 13.2782 10.3959 15.125 12.6741 15.125Z" fill="#FFDA44" style="fill:#FFDA44;fill:color(display-p3 1.0000 0.8549 0.2667);fill-opacity:1;"/>
<path d="M10.3536 8.9375V11.5157C10.3536 12.7972 11.3925 13.836 12.674 13.836C13.9554 13.836 14.9943 12.7972 14.9943 11.5157V8.9375H10.3536Z" fill="#D80027" style="fill:#D80027;fill:color(display-p3 0.8471 0.0000 0.1529);fill-opacity:1;"/>
<path d="M12.674 12.2891C12.2475 12.2891 11.9005 11.9421 11.9005 11.5156V10.4844H13.4475V11.5156C13.4474 11.942 13.1004 12.2891 12.674 12.2891Z" fill="white" style="fill:white;fill-opacity:1;"/>
</g>
<defs>
<clipPath id="clip0_1493_15610">
<rect width="33" height="22" fill="white" style="fill:white;fill-opacity:1;"/>
</clipPath>
</defs>
</svg>
