<svg width="33" height="22" viewBox="0 0 33 22" fill="none" xmlns="http://www.w3.org/2000/svg">
<g clip-path="url(#clip0_1493_15512)">
<path d="M0 0H33V22.0003H0V0Z" fill="#0052B4" style="fill:#0052B4;fill:color(display-p3 0.0000 0.3216 0.7059);fill-opacity:1;"/>
<path d="M0 0H33V7.33316H0V0Z" fill="#D80027" style="fill:#D80027;fill:color(display-p3 0.8471 0.0000 0.1529);fill-opacity:1;"/>
<path d="M0 14.666H33V21.9992H0V14.666Z" fill="white" style="fill:white;fill-opacity:1;"/>
<path d="M8.3446 6.21729V11.7046C8.3446 14.826 12.4224 15.7823 12.4224 15.7823C12.4224 15.7823 16.5 14.8258 16.5 11.7046V6.21729H8.3446Z" fill="#D80027" style="fill:#D80027;fill:color(display-p3 0.8471 0.0000 0.1529);fill-opacity:1;"/>
<path d="M10.0312 7.17372H14.8136V5.26068L13.8571 5.73893L12.4223 4.3042L10.9876 5.73893L10.0312 5.26068V7.17372ZM15.5436 12.4684L12.4349 9.35978L9.32629 12.4684L10.3409 13.4829L12.4349 11.3888L14.529 13.4829L15.5436 12.4684Z" fill="#FFDA44" style="fill:#FFDA44;fill:color(display-p3 1.0000 0.8549 0.2667);fill-opacity:1;"/>
<path d="M15.5436 9.56497H14.0931C14.1776 9.4198 14.2221 9.25483 14.2221 9.08686C14.2221 8.5586 13.7938 8.13037 13.2656 8.13037C12.9006 8.13037 12.5836 8.33482 12.4224 8.63543C12.2611 8.33488 11.9441 8.13037 11.5791 8.13037C11.0509 8.13037 10.6226 8.5586 10.6226 9.08686C10.6226 9.26127 10.6701 9.42427 10.7516 9.56497H9.32629C9.32629 10.0932 9.78642 10.5215 10.3146 10.5215H10.2828C10.2828 11.0497 10.711 11.4779 11.2393 11.4779C11.2393 11.9457 11.5751 12.3343 12.0188 12.4174L11.265 14.119C11.6365 14.2702 12.0338 14.3477 12.4348 14.3475C12.8358 14.3477 13.2331 14.2702 13.6046 14.119L12.8508 12.4174C13.2945 12.3343 13.6303 11.9457 13.6303 11.4779C14.1586 11.4779 14.5868 11.0497 14.5868 10.5215H14.555C15.0834 10.5215 15.5436 10.0932 15.5436 9.56497Z" fill="white" style="fill:white;fill-opacity:1;"/>
</g>
<defs>
<clipPath id="clip0_1493_15512">
<rect width="33" height="22" fill="white" style="fill:white;fill-opacity:1;"/>
</clipPath>
</defs>
</svg>
