<svg width="33" height="22" viewBox="0 0 33 22" fill="none" xmlns="http://www.w3.org/2000/svg">
<g clip-path="url(#clip0_1493_15507)">
<path d="M0 0H33V22.0003H0V0Z" fill="#496E2D" style="fill:#496E2D;fill:color(display-p3 0.2863 0.4314 0.1765);fill-opacity:1;"/>
<path d="M0 21.9996V-0.000488281H33" fill="#0052B4" style="fill:#0052B4;fill:color(display-p3 0.0000 0.3216 0.7059);fill-opacity:1;"/>
<path d="M0 20.0551V21.9996H2.91683L33 1.94406V-0.000488281H30.0832L0 20.0551Z" fill="#FFDA44" style="fill:#FFDA44;fill:color(display-p3 1.0000 0.8549 0.2667);fill-opacity:1;"/>
<path d="M5.52286 1.51172L5.85286 2.52724H6.92059L6.05672 3.15482L6.38672 4.17041L5.52286 3.54277L4.65887 4.17041L4.98887 3.15482L4.125 2.52724H5.1928L5.52286 1.51172ZM10.9771 1.51172L11.3072 2.52724H12.375L11.5111 3.15482L11.8411 4.17041L10.9771 3.54277L10.1133 4.17041L10.4433 3.15482L9.57941 2.52724H10.6471L10.9771 1.51172ZM5.52286 6.82924L5.85286 7.84476H6.92059L6.05672 8.47241L6.38672 9.48799L5.52286 8.86028L4.65887 9.48799L4.98887 8.47241L4.125 7.84476H5.1928L5.52286 6.82924ZM10.9771 6.82924L11.3072 7.84476H12.375L11.5111 8.47241L11.8411 9.48799L10.9771 8.86028L10.1133 9.48799L10.4433 8.47241L9.57941 7.84476H10.6471L10.9771 6.82924ZM8.25 4.17041L8.58 5.18594H9.64786L8.78387 5.81358L9.11387 6.82924L8.25 6.20153L7.38613 6.82924L7.71613 5.81358L6.85214 5.18594H7.92L8.25 4.17041Z" fill="white" style="fill:white;fill-opacity:1;"/>
</g>
<defs>
<clipPath id="clip0_1493_15507">
<rect width="33" height="22" fill="white" style="fill:white;fill-opacity:1;"/>
</clipPath>
</defs>
</svg>
