<svg width="33" height="22" viewBox="0 0 33 22" fill="none" xmlns="http://www.w3.org/2000/svg">
<g clip-path="url(#clip0_1493_15652)">
<path d="M0 0.000488281H33V22H0V0.000488281Z" fill="white" style="fill:white;fill-opacity:1;"/>
<path d="M0 0.000488281H33V11.0003H0V0.000488281Z" fill="#D80027" style="fill:#D80027;fill:color(display-p3 0.8471 0.0000 0.1529);fill-opacity:1;"/>
<path d="M5.38042 5.50017C5.38042 3.89754 6.5068 2.55872 8.01088 2.2302C7.77525 2.17854 7.53474 2.15244 7.29352 2.15234C5.44449 2.15234 3.94569 3.65114 3.94569 5.50011C3.94569 7.34907 5.44455 8.84793 7.29352 8.84793C7.53986 8.84793 7.77969 8.82054 8.01088 8.77007C6.5068 8.44169 5.38042 7.10286 5.38042 5.50017ZM9.68479 2.39153L9.92224 3.12224H10.6906L10.0689 3.57386L10.3064 4.30456L9.68479 3.85301L9.06314 4.30456L9.30065 3.57386L8.679 3.12224H9.44735L9.68479 2.39153Z" fill="white" style="fill:white;fill-opacity:1;"/>
<path d="M7.82101 3.82617L8.05839 4.55688H8.82673L8.20508 5.0085L8.44253 5.73921L7.82101 5.28765L7.19936 5.73921L7.43687 5.0085L6.81522 4.55688H7.58356L7.82101 3.82617ZM11.5486 3.82617L11.786 4.55688H12.5544L11.9327 5.0085L12.1702 5.73921L11.5486 5.28765L10.927 5.73921L11.1645 5.0085L10.5429 4.55688H11.3112L11.5486 3.82617ZM10.8312 5.97833L11.0686 6.70903H11.837L11.2154 7.16066L11.4528 7.89136L10.8312 7.4398L10.2096 7.89136L10.4471 7.16066L9.8255 6.70903H10.5938L10.8312 5.97833ZM8.53837 5.97833L8.77575 6.70903H9.5441L8.92251 7.16066L9.15996 7.89136L8.53837 7.4398L7.91678 7.89136L8.15423 7.16066L7.53264 6.70903H8.30092L8.53837 5.97833Z" fill="white" style="fill:white;fill-opacity:1;"/>
</g>
<defs>
<clipPath id="clip0_1493_15652">
<rect width="33" height="22" fill="white" style="fill:white;fill-opacity:1;"/>
</clipPath>
</defs>
</svg>
