<svg width="33" height="22" viewBox="0 0 33 22" fill="none" xmlns="http://www.w3.org/2000/svg">
<g clip-path="url(#clip0_1493_15602)">
<path d="M0 0H33V22H0V0Z" fill="#0052B4" style="fill:#0052B4;fill:color(display-p3 0.0000 0.3216 0.7059);fill-opacity:1;"/>
<path d="M16.5 0V7.56754H13.5287L16.5 9.54644V11.0032H15.0434L10.3125 7.85116V11.0032H6.1875V7.85116L1.45664 11.0032H0V9.54644L2.97129 7.56754H0V3.44213H2.97129L0 1.46323V0H1.45664L6.1875 3.15207V0H10.3125V3.15207L15.0434 0H16.5Z" fill="white" style="fill:white;fill-opacity:1;"/>
<path d="M9.28125 0H7.21875V4.47348H0V6.53619H7.21875V11.0032H9.28125V6.53619H16.5V4.47348H9.28125V0Z" fill="#D80027" style="fill:#D80027;fill:color(display-p3 0.8471 0.0000 0.1529);fill-opacity:1;"/>
<path d="M0 0V0.973337L3.69961 3.44213H5.15625L0 0ZM16.5 0V0.973337L12.8004 3.44213H11.3438L16.5 0Z" fill="#D80027" style="fill:#D80027;fill:color(display-p3 0.8471 0.0000 0.1529);fill-opacity:1;"/>
<path d="M16.5 1.46338V3.44228H13.5287L16.5 1.46338Z" fill="#2E52B2" style="fill:#2E52B2;fill:color(display-p3 0.1804 0.3216 0.6980);fill-opacity:1;"/>
<path d="M0 0V0.973337L3.69961 3.44213H5.15625L0 0ZM16.5 0V0.973337L12.8004 3.44213H11.3438L16.5 0Z" fill="#D80027" style="fill:#D80027;fill:color(display-p3 0.8471 0.0000 0.1529);fill-opacity:1;"/>
<path d="M16.5 1.46338V3.44228H13.5287L16.5 1.46338Z" fill="#2E52B2" style="fill:#2E52B2;fill:color(display-p3 0.1804 0.3216 0.6980);fill-opacity:1;"/>
<path d="M0 11.0031V10.0297L3.69961 7.56738H5.15625L0 11.0031ZM16.5 11.0031V10.0297L12.8004 7.56738H11.3438L16.5 11.0031Z" fill="#D80027" style="fill:#D80027;fill:color(display-p3 0.8471 0.0000 0.1529);fill-opacity:1;"/>
<path d="M28.9395 9.00488C28.933 11.8669 28.4754 14.9416 24.75 16.4113C21.0246 14.9416 20.567 11.8669 20.5605 9.00488H28.9395Z" fill="#29DBFF" style="fill:#29DBFF;fill:color(display-p3 0.1608 0.8588 1.0000);fill-opacity:1;"/>
<path d="M28.9395 9.00496C28.9395 7.92849 28.8815 6.88424 28.9072 5.96892C27.5151 5.35011 25.6781 5.22119 24.7436 5.22119C23.809 5.22119 21.9785 5.35011 20.5799 5.96892C20.6057 6.88424 20.5477 7.92849 20.5477 9.00496H28.9395Z" fill="#FFDA44" style="fill:#FFDA44;fill:color(display-p3 1.0000 0.8549 0.2667);fill-opacity:1;"/>
<path d="M23.8154 13.1821L23.8348 13.846L23.0098 13.8589L23.3256 14.7098H22.2105C21.0504 13.4077 20.7023 11.9767 20.6057 10.3201L21.1922 9.69482L21.7271 10.6166L22.4232 9.79151L22.8744 10.2943L22.926 11.3063L23.8154 13.1821Z" fill="#BF521B" style="fill:#BF521B;fill:color(display-p3 0.7490 0.3216 0.1059);fill-opacity:1;"/>
<path d="M28.1402 12.4084L27.586 13.588H24.5567L22.6746 12.3311L24.3311 13.0079H25.9488L26.1873 12.5889L26.6514 12.6018L26.7803 12.4084H28.1402Z" fill="#474747" style="fill:#474747;fill:color(display-p3 0.2784 0.2784 0.2784);fill-opacity:1;"/>
</g>
<defs>
<clipPath id="clip0_1493_15602">
<rect width="33" height="22" fill="white" style="fill:white;fill-opacity:1;"/>
</clipPath>
</defs>
</svg>
