<svg width="33" height="22" viewBox="0 0 33 22" fill="none" xmlns="http://www.w3.org/2000/svg">
<g clip-path="url(#clip0_1493_15502)">
<path d="M0 0.000488281H33V22H0V0.000488281Z" fill="#338AF3" style="fill:#338AF3;fill:color(display-p3 0.2000 0.5412 0.9529);fill-opacity:1;"/>
<path d="M33 0V10.7437L0 11.0112V0H33Z" fill="white" style="fill:white;fill-opacity:1;"/>
<path d="M20.8663 7.59033L16.5 11.9566L12.1337 7.59033C11.5495 8.45627 11.2379 9.47728 11.2391 10.5219V11.9566C11.2391 14.2605 12.7278 16.223 14.7936 16.9333C14.5179 17.4737 14.5644 18.1481 14.9684 18.6523L16.5319 17.3994L18.0954 18.6523C18.5042 18.1422 18.5473 17.4577 18.2607 16.9141C20.2983 16.1883 21.761 14.2403 21.761 11.9566V10.5219C21.7621 9.47728 21.4505 8.45628 20.8663 7.59033Z" fill="#6DA544" style="fill:#6DA544;fill:color(display-p3 0.4275 0.6471 0.2667);fill-opacity:1;"/>
<path d="M16.5 15.7828C14.3903 15.7828 12.6739 14.0664 12.6739 11.9567V10.5219C12.6739 8.41219 14.3903 6.6958 16.5 6.6958C18.6097 6.6958 20.3261 8.41219 20.3261 10.5219V11.9567C20.3261 14.0664 18.6097 15.7828 16.5 15.7828Z" fill="#FFDA44" style="fill:#FFDA44;fill:color(display-p3 1.0000 0.8549 0.2667);fill-opacity:1;"/>
<path d="M18.8913 11.9569V10.5221C18.8913 9.20355 17.8186 8.13086 16.5 8.13086C15.1814 8.13086 14.1087 9.20355 14.1087 10.5221V11.9569L16.5 12.4352L18.8913 11.9569Z" fill="#338AF3" style="fill:#338AF3;fill:color(display-p3 0.2000 0.5412 0.9529);fill-opacity:1;"/>
<path d="M14.1087 11.9565C14.1087 13.2751 15.1814 14.3478 16.5 14.3478C17.8186 14.3478 18.8913 13.2751 18.8913 11.9565H14.1087Z" fill="#6DA544" style="fill:#6DA544;fill:color(display-p3 0.4275 0.6471 0.2667);fill-opacity:1;"/>
<path d="M19.3696 6.69604C19.3696 5.90358 18.7272 5.26124 17.9348 5.26124C17.5817 5.26078 17.241 5.391 16.9783 5.62682V4.78294H17.4566V3.82645H16.9783V3.34814H16.0218V3.82645H15.5435V4.78294H16.0218V5.62682C15.7591 5.39101 15.4183 5.26079 15.0653 5.26124C14.2728 5.26124 13.6305 5.90358 13.6305 6.69604C13.6305 7.12085 13.8153 7.50248 14.1088 7.76525V8.60914H18.8914V7.76525C19.1848 7.50248 19.3696 7.12091 19.3696 6.69604Z" fill="#FFDA44" style="fill:#FFDA44;fill:color(display-p3 1.0000 0.8549 0.2667);fill-opacity:1;"/>
</g>
<defs>
<clipPath id="clip0_1493_15502">
<rect width="33" height="22" fill="white" style="fill:white;fill-opacity:1;"/>
</clipPath>
</defs>
</svg>
