<svg width="33" height="22" viewBox="0 0 33 22" fill="none" xmlns="http://www.w3.org/2000/svg">
<g clip-path="url(#clip0_1493_15495)">
<path d="M0 0H30.8V22H0V0Z" fill="white" style="fill:white;fill-opacity:1;"/>
<path d="M0 0H33V22H0V0Z" fill="#0A388A" style="fill:#0A388A;fill:color(display-p3 0.0392 0.2196 0.5412);fill-opacity:1;"/>
<path d="M0 0H16.5733V11H0V0Z" fill="white" style="fill:white;fill-opacity:1;"/>
<path d="M10.4133 0H15.6933V10.2667H10.4133V0Z" fill="#D80027" style="fill:#D80027;fill:color(display-p3 0.8471 0.0000 0.1529);fill-opacity:1;"/>
<path d="M0 0H5.28V10.2667H0V0Z" fill="#0A388A" style="fill:#0A388A;fill:color(display-p3 0.0392 0.2196 0.5412);fill-opacity:1;"/>
<path d="M5.28 0H10.56V10.2667H5.28V0ZM21.2667 8.8H28.6L27.8667 10.2667H25.6667V11H27.1333L26.4 12.4667H25.6667V14.6667H24.2V10.2667H22L21.2667 8.8ZM27.1333 12.4667L28.6 14.6667H25.6667L27.1333 12.4667ZM22.7333 12.4667L24.2 14.6667H21.2667L22.7333 12.4667ZM24.9333 16.8667L23.4667 14.6667H26.4L24.9333 16.8667ZM29.3333 11.7333C28.8933 11.7333 28.6 11.44 28.6 11C28.6 10.56 28.8933 10.2667 29.3333 10.2667C29.7733 10.2667 30.0667 10.56 30.0667 11C30.0667 11.44 29.7733 11.7333 29.3333 11.7333ZM20.5333 11.7333C20.0933 11.7333 19.8 11.44 19.8 11C19.8 10.56 20.0933 10.2667 20.5333 10.2667C20.9733 10.2667 21.2667 10.56 21.2667 11C21.2667 11.44 20.9733 11.7333 20.5333 11.7333ZM22 17.6C21.56 17.6 21.2667 17.3067 21.2667 16.8667C21.2667 16.4267 21.56 16.1333 22 16.1333C22.44 16.1333 22.7333 16.4267 22.7333 16.8667C22.7333 17.3067 22.44 17.6 22 17.6ZM27.8667 17.6C27.4267 17.6 27.1333 17.3067 27.1333 16.8667C27.1333 16.4267 27.4267 16.1333 27.8667 16.1333C28.3067 16.1333 28.6 16.4267 28.6 16.8667C28.6 17.3067 28.3067 17.6 27.8667 17.6ZM24.9333 19.0667C24.4933 19.0667 24.2 18.7733 24.2 18.3333C24.2 17.8933 24.4933 17.6 24.9333 17.6C25.3733 17.6 25.6667 17.8933 25.6667 18.3333C25.6667 18.7733 25.3733 19.0667 24.9333 19.0667Z" fill="white" style="fill:white;fill-opacity:1;"/>
</g>
<defs>
<clipPath id="clip0_1493_15495">
<rect width="33" height="22" fill="white" style="fill:white;fill-opacity:1;"/>
</clipPath>
</defs>
</svg>
