<svg width="33" height="22" viewBox="0 0 33 22" fill="none" xmlns="http://www.w3.org/2000/svg">
<g clip-path="url(#clip0_1493_15491)">
<path d="M0 0.000488281H33V22H0V0.000488281Z" fill="#496E2D" style="fill:#496E2D;fill:color(display-p3 0.2863 0.4314 0.1765);fill-opacity:1;"/>
<path d="M23.0232 6.33858C23.5644 4.83012 22.9564 3.18952 21.6515 2.37239C21.8908 2.40335 22.126 2.45999 22.3531 2.54132C24.0934 3.16574 24.9981 5.08258 24.3737 6.82301C23.7492 8.56344 21.8324 9.46804 20.092 8.84362C19.865 8.76203 19.6474 8.65625 19.443 8.52812C20.9696 8.72689 22.482 7.84711 23.0232 6.33858ZM20.0215 1.95898L19.5512 2.56658L18.828 2.3071L19.2607 2.94209L18.7904 3.54969L19.5279 3.33454L19.9606 3.96954L19.9838 3.20164L20.7214 2.98643L19.9982 2.72701L20.0215 1.95898Z" fill="white" style="fill:white;fill-opacity:1;"/>
<path d="M21.2913 3.93908L20.8211 4.54668L20.0978 4.28719L20.5304 4.92218L20.0602 5.52978L20.7977 5.31457L21.2303 5.94963L21.2535 5.18167L21.9912 4.96639L21.268 4.70704L21.2913 3.93908ZM17.7826 2.68018L17.3124 3.28778L16.5893 3.02842L17.0218 3.66334L16.5516 4.27088L17.2891 4.05574L17.7217 4.69073L17.745 3.92277L18.4826 3.70769L17.7593 3.44814L17.7826 2.68018ZM17.7311 4.94822L17.2609 5.55582L16.5376 5.29633L16.9702 5.93132L16.5 6.53892L17.2376 6.32378L17.6701 6.95877L17.6935 6.19081L18.431 5.97567L17.7079 5.71618L17.7311 4.94822ZM19.8893 5.72249L19.419 6.3301L18.6959 6.07061L19.1285 6.70566L18.6581 7.3132L19.3958 7.09806L19.8284 7.73305L19.8516 6.96509L20.5891 6.74994L19.866 6.49052L19.8893 5.72249Z" fill="white" style="fill:white;fill-opacity:1;"/>
<path d="M5.38043 0.000488281H11.1195V22H5.38043V0.000488281Z" fill="#D80027" style="fill:#D80027;fill:color(display-p3 0.8471 0.0000 0.1529);fill-opacity:1;"/>
<path d="M7.57055 5.7914L6.60968 5.07565V4.06341L7.57055 3.34766H8.92948L9.89034 4.06341V5.07565L8.92948 5.7914H7.57055Z" fill="white" style="fill:white;fill-opacity:1;"/>
<path d="M8.25001 3.34766H7.57055L6.60968 4.06341V4.55828H8.25001V3.34766ZM8.25001 5.7914H8.92948L9.89034 5.07565V4.55925H8.25001V5.7914Z" fill="#FF9811" style="fill:#FF9811;fill:color(display-p3 1.0000 0.5961 0.0667);fill-opacity:1;"/>
<path d="M7.57055 18.6522L6.60968 17.9364V16.9242L7.57055 16.2085H8.92948L9.89034 16.9242V17.9364L8.92948 18.6522H7.57055Z" fill="white" style="fill:white;fill-opacity:1;"/>
<path d="M8.25001 16.2085H7.57055L6.60968 16.9242V17.4191H8.25001V16.2085ZM8.25001 18.6522H8.92948L9.89034 17.9364V17.4201H8.25001V18.6522Z" fill="#FF9811" style="fill:#FF9811;fill:color(display-p3 1.0000 0.5961 0.0667);fill-opacity:1;"/>
<path d="M7.57053 12.2218L6.60966 11.506V10.4939L7.57053 9.77808H8.92946L9.89032 10.4939V11.506L8.92946 12.2218H7.57053ZM9.9239 13.7966H9.50541V13.3781H8.76994L8.24993 12.8581L7.72998 13.3781H6.99457V13.7966H6.57608V14.6336H6.99457V15.052H7.72998L8.24999 15.5721L8.77 15.052H9.50541V14.6336H9.9239V13.7966ZM9.9239 7.36624H9.50541V6.94781H8.76994L8.24993 6.42773L7.72998 6.94781H6.99457V7.36624H6.57608V8.20323H6.99457V8.62166H7.72998L8.24999 9.14179L8.77 8.62166H9.50541V8.20323H9.9239V7.36624Z" fill="#496E2D" style="fill:#496E2D;fill:color(display-p3 0.2863 0.4314 0.1765);fill-opacity:1;"/>
<path d="M7.77148 10.5215H8.72797V11.478H7.77148V10.5215Z" fill="#D80027" style="fill:#D80027;fill:color(display-p3 0.8471 0.0000 0.1529);fill-opacity:1;"/>
<path d="M8.24997 8.26277C8.51414 8.26277 8.72828 8.04862 8.72828 7.78446C8.72828 7.5203 8.51414 7.30615 8.24997 7.30615C7.98581 7.30615 7.77167 7.5203 7.77167 7.78446C7.77167 8.04862 7.98581 8.26277 8.24997 8.26277Z" fill="#D80027" style="fill:#D80027;fill:color(display-p3 0.8471 0.0000 0.1529);fill-opacity:1;"/>
<path d="M8.24997 14.6934C8.51414 14.6934 8.72828 14.4793 8.72828 14.2151C8.72828 13.951 8.51414 13.7368 8.24997 13.7368C7.98581 13.7368 7.77167 13.951 7.77167 14.2151C7.77167 14.4793 7.98581 14.6934 8.24997 14.6934Z" fill="#D80027" style="fill:#D80027;fill:color(display-p3 0.8471 0.0000 0.1529);fill-opacity:1;"/>
</g>
<defs>
<clipPath id="clip0_1493_15491">
<rect width="33" height="22" fill="white" style="fill:white;fill-opacity:1;"/>
</clipPath>
</defs>
</svg>
