<svg width="33" height="22" viewBox="0 0 33 22" fill="none" xmlns="http://www.w3.org/2000/svg">
<g clip-path="url(#clip0_1493_15599)">
<path d="M0 0.000488281H33V22H0V0.000488281Z" fill="#D80027" style="fill:#D80027;fill:color(display-p3 0.8471 0.0000 0.1529);fill-opacity:1;"/>
<path d="M0 0.000488281H16.5V11.0003H0V0.000488281Z" fill="#0052B4" style="fill:#0052B4;fill:color(display-p3 0.0000 0.3216 0.7059);fill-opacity:1;"/>
<path d="M12.0163 5.5003L10.4774 6.22418L11.2968 7.71466L9.62574 7.39491L9.41395 9.08306L8.24999 7.8415L7.08597 9.08306L6.87424 7.39491L5.20316 7.71459L6.02262 6.22411L4.48367 5.5003L6.02262 4.77643L5.20316 3.28595L6.87424 3.60564L7.08603 1.91748L8.24999 3.15904L9.41401 1.91748L9.62574 3.60564L11.2969 3.28595L10.4774 4.77643L12.0163 5.5003Z" fill="white" style="fill:white;fill-opacity:1;"/>
<path d="M8.24999 7.36992C9.2825 7.36992 10.1195 6.5329 10.1195 5.50039C10.1195 4.46788 9.2825 3.63086 8.24999 3.63086C7.21748 3.63086 6.38046 4.46788 6.38046 5.50039C6.38046 6.5329 7.21748 7.36992 8.24999 7.36992Z" fill="#0052B4" style="fill:#0052B4;fill:color(display-p3 0.0000 0.3216 0.7059);fill-opacity:1;"/>
<path d="M8.24999 6.75011C7.56086 6.75011 7.00018 6.18937 7.00018 5.5003C7.00018 4.81117 7.56093 4.25049 8.24999 4.25049C8.93913 4.25049 9.4998 4.81123 9.4998 5.5003C9.4998 6.18937 8.93913 6.75011 8.24999 6.75011Z" fill="white" style="fill:white;fill-opacity:1;"/>
</g>
<defs>
<clipPath id="clip0_1493_15599">
<rect width="33" height="22" fill="white" style="fill:white;fill-opacity:1;"/>
</clipPath>
</defs>
</svg>
