<svg width="33" height="22" viewBox="0 0 33 22" fill="none" xmlns="http://www.w3.org/2000/svg">
<g clip-path="url(#clip0_1493_15486)">
<path d="M0 0H33V22H0V0Z" fill="#232323" style="fill:#232323;fill:color(display-p3 0.1373 0.1373 0.1373);fill-opacity:1;"/>
<path d="M0 3.66797H33V7.33571H0V3.66797Z" fill="#FFDA44" style="fill:#FFDA44;fill:color(display-p3 1.0000 0.8549 0.2667);fill-opacity:1;"/>
<path d="M0 7.33545H33V11.0032H0V7.33545Z" fill="#D32300" style="fill:#D32300;fill:color(display-p3 0.8275 0.1373 0.0000);fill-opacity:1;"/>
<path d="M0 14.6709H33V18.3386H0V14.6709Z" fill="#FFDA44" style="fill:#FFDA44;fill:color(display-p3 1.0000 0.8549 0.2667);fill-opacity:1;"/>
<path d="M0 18.332H33V21.9998H0V18.332Z" fill="#D32300" style="fill:#D32300;fill:color(display-p3 0.8275 0.1373 0.0000);fill-opacity:1;"/>
<path d="M16.5 16.205C19.3726 16.205 21.7013 13.8761 21.7013 11.0031C21.7013 8.13023 19.3726 5.80127 16.5 5.80127C13.6273 5.80127 11.2986 8.13023 11.2986 11.0031C11.2986 13.8761 13.6273 16.205 16.5 16.205Z" fill="white" style="fill:white;fill-opacity:1;"/>
<path d="M15.1142 8.21849C15.1722 8.12824 13.851 8.08957 13.851 8.08957C13.9605 7.92842 15.0369 7.41274 15.0369 7.41274C15.0369 7.41274 14.9789 7.02599 15.2109 6.78104L14.9209 6.14934C14.9209 6.14934 15.3721 5.93018 16.1068 5.93018C16.8416 5.93018 17.3894 6.38139 17.4603 6.77459L17.0478 6.99376C17.0414 7.29672 17.1574 7.74149 16.7707 8.1089C16.3904 8.47632 16.2357 8.55367 16.2228 9.32074C16.2228 9.57213 16.3711 9.84931 16.79 10.0749C17.9115 10.6744 19.2779 11.8927 19.6646 12.2601C20.0578 12.6275 19.9933 13.4977 19.8322 13.8845C19.6711 14.2712 19.0523 14.8062 18.9105 14.7611C18.7687 14.7224 18.9879 14.1681 18.6849 14.0134C18.6849 14.0134 18.1113 13.5235 17.6021 14.0521C17.093 14.5806 17.5892 15.6764 17.8535 15.8569C18.1178 16.0374 17.9631 16.1792 17.731 16.1792H15.9199C15.675 16.1792 15.5719 16.031 15.7974 15.8569C16.2873 15.612 16.5967 14.8707 16.2744 14.5484C15.9586 14.2325 15.0949 14.6451 14.8887 14.9545C14.7082 15.135 14.3215 15.1865 14.0572 14.8643C13.793 14.542 13.793 14.1939 13.9863 14.0585C14.4375 13.7491 13.9863 14.0585 13.9928 14.0521C13.9928 14.0521 14.7597 13.4977 15.9199 13.4719C16.1713 13.4719 16.2293 13.3301 16.0617 13.1625C16.0617 13.1625 14.0701 11.3963 14.2506 10.3134C14.4439 9.13381 15.5396 8.61813 15.1142 8.21849Z" fill="black" style="fill:black;fill-opacity:1;"/>
</g>
<defs>
<clipPath id="clip0_1493_15486">
<rect width="33" height="22" fill="white" style="fill:white;fill-opacity:1;"/>
</clipPath>
</defs>
</svg>
