<svg width="33" height="22" viewBox="0 0 33 22" fill="none" xmlns="http://www.w3.org/2000/svg">
<g clip-path="url(#clip0_1493_15559)">
<path d="M0 0H33V22H0V0Z" fill="white" style="fill:white;fill-opacity:1;"/>
<path d="M0 2.44434H33V4.88878H0V2.44434ZM0 7.33323H33V9.77767H0V7.33323ZM0 12.2221H33V14.6666H0V12.2221ZM0 17.111H33V19.5554H0V17.111Z" fill="#0038A8" style="fill:#0038A8;fill:color(display-p3 0.0000 0.2196 0.6588);fill-opacity:1;"/>
<path d="M0 0H16.5V12.2222H0V0Z" fill="white" style="fill:white;fill-opacity:1;"/>
<path d="M8.25321 8.92213L7.28186 10.3759L7.03742 8.64552L5.53215 9.53324L6.05964 7.86716L4.30993 8.00868L5.50642 6.73499L3.87894 6.11102L5.51285 5.48704L4.30993 4.21336L6.05321 4.36131L5.52572 2.69523L7.03098 3.58295L7.28186 1.85254L8.25321 3.30634L9.22455 1.85254L9.46899 3.58295L10.9743 2.69523L10.4468 4.36131L12.19 4.21979L10.9936 5.49347L12.6275 6.11745L10.9936 6.74143L12.19 8.01511L10.4468 7.87359L10.9743 9.53967L9.46899 8.65195L9.21812 10.3824L8.25321 8.92213ZM8.25321 8.88997C9.79063 8.94786 11.0836 7.7578 11.1415 6.22037C11.1994 4.68295 10.0093 3.38997 8.47192 3.33207H8.25321C6.71578 3.38353 5.51285 4.67008 5.56432 6.20108C5.60291 7.66774 6.78654 8.84494 8.25321 8.88997ZM8.25321 8.20809C7.04385 8.20809 6.06607 7.23032 6.06607 6.02096C6.06607 4.8116 7.04385 3.83383 8.25321 3.83383C9.46256 3.83383 10.4403 4.8116 10.4403 6.02096C10.4403 7.23032 9.45613 8.20809 8.25321 8.20809Z" fill="#FED443" style="fill:#FED443;fill:color(display-p3 0.9961 0.8314 0.2627);fill-opacity:1;"/>
</g>
<defs>
<clipPath id="clip0_1493_15559">
<rect width="33" height="22" fill="white" style="fill:white;fill-opacity:1;"/>
</clipPath>
</defs>
</svg>
