<svg width="33" height="22" viewBox="0 0 33 22" fill="none" xmlns="http://www.w3.org/2000/svg">
<g clip-path="url(#clip0_1493_15484)">
<path d="M0 0.000488281H33V22H0V0.000488281Z" fill="#D80027" style="fill:#D80027;fill:color(display-p3 0.8471 0.0000 0.1529);fill-opacity:1;"/>
<path d="M0 15.3042H33V21.9996H0V15.3042Z" fill="#6DA544" style="fill:#6DA544;fill:color(display-p3 0.4275 0.6471 0.2667);fill-opacity:1;"/>
<path d="M0 0.000488281H33V6.73681H0V0.000488281Z" fill="#338AF3" style="fill:#338AF3;fill:color(display-p3 0.2000 0.5412 0.9529);fill-opacity:1;"/>
<path d="M0 8.0918H33V13.8704H0V8.0918Z" fill="white" style="fill:white;fill-opacity:1;"/>
<path d="M0 0.000488281H33V6.73681H0V0.000488281Z" fill="#338AF3" style="fill:#338AF3;fill:color(display-p3 0.2000 0.5412 0.9529);fill-opacity:1;"/>
<path d="M12.1615 3.36798C12.1615 2.33776 12.8856 1.47698 13.8525 1.2659C13.701 1.23271 13.5464 1.21592 13.3914 1.21582C12.2027 1.21582 11.2392 2.17933 11.2392 3.36798C11.2392 4.55662 12.2027 5.52013 13.3914 5.52013C13.5498 5.52013 13.7039 5.50254 13.8525 5.47005C12.8856 5.25897 12.1615 4.3982 12.1615 3.36798ZM15.1244 4.34618L15.2702 4.79458H15.7416L15.3602 5.0718L15.5059 5.52013L15.1244 5.24298L14.743 5.52013L14.8887 5.0718L14.5073 4.79458H14.9788L15.1244 4.34618ZM16.6293 4.34618L16.7749 4.79458H17.2464L16.865 5.0718L17.0107 5.52013L16.6293 5.24298L16.2478 5.52013L16.3935 5.0718L16.0121 4.79458H16.4836L16.6293 4.34618ZM18.1341 4.34618L18.2797 4.79458H18.7512L18.3698 5.0718L18.5155 5.52013L18.1341 5.24298L17.7526 5.52013L17.8983 5.0718L17.5169 4.79458H17.9883L18.1341 4.34618ZM19.6389 4.34618L19.7846 4.79458H20.2561L19.8746 5.0718L20.0204 5.52013L19.6389 5.24298L19.2574 5.52013L19.4032 5.0718L19.0217 4.79458H19.4931L19.6389 4.34618ZM21.1437 4.34618L21.2894 4.79458H21.7608L21.3794 5.0718L21.5251 5.52013L21.1437 5.24298L20.7623 5.52013L20.9079 5.0718L20.5266 4.79458H20.998L21.1437 4.34618ZM16.6293 2.781L16.7749 3.22934H17.2464L16.865 3.50649L17.0107 3.95489L16.6293 3.6778L16.2478 3.95489L16.3935 3.50649L16.0121 3.22934H16.4836L16.6293 2.781ZM18.1341 2.781L18.2797 3.22934H18.7512L18.3698 3.50649L18.5155 3.95489L18.1341 3.6778L17.7526 3.95489L17.8983 3.50649L17.5169 3.22934H17.9883L18.1341 2.781ZM19.6389 2.781L19.7846 3.22934H20.2561L19.8746 3.50649L20.0204 3.95489L19.6389 3.6778L19.2574 3.95489L19.4032 3.50649L19.0217 3.22934H19.4931L19.6389 2.781ZM21.1437 2.781L21.2894 3.22934H21.7608L21.3794 3.50649L21.5251 3.95489L21.1437 3.6778L20.7623 3.95489L20.9079 3.50649L20.5266 3.22934H20.998L21.1437 2.781ZM18.1341 1.21582L18.2797 1.66416H18.7512L18.3698 1.94131L18.5155 2.38971L18.1341 2.11256L17.7526 2.38971L17.8983 1.94131L17.5169 1.66416H17.9883L18.1341 1.21582ZM19.6389 1.21582L19.7846 1.66416H20.2561L19.8746 1.94131L20.0204 2.38971L19.6389 2.11256L19.2574 2.38971L19.4032 1.94131L19.0217 1.66416H19.4931L19.6389 1.21582ZM21.1437 1.21582L21.2894 1.66416H21.7608L21.3794 1.94131L21.5251 2.38971L21.1437 2.11256L20.7623 2.38971L20.9079 1.94131L20.5266 1.66416H20.998L21.1437 1.21582Z" fill="white" style="fill:white;fill-opacity:1;"/>
</g>
<defs>
<clipPath id="clip0_1493_15484">
<rect width="33" height="22" fill="white" style="fill:white;fill-opacity:1;"/>
</clipPath>
</defs>
</svg>
