<svg width="33" height="22" viewBox="0 0 33 22" fill="none" xmlns="http://www.w3.org/2000/svg">
<g clip-path="url(#clip0_1493_15483)">
<path d="M0 0H33V21.9995H0V0Z" fill="#FFDA44" style="fill:#FFDA44;fill:color(display-p3 1.0000 0.8549 0.2667);fill-opacity:1;"/>
<path d="M16.5 0H33V22.0003H16.5V0Z" fill="white" style="fill:white;fill-opacity:1;"/>
<path d="M20.7122 9.57162L22.7794 12.3064C22.4537 12.7995 22.4555 13.464 22.8321 13.9623C23.3099 14.5944 24.2097 14.7195 24.8418 14.2417C25.4739 13.7638 25.599 12.8641 25.1212 12.2319C24.7446 11.7336 24.1057 11.5508 23.5424 11.7295L20.3205 7.46729L19.5575 8.04408L18.4129 8.9093L19.5666 10.4354L20.7122 9.57162ZM23.6883 12.7156C23.7384 12.6778 23.7955 12.6501 23.8563 12.6343C23.9171 12.6185 23.9804 12.6148 24.0426 12.6235C24.1048 12.6321 24.1647 12.6529 24.2189 12.6847C24.2731 12.7165 24.3204 12.7587 24.3583 12.8088C24.3962 12.8589 24.4238 12.916 24.4396 12.9768C24.4555 13.0375 24.4592 13.1008 24.4505 13.1631C24.4419 13.2253 24.421 13.2852 24.3892 13.3393C24.3574 13.3935 24.3153 13.4409 24.2652 13.4788C24.164 13.5553 24.0365 13.5884 23.9109 13.571C23.7853 13.5535 23.6717 13.4868 23.5952 13.3856C23.5187 13.2844 23.4855 13.157 23.503 13.0313C23.5205 12.9057 23.5871 12.7921 23.6883 12.7156Z" fill="#ACABB1" style="fill:#ACABB1;fill:color(display-p3 0.6745 0.6706 0.6941);fill-opacity:1;"/>
<path d="M24.258 10.4354L25.4117 8.9093L24.267 8.04408L23.5041 7.46729L20.2822 11.7295C19.7188 11.5507 19.0801 11.7336 18.7034 12.2319C18.2255 12.8641 18.3506 13.7638 18.9827 14.2417C19.6149 14.7196 20.5147 14.5945 20.9925 13.9623C21.3692 13.464 21.3709 12.7995 21.0452 12.3064L23.1124 9.57162L24.258 10.4354ZM20.2294 13.3854C20.153 13.4866 20.0394 13.5533 19.9137 13.5708C19.7881 13.5882 19.6607 13.5551 19.5595 13.4786C19.4583 13.4021 19.3916 13.2885 19.3741 13.1629C19.3567 13.0372 19.3898 12.9098 19.4663 12.8086C19.5042 12.7585 19.5516 12.7163 19.6057 12.6845C19.6599 12.6527 19.7198 12.6319 19.782 12.6233C19.8442 12.6146 19.9076 12.6183 19.9683 12.6341C20.0291 12.6499 20.0862 12.6776 20.1363 12.7154C20.1864 12.7533 20.2286 12.8007 20.2604 12.8549C20.2922 12.909 20.313 12.9689 20.3216 13.0312C20.3303 13.0934 20.3266 13.1567 20.3108 13.2175C20.295 13.2783 20.2673 13.3353 20.2294 13.3854Z" fill="#FFDA44" style="fill:#FFDA44;fill:color(display-p3 1.0000 0.8549 0.2667);fill-opacity:1;"/>
</g>
<defs>
<clipPath id="clip0_1493_15483">
<rect width="33" height="22" fill="white" style="fill:white;fill-opacity:1;"/>
</clipPath>
</defs>
</svg>
