<svg width="33" height="22" viewBox="0 0 33 22" fill="none" xmlns="http://www.w3.org/2000/svg">
<g clip-path="url(#clip0_1493_15481)">
<path d="M0 0H33V7.33333H0V0Z" fill="#FFCE00" style="fill:#FFCE00;fill:color(display-p3 1.0000 0.8078 0.0000);fill-opacity:1;"/>
<path d="M0 7.3335H33V14.6668H0V7.3335Z" fill="#203899" style="fill:#203899;fill:color(display-p3 0.1255 0.2196 0.6000);fill-opacity:1;"/>
<path d="M0 14.6665H33V21.9998H0V14.6665Z" fill="#D82B2B" style="fill:#D82B2B;fill:color(display-p3 0.8471 0.1686 0.1686);fill-opacity:1;"/>
<path d="M17.7906 7.89062L17.996 8.56529L18.656 8.77062L18.084 9.16662L18.0986 9.87062L17.5413 9.44529L16.8813 9.66529L17.1013 9.01996L16.6906 8.46262H17.38L17.7906 7.89062ZM15.1946 7.89062L15.5906 8.46262H16.28L15.8693 9.01996L16.0893 9.67996L15.4293 9.44529L14.872 9.85596L14.8866 9.16662L14.3146 8.75596L14.9746 8.56529L15.1946 7.89062ZM20.24 8.71196L20.2253 9.41596L20.7973 9.81196L20.1226 10.0173L19.9173 10.6773L19.5213 10.12H18.8173L19.2426 9.56262L19.0226 8.90263L19.6826 9.13729L20.24 8.71196ZM12.7453 8.74129L13.332 9.13729L13.9773 8.87329L13.7866 9.54796L14.2266 10.076L13.5373 10.1053L13.156 10.692L12.9213 10.0466L12.2466 9.87062L12.7893 9.43062L12.7453 8.74129ZM22.352 10.4573L22.0586 11.1026L22.4253 11.6893L21.736 11.616L21.2813 12.144L21.1346 11.4693L20.504 11.2053L21.1053 10.8533L21.1493 10.164L21.6626 10.6186L22.352 10.4573ZM22.6306 12.1L22.9386 12.7306L23.628 12.8333L23.1293 13.3173L23.2466 13.992L22.6306 13.6693L22.0146 13.992L22.132 13.3173L21.6333 12.8333L22.3226 12.7306L22.6306 12.1ZM10.2666 12.0266L10.5746 12.6573L11.264 12.7453L10.7653 13.2293L10.8826 13.9186L10.2666 13.596L9.65062 13.9186L9.76795 13.2293L9.26929 12.7453L9.95862 12.6573L10.2666 12.0266ZM10.7213 10.34L11.3813 10.5453L11.9386 10.12V10.824L12.5106 11.2053L11.8506 11.4253L11.66 12.1L11.2493 11.5426L10.56 11.5573L10.956 11L10.7213 10.34Z" fill="white" style="fill:white;fill-opacity:1;"/>
</g>
<defs>
<clipPath id="clip0_1493_15481">
<rect width="33" height="22" fill="white" style="fill:white;fill-opacity:1;"/>
</clipPath>
</defs>
</svg>
