<svg width="33" height="22" viewBox="0 0 33 22" fill="none" xmlns="http://www.w3.org/2000/svg">
<g clip-path="url(#clip0_1493_15480)">
<path d="M0 0H33V22.0003H0V0Z" fill="#0052B4" style="fill:#0052B4;fill:color(display-p3 0.0000 0.3216 0.7059);fill-opacity:1;"/>
<path d="M16.5 0V7.56203H13.5307L16.5 9.54204V10.9998H15.0416L10.3125 7.84679V10.9998H6.1875V7.84679L1.45845 10.9998H0V9.54204L2.96929 7.56203H0V3.43703H2.96929L0 1.45774V0H1.45845L6.1875 3.15221V0H10.3125V3.15221L15.0416 0H16.5Z" fill="white" style="fill:white;fill-opacity:1;"/>
<path d="M9.28125 -0.000488281H7.21875V4.46824H0V6.53075H7.21875V10.9995H9.28125V6.53075H16.5V4.46824H9.28125V-0.000488281Z" fill="#D80027" style="fill:#D80027;fill:color(display-p3 0.8471 0.0000 0.1529);fill-opacity:1;"/>
<path d="M0 -0.000488281V0.971659L3.69813 3.43706H5.15625L0 -0.000488281ZM16.5 -0.000488281V0.971659L12.8019 3.43706H11.3438L16.5 -0.000488281Z" fill="#D80027" style="fill:#D80027;fill:color(display-p3 0.8471 0.0000 0.1529);fill-opacity:1;"/>
<path d="M16.5 1.45801V3.43749H13.5307L16.5 1.45801Z" fill="#2E52B2" style="fill:#2E52B2;fill:color(display-p3 0.1804 0.3216 0.6980);fill-opacity:1;"/>
<path d="M0 -0.000488281V0.971659L3.69813 3.43706H5.15625L0 -0.000488281ZM16.5 -0.000488281V0.971659L12.8019 3.43706H11.3438L16.5 -0.000488281Z" fill="#D80027" style="fill:#D80027;fill:color(display-p3 0.8471 0.0000 0.1529);fill-opacity:1;"/>
<path d="M16.5 1.45801V3.43749H13.5307L16.5 1.45801Z" fill="#2E52B2" style="fill:#2E52B2;fill:color(display-p3 0.1804 0.3216 0.6980);fill-opacity:1;"/>
<path d="M0 11V10.028L3.69813 7.5625H5.15625L0 11ZM16.5 11V10.028L12.8019 7.5625H11.3438L16.5 11Z" fill="#D80027" style="fill:#D80027;fill:color(display-p3 0.8471 0.0000 0.1529);fill-opacity:1;"/>
<path d="M24.75 11.2388L21.7768 14.2119C22.334 15.2867 23.4559 16.0214 24.75 16.0214C26.0441 16.0214 27.166 15.2866 27.7232 14.2119L24.75 11.2388Z" fill="#FFDA44" style="fill:#FFDA44;fill:color(display-p3 1.0000 0.8549 0.2667);fill-opacity:1;"/>
<path d="M21.4022 5.97803V11.239C21.4022 13.8015 24.75 14.5867 24.75 14.5867C24.75 14.5867 28.0978 13.8015 28.0978 11.2389V5.97803H21.4022Z" fill="#6DA544" style="fill:#6DA544;fill:color(display-p3 0.4275 0.6471 0.2667);fill-opacity:1;"/>
<path d="M24.0326 8.36914H25.4674V12.195H24.0326V8.36914Z" fill="white" style="fill:white;fill-opacity:1;"/>
<path d="M24.75 9.08658C25.1462 9.08658 25.4674 8.76541 25.4674 8.36922C25.4674 7.97303 25.1462 7.65186 24.75 7.65186C24.3538 7.65186 24.0326 7.97303 24.0326 8.36922C24.0326 8.76541 24.3538 9.08658 24.75 9.08658Z" fill="#A2001D" style="fill:#A2001D;fill:color(display-p3 0.6353 0.0000 0.1137);fill-opacity:1;"/>
<path d="M22.3589 6.93408H23.3154V7.89057H22.3589V6.93408ZM22.3589 9.0863H23.3154V10.0428H22.3589V9.0863ZM22.3589 11.2385H23.3154V12.1949H22.3589V11.2385ZM26.1848 6.93408H27.1413V7.89057H26.1848V6.93408ZM26.1848 9.0863H27.1413V10.0428H26.1848V9.0863ZM26.1848 11.2385H27.1413V12.1949H26.1848V11.2385Z" fill="#FFDA44" style="fill:#FFDA44;fill:color(display-p3 1.0000 0.8549 0.2667);fill-opacity:1;"/>
</g>
<defs>
<clipPath id="clip0_1493_15480">
<rect width="33" height="22" fill="white" style="fill:white;fill-opacity:1;"/>
</clipPath>
</defs>
</svg>
