<svg width="33" height="22" viewBox="0 0 33 22" fill="none" xmlns="http://www.w3.org/2000/svg">
<g clip-path="url(#clip0_1493_15479)">
<path d="M0 0.000488281H33V22H0V0.000488281Z" fill="black" style="fill:black;fill-opacity:1;"/>
<path d="M33 11V21.9998H0L13.8693 11H33Z" fill="#6DA544" style="fill:#6DA544;fill:color(display-p3 0.4275 0.6471 0.2667);fill-opacity:1;"/>
<path d="M33 0.000488281V11.0003H13.8693L0 0.000488281H33Z" fill="#D80027" style="fill:#D80027;fill:color(display-p3 0.8471 0.0000 0.1529);fill-opacity:1;"/>
<path d="M14.2442 9.92415L1.73173 0.000488281H0.577242L13.9943 10.6416H33V9.92415H14.2442ZM0.577242 22H1.73173L14.2442 12.0764H33V11.3589H13.9943L0.577242 22ZM0 0.4583V1.37392L12.1376 11.0003L0 20.6266V21.5422L13.2921 11.0003L0 0.4583Z" fill="black" style="fill:black;fill-opacity:1;"/>
<path d="M0.577242 0.000488281H0V0.4583L13.2921 11.0003L0 21.5422V22H0.577242L13.9943 11.3589H33V10.6416H13.9943L0.577242 0.000488281Z" fill="#FFDA44" style="fill:#FFDA44;fill:color(display-p3 1.0000 0.8549 0.2667);fill-opacity:1;"/>
<path d="M4.10681 13.3451V12.4237C5.02624 12.4237 5.77422 11.6757 5.77422 10.7564C5.77422 10.1059 5.24499 9.5767 4.59447 9.5767C4.15135 9.5767 3.7908 9.93718 3.7908 10.3804C3.7908 10.6638 4.02135 10.8943 4.30475 10.8943C4.38178 10.8942 4.45562 10.8636 4.51009 10.8091C4.56456 10.7546 4.5952 10.6808 4.5953 10.6038H5.51666C5.51666 11.272 4.973 11.8157 4.30481 11.8157C3.51339 11.8156 2.86951 11.1717 2.86951 10.3803C2.86951 9.4291 3.64333 8.65527 4.59453 8.65527C5.75308 8.65527 6.69564 9.59777 6.69564 10.7564C6.69564 12.1837 5.53432 13.3451 4.10681 13.3451Z" fill="#FFDA44" style="fill:#FFDA44;fill:color(display-p3 1.0000 0.8549 0.2667);fill-opacity:1;"/>
</g>
<defs>
<clipPath id="clip0_1493_15479">
<rect width="33" height="22" fill="white" style="fill:white;fill-opacity:1;"/>
</clipPath>
</defs>
</svg>
