<svg width="33" height="22" viewBox="0 0 33 22" fill="none" xmlns="http://www.w3.org/2000/svg">
<g clip-path="url(#clip0_1493_15478)">
<path d="M0 0H33V22.0006H0V0Z" fill="#0052B4" style="fill:#0052B4;fill:color(display-p3 0.0000 0.3216 0.7059);fill-opacity:1;"/>
<path d="M14.2261 2.74752L14.7385 3.78587L15.8838 3.95216L15.055 4.76041L15.2509 5.90124L14.2261 5.36241L13.2013 5.90124L13.3966 4.76041L12.5677 3.95216L13.7137 3.78587L14.2261 2.74752ZM18.7739 2.74365L19.2863 3.78136L20.4323 3.94829L19.6034 4.7559L19.7987 5.89737L18.7739 5.35854L17.7491 5.89737L17.945 4.7559L17.1162 3.94829L18.2615 3.78136L18.7739 2.74365ZM22.7752 3.47585L23.2876 4.5142L24.4329 4.68049L23.604 5.48874L23.8 6.62957L22.7752 6.09138L21.7504 6.62957L21.9463 5.48874L21.1168 4.68049L22.2628 4.5142L22.7752 3.47585ZM26.8363 4.65535L27.3488 5.6937L28.4941 5.86064L27.6652 6.66824L27.8612 7.80972L26.8363 7.27088L25.8115 7.80972L26.0068 6.66824L25.178 5.86064L26.3239 5.6937L26.8363 4.65535ZM10.2248 3.47585L10.7372 4.5142L11.8832 4.68049L11.0537 5.48874L11.2497 6.62957L10.2248 6.09138L9.20004 6.62957L9.39598 5.48874L8.56711 4.68049L9.71244 4.5142L10.2248 3.47585ZM6.16365 4.65535L6.67606 5.6937L7.82203 5.86064L6.99317 6.66824L7.18846 7.80972L6.16365 7.27088L5.13885 7.80972L5.33479 6.66824L4.50592 5.86064L5.65125 5.6937L6.16365 4.65535Z" fill="white" style="fill:white;fill-opacity:1;"/>
<path d="M14.0205 16.7149L12.2661 15.8377L10.5117 12.3294H12.2661L14.0205 10.575L14.8977 8.82058L16.6521 7.94336L17.5293 8.82058L19.2837 9.69779V10.575L20.1609 11.4522L22.7926 13.2067L21.9141 15.8383L19.2824 18.4699L18.4052 16.7155L15.7736 18.4699V20.2244L14.8964 19.3472L14.0205 16.7149Z" fill="#FFDA44" style="fill:#FFDA44;fill:color(display-p3 1.0000 0.8549 0.2667);fill-opacity:1;"/>
</g>
<defs>
<clipPath id="clip0_1493_15478">
<rect width="33" height="22" fill="white" style="fill:white;fill-opacity:1;"/>
</clipPath>
</defs>
</svg>
