<svg width="33" height="22" viewBox="0 0 33 22" fill="none" xmlns="http://www.w3.org/2000/svg">
<g clip-path="url(#clip0_1493_15477)">
<path d="M0 0H33V22H0V0Z" fill="white" style="fill:white;fill-opacity:1;"/>
<path d="M27.72 14.5202C27.3167 14.7769 27.72 15.1802 27.5 15.2169C27.28 15.2536 26.95 14.7036 27.4267 14.3002C28.0133 13.7502 29.5533 14.3002 29.59 15.8769C29.59 16.6836 29.26 18.3702 26.95 18.3702C24.1633 18.3702 22.77 16.2802 22.77 14.1902C22.77 12.4302 24.1266 9.24022 25.1533 8.83689C26.29 8.39689 27.61 7.55355 27.6467 7.00355C27.6467 6.82022 27.1333 6.96689 26.4366 7.33355C25.3 7.95689 24.0166 8.25022 24.0166 7.84689C24.0166 7.44355 25.08 6.71022 25.4833 6.16022C25.9233 5.57355 25.8133 4.14355 26.5833 4.14355C29.37 4.14355 30.2133 6.96689 29.15 8.43355C28.4533 9.38689 30.7267 8.80022 30.7267 8.80022C30.7267 8.80022 30.7267 10.7436 29.5533 11.4769C28.4533 12.1369 27.7933 12.9069 27.7933 12.9069C27.7933 12.9069 27.8667 11.2202 27.61 11.4769C27.39 11.7336 23.54 13.1269 23.8333 15.8769C23.9433 16.9769 25.4833 17.8569 26.95 17.7836C28.4167 17.7102 29.04 16.9036 29.0767 15.9869C29.1133 14.5569 27.9767 14.3736 27.72 14.5202ZM3.92332 15.9869C3.95998 16.9036 4.58332 17.7102 6.04998 17.7836C7.51665 17.8569 9.05665 16.9769 9.16665 15.8769C9.45998 13.1269 5.60998 11.7336 5.38998 11.4769C5.13332 11.2202 5.20665 12.9069 5.20665 12.9069C5.20665 12.9069 4.54665 12.1369 3.44665 11.4769C2.27332 10.7436 2.27332 8.80022 2.27332 8.80022C2.27332 8.80022 4.54665 9.38689 3.84998 8.43355C2.78665 6.96689 3.62998 4.14355 6.41665 4.14355C7.18665 4.14355 7.07665 5.57355 7.51665 6.16022C7.91998 6.71022 8.98332 7.44355 8.98332 7.84689C8.98332 8.25022 7.69998 7.95689 6.56332 7.33355C5.86665 6.96689 5.35332 6.82022 5.35332 7.00355C5.38998 7.55355 6.70998 8.39689 7.84665 8.83689C8.87332 9.24022 10.23 12.4302 10.23 14.1902C10.23 16.2802 8.83665 18.3702 6.04998 18.3702C3.73998 18.3702 3.40998 16.6836 3.40998 15.8769C3.44665 14.3002 4.98665 13.7502 5.57332 14.3002C6.01332 14.7036 5.71998 15.2902 5.49998 15.2169C5.27998 15.1802 5.71998 14.7769 5.27998 14.5202C5.05998 14.3736 3.92332 14.5569 3.92332 15.9869Z" fill="#ABABAB" style="fill:#ABABAB;fill:color(display-p3 0.6706 0.6706 0.6706);fill-opacity:1;"/>
<path d="M8.85828 7.84668C8.85823 7.8228 8.84996 7.78714 8.82507 7.7373C8.80042 7.68799 8.76268 7.6315 8.71277 7.56836C8.61258 7.44164 8.47304 7.29931 8.31531 7.14844C8.00751 6.85402 7.62618 6.52105 7.41589 6.23438V6.2334C7.29238 6.06804 7.21151 5.85134 7.14734 5.63281C7.11481 5.52203 7.086 5.4071 7.0575 5.29492C7.02883 5.18214 7.00082 5.07211 6.97058 4.9668C6.90929 4.7534 6.84168 4.57439 6.75085 4.4502C6.66465 4.33243 6.56171 4.26862 6.41687 4.26855C5.07212 4.26855 4.20828 4.94673 3.80261 5.79297C3.39365 6.64624 3.44973 7.66829 3.95007 8.35938C4.04236 8.48566 4.10066 8.6051 4.1073 8.71582C4.11457 8.83869 4.05858 8.93424 3.96863 8.99609C3.88665 9.05238 3.77937 9.07967 3.67273 9.09277C3.56341 9.10619 3.43974 9.10672 3.31531 9.09961C3.06654 9.08536 2.798 9.04052 2.59363 9C2.52234 8.98586 2.45829 8.97088 2.40515 8.95898C2.40775 9.00042 2.41074 9.04902 2.41589 9.10352C2.43379 9.29258 2.46954 9.55204 2.54089 9.83301C2.68494 10.4001 2.96736 11.0303 3.51257 11.3711C4.0703 11.7059 4.51644 12.0679 4.82312 12.3467C4.92131 12.4359 5.00514 12.5172 5.0741 12.5859C5.07208 12.4406 5.07096 12.2627 5.07703 12.0908C5.08392 11.8959 5.09933 11.6978 5.13171 11.5625C5.13995 11.5282 5.15019 11.4948 5.16296 11.4648C5.1752 11.4362 5.19379 11.4015 5.22253 11.374C5.25436 11.3438 5.30229 11.3197 5.36121 11.3271C5.38758 11.3305 5.41102 11.3391 5.43054 11.3506L5.47839 11.3887L5.48523 11.3955L5.53796 11.4326C5.57483 11.4555 5.6251 11.4829 5.68738 11.5166C5.7495 11.5502 5.8222 11.5885 5.90417 11.6318C5.98591 11.675 6.07638 11.7237 6.17371 11.7764C6.56318 11.9872 7.0627 12.2749 7.54675 12.6426C8.50953 13.374 9.44478 14.448 9.29089 15.8906C9.22988 16.4951 8.78082 17.0193 8.18152 17.3779C7.5788 17.7386 6.80248 17.9461 6.04382 17.9082C5.28871 17.8704 4.73472 17.6428 4.36414 17.292C3.99343 16.9409 3.81819 16.4776 3.79871 15.9922L3.79773 15.9873H3.79871C3.79871 15.2346 4.10002 14.7893 4.45007 14.5576C4.62213 14.4438 4.80279 14.3837 4.95789 14.3623C5.03546 14.3516 5.10937 14.3507 5.17371 14.3584C5.23263 14.3655 5.29265 14.3817 5.34167 14.4121H5.34265C5.34483 14.4134 5.34734 14.4147 5.34949 14.416H5.34851C5.47662 14.4922 5.55311 14.5865 5.58777 14.6934C5.62157 14.798 5.6099 14.8991 5.5946 14.9756C5.58718 15.0127 5.57777 15.0492 5.57117 15.0762C5.57296 15.0745 5.57608 15.0742 5.578 15.0723C5.61013 15.0405 5.64444 14.9832 5.66296 14.9072C5.69883 14.7595 5.67201 14.5604 5.48914 14.3926L5.48816 14.3916C5.25042 14.1687 4.78417 14.1487 4.34753 14.3994C3.92195 14.6438 3.55233 15.136 3.53503 15.8799C3.53545 16.2702 3.61647 16.862 3.9657 17.3535C4.3104 17.8387 4.92974 18.245 6.04968 18.2451C7.4091 18.2451 8.41989 17.7362 9.09167 16.9805C9.76527 16.2225 10.1053 15.2086 10.1053 14.1904C10.1053 13.3348 9.77264 12.115 9.30847 11.0547C9.07709 10.5262 8.8159 10.0423 8.55066 9.66797C8.28171 9.28837 8.02143 9.03986 7.80066 8.95312C7.22419 8.72989 6.60162 8.40426 6.11609 8.06348C5.8735 7.8932 5.66098 7.71672 5.50574 7.54395C5.35396 7.37498 5.24043 7.19225 5.22839 7.01172V7.00391C5.22839 6.94816 5.24969 6.8927 5.29675 6.85352C5.33861 6.81877 5.38959 6.80624 5.43152 6.80176C5.51474 6.79296 5.61927 6.81108 5.73035 6.8418C5.90122 6.88906 6.11939 6.9753 6.36609 7.09375L6.62195 7.22266L6.6239 7.22363C7.18359 7.53053 7.77727 7.75568 8.22644 7.85352C8.45298 7.90284 8.63196 7.91675 8.74792 7.90039C8.80561 7.89221 8.83552 7.8783 8.84851 7.86816C8.85592 7.86233 8.85828 7.8585 8.85828 7.84668ZM26.5829 4.01855C28.0247 4.01855 28.9759 4.75253 29.4227 5.68457C29.866 6.60916 29.8131 7.73132 29.2509 8.50684C29.169 8.61885 29.1448 8.69079 29.1425 8.73047C29.1408 8.75764 29.148 8.77296 29.1727 8.79004C29.2059 8.81278 29.2666 8.83348 29.3583 8.84473C29.4472 8.85561 29.5538 8.85623 29.6698 8.84961C29.902 8.83634 30.1583 8.79356 30.3583 8.75391C30.4576 8.7342 30.5428 8.71606 30.6024 8.70215C30.6321 8.69523 30.6558 8.68948 30.6718 8.68555C30.6795 8.68364 30.6853 8.68168 30.6893 8.68066C30.6914 8.68015 30.6932 8.67994 30.6942 8.67969H30.6952V8.67871L30.8514 8.63867V8.7998H30.7264L30.8514 8.80078V8.8252C30.8511 8.84046 30.8507 8.86267 30.8495 8.89062C30.8471 8.94708 30.8423 9.02791 30.8329 9.12695C30.8141 9.32518 30.7764 9.59799 30.701 9.89453C30.5518 10.4822 30.2477 11.1905 29.62 11.583L29.618 11.584C29.0767 11.9088 28.6426 12.2613 28.3446 12.5322C28.196 12.6674 28.081 12.7817 28.0038 12.8623C27.9653 12.9024 27.9363 12.9346 27.9169 12.9561C27.9072 12.9668 27.8992 12.9751 27.8944 12.9805C27.8922 12.983 27.8906 12.9851 27.8895 12.9863L27.8885 12.9883L27.6532 13.2627L27.6688 12.9014V12.8828C27.6693 12.8708 27.67 12.8533 27.6708 12.8311C27.6723 12.786 27.6742 12.7217 27.6757 12.6455C27.6785 12.4925 27.6795 12.2913 27.6727 12.0996C27.6659 11.9063 27.6506 11.7318 27.6249 11.623C27.6143 11.6301 27.604 11.6381 27.5936 11.6445C27.5501 11.6715 27.4947 11.7021 27.4315 11.7363C27.368 11.7707 27.2941 11.8106 27.2128 11.8535C27.1312 11.8966 27.0413 11.9441 26.9452 11.9961C26.5601 12.2046 26.0735 12.4854 25.6044 12.8418C24.7198 13.5139 23.9244 14.4329 23.9432 15.6221L23.9579 15.8633V15.8643C24.0074 16.3592 24.3827 16.8253 24.9471 17.1631C25.5086 17.499 26.2363 17.6946 26.9442 17.6592C27.6555 17.6235 28.1469 17.4103 28.4637 17.1104C28.7801 16.8107 28.9348 16.4123 28.952 15.9814C28.9688 15.3059 28.7107 14.9462 28.4393 14.7666C28.3005 14.6747 28.1538 14.627 28.0292 14.6104C27.901 14.5933 27.8152 14.6114 27.7841 14.6279C27.7082 14.6771 27.6785 14.7264 27.6659 14.7686C27.6519 14.8154 27.6545 14.8684 27.6649 14.9307C27.6703 14.963 27.6759 14.9904 27.6825 15.0244C27.6883 15.0545 27.6947 15.0913 27.6952 15.127C27.6956 15.1623 27.6904 15.2135 27.6571 15.2598C27.6214 15.3093 27.5695 15.3316 27.5204 15.3398C27.4101 15.3582 27.3106 15.3017 27.2421 15.2354C27.1704 15.1659 27.1126 15.0683 27.0819 14.957C27.0193 14.7293 27.0688 14.4421 27.3407 14.209C27.6896 13.8819 28.288 13.9017 28.7772 14.1826C29.2773 14.4699 29.6954 15.0414 29.7147 15.874V15.877C29.7147 16.2932 29.6303 16.946 29.2382 17.498C28.8404 18.0579 28.1399 18.4951 26.9501 18.4951C25.523 18.4951 24.4431 17.9591 23.7216 17.1475C23.0021 16.3381 22.6454 15.262 22.6454 14.1904C22.6454 13.2862 22.9911 12.0305 23.4618 10.9551C23.6979 10.4158 23.9681 9.91555 24.246 9.52344C24.5201 9.13661 24.8158 8.83561 25.1083 8.7207C25.6682 8.50397 26.2735 8.18755 26.7411 7.85938C26.9749 7.69525 27.1704 7.53058 27.3085 7.37695C27.4233 7.24909 27.4859 7.13889 27.5096 7.05176C27.4712 7.05362 27.4136 7.0615 27.3358 7.08301C27.1331 7.13913 26.8399 7.26146 26.496 7.44238C25.9191 7.75867 25.3036 7.99386 24.827 8.09766C24.5909 8.14908 24.3777 8.17098 24.2177 8.14844C24.1379 8.13718 24.0586 8.11292 23.9969 8.06445C23.9297 8.01156 23.8915 7.93569 23.8915 7.84668C23.8915 7.76983 23.9164 7.69431 23.951 7.625C23.9861 7.55501 24.0348 7.48383 24.0907 7.41309C24.2025 7.27169 24.3541 7.11939 24.5126 6.96777C24.8371 6.65736 25.1897 6.34913 25.3827 6.08594L25.3837 6.08496C25.4793 5.95723 25.5494 5.77614 25.6122 5.5625C25.6432 5.45674 25.6714 5.34607 25.7001 5.2334C25.7285 5.12158 25.7574 5.00733 25.7889 4.89746C25.8513 4.68026 25.929 4.46497 26.0477 4.30273C26.1711 4.1342 26.3431 4.01869 26.5829 4.01855ZM9.10828 7.84668C9.10828 7.93569 9.07002 8.01156 9.00281 8.06445C8.94115 8.11285 8.86184 8.13719 8.7821 8.14844C8.62203 8.17093 8.40874 8.14907 8.17273 8.09766C7.69615 7.99382 7.07965 7.75969 6.50281 7.44336V7.44238C6.15916 7.26167 5.86644 7.13905 5.66394 7.08301C5.58538 7.06128 5.52757 7.05348 5.48914 7.05176C5.51282 7.13894 5.5763 7.24894 5.69128 7.37695C5.82936 7.53065 6.02571 7.69517 6.25964 7.85938C6.72714 8.18747 7.33269 8.50402 7.89246 8.7207C8.18488 8.83564 8.47973 9.13672 8.75378 9.52344C9.03161 9.91555 9.30189 10.4158 9.53796 10.9551C10.0087 12.0305 10.3553 13.2862 10.3553 14.1904C10.3553 15.262 9.99766 16.3381 9.2782 17.1475C8.55665 17.959 7.47673 18.4951 6.04968 18.4951C4.86 18.495 4.15933 18.0578 3.7616 17.498C3.36951 16.946 3.28504 16.2932 3.28503 15.877V15.874C3.3044 15.0413 3.72329 14.4699 4.22351 14.1826C4.71223 13.9021 5.3091 13.8818 5.65808 14.208L5.74402 14.2988C5.92433 14.5162 5.95382 14.7672 5.90515 14.9668C5.87784 15.0788 5.82478 15.1798 5.75378 15.25C5.68475 15.3183 5.57818 15.3748 5.46082 15.3359V15.333C5.41731 15.3223 5.37124 15.3023 5.3407 15.2559C5.30852 15.2069 5.30793 15.1533 5.31042 15.1191C5.31303 15.0842 5.32086 15.0478 5.328 15.0186C5.33596 14.9859 5.34331 14.9576 5.34949 14.9268C5.36169 14.8657 5.36478 14.8148 5.35046 14.7705C5.33744 14.7302 5.3049 14.6794 5.21667 14.6279L5.21082 14.624C5.20617 14.6209 5.18571 14.6115 5.14343 14.6064C5.10354 14.6017 5.05186 14.6021 4.99207 14.6104C4.87229 14.6268 4.72719 14.6743 4.58777 14.7666C4.31459 14.9475 4.04871 15.3102 4.04871 15.9873C4.06701 16.4161 4.22106 16.812 4.53601 17.1104C4.85293 17.4104 5.34497 17.6236 6.05652 17.6592C6.7643 17.6945 7.4913 17.4989 8.05261 17.1631C8.61705 16.8253 8.99237 16.3592 9.04187 15.8643V15.8633C9.18113 14.5564 8.33898 13.5586 7.39539 12.8418C6.92619 12.4854 6.43964 12.2046 6.05457 11.9961C5.95841 11.944 5.86863 11.8966 5.78699 11.8535C5.70557 11.8105 5.63182 11.7707 5.56824 11.7363C5.50498 11.7021 5.44964 11.6716 5.40613 11.6445C5.3955 11.6379 5.38478 11.6303 5.3739 11.623C5.34818 11.7318 5.33386 11.9064 5.32703 12.0996C5.32026 12.2913 5.32125 12.4925 5.3241 12.6455C5.32551 12.7217 5.32749 12.786 5.32898 12.8311C5.32971 12.8533 5.33047 12.8708 5.33093 12.8828C5.33115 12.8886 5.33081 12.8934 5.33093 12.8965C5.331 12.898 5.33188 12.8996 5.33191 12.9004V12.9014L5.34753 13.2627L5.11218 12.9883H5.11121L5.11023 12.9863C5.10912 12.9851 5.10758 12.983 5.10535 12.9805C5.10062 12.9751 5.09354 12.9668 5.08386 12.9561C5.06444 12.9346 5.03462 12.9026 4.99597 12.8623C4.91871 12.7817 4.80376 12.6673 4.65515 12.5322C4.35721 12.2614 3.92392 11.9087 3.38269 11.584L3.38074 11.583C2.75282 11.1906 2.44801 10.4823 2.29871 9.89453C2.2234 9.598 2.18564 9.32518 2.16687 9.12695C2.1575 9.02791 2.15264 8.94707 2.15027 8.89062C2.14909 8.86267 2.14862 8.84046 2.14832 8.8252V8.80078C2.14832 8.80073 2.14832 8.7998 2.27332 8.7998H2.14832V8.63867L2.30457 8.67871V8.67969H2.30554C2.30653 8.67994 2.30839 8.68015 2.31042 8.68066C2.31449 8.68169 2.32097 8.68357 2.32898 8.68555C2.34498 8.68949 2.36874 8.69525 2.39832 8.70215C2.45791 8.71604 2.5424 8.73425 2.64148 8.75391C2.8414 8.79355 3.09776 8.83634 3.32996 8.84961C3.44615 8.85625 3.5534 8.85566 3.64246 8.84473C3.73391 8.83347 3.79395 8.81275 3.82703 8.79004C3.85191 8.77292 3.85893 8.75769 3.8573 8.73047C3.8555 8.70075 3.84196 8.65303 3.80066 8.58398L3.7489 8.50684C3.18665 7.73132 3.13379 6.60916 3.57703 5.68457C4.02386 4.75249 4.97497 4.01855 6.41687 4.01855C6.6568 4.01863 6.82862 4.13415 6.95203 4.30273C7.07075 4.46498 7.14841 4.68021 7.21082 4.89746C7.24237 5.00733 7.27126 5.12158 7.29968 5.2334C7.32832 5.34607 7.35652 5.45674 7.38757 5.5625C7.43468 5.72289 7.48645 5.86465 7.54968 5.97949L7.61707 6.08496V6.08594C7.81005 6.3491 8.16267 6.6574 8.48718 6.96777C8.64569 7.11939 8.79727 7.27169 8.90906 7.41309C8.96499 7.48384 9.01368 7.555 9.04871 7.625C9.08336 7.69431 9.10823 7.76983 9.10828 7.84668ZM24.1512 7.86816C24.1642 7.87833 24.1947 7.89219 24.2528 7.90039C24.3687 7.91666 24.5471 7.90275 24.7733 7.85352C25.2225 7.75566 25.8171 7.5306 26.3768 7.22363L26.3788 7.22266C26.7303 7.03765 27.0417 6.90481 27.2694 6.8418C27.3807 6.81102 27.4859 6.79286 27.5692 6.80176C27.611 6.80627 27.6613 6.81895 27.703 6.85352C27.7501 6.8927 27.7714 6.94816 27.7714 7.00391V7.01172C27.7593 7.19225 27.6458 7.37498 27.494 7.54395C27.3389 7.71659 27.127 7.89331 26.8846 8.06348C26.399 8.40433 25.7757 8.72987 25.1991 8.95312C24.9784 9.03983 24.7189 9.28856 24.4501 9.66797C24.1848 10.0424 23.9227 10.5261 23.6913 11.0547C23.2271 12.115 22.8954 13.3348 22.8954 14.1904C22.8954 15.2085 23.2345 16.2225 23.9081 16.9805C24.5799 17.7362 25.5907 18.2451 26.9501 18.2451C28.0701 18.2451 28.6893 17.8387 29.0341 17.3535C29.3833 16.862 29.4643 16.2702 29.4647 15.8799L29.4579 15.7432C29.4014 15.0753 29.0512 14.6285 28.6522 14.3994C28.2157 14.1488 27.7503 14.1689 27.5126 14.3916L27.5077 14.3955C27.3074 14.565 27.2843 14.7531 27.3221 14.8906C27.3419 14.9625 27.3788 15.0198 27.4159 15.0557C27.4225 15.0621 27.4304 15.0657 27.4364 15.0703C27.4314 15.0446 27.4238 15.0073 27.4178 14.9717C27.4053 14.8966 27.3961 14.7982 27.4266 14.6963C27.4585 14.5901 27.5298 14.4936 27.6532 14.415L27.6581 14.4111C27.7569 14.3548 27.9085 14.342 28.0614 14.3623C28.2208 14.3835 28.4044 14.4435 28.577 14.5576C28.9287 14.7903 29.2213 15.2373 29.202 15.9902V15.9922C29.1825 16.4777 29.0064 16.9409 28.6356 17.292C28.265 17.6428 27.711 17.8704 26.9559 17.9082C26.1973 17.9461 25.4209 17.7386 24.8182 17.3779C24.219 17.0193 23.7699 16.4951 23.7089 15.8906L23.6923 15.624C23.6717 14.3145 24.5513 13.3283 25.454 12.6426C25.9379 12.275 26.4366 11.9872 26.826 11.7764C26.9235 11.7236 27.0147 11.675 27.0966 11.6318C27.1785 11.5886 27.2513 11.5502 27.3134 11.5166C27.3754 11.483 27.425 11.4554 27.4618 11.4326C27.5023 11.4074 27.5155 11.3954 27.5155 11.3955L27.5214 11.3887L27.5702 11.3506C27.5896 11.3392 27.6124 11.3305 27.6385 11.3271C27.6978 11.3196 27.7463 11.3436 27.7782 11.374C27.8069 11.4015 27.8246 11.4362 27.8368 11.4648C27.8496 11.4948 27.8598 11.5282 27.868 11.5625C27.9004 11.6977 27.9158 11.8959 27.9227 12.0908C27.9288 12.2627 27.9267 12.4405 27.9247 12.5859C27.9937 12.5171 28.0782 12.4362 28.1766 12.3467C28.4833 12.0679 28.9295 11.706 29.4872 11.3711C30.0325 11.0303 30.3148 10.4001 30.4589 9.83301C30.5302 9.55204 30.566 9.29258 30.5839 9.10352C30.589 9.04905 30.591 9.00041 30.5936 8.95898C30.5408 8.9708 30.4777 8.98599 30.4071 9C30.2026 9.04055 29.9334 9.08536 29.6844 9.09961C29.56 9.10672 29.4363 9.10619 29.327 9.09277C29.2206 9.07967 29.114 9.05221 29.0321 8.99609C28.942 8.93425 28.8852 8.83879 28.8925 8.71582C28.8991 8.6051 28.9564 8.48566 29.0487 8.35938C29.5494 7.66836 29.607 6.64641 29.1981 5.79297C28.7924 4.94673 27.9276 4.26855 26.5829 4.26855C26.4382 4.26868 26.3351 4.33249 26.2489 4.4502C26.1581 4.57438 26.0914 4.75345 26.0302 4.9668C25.9999 5.07211 25.9719 5.18213 25.9432 5.29492C25.9147 5.40712 25.885 5.52201 25.8524 5.63281C25.7882 5.85159 25.7066 6.06797 25.5829 6.2334L25.5839 6.23438C25.3736 6.52091 24.9931 6.85415 24.6854 7.14844C24.5277 7.29932 24.3872 7.44163 24.287 7.56836C24.2371 7.63146 24.1993 7.68802 24.1747 7.7373C24.1498 7.7871 24.1415 7.82281 24.1415 7.84668C24.1415 7.8585 24.1438 7.86233 24.1512 7.86816Z" fill="#7F7F7F" style="fill:#7F7F7F;fill:color(display-p3 0.4980 0.4980 0.4980);fill-opacity:1;"/>
<path d="M11.3666 10.5601V15.6934C11.3666 16.3901 12.1366 16.2801 12.1366 16.2801H15.5466C15.9866 16.2801 16.5 17.1234 16.5 17.1234C16.5 17.1234 17.0133 16.2801 17.4166 16.2801H20.9366C20.9366 16.2801 21.67 16.3534 21.67 15.6201V10.5234H11.3666V10.5601Z" fill="#DE393A" style="fill:#DE393A;fill:color(display-p3 0.8706 0.2235 0.2275);fill-opacity:1;"/>
<path d="M11.3666 4.80322H21.6333V10.5599H11.3666V4.80322Z" fill="#3951A3" style="fill:#3951A3;fill:color(display-p3 0.2235 0.3176 0.6392);fill-opacity:1;"/>
<path d="M18.37 6.0498C18.2233 6.9298 17.4533 7.5898 16.5 7.5898C15.5833 7.5898 14.8133 6.9298 14.63 6.0498C14.4467 6.3798 14.3367 6.74647 14.3367 7.1498C14.3367 8.3598 15.29 9.31314 16.5 9.31314C17.71 9.31314 18.6633 8.3598 18.6633 7.1498C18.6633 6.74647 18.5533 6.3798 18.37 6.0498Z" fill="white" style="fill:white;fill-opacity:1;"/>
<path d="M14.3367 14.4832C14.9442 14.4832 15.4367 13.9907 15.4367 13.3832C15.4367 12.7757 14.9442 12.2832 14.3367 12.2832C13.7292 12.2832 13.2367 12.7757 13.2367 13.3832C13.2367 13.9907 13.7292 14.4832 14.3367 14.4832Z" fill="#FEE05F" style="fill:#FEE05F;fill:color(display-p3 0.9961 0.8784 0.3725);fill-opacity:1;"/>
<path d="M18.6634 14.4832C19.2709 14.4832 19.7634 13.9907 19.7634 13.3832C19.7634 12.7757 19.2709 12.2832 18.6634 12.2832C18.0558 12.2832 17.5634 12.7757 17.5634 13.3832C17.5634 13.9907 18.0558 14.4832 18.6634 14.4832Z" fill="#FEE05F" style="fill:#FEE05F;fill:color(display-p3 0.9961 0.8784 0.3725);fill-opacity:1;"/>
</g>
<defs>
<clipPath id="clip0_1493_15477">
<rect width="33" height="22" fill="white" style="fill:white;fill-opacity:1;"/>
</clipPath>
</defs>
</svg>
