<svg width="24" height="24" viewBox="0 0 24 24" fill="none" xmlns="http://www.w3.org/2000/svg">
<path d="M2.29314 2.29302C2.68366 1.90249 3.31668 1.90249 3.7072 2.29302L21.7072 20.293C22.0976 20.6835 22.0977 21.3166 21.7072 21.7071C21.3167 22.0976 20.6837 22.0975 20.2931 21.7071L17.5861 19H6.41423L7.7072 20.293C8.09765 20.6835 8.0977 21.3166 7.7072 21.7071C7.3167 22.0976 6.68367 22.0975 6.29314 21.7071L3.29314 18.7071C2.90261 18.3166 2.90261 17.6835 3.29314 17.293L6.29314 14.293C6.68366 13.9025 7.31668 13.9025 7.7072 14.293C8.09765 14.6835 8.0977 15.3166 7.7072 15.7071L6.41423 17H15.5861L5.90935 7.32329C5.36144 7.68071 5.00023 8.29902 5.00017 9.00005V11C5.00013 11.5523 4.55239 12 4.00017 12C3.44791 12 3.00021 11.5523 3.00017 11V9.00005C3.00023 7.74527 3.57897 6.62831 4.48161 5.89555L2.29314 3.70708C1.90261 3.31655 1.90261 2.68354 2.29314 2.29302Z" fill="black" style="fill:black;fill-opacity:1;"/>
<path d="M20.0002 12C20.5524 12.0001 21.0002 12.4478 21.0002 13V15C21.0001 15.5523 20.5524 16 20.0002 16C19.4479 16 19.0002 15.5523 19.0002 15V13C19.0002 12.4478 19.4479 12 20.0002 12Z" fill="black" style="fill:black;fill-opacity:1;"/>
<path d="M16.2931 2.29302C16.6837 1.90249 17.3167 1.90249 17.7072 2.29302L20.7072 5.29302C21.0976 5.68355 21.0977 6.31658 20.7072 6.70708L17.7072 9.70708C17.3167 10.0976 16.6837 10.0975 16.2931 9.70708C15.9026 9.31655 15.9026 8.68354 16.2931 8.29302L17.5861 7.00005H11.0002C10.4479 7.00005 10.0002 6.5523 10.0002 6.00005C10.0002 5.44776 10.4479 5.00005 11.0002 5.00005H17.5861L16.2931 3.70708C15.9026 3.31655 15.9026 2.68354 16.2931 2.29302Z" fill="black" style="fill:black;fill-opacity:1;"/>
</svg>
