<svg width="24" height="24" viewBox="0 0 24 24" fill="none" xmlns="http://www.w3.org/2000/svg">
<path d="M14.5439 9.29297C14.9344 8.90254 15.5675 8.90274 15.958 9.29297C16.3485 9.68349 16.3485 10.3165 15.958 10.707L14.6631 12.001L15.957 13.2949C16.3471 13.6854 16.3473 14.3186 15.957 14.709C15.5665 15.0993 14.9324 15.0994 14.542 14.709L13.249 13.416L11.957 14.709C11.5665 15.0993 10.9325 15.0994 10.542 14.709C10.1519 14.3186 10.1521 13.6854 10.542 13.2949L11.835 12.001L10.541 10.707C10.1508 10.3166 10.1508 9.68344 10.541 9.29297C10.9315 8.90261 11.5646 8.90268 11.9551 9.29297L13.249 10.5869L14.5439 9.29297Z" fill="black" style="fill:black;fill-opacity:1;"/>
<path fill-rule="evenodd" clip-rule="evenodd" d="M17.999 4C20.2082 4 21.999 5.79088 21.999 8V16C21.999 18.2092 20.2082 20 17.999 20H9.41797C8.22109 19.9999 7.08586 19.4639 6.32618 18.5391L3.04102 14.5391C1.8291 13.0635 1.8291 10.9365 3.04102 9.46094L6.32618 5.46094C7.08588 4.53608 8.22112 4.00012 9.41797 4H17.999ZM9.41797 6C8.81962 6.00012 8.25188 6.26811 7.87207 6.73047L4.58594 10.7305C3.98029 11.4681 3.98029 12.5319 4.58594 13.2695L7.87207 17.2695C8.2519 17.7319 8.81966 17.9999 9.41797 18H17.999C19.1036 18 19.999 17.1046 19.999 16V8C19.999 6.89542 19.1036 6 17.999 6H9.41797Z" fill="black" style="fill:black;fill-opacity:1;"/>
</svg>
