<svg width="24" height="24" viewBox="0 0 24 24" fill="none" xmlns="http://www.w3.org/2000/svg">
<path d="M16.8027 12.005C17.3069 11.9551 17.7779 12.2946 17.8809 12.8019C17.9902 13.3427 17.6403 13.8705 17.0996 13.9806L16.8096 14.0509C15.3828 14.4543 14.2784 15.6321 13.9805 17.0997L13.9551 17.1984C13.8047 17.6821 13.3089 17.9835 12.8018 17.881C12.2606 17.7711 11.9108 17.2424 12.0205 16.7013L12.0693 16.4825C12.6143 14.2347 14.4222 12.4834 16.7012 12.0206L16.8027 12.005Z" fill="black" style="fill:black;fill-opacity:1;"/>
<path d="M8.5 8.00012C9.32842 8.00012 10 8.6717 10 9.50012C10 10.3285 9.32842 11.0001 8.5 11.0001C7.67158 11.0001 7 10.3285 7 9.50012C7 8.6717 7.67158 8.00012 8.5 8.00012Z" fill="black" style="fill:black;fill-opacity:1;"/>
<path d="M13.5 8.00012C14.3283 8.00012 15 8.67165 15 9.50012C15 10.3286 14.3283 11.0001 13.5 11.0001C12.6717 11.0001 12 10.3286 12 9.50012C12 8.67165 12.6717 8.00012 13.5 8.00012Z" fill="black" style="fill:black;fill-opacity:1;"/>
<path fill-rule="evenodd" clip-rule="evenodd" d="M12 2.00012C17.5229 2.00012 22 6.47728 22 12.0001C22 17.523 17.5229 22.0001 12 22.0001C6.47716 22.0001 2 17.523 2 12.0001C2 6.47728 6.47716 2.00012 12 2.00012ZM12 4.00012C7.58172 4.00012 4 7.58185 4 12.0001C4 16.4184 7.58172 20.0001 12 20.0001C16.4183 20.0001 20 16.4184 20 12.0001C20 7.58184 16.4183 4.00012 12 4.00012Z" fill="black" style="fill:black;fill-opacity:1;"/>
</svg>
