<svg width="24" height="24" viewBox="0 0 24 24" fill="none" xmlns="http://www.w3.org/2000/svg">
<path fill-rule="evenodd" clip-rule="evenodd" d="M18.0001 2C20.2093 2 22.0001 3.79088 22.0001 6V12C22.0001 14.2092 20.2093 16 18.0001 16H16.0001V18C16.0001 20.2092 14.2093 22 12.0001 22H6.00012C3.791 22 2.00012 20.2092 2.00012 18V12C2.00012 9.7908 3.791 8 6.00012 8H8.00012V6C8.00012 3.79088 9.79093 2 12.0001 2H18.0001ZM12.0001 4C10.8955 4 10.0001 4.89542 10.0001 6V9C10.0001 9.55228 9.55241 10 9.00012 10H6.00012C4.89555 10 4.00012 10.8954 4.00012 12V18C4.00012 19.1046 4.89555 20 6.00012 20H12.0001C13.1047 20 14.0001 19.1046 14.0001 18V15C14.0001 14.4477 14.4478 14 15.0001 14H18.0001C19.1047 14 20.0001 13.1046 20.0001 12V6C20.0001 4.89542 19.1047 4 18.0001 4H12.0001Z" fill="black" style="fill:black;fill-opacity:1;"/>
</svg>
