<svg width="24" height="24" viewBox="0 0 24 24" fill="none" xmlns="http://www.w3.org/2000/svg">
<path d="M6.65086 8.94466C8.61362 7.17129 11.644 7.2308 13.5356 9.1224L13.8784 9.46517L14.0278 9.62045C14.7531 10.4102 15.1791 11.3788 15.3042 12.3763C15.3727 12.9242 14.9839 13.4238 14.436 13.4925C13.8883 13.5609 13.3887 13.1729 13.3198 12.6253C13.2498 12.0666 13.0236 11.5243 12.6391 11.0687L12.4643 10.8792L12.1216 10.5365C10.9866 9.40151 9.16836 9.36602 7.9907 10.43L7.8784 10.5365L4.53562 13.8792C3.36431 15.0508 3.36414 16.9509 4.53562 18.1224L4.8784 18.4652L4.9907 18.5716C6.16828 19.6354 7.98665 19.5998 9.12156 18.4652L9.29246 18.2933L9.36863 18.2249C9.76146 17.9045 10.3414 17.9271 10.7075 18.2933C11.0979 18.6839 11.0971 19.3179 10.7065 19.7083L10.5356 19.8792C8.64406 21.7705 5.61354 21.8301 3.65086 20.057L3.46433 19.8792L3.12156 19.5365C1.16904 17.5839 1.16919 14.4178 3.12156 12.4652L6.46433 9.1224L6.65086 8.94466Z" fill="black" style="fill:black;fill-opacity:1;"/>
<path d="M13.6509 4.94467C15.6136 3.17127 18.644 3.23079 20.5356 5.1224L20.8784 5.46517L21.0561 5.6517C22.7721 7.55116 22.7723 10.4506 21.0561 12.3499L20.8784 12.5365L17.5356 15.8792C15.6441 17.7706 12.6136 17.8301 10.6509 16.057L10.4643 15.8792L10.1216 15.5365C9.35652 14.7714 8.8903 13.8172 8.72508 12.8245L8.69578 12.6253L8.68797 12.5228C8.67618 12.0162 9.05032 11.5726 9.56394 11.5081C10.0776 11.444 10.5492 11.7818 10.6626 12.2757L10.6802 12.3763L10.7202 12.6146C10.835 13.1668 11.1061 13.6929 11.5356 14.1224L11.8784 14.4652L11.9907 14.5716C13.1683 15.6354 14.9867 15.5999 16.1216 14.4652L19.4643 11.1224L19.5708 11.0101C20.6004 9.8705 20.6003 8.13121 19.5708 6.99154L19.4643 6.87924L19.1216 6.53646C17.9866 5.4015 16.1684 5.366 14.9907 6.43002L14.8784 6.53646L14.7075 6.70736L14.6313 6.7767C14.2388 7.09667 13.6595 7.07379 13.2934 6.70834C12.9029 6.31796 12.9022 5.68392 13.2925 5.2933L13.4643 5.1224L13.6509 4.94467Z" fill="black" style="fill:black;fill-opacity:1;"/>
</svg>
