<svg width="24" height="24" viewBox="0 0 24 24" fill="none" xmlns="http://www.w3.org/2000/svg">
<path d="M15.293 16.7072C15.6835 17.0977 16.3166 17.0977 16.7071 16.7072C17.0975 16.3166 17.0976 15.6836 16.7071 15.2931L13.4141 12.0001L16.7071 8.70716C17.0975 8.31663 17.0976 7.6836 16.7071 7.2931C16.3166 6.9026 15.6835 6.90265 15.293 7.2931L12 10.5861L8.70708 7.2931C8.31658 6.9026 7.68355 6.90265 7.29302 7.2931C6.90249 7.68362 6.90249 8.31664 7.29302 8.70716L10.586 12.0001L7.29302 15.2931C6.90249 15.6836 6.90249 16.3166 7.29302 16.7072C7.68354 17.0977 8.31655 17.0977 8.70708 16.7072L12 13.4142L15.293 16.7072Z" fill="black" style="fill:black;fill-opacity:1;"/>
</svg>
