<svg width="24" height="24" viewBox="0 0 24 24" fill="none" xmlns="http://www.w3.org/2000/svg">
<path d="M22 18.8947H2L22 4.89474V18.8947Z" fill="#D42E28"/>
<path d="M2 4.89474H22L2 18.8947V4.89474Z" fill="#1463AA"/>
<path d="M8.30713 8.04385C10.6697 8.04389 12.1872 9.40622 12.3423 11.5312H8.25439V12.2587H12.3423C12.1888 14.3815 10.7369 15.7499 8.30713 15.7499C5.8773 15.7499 4.25439 14.2234 4.25439 11.8944C4.25452 9.56566 5.816 8.04385 8.30713 8.04385ZM17.8022 12.2675C18.1617 12.2675 18.4428 12.3023 18.6489 12.3681C18.855 12.4338 19.0482 12.5525 19.2192 12.7235C19.3771 12.8771 19.4953 13.053 19.5786 13.2548C19.641 13.4125 19.6815 13.5726 19.6978 13.7353L19.7065 13.9081C19.7065 14.1273 19.6619 14.3422 19.5786 14.5526C19.4953 14.7499 19.377 14.9295 19.2192 15.0829C19.0482 15.2496 18.8551 15.3682 18.6489 15.4384C18.4428 15.5041 18.1574 15.539 17.8022 15.539H13.0093V12.2675H17.8022ZM17.8022 8.26749C18.1617 8.26749 18.4428 8.30234 18.6489 8.36807C18.855 8.43385 19.0482 8.55254 19.2192 8.72354C19.3771 8.87705 19.4953 9.05304 19.5786 9.25479C19.641 9.41254 19.6815 9.57259 19.6978 9.73526L19.7065 9.90811C19.7065 10.1273 19.6619 10.3422 19.5786 10.5526C19.4953 10.7499 19.377 10.9295 19.2192 11.0829C19.0482 11.2496 18.8551 11.3682 18.6489 11.4384C18.4428 11.5041 18.1574 11.539 17.8022 11.539H13.0093V8.26749H17.8022Z" fill="white"/>
<path d="M21.1667 18.0219C21.0921 18.1008 20.9956 18.1359 20.8904 18.1359C20.7851 18.1359 20.6886 18.0965 20.614 18.0219C20.5395 17.9473 20.5 17.8508 20.5 17.7456C20.5 17.6403 20.5395 17.5438 20.614 17.4693C20.6886 17.3947 20.7807 17.3552 20.8904 17.3552C21 17.3552 21.0921 17.3947 21.1667 17.4693C21.2412 17.5438 21.2807 17.6359 21.2807 17.7456C21.2807 17.8552 21.2412 17.9473 21.1667 18.0219ZM20.6535 17.5087C20.5877 17.5745 20.557 17.6535 20.557 17.7456C20.557 17.8377 20.5877 17.921 20.6535 17.9868C20.7193 18.0526 20.7982 18.0877 20.8904 18.0877C20.9825 18.0877 21.0614 18.0526 21.1272 17.9868C21.193 17.921 21.2237 17.8421 21.2237 17.7456C21.2237 17.6491 21.193 17.5745 21.1272 17.5087C21.0614 17.4429 20.9825 17.4079 20.8904 17.4079C20.7982 17.4079 20.7193 17.4429 20.6535 17.5087ZM20.8816 17.5307C20.9342 17.5307 20.9737 17.535 21 17.5482C21.0439 17.5658 21.0658 17.6052 21.0658 17.6579C21.0658 17.6973 21.0526 17.7236 21.0219 17.7412C21.0088 17.75 20.9868 17.7587 20.9605 17.7631C20.9956 17.7675 21.0175 17.7807 21.0351 17.807C21.0526 17.8289 21.057 17.8508 21.057 17.8728V17.9035C21.057 17.9035 21.057 17.9254 21.057 17.9342C21.057 17.9473 21.057 17.9517 21.057 17.9561L20.9868 17.9605C20.9868 17.9605 20.9868 17.9605 20.9868 17.9561V17.9429V17.9079C20.9868 17.8596 20.9737 17.8245 20.9474 17.8114C20.9298 17.8026 20.9035 17.7982 20.864 17.7982H20.8026V17.9693H20.7281V17.5394H20.8772L20.8816 17.5307ZM20.9649 17.5965C20.9649 17.5965 20.9167 17.5789 20.8728 17.5789H20.807V17.7368H20.8772C20.9079 17.7368 20.9342 17.7368 20.9474 17.728C20.9781 17.7149 20.9912 17.6929 20.9912 17.6622C20.9912 17.6315 20.9825 17.6096 20.9605 17.6008L20.9649 17.5965Z" fill="white"/>
</svg>
