<svg width="24" height="24" viewBox="0 0 24 24" fill="none" xmlns="http://www.w3.org/2000/svg">
<path d="M22 12.0072C22 7.27167 18.0474 3.99857 13.7165 4H9.9896C5.60716 3.99843 2 7.27267 2 12.0072C2 16.3386 5.60725 19.8973 9.9896 19.8763H13.7165C18.047 19.8971 22 16.3375 22 12.0072Z" fill="#0079BE"/>
<path d="M10.013 4.67078C6.00849 4.67201 2.76364 7.92454 2.76221 11.9387C2.76321 15.9522 6.0082 19.2043 10.013 19.2057C14.0184 19.2045 17.2643 15.9523 17.2648 11.9387C17.2642 7.92444 14.0185 4.67221 10.013 4.67078Z" fill="white"/>
<path d="M5.43018 11.9191C5.43399 9.95753 6.6566 8.28483 8.38061 7.62015V16.2171C6.6566 15.5528 5.43394 13.8809 5.43018 11.9191ZM11.6702 16.2192V7.62039C13.3949 8.28349 14.6194 9.95715 14.6225 11.9196C14.6194 13.8827 13.3949 15.5551 11.6702 16.2195V16.2192Z" fill="#0079BE"/>
</svg>
