<svg width="24" height="24" viewBox="0 0 24 24" fill="none" xmlns="http://www.w3.org/2000/svg">
<path d="M9.72845 2.5744C7.8956 2.87588 5.98711 3.76262 4.77103 4.87399L4.4801 5.14001L8.10507 5.14592C10.095 5.14592 11.7242 5.16365 11.7242 5.18139C11.7242 5.21685 11.41 7.2386 11.346 7.61103L11.3111 7.80611H8.26217H5.20742V9.284V10.7619H7.93051C9.4317 10.7619 10.6711 10.7737 10.6827 10.7914C10.706 10.8092 10.415 12.6181 10.2696 13.3452C10.2696 13.357 9.12914 13.363 7.73268 13.363H5.19578L5.21906 14.4093C5.23651 15.3492 5.24815 15.4852 5.3587 15.698C5.42853 15.8281 5.53908 15.9818 5.60308 16.0409C5.88819 16.301 6.02784 16.3128 8.89058 16.3187C11.026 16.3187 11.6078 16.3365 11.602 16.3897C11.602 16.4311 11.5031 17.0222 11.3867 17.7079L11.1715 18.9494H8.02943C5.76018 18.9494 4.78848 18.9257 4.53828 18.8725C4.06116 18.772 3.52003 18.4942 3.20001 18.1809C2.87999 17.8616 2.944 18.0094 3.39203 18.6242C4.7303 20.4568 7.08682 21.8992 9.54226 22.3899C10.2929 22.5377 12.0617 22.5377 12.8588 22.384C16.4954 21.6923 19.3873 19.1622 20.5335 15.6626C20.9176 14.4921 20.999 13.96 20.999 12.5353C21.0048 11.4358 20.9874 11.1757 20.871 10.5964C20.0681 6.5706 17.1064 3.52615 13.1498 2.66307C12.3817 2.49163 10.5023 2.44434 9.72845 2.5744Z" fill="#E34327"/>
</svg>
