<svg width="24" height="24" viewBox="0 0 24 24" fill="none" xmlns="http://www.w3.org/2000/svg">
<path d="M21.5974 13.3486H21.614L23.0154 9.83202H23.9998L20.9724 16.8818H20.0378L21.1638 14.416L19.1775 9.83202H20.1619L21.5974 13.3486ZM16.8591 9.67187C17.5286 9.6719 18.0578 9.85427 18.446 10.2139C18.8343 10.5735 19.0251 11.0763 19.0251 11.71V14.7295H18.1589V14.0508H18.1199C17.7429 14.6102 17.2473 14.8896 16.6228 14.8896C16.0939 14.8896 15.6433 14.7298 15.2888 14.4101C14.9401 14.1133 14.7434 13.6733 14.7546 13.2109C14.7548 12.7031 14.9461 12.3034 15.323 12.001C15.7 11.6985 16.2066 11.5498 16.8367 11.5498C17.3768 11.5498 17.816 11.6526 18.1648 11.8467V11.6357C18.1648 11.3218 18.029 11.0248 17.7927 10.8193C17.5508 10.6025 17.2413 10.4824 16.9207 10.4824C16.4143 10.4825 16.015 10.7 15.7224 11.1338L14.9236 10.625C15.3512 9.99155 15.9984 9.67187 16.8591 9.67187ZM12.5652 7.57128C13.1448 7.55986 13.7081 7.78231 14.1189 8.19335C14.9403 8.96977 14.9904 10.277 14.2195 11.1162L14.1189 11.2187C13.6969 11.6241 13.1785 11.8301 12.5652 11.8301H11.0691V14.7305H10.1628V7.57128H12.5652ZM16.9773 12.292C16.6116 12.292 16.302 12.3836 16.0544 12.5605C15.8125 12.7375 15.6892 12.9602 15.6892 13.2285C15.6892 13.4683 15.8013 13.6911 15.9871 13.8281C16.1896 13.9878 16.4371 14.073 16.6902 14.0674C17.0728 14.0674 17.4386 13.9135 17.7087 13.6396C18.007 13.3542 18.1589 13.0171 18.1589 12.6289C17.8776 12.4007 17.4836 12.2863 16.9773 12.292ZM11.0691 10.9512H12.5886C12.9261 10.9625 13.2525 10.8253 13.4832 10.5801C13.9559 10.0834 13.9443 9.28424 13.4548 8.80468C13.2242 8.57639 12.9149 8.45026 12.5886 8.45019H11.0691V10.9512Z" fill="white"/>
<path d="M7.94113 11.202C7.94113 10.9222 7.91862 10.6425 7.87361 10.3685H4.05286V11.9498H6.24177C6.15174 12.4579 5.85913 12.9146 5.43148 13.2001V14.2276H6.73695C7.50222 13.514 7.94113 12.4579 7.94113 11.202Z" fill="#4285F4"/>
<path d="M4.05299 15.221C5.14464 15.221 6.06747 14.8556 6.73709 14.2276L5.43162 13.2001C5.06586 13.4512 4.59881 13.594 4.05299 13.594C2.99511 13.594 2.10041 12.8689 1.77967 11.8984H0.434814V12.9603C1.12131 14.3475 2.52244 15.221 4.05299 15.221Z" fill="#34A853"/>
<path d="M1.77983 11.8984C1.61099 11.3904 1.61099 10.8366 1.77983 10.3228V9.26666H0.434757C-0.144919 10.4256 -0.144919 11.7957 0.434757 12.9546L1.77983 11.8984Z" fill="#FBBC04"/>
<path d="M4.05299 8.62727C4.63258 8.61585 5.18965 8.83849 5.60605 9.24382L6.76522 8.0678C6.02808 7.37132 5.06023 6.98883 4.05299 7.00025C2.52244 7.00025 1.12131 7.87941 0.434814 9.26666L1.77967 10.3285C2.10041 9.35229 2.99511 8.62727 4.05299 8.62727Z" fill="#EA4335"/>
</svg>
