<svg width="24" height="24" viewBox="0 0 24 24" fill="none" xmlns="http://www.w3.org/2000/svg">
<path d="M22 16.9863C21.9999 17.6493 21.7357 18.2851 21.2666 18.7539C20.7975 19.2227 20.1615 19.4862 19.498 19.4863H15.8271V14.4014H19.7041C20.6116 14.4013 21.2988 13.909 21.2988 13.1533C21.2986 12.4533 20.6798 12.0003 19.8691 11.9453V11.918C20.6115 11.8218 21.0098 11.3408 21.0098 10.7773C21.0098 10.0632 20.4195 9.65098 19.6221 9.60938C19.5403 9.59788 19.4576 9.59411 19.375 9.59668H15.8418V7C15.8419 6.33704 16.1061 5.70121 16.5752 5.23242C17.0443 4.76374 17.6804 4.50012 18.3438 4.5H22V16.9863Z" fill="#00873F"/>
<path d="M18.5088 12.2832C18.5686 12.2804 18.6289 12.2858 18.6875 12.2979C18.8324 12.3332 18.9615 12.416 19.0537 12.5332C19.1458 12.6505 19.1962 12.7952 19.1963 12.9443C19.2005 13.0946 19.1515 13.2421 19.0586 13.3604C18.9657 13.4784 18.8344 13.5603 18.6875 13.5918C18.6478 13.5918 18.5501 13.6054 18.5088 13.6055H17.0654V12.2832H18.5088Z" fill="#00873F"/>
<path d="M18.3701 10.3379C18.4127 10.338 18.4816 10.3516 18.5088 10.3516C18.6513 10.3703 18.7822 10.4409 18.876 10.5498C18.9698 10.6587 19.0202 10.7987 19.0176 10.9424C19.0202 11.0859 18.9695 11.226 18.876 11.335C18.7824 11.4436 18.6519 11.5141 18.5098 11.5332C18.4943 11.5465 18.4122 11.5469 18.3711 11.5469H17.0654V10.3379H18.3701Z" fill="#00873F"/>
<path d="M4.51544 4.5C3.85198 4.5 3.2157 4.76338 2.74657 5.23219C2.27743 5.701 2.01388 6.33685 2.01388 6.99985V13.1676C2.71467 13.5111 3.44321 13.7307 4.17175 13.7307C5.03768 13.7307 5.50533 13.2088 5.50533 12.4946V9.58475H7.64933V12.4831C7.64933 13.6096 6.94854 14.5299 4.57048 14.5299C3.70382 14.5297 2.84048 14.4227 2 14.2114L2 19.4727H5.67C6.33358 19.4727 6.96998 19.2093 7.4392 18.7404C7.90842 18.2715 8.17203 17.6355 8.17203 16.9724V4.5H4.51544Z" fill="#004E94"/>
<path d="M11.4294 4.5C10.766 4.50012 10.1298 4.76354 9.66065 5.23232C9.19154 5.70111 8.92795 6.33688 8.92783 6.99985V10.2693C9.56015 9.73359 10.6597 9.39106 12.4332 9.47242C13.3814 9.51356 14.3986 9.77473 14.3986 9.77473V10.8328C13.8898 10.5721 13.2852 10.3382 12.5021 10.2832C11.1551 10.1871 10.3442 10.8467 10.3442 12.0005C10.3442 13.1681 11.1551 13.8273 12.5021 13.7173C13.2857 13.6627 13.8898 13.4154 14.3986 13.1681V14.2257C14.3986 14.2257 13.3953 14.4869 12.4332 14.528C10.6597 14.6103 9.56015 14.2669 8.92783 13.7311V19.5H12.5978C13.2613 19.5 13.8976 19.2366 14.3667 18.7678C14.8358 18.299 15.0994 17.6632 15.0994 17.0002V4.5H11.4294Z" fill="#BE1833"/>
</svg>
