<svg width="24" height="24" viewBox="0 0 24 24" fill="none" xmlns="http://www.w3.org/2000/svg">
<path d="M14.9765 7.33234H9.02603V17.1288H14.9765V7.33234Z" fill="#FF5F00"/>
<path d="M9.63893 12.2314C9.63819 11.2881 9.85034 10.357 10.2593 9.50853C10.6683 8.66007 11.2634 7.91649 11.9995 7.33408C11.0878 6.6118 9.99278 6.16265 8.83974 6.03798C7.6867 5.91331 6.52212 6.11813 5.4791 6.62905C4.43608 7.13997 3.55671 7.93636 2.94148 8.92721C2.32626 9.91806 2 11.0634 2 12.2323C2 13.4012 2.32626 14.5465 2.94148 15.5374C3.55671 16.5282 4.43608 17.3246 5.4791 17.8355C6.52212 18.3465 7.6867 18.5513 8.83974 18.4266C9.99278 18.3019 11.0878 17.8528 11.9995 17.1305C11.2632 16.5479 10.6679 15.8041 10.2589 14.9553C9.84995 14.1065 9.63793 13.175 9.63893 12.2314Z" fill="#EB001B"/>
<path d="M22 12.2314C22 13.4004 21.6736 14.5458 21.0583 15.5367C20.443 16.5276 19.5635 17.324 18.5203 17.8348C17.4772 18.3457 16.3125 18.5504 15.1594 18.4255C14.0063 18.3007 12.9113 17.8513 11.9995 17.1288C12.7354 16.5459 13.3303 15.8021 13.7394 14.9536C14.1485 14.1051 14.3611 13.174 14.3611 12.2306C14.3611 11.2872 14.1485 10.3561 13.7394 9.50758C13.3303 8.65907 12.7354 7.91529 11.9995 7.33235C12.9113 6.60985 14.0063 6.16049 15.1594 6.03564C16.3125 5.91078 17.4772 6.11548 18.5203 6.62632C19.5635 7.13717 20.443 7.93354 21.0583 8.92443C21.6736 9.91531 22 11.0607 22 12.2297V12.2314Z" fill="#F79E1B"/>
</svg>
