<svg width="24" height="24" viewBox="0 0 24 24" fill="none" xmlns="http://www.w3.org/2000/svg">
<path d="M21.142 18.499C21.5342 18.4565 21.8802 18.7432 21.9206 19.1344L21.9832 19.6237C22.1121 20.717 21.4919 21.6765 20.3894 21.6765H3.60914C2.50671 21.6765 1.88838 20.7164 2.01671 19.6237L2.0786 19.1344C2.11901 18.7432 2.46496 18.4565 2.85653 18.499C3.24682 18.5402 3.53156 18.8987 3.49182 19.2893L3.42601 19.7922C3.3954 20.0417 3.59024 20.2585 3.84369 20.2585H20.1561C20.4096 20.2585 20.6044 20.041 20.5745 19.7922L20.5081 19.2893C20.4677 18.8987 20.7517 18.5402 21.142 18.499Z" fill="#D60510"/>
<path d="M18.2204 3C19.3874 3.00001 19.9678 3.87913 20.104 5.03909L20.1568 5.40815C20.1979 5.80589 19.9073 6.16251 19.5164 6.20562C19.1254 6.24678 18.7749 5.95873 18.7351 5.56099L18.6862 5.20563C18.6328 4.76609 18.4471 4.42711 18.0008 4.4271H6.04924C5.60226 4.4271 5.41593 4.76608 5.36445 5.20563L5.31557 5.56099C5.27516 5.95874 4.92459 6.24678 4.53301 6.20562C4.14209 6.16317 3.85154 5.80655 3.89257 5.40815L3.94468 5.03909C4.08216 3.87912 4.66272 3 5.83031 3H18.2204Z" fill="#D60510"/>
<path d="M4.38779 7.79798C4.74419 7.79798 5.02766 7.92858 5.24332 8.18721C5.3834 8.36421 5.56259 8.68754 5.78216 9.15909C6.00109 9.62021 6.23111 10.1486 6.47218 10.7423C6.71261 11.3269 6.95304 11.9395 7.19477 12.5796C7.42803 13.1903 7.64818 13.7487 7.82998 14.2537L7.84761 14.3078L7.86777 14.2537C8.05021 13.7487 8.27051 13.1903 8.50376 12.5796C8.74484 11.9396 8.98523 11.3262 9.22565 10.7423C9.46673 10.1486 9.6967 9.62021 9.91498 9.15909C10.1339 8.68754 10.3144 8.36487 10.4545 8.18721C10.6708 7.92859 10.9543 7.79798 11.31 7.79798H11.4742C11.6892 7.79799 11.8599 7.85354 11.9863 7.96261C12.1035 8.06385 12.1721 8.18268 12.1929 8.31788L13.2112 16.2371C13.2112 16.4396 13.1526 16.5984 13.0366 16.7153C12.9213 16.8237 12.7571 16.8785 12.5414 16.8785C12.3258 16.8785 12.1557 16.827 12.0293 16.7271C11.8906 16.6258 11.811 16.4945 11.7902 16.3293C11.757 16.0667 11.7244 15.7742 11.6925 15.4535C11.6481 15.1334 11.4885 13.752 11.4449 13.4032C11.4025 13.0445 11.1165 10.8057 11.0188 9.99515L11.0103 9.92462L10.6838 10.6111C10.5731 10.8475 10.4532 11.1303 10.321 11.4607C10.1906 11.7912 10.0577 12.1401 9.92606 12.5078C9.78422 12.8652 9.1553 14.6668 9.15337 14.6723C9.09473 14.8369 8.98524 15.1667 8.88295 15.4697C8.78262 15.7728 8.68876 16.0451 8.66333 16.0967C8.51348 16.3965 8.22223 16.5931 7.85084 16.5957C7.4736 16.5938 7.18175 16.3965 7.0332 16.0967C7.00712 16.0451 6.91394 15.7721 6.81296 15.4697C6.71132 15.1667 6.60183 14.8362 6.54254 14.6723C6.54254 14.6723 5.91122 12.8657 5.77046 12.5078C5.63884 12.1401 5.50718 11.7912 5.37556 11.4607C5.24396 11.1309 5.12342 10.8475 5.01462 10.6111L4.68685 9.92462L4.67908 9.99515C4.5807 10.8057 4.29529 13.0445 4.25162 13.4032C4.20732 13.752 4.04903 15.1334 4.00538 15.4535C3.9728 15.7742 3.93954 16.0667 3.90631 16.3293C3.8861 16.4939 3.80534 16.6252 3.66853 16.7271C3.54147 16.8263 3.37009 16.8785 3.15509 16.8785C2.9401 16.8785 2.77587 16.8237 2.6599 16.7153C2.54457 16.5971 2.48654 16.4384 2.48523 16.2359L3.50364 8.31788C3.52645 8.18204 3.59421 8.06384 3.71147 7.96261C3.83722 7.85354 4.00859 7.79799 4.2236 7.79798H4.38779Z" fill="white"/>
<path fill-rule="evenodd" clip-rule="evenodd" d="M17.8884 7.79729C19.3068 7.7999 20.5323 8.84427 20.5324 10.3902C20.5324 11.0551 20.2978 11.432 19.9082 11.8964L19.8691 11.9434L19.9225 11.9767C20.6946 12.4476 21.2328 13.1602 21.2726 14.1595C21.3326 15.6493 20.073 16.8818 18.5777 16.8778H14.6364C14.2533 16.8778 13.9431 16.5591 13.9431 16.166L13.9418 8.50136C13.9418 8.10688 14.2533 7.78882 14.6352 7.78882L17.8884 7.79729ZM15.286 15.4985H18.5705C19.3648 15.5005 19.9975 14.9211 19.9799 14.1583C19.9636 13.3778 19.2554 12.8722 18.4637 12.8716H16.8667C16.5129 12.8716 16.2224 12.5763 16.2224 12.2072C16.2224 11.8383 16.5122 11.5411 16.8667 11.5411H17.9346C18.6526 11.5143 19.2064 11.0767 19.241 10.3942C19.2767 9.66461 18.6506 9.11662 17.885 9.11597H15.2964L15.286 15.4985Z" fill="white"/>
</svg>
