<svg width="24" height="24" viewBox="0 0 24 24" fill="none" xmlns="http://www.w3.org/2000/svg">
<path fill-rule="evenodd" clip-rule="evenodd" d="M7.50987 3H17.1321C17.8076 3 18.3618 3.58515 18.3618 4.3002V4.92247C18.3618 5.80082 17.1717 5.79835 17.1717 4.92866V4.58969C17.1717 4.37319 16.9948 4.19752 16.7795 4.19752H7.13626C6.91976 4.19752 6.74409 4.37443 6.74409 4.58969V4.92247C6.74409 5.79711 5.60966 5.79092 5.60966 4.94103V4.30144C5.60843 3.58515 6.16141 3 6.83811 3H7.50987ZM11.9214 17.5064H18.1614C19.5865 17.5064 19.6001 15.9921 19.4554 15.2437C19.3762 14.7414 18.5226 14.7451 18.4286 15.2437V15.8276C18.4286 16.0936 18.2109 16.3126 17.9437 16.3126H5.97956C5.71234 16.3126 5.49461 16.0948 5.49461 15.8276V15.2437C5.40059 14.7451 4.54699 14.7414 4.46781 15.2437C4.32307 15.9909 4.33668 17.5064 5.76183 17.5064H11.9214Z" fill="#1866AC"/>
<path d="M11.3499 6.63342C11.4018 6.63095 11.455 6.63342 11.5082 6.63837C11.5193 6.63837 11.5305 6.64088 11.5416 6.64211C11.8818 6.68913 12.1676 6.89322 12.3222 7.18516C12.3531 7.24453 12.3791 7.30514 12.3989 7.36698C12.4187 7.43008 12.4323 7.49571 12.4397 7.56004V7.56246L13.0472 13.153L13.0484 13.158C13.0855 13.5031 12.8344 13.8124 12.4893 13.8495C12.1441 13.8866 11.8347 13.6367 11.7976 13.2903L11.2818 8.54973L9.45702 13.1852V13.1901H9.4546L9.44965 13.2024L9.4459 13.2123V13.2149L9.44095 13.2248L9.43854 13.2309L9.43358 13.2396L9.43104 13.2433L9.42609 13.2532V13.2569C9.39022 13.32 9.34693 13.3757 9.29622 13.4227H9.29501L9.2851 13.4326C9.2517 13.4623 9.21584 13.487 9.17625 13.5093H9.17372L9.16139 13.5167L9.15028 13.5228L9.14533 13.5254L9.13784 13.5291L9.13047 13.5327L9.1243 13.5353L9.11681 13.539L9.11065 13.5414L9.10449 13.544L9.09833 13.5464H9.09458L9.08963 13.5501L9.08093 13.5538H9.07598C9.01538 13.576 8.95357 13.5884 8.89174 13.5896H8.84595C8.77668 13.5872 8.70738 13.5736 8.64057 13.5464L8.63188 13.5426H8.62946L8.62076 13.5377L8.61206 13.5341L8.6059 13.5315L8.59853 13.5278L8.59104 13.5242L8.58742 13.5216L8.57618 13.5155L8.5664 13.5093L8.56144 13.5068C8.5268 13.487 8.49461 13.4647 8.46492 13.4399L8.46238 13.4375C8.45496 13.4314 8.44877 13.4251 8.44136 13.4189C8.44064 13.4183 8.43007 13.4088 8.42529 13.4029C8.42035 13.3979 8.41537 13.393 8.41043 13.3868C8.40425 13.3794 8.39812 13.3732 8.39194 13.3658L8.38941 13.3634C8.36467 13.3337 8.34239 13.3015 8.3226 13.2668L8.32018 13.2619L8.30907 13.2396L8.30653 13.2347L8.30279 13.2272L8.29916 13.2198L8.29662 13.2135L8.29288 13.205L8.28925 13.1963V13.1939L8.28551 13.1852L6.45836 8.54478L5.9437 13.2853C5.90659 13.6304 5.59731 13.8804 5.25217 13.8445C4.90703 13.8074 4.65708 13.4982 4.69294 13.153L5.30038 7.56367V7.56004C5.3078 7.49447 5.32142 7.43008 5.34121 7.36698C5.35977 7.30514 5.38577 7.24453 5.41793 7.18516C5.57256 6.89322 5.8583 6.68913 6.19849 6.64211C6.20962 6.64088 6.22203 6.63961 6.23316 6.63837C6.28635 6.63342 6.33959 6.63094 6.39155 6.63342H6.39396C6.462 6.63713 6.5251 6.64578 6.58448 6.65939C6.90984 6.73485 7.18574 6.96129 7.31563 7.2916L8.87072 11.2417L10.4257 7.2916C10.5556 6.96129 10.8315 6.73609 11.1568 6.65939C11.215 6.64578 11.2793 6.63713 11.3474 6.63342H11.3499Z" fill="#373536"/>
<path fill-rule="evenodd" clip-rule="evenodd" d="M16.6793 6.76945C17.7778 6.76945 18.6772 7.6676 18.6772 8.7649C18.6772 9.29931 18.4645 9.78554 18.1193 10.1455H18.1181C18.7849 10.4585 19.2451 11.1056 19.2451 11.8491C19.245 12.8969 18.3308 13.7542 17.2125 13.7542H14.0789C13.7857 13.7542 13.5456 13.529 13.5456 13.2544V7.29281C13.5456 7.0058 13.7808 6.76945 14.069 6.76945H16.6793ZM14.6269 12.7151H17.1679C17.7048 12.7151 18.1453 12.2759 18.1453 11.7377C18.1453 11.2008 17.7061 10.7605 17.1679 10.7605H16.7734V10.7579H15.7787C15.4769 10.7579 15.2294 10.5105 15.2294 10.2086C15.2294 9.90677 15.4769 9.65939 15.7787 9.65939L15.7799 9.66059H16.7746V9.64948C17.2273 9.5802 17.5775 9.18559 17.5775 8.71428C17.5775 8.19345 17.1519 7.76784 16.6311 7.76784H14.6269V12.7151Z" fill="#373536"/>
<path d="M6.25923 19.1653C6.3495 19.1765 6.42494 19.2272 6.46823 19.3002C6.47689 19.315 6.48427 19.3312 6.49046 19.3485C6.49417 19.3584 6.49792 19.3695 6.49916 19.3818C6.50039 19.3892 6.50289 19.3967 6.5029 19.4041L6.66986 20.8107L6.67107 20.812C6.68218 20.9035 6.61669 20.9876 6.52392 20.9988C6.43238 21.0099 6.34828 20.9443 6.33715 20.8515L6.19363 19.6417L5.68018 20.8317C5.64306 20.9171 5.5453 20.9566 5.45994 20.9195C5.41915 20.9022 5.38818 20.87 5.37211 20.8317L4.85878 19.6417L4.71525 20.8515C4.70412 20.943 4.62125 21.0099 4.52848 20.9988C4.43695 20.9877 4.37011 20.9048 4.38121 20.812L4.54829 19.4066C4.55943 19.3151 4.61505 19.2396 4.69544 19.1988C4.70532 19.1939 4.71646 19.1889 4.72758 19.1839C4.73129 19.1827 4.73631 19.1802 4.74002 19.179C4.75485 19.1741 4.7709 19.1704 4.78943 19.1679H4.79197C4.87979 19.1568 4.96633 19.1852 5.02695 19.2421C5.03932 19.2532 5.05049 19.2668 5.06162 19.2817C5.06904 19.2916 5.07525 19.3027 5.08143 19.3126C5.08513 19.3188 5.08764 19.3249 5.09134 19.3311L5.52675 20.3406L5.96227 19.3311C5.99815 19.2482 6.07237 19.1913 6.15895 19.1715C6.17504 19.1678 6.1924 19.1653 6.20849 19.1653H6.25923Z" fill="#373536"/>
<path d="M8.07647 19.1679C8.16925 19.1679 8.24476 19.2433 8.24476 19.3361V20.2454C8.24475 20.4532 8.15938 20.6425 8.02332 20.7785C7.88724 20.9146 7.6992 20.9987 7.49138 21C7.28355 21 7.0942 20.9147 6.95812 20.7773C6.82205 20.6413 6.73793 20.4532 6.73667 20.2454V19.3361C6.73668 19.2433 6.81219 19.1679 6.90496 19.1679C6.99773 19.1679 7.07325 19.2433 7.07325 19.3361V20.2454C7.07327 20.3604 7.12028 20.4643 7.19697 20.541C7.27243 20.6165 7.37756 20.6647 7.49259 20.6647C7.60763 20.6647 7.71276 20.6177 7.78822 20.541C7.86367 20.4656 7.91191 20.3604 7.91193 20.2454V19.3361H7.9083C7.90831 19.2433 7.9837 19.1679 8.07647 19.1679Z" fill="#373536"/>
<path d="M8.5689 19.1691C8.66165 19.1691 8.73705 19.2445 8.73707 19.3373V20.3691C8.73709 20.4495 8.7705 20.5237 8.8249 20.5781C8.8781 20.6313 8.95238 20.6647 9.03403 20.6647H9.49794L9.49541 20.6635C9.58818 20.6635 9.66368 20.7389 9.6637 20.8317C9.6637 20.9245 9.58819 21 9.49541 21H9.03149C8.85708 21 8.70001 20.9282 8.58497 20.8144C8.47117 20.7006 8.40063 20.5423 8.40061 20.3691V19.3373C8.40064 19.2445 8.47613 19.1691 8.5689 19.1691Z" fill="#373536"/>
<path d="M10.7091 19.1679C10.8018 19.1679 10.8772 19.2433 10.8772 19.3361C10.8772 19.4288 10.8019 19.5043 10.7091 19.5043H10.2315V20.8317H10.2303C10.2303 20.9245 10.1548 21 10.062 21C9.96924 21 9.89384 20.9245 9.89384 20.8317V19.5043H9.41627C9.32349 19.5043 9.24798 19.4288 9.24798 19.3361C9.24799 19.2433 9.3235 19.1679 9.41627 19.1679H10.7091Z" fill="#373536"/>
<path d="M11.1099 19.1679C11.2027 19.1679 11.2781 19.2433 11.2781 19.3361V20.8317C11.2781 20.9245 11.2027 21 11.1099 21C11.0171 21 10.9416 20.9245 10.9416 20.8317V19.3361C10.9416 19.2433 11.0172 19.1679 11.1099 19.1679Z" fill="#373536"/>
<path d="M13.881 19.1679C14.1729 19.1679 14.3981 19.3386 14.5206 19.5811C14.5441 19.628 14.5626 19.675 14.5775 19.7233C14.5898 19.7666 14.5998 19.8124 14.6072 19.8606C14.6072 19.8656 14.6097 19.8705 14.6097 19.8767L14.7259 20.8119H14.7247C14.7359 20.9034 14.6703 20.9876 14.5788 20.9988C14.4872 21.0099 14.403 20.9443 14.3919 20.8527L14.3326 20.3777H13.7499C13.6571 20.3777 13.5816 20.3023 13.5816 20.2095C13.5816 20.1167 13.6571 20.0412 13.7499 20.0412H14.2905L14.2757 19.9175C14.2757 19.9175 14.2757 19.9076 14.2757 19.9039C14.2707 19.8754 14.2645 19.847 14.2559 19.8186C14.246 19.7864 14.2348 19.7566 14.2212 19.7294C14.1544 19.5958 14.0344 19.5031 13.881 19.5031H13.8798C13.8501 19.5031 13.8229 19.5055 13.7957 19.5129C13.771 19.5191 13.7449 19.5291 13.7202 19.5414C13.5915 19.607 13.505 19.7505 13.4864 19.9163L13.3812 20.8503C13.3713 20.9418 13.2884 21.0087 13.1956 20.9988C13.1041 20.9889 13.0373 20.906 13.0471 20.8132L13.1524 19.8792C13.1833 19.6034 13.3366 19.3596 13.568 19.2421C13.6137 19.2186 13.6633 19.1999 13.7164 19.1876C13.7684 19.1752 13.8229 19.1679 13.8798 19.1679H13.881Z" fill="#373536"/>
<path d="M16.3923 19.1703C16.4851 19.1703 16.5606 19.2458 16.5606 19.3386V20.7216C16.5606 20.7946 16.5272 20.8602 16.4728 20.906C16.4629 20.9147 16.4504 20.922 16.4381 20.9294C16.4319 20.9331 16.4245 20.9369 16.4171 20.9393H16.4159C16.4109 20.9418 16.4072 20.943 16.4022 20.9455C16.3416 20.9665 16.2773 20.9616 16.2216 20.9356C16.2142 20.9319 16.2067 20.9282 16.2006 20.9245C16.1895 20.9171 16.1783 20.9097 16.1672 20.8998C16.161 20.8937 16.1536 20.8861 16.1462 20.8775L16.1412 20.8713L16.1387 20.8689L15.2443 19.7282V20.8354L15.2394 20.8317C15.2394 20.9245 15.1639 21 15.0711 21C14.9783 21 14.9028 20.9245 14.9028 20.8317V19.4425C14.9028 19.4326 14.9029 19.4226 14.9053 19.414C14.9078 19.3954 14.9128 19.3769 14.919 19.3596C14.9227 19.3497 14.9276 19.3398 14.9325 19.3299C14.961 19.2792 15.0068 19.2396 15.0637 19.2198C15.0711 19.2174 15.0785 19.2148 15.0872 19.2135C15.0934 19.2123 15.0996 19.2112 15.1046 19.2099H15.1058C15.1169 19.2075 15.1305 19.2061 15.1466 19.2074H15.1516C15.2208 19.2099 15.2851 19.2421 15.3296 19.299L16.2241 20.4395V19.3386C16.2241 19.2458 16.2995 19.1703 16.3923 19.1703Z" fill="#373536"/>
<path d="M17.8621 19.1679C17.9548 19.1679 18.0302 19.2433 18.0303 19.3361C18.0303 19.4288 17.9548 19.5043 17.8621 19.5043H17.3659C17.2769 19.5044 17.1952 19.5403 17.1346 19.6009C17.0752 19.6602 17.0382 19.7419 17.0382 19.8309V20.3369C17.0382 20.4259 17.0752 20.5088 17.1346 20.5682C17.1939 20.6276 17.2756 20.6647 17.3647 20.6647H17.8596L17.8633 20.6635C17.9561 20.6635 18.0314 20.7389 18.0315 20.8317C18.0315 20.9245 17.9561 21 17.8633 21H17.3685C17.1866 21 17.0196 20.9245 16.8996 20.8045C16.7796 20.6845 16.7053 20.5199 16.7053 20.3369V19.8309C16.7053 19.649 16.7796 19.482 16.8996 19.362C17.0196 19.242 17.1842 19.1679 17.3672 19.1679H17.8621Z" fill="#373536"/>
<path fill-rule="evenodd" clip-rule="evenodd" d="M18.8356 19.1679C19.0496 19.1679 19.2451 19.2531 19.3861 19.3892C19.5296 19.5265 19.6175 19.7171 19.6175 19.9274V20.2404C19.6175 20.4507 19.5284 20.6412 19.3849 20.7785C19.2439 20.9146 19.0484 20.9988 18.8344 20.9988C18.6204 20.9988 18.4249 20.9134 18.2838 20.7773C18.1403 20.64 18.0525 20.4494 18.0525 20.2391V19.9262C18.0525 19.7159 18.1417 19.5253 18.2852 19.388C18.4262 19.2519 18.6216 19.1679 18.8356 19.1679ZM18.8356 19.5031C18.7119 19.5031 18.5994 19.5513 18.5177 19.6293C18.4373 19.706 18.3879 19.8112 18.3879 19.9262V20.2391C18.3879 20.3542 18.4373 20.4594 18.5177 20.5361C18.5994 20.614 18.7119 20.6635 18.8356 20.6635C18.9593 20.6635 19.0719 20.6152 19.1536 20.5373C19.234 20.4606 19.2834 20.3555 19.2834 20.2404V19.9274C19.2834 19.8124 19.234 19.7072 19.1536 19.6305C19.0719 19.5525 18.9593 19.5031 18.8356 19.5031Z" fill="#373536"/>
<path fill-rule="evenodd" clip-rule="evenodd" d="M12.2418 19.1679C12.389 19.1679 12.5239 19.2284 12.6204 19.3261C12.7169 19.4226 12.7775 19.5563 12.7775 19.7048C12.7775 19.8099 12.7466 19.9076 12.6946 19.9893C12.7293 20.0115 12.7615 20.0363 12.7899 20.066C12.7936 20.0697 12.7973 20.0734 12.7997 20.0771C12.8925 20.1748 12.9494 20.3072 12.9494 20.452C12.9494 20.6029 12.8876 20.739 12.7886 20.838C12.6896 20.9369 12.5535 20.9975 12.4026 20.9975H11.5862C11.4934 20.9975 11.4179 20.9221 11.4179 20.8293V20.0709L11.4192 20.0734V19.3435C11.4192 19.3201 11.4241 19.2965 11.4327 19.2767C11.4414 19.2545 11.4551 19.2346 11.4712 19.2185L11.4736 19.2161C11.502 19.1889 11.5405 19.1704 11.5838 19.1679H12.2418ZM11.7545 19.5043V20.6635H12.4039C12.4621 20.6635 12.5141 20.64 12.5536 20.6017C12.592 20.5633 12.6155 20.5101 12.6155 20.4532C12.6155 20.3988 12.5944 20.3492 12.5598 20.3109L12.5536 20.3047C12.5153 20.2664 12.4621 20.2417 12.4052 20.2417H12.1812C12.0884 20.2416 12.013 20.1661 12.013 20.0734C12.013 19.9806 12.0884 19.9052 12.1812 19.9052H12.2579C12.3061 19.9015 12.3507 19.8792 12.3841 19.8458C12.42 19.8099 12.4434 19.7592 12.4434 19.7048C12.4434 19.6503 12.4212 19.5996 12.3841 19.5625C12.3483 19.5266 12.2975 19.5031 12.243 19.5031H11.7557L11.7545 19.5043Z" fill="#373536"/>
</svg>
