<svg width="24" height="24" viewBox="0 0 24 24" fill="none" xmlns="http://www.w3.org/2000/svg">
<path d="M9.05767 8.35843C9.13694 8.31294 9.23107 8.30072 9.31934 8.32449C9.40765 8.3483 9.48308 8.40637 9.52866 8.48556C10.1283 9.54116 10.4434 10.734 10.4434 11.9476C10.4434 13.1613 10.1284 14.3543 9.52866 15.4099C9.49927 15.4636 9.45593 15.5084 9.40337 15.5397C9.35082 15.5711 9.29084 15.5878 9.22962 15.5883C9.16917 15.5885 9.10952 15.573 9.05708 15.543C9.00466 15.513 8.9612 15.4696 8.93088 15.4174C8.90056 15.3652 8.8846 15.3059 8.88453 15.2456C8.88447 15.1852 8.90035 15.1258 8.93058 15.0735C9.47117 14.1214 9.75533 13.0456 9.75534 11.9512C9.75534 10.8567 9.47122 9.78067 8.93058 8.82855C8.90804 8.78937 8.89335 8.74622 8.88752 8.70142C8.8817 8.65656 8.88468 8.6108 8.89649 8.56714C8.92036 8.479 8.97839 8.40393 9.05767 8.35843Z" fill="white"/>
<path d="M7.73442 9.0444C7.78146 9.03907 7.82911 9.04359 7.87437 9.0575C7.91963 9.07144 7.96168 9.09452 7.99757 9.12539C8.03347 9.15628 8.0626 9.19438 8.0831 9.23704C8.56711 10.0636 8.82231 11.0038 8.82233 11.9613C8.82233 12.9188 8.56713 13.8593 8.0831 14.6858C8.0519 14.7363 8.00808 14.7779 7.95601 14.8064C7.90391 14.835 7.84527 14.8495 7.78585 14.8487C7.72569 14.8483 7.66647 14.8322 7.6145 14.802C7.56259 14.7717 7.5194 14.7284 7.4895 14.6763C7.4596 14.6242 7.44397 14.5652 7.44405 14.5051C7.44414 14.4451 7.46003 14.3859 7.4901 14.3339C7.91218 13.6127 8.13483 12.7924 8.13483 11.9571C8.13483 11.1218 7.91219 10.3015 7.4901 9.58032C7.46321 9.54137 7.44469 9.49726 7.43567 9.45081C7.42666 9.40435 7.42738 9.35646 7.43777 9.31028C7.44815 9.26414 7.46807 9.22069 7.49608 9.18255C7.52413 9.1444 7.55974 9.11221 7.60074 9.08847C7.64175 9.06474 7.68732 9.04975 7.73442 9.0444Z" fill="white"/>
<path d="M6.33879 9.74914C6.38638 9.74295 6.43481 9.74685 6.48083 9.76045C6.52683 9.77406 6.5696 9.79729 6.60613 9.82834C6.64261 9.85938 6.67208 9.89775 6.69285 9.94088C7.06867 10.5478 7.26791 11.2472 7.26791 11.9607C7.26791 12.6742 7.06867 13.3736 6.69285 13.9805C6.66108 14.0287 6.61771 14.0682 6.56666 14.0951C6.5156 14.1221 6.45845 14.1359 6.40069 14.135C6.3396 14.135 6.27961 14.1186 6.22695 14.0877C6.17424 14.0567 6.13082 14.0121 6.10105 13.9588C6.0713 13.9055 6.05606 13.8453 6.05739 13.7843C6.05874 13.7233 6.07645 13.6636 6.10853 13.6116C6.41674 13.1135 6.58011 12.5394 6.58012 11.9539C6.58012 11.3683 6.41674 10.7942 6.10853 10.2961C6.07967 10.2578 6.05927 10.2138 6.04842 10.1672C6.03758 10.1205 6.03672 10.0722 6.04573 10.0251C6.05475 9.97807 6.07339 9.93321 6.10075 9.89384C6.12811 9.85448 6.16354 9.82139 6.20452 9.79648C6.24551 9.77156 6.2912 9.75533 6.33879 9.74914Z" fill="white"/>
<path d="M4.87079 10.5286C4.94376 10.4774 5.03386 10.4564 5.12199 10.4702C5.2101 10.4841 5.2893 10.5316 5.34298 10.6027C5.62205 10.9986 5.7721 11.4709 5.7721 11.955C5.77209 12.4391 5.62204 12.9115 5.34298 13.3073C5.31155 13.3514 5.27018 13.3874 5.22217 13.4124C5.17408 13.4375 5.12061 13.4509 5.06637 13.4514C5.00315 13.4522 4.94098 13.4355 4.88664 13.4032C4.8323 13.3709 4.78786 13.3242 4.75835 13.2683C4.72887 13.2125 4.71516 13.1495 4.71918 13.0864C4.72322 13.0234 4.74469 12.9625 4.78108 12.9108C4.97839 12.6307 5.08431 12.2966 5.08431 11.9541C5.08431 11.6117 4.97838 11.2776 4.78108 10.9975C4.73217 10.923 4.7141 10.8323 4.73084 10.7448C4.74759 10.6573 4.79787 10.5798 4.87079 10.5286Z" fill="white"/>
<path fill-rule="evenodd" clip-rule="evenodd" d="M10.4114 5C14.488 5.00001 18.0816 6.93071 19.3483 9.80511C19.357 9.82476 19.3635 9.84523 19.3683 9.86585C19.394 9.89157 19.42 9.91695 19.4452 9.94237L19.5205 10.0177C19.8883 10.3832 22.4423 14.4643 22.9476 15.2777C22.9801 15.3297 22.9983 15.3894 22.9999 15.4507C23.0015 15.512 22.9864 15.5728 22.9565 15.6264C22.9267 15.6799 22.883 15.7246 22.83 15.7556C22.7771 15.7866 22.7168 15.8031 22.6554 15.8029C22.597 15.803 22.5396 15.7882 22.4885 15.7601C22.4374 15.7318 22.3942 15.691 22.3632 15.6416C21.2084 13.7918 19.2838 10.7598 19.0343 10.5036L18.9568 10.4262C18.663 10.131 18.3845 9.85126 18.0854 9.85126C17.7324 9.85128 16.8615 9.92178 16.4763 9.95428L16.4015 10.3857L18.4503 11.5195L18.1168 12.1203L14.4614 10.085C13.9716 9.81387 13.8116 9.97489 13.7583 10.0281C13.4456 10.3404 13.5865 10.5687 13.7583 10.7334C13.9302 10.8982 14.8463 11.6464 15.1471 11.8901L16.0271 12.6005C16.6681 13.1153 17.1732 13.5255 17.3211 13.656C17.5961 13.8997 17.7405 14.2963 17.8797 14.6858C17.9461 14.8927 18.0325 15.0926 18.1375 15.2828C18.3551 15.6718 18.6679 15.9996 19.0466 16.2353C19.3121 16.3817 19.6044 16.4739 19.906 16.5065C19.9971 16.5099 20.0832 16.5493 20.1452 16.6161C20.2073 16.6828 20.2401 16.7716 20.2367 16.8626C20.2333 16.9536 20.1939 17.0397 20.127 17.1017C20.0601 17.1635 19.9714 17.1964 19.8803 17.1931L19.8734 17.1913H19.8459C19.4441 17.1492 19.0551 17.0253 18.703 16.8274C18.417 16.6534 18.1607 16.4373 17.9416 16.1879C17.9262 16.2138 17.9077 16.238 17.8857 16.2594C16.0897 18.0064 13.3744 19 10.4114 19C5.22111 19 1 15.8595 1 12C1.00009 8.14053 5.22116 5 10.4114 5ZM10.4114 5.68657C5.60099 5.68657 1.68759 8.51807 1.6875 12C1.6875 15.482 5.60093 18.3137 10.4114 18.3137C12.8755 18.3137 15.1604 17.5821 16.8088 16.2871C16.758 16.2959 16.711 16.3013 16.6692 16.3013C16.2379 16.3013 14.8668 15.5414 14.7305 15.4433C14.547 15.3251 14.4129 15.144 14.3537 14.9342C14.2945 14.7243 14.3143 14.5 14.409 14.3036C14.4555 14.199 14.5209 14.1046 14.601 14.0243C14.2501 13.7857 13.9112 13.5297 13.5858 13.2573C13.299 12.971 13.2032 12.6109 13.3127 12.2843L12.3558 12.1185C12.1415 12.0812 11.9506 11.9605 11.8253 11.783C11.7 11.6054 11.6502 11.3852 11.6871 11.1711L12.1719 8.34979C12.2093 8.13582 12.3302 7.94525 12.508 7.82013C12.6858 7.69505 12.9061 7.64546 13.1205 7.68228L15.953 8.17145C16.1673 8.20877 16.3581 8.32942 16.4835 8.507C16.6088 8.68459 16.6582 8.90473 16.6213 9.11884L16.5977 9.2546C17.039 9.21907 17.7563 9.16322 18.0854 9.1632C18.1266 9.1632 18.1671 9.16553 18.2066 9.16945C16.7465 7.05181 13.7598 5.68658 10.4114 5.68657ZM16.9724 14.3107C16.9683 14.3225 16.9638 14.3342 16.9584 14.3455C16.9385 14.3868 16.9104 14.4236 16.8761 14.4539C16.8418 14.4842 16.8017 14.5075 16.7583 14.5221C16.4783 14.5855 16.1927 14.621 15.9057 14.6284C15.6737 14.6468 15.4418 14.5921 15.2425 14.4721C15.2328 14.4644 15.2194 14.4546 15.2033 14.4426C15.1726 14.4507 15.1436 14.4648 15.1181 14.484C15.0823 14.5109 15.0546 14.547 15.0379 14.5885C15.0101 14.6371 15.0025 14.6948 15.0167 14.749C15.0308 14.8031 15.0656 14.8496 15.1136 14.8785C15.3559 15.0398 16.4561 15.589 16.6829 15.6148C16.9305 15.5488 17.1714 15.4604 17.403 15.3516C17.3378 15.2105 17.281 15.0656 17.2335 14.9175C17.1561 14.7047 17.0701 14.4706 16.9724 14.3107ZM13.9844 12.4403C13.9603 12.4747 13.8881 12.5777 14.0651 12.7545C14.1993 12.8884 14.8041 13.3106 15.165 13.5628C15.4141 13.7343 15.5671 13.8423 15.6462 13.9058C15.9302 13.9357 16.2169 13.9227 16.4972 13.8689C16.2562 13.6734 15.9323 13.4136 15.5956 13.143L14.866 12.5535L14.0125 12.4055C14.0035 12.4163 13.9939 12.4277 13.9844 12.4403ZM12.9653 8.35783C12.9482 8.36167 12.9319 8.36878 12.9177 8.37897C12.9033 8.38893 12.891 8.40176 12.8815 8.41649C12.8721 8.4312 12.8657 8.44781 12.8627 8.46502L12.3728 11.2795C12.3674 11.3142 12.3757 11.3496 12.3959 11.3783C12.4161 11.4071 12.4466 11.427 12.4811 11.4337L13.7673 11.6567C13.5041 11.438 13.3464 11.3018 13.2721 11.2295C12.7565 10.7146 12.7565 10.0712 13.2721 9.55293C13.4886 9.3367 13.975 9.03816 14.7948 9.49636L15.7655 10.0335L15.9443 9.00034C15.9503 8.96554 15.9422 8.92983 15.9219 8.9009C15.9016 8.87199 15.8708 8.85209 15.836 8.84582L13.0176 8.35694C13.0003 8.35378 12.9824 8.354 12.9653 8.35783Z" fill="white"/>
</svg>
