<svg width="24" height="24" viewBox="0 0 24 24" fill="none" xmlns="http://www.w3.org/2000/svg">
<g clip-path="url(#clip0_4582_1907)">
<path d="M5.97212 4.92087H11.0306C11.7365 4.92087 12.1777 5.5169 12.0122 6.24583L9.65568 16.69C9.49027 17.4189 8.78072 18.015 8.07485 18.015H3.01634C2.31045 18.015 1.86932 17.419 2.03477 16.69L4.36328 6.24583C4.52873 5.51312 5.26253 4.92087 5.96839 4.92087H5.97212Z" fill="#D10429"/>
<path d="M10.5883 4.92087H16.4082C17.114 4.92087 16.7942 5.5169 16.6288 6.24583L14.2722 16.69C14.1067 17.4189 14.1582 18.015 13.4524 18.015H7.63289C6.92337 18.015 6.48587 17.419 6.65497 16.69L9.01154 6.24583C9.17694 5.51312 9.88277 4.92087 10.5924 4.92087H10.5887H10.5883Z" fill="#022E64"/>
<path d="M16.2037 4.92087H21.2625C21.9684 4.92087 22.4096 5.5169 22.2441 6.24583L19.8876 16.69C19.7221 17.4189 19.0126 18.015 18.3067 18.015H13.2482C12.5387 18.015 12.1012 17.419 12.2666 16.69L14.6232 6.24583C14.7886 5.51312 15.4944 4.92087 16.2003 4.92087H16.2037Z" fill="#076F74"/>
<path d="M15.3545 14.7675H15.8324L15.9684 14.293H15.4941L15.3545 14.7675ZM15.7368 13.4615L15.5714 14.0234C15.5714 14.0234 15.7515 13.9285 15.8508 13.8981C15.95 13.8753 16.0971 13.8563 16.0971 13.8563L16.2111 13.4653H15.7332L15.7368 13.4615ZM15.9758 12.6566L15.8177 13.1957C15.8177 13.1957 15.9942 13.1122 16.0934 13.0857C16.1927 13.0591 16.3397 13.0515 16.3397 13.0515L16.4537 12.6605H15.9795L15.9758 12.6566ZM17.0309 12.6566L16.4133 14.7637H16.5787L16.45 15.2003H16.2846L16.2442 15.3332H15.6559L15.6964 15.2003H14.5052L14.6229 14.7979H14.7442L15.3692 12.6567L15.4942 12.2239H16.0935L16.0309 12.4403C16.0309 12.4403 16.189 12.3226 16.3435 12.2808C16.4942 12.2391 17.3618 12.2239 17.3618 12.2239L17.2331 12.6529H17.0273L17.0309 12.6566Z" fill="#F5F5F5"/>
<path d="M17.2761 12.2239H17.9158L17.9231 12.4707C17.9195 12.5124 17.9526 12.5314 18.0298 12.5314H18.1584L18.0408 12.9377H17.6952C17.3974 12.9605 17.2834 12.8276 17.2908 12.6795L17.2797 12.2277L17.2761 12.2239ZM17.3548 14.1567H16.7446L16.8475 13.796H17.546L17.6452 13.4657H16.9578L17.0754 13.0595H18.9871L18.8695 13.4657H18.2261L18.1269 13.796H18.7702L18.6635 14.1567H17.9687L17.8438 14.3085H18.1268L18.1967 14.7641C18.204 14.8097 18.204 14.84 18.2187 14.859C18.2334 14.8742 18.318 14.8818 18.3658 14.8818H18.4503L18.318 15.326H18.1011C18.068 15.326 18.0165 15.3223 17.9467 15.3223C17.8805 15.3146 17.8364 15.2767 17.7923 15.2539C17.7518 15.2349 17.693 15.1855 17.6783 15.0982L17.6121 14.6427L17.296 15.0907C17.1967 15.2311 17.0607 15.3412 16.8291 15.3412H16.3879L16.5055 14.9464H16.6747C16.7225 14.9464 16.7666 14.9274 16.7997 14.9084C16.8328 14.8932 16.8622 14.878 16.8916 14.8287L17.3548 14.1567ZM10.6796 13.1685H12.2935L12.1758 13.5671H11.5325L11.4332 13.905H12.095L11.9737 14.315H11.3156L11.1538 14.8655C11.1355 14.9263 11.3119 14.9339 11.3744 14.9339L11.7053 14.8883L11.5729 15.3439H10.8303C10.7715 15.3439 10.7274 15.3363 10.6612 15.3211C10.5986 15.3059 10.5692 15.2755 10.5435 15.2338C10.5177 15.1882 10.4736 15.1541 10.503 15.0553L10.7163 14.3264H10.3486L10.47 13.9088H10.8376L10.9368 13.571H10.5692L10.6869 13.1723L10.6796 13.1685ZM11.7946 12.4479H12.4563L12.335 12.8617H11.4306L11.3314 12.949C11.2873 12.9908 11.2762 12.9756 11.2211 13.006C11.1697 13.0325 11.063 13.0857 10.9233 13.0857H10.6329L10.7505 12.687H10.8387C10.9123 12.687 10.9638 12.6794 10.9895 12.6643C11.0189 12.6453 11.052 12.6035 11.085 12.5352L11.2505 12.2239H11.9086L11.7946 12.4517V12.4479ZM13.0418 13.1313C13.0418 13.1313 13.2219 12.9605 13.5308 12.9073C13.6006 12.8921 14.0418 12.8997 14.0418 12.8997L14.108 12.6719H13.1778L13.0418 13.1351L13.0418 13.1313ZM13.9168 13.3059H12.994L12.9389 13.4995H13.7403C13.8359 13.4881 13.8543 13.5033 13.8616 13.4957L13.9204 13.3059H13.9168ZM12.7183 12.2277H13.2808L13.1999 12.52C13.1999 12.52 13.3764 12.372 13.5014 12.3188C13.6264 12.2732 13.9058 12.2277 13.9058 12.2277L14.8175 12.2239L14.505 13.2945C14.4535 13.4768 14.391 13.5945 14.3543 13.6514C14.3212 13.7045 14.2807 13.7539 14.1999 13.7994C14.1227 13.8412 14.0528 13.8678 13.9866 13.8716C13.9278 13.8754 13.8322 13.8792 13.7072 13.8792H12.8286L12.5823 14.7258C12.5603 14.8093 12.5492 14.851 12.5639 14.8738C12.5749 14.8928 12.608 14.9156 12.6485 14.9156L13.0345 14.8776L12.9021 15.3408H12.4683C12.3286 15.3408 12.2293 15.337 12.1595 15.3332C12.0933 15.3256 12.0234 15.3332 11.9756 15.2952C11.9352 15.2573 11.8728 15.2079 11.8764 15.1585C11.8801 15.113 11.8984 15.037 11.9279 14.9307L12.7183 12.2277Z" fill="#F5F5F5"/>
<path d="M14.3571 13.9303L14.3057 14.1884C14.2837 14.2682 14.2652 14.3289 14.2064 14.3821C14.1439 14.4352 14.0741 14.4922 13.905 14.4922L13.5925 14.5074L13.5888 14.7959C13.5852 14.8756 13.6073 14.868 13.6182 14.8832C13.6329 14.8983 13.644 14.9022 13.6587 14.9097L13.7579 14.9021L14.0558 14.887L13.9307 15.3122H13.5888C13.3499 15.3122 13.1697 15.3045 13.1145 15.259C13.0558 15.221 13.0484 15.1755 13.0484 15.0919L13.0704 13.9606H13.6182L13.6109 14.1922H13.7432C13.7873 14.1922 13.8205 14.1884 13.8388 14.177C13.8571 14.1656 13.8682 14.1466 13.8756 14.12L13.9307 13.9378H14.3609L14.3571 13.9303ZM6.56384 8.26282C6.54548 8.35393 6.19256 10.0282 6.19256 10.0282C6.11533 10.366 6.0602 10.6091 5.87639 10.7647C5.76977 10.8558 5.64476 10.8976 5.50141 10.8976C5.26978 10.8976 5.13745 10.7799 5.11539 10.5559L5.11169 10.48C5.11169 10.48 5.18154 10.0282 5.18154 10.0244C5.18154 10.0244 5.54919 8.4982 5.61538 8.29697C5.61904 8.2856 5.61904 8.278 5.61904 8.27419C4.90213 8.28182 4.77349 8.27419 4.76613 8.26282C4.76244 8.278 4.74407 8.3729 4.74407 8.3729L4.36906 10.0928L4.33595 10.237L4.2735 10.7154C4.2735 10.8558 4.29922 10.9735 4.35439 11.0685C4.52715 11.3798 5.01613 11.4253 5.29184 11.4253C5.64845 11.4253 5.983 11.3456 6.20724 11.2051C6.60061 10.9659 6.70353 10.5901 6.79178 10.2598L6.8359 10.089C6.8359 10.089 7.21457 8.50583 7.28075 8.30082C7.28441 8.28941 7.28441 8.28182 7.28811 8.27804C6.76606 8.28182 6.61532 8.27804 6.56384 8.26663V8.26282ZM8.66093 11.4098C8.40724 11.406 8.31534 11.406 8.01756 11.4212L8.00651 11.3984C8.03223 11.2807 8.06165 11.1669 8.08371 11.0492L8.12048 10.8897C8.17561 10.643 8.22709 10.3506 8.23444 10.2633C8.2418 10.2102 8.25647 10.0773 8.10943 10.0773C8.04694 10.0773 7.98445 10.1076 7.9183 10.138C7.8815 10.2709 7.81165 10.643 7.77488 10.81C7.70134 11.1669 7.69769 11.2086 7.66461 11.3833L7.64255 11.406C7.38154 11.4023 7.28964 11.4023 6.98816 11.4174L6.97346 11.3908C7.02493 11.1782 7.07272 10.9656 7.12053 10.753C7.24551 10.1797 7.27862 9.95958 7.31166 9.66723L7.33742 9.65205C7.63154 9.6103 7.70138 9.5989 8.02122 9.53437L8.04694 9.56475L7.99916 9.74698C8.05429 9.71283 8.10577 9.67864 8.16091 9.65205C8.31164 9.57612 8.47708 9.55334 8.56899 9.55334C8.70868 9.55334 8.86311 9.59512 8.9256 9.76216C8.98443 9.91021 8.94762 10.0924 8.86677 10.4531L8.82634 10.6354C8.74545 11.0378 8.73077 11.1099 8.68661 11.3833L8.65724 11.406L8.66093 11.4098ZM9.6932 11.4108C9.53881 11.4108 9.43955 11.407 9.34398 11.4108C9.24838 11.4108 9.15648 11.4185 9.0131 11.4222L9.00574 11.4108L8.99839 11.3956C9.03882 11.2438 9.05722 11.1906 9.07928 11.1375C9.09765 11.0843 9.11602 11.0312 9.15282 10.8755C9.19691 10.6743 9.22632 10.5339 9.24469 10.4085C9.26675 10.2908 9.2778 10.1884 9.29251 10.0707L9.30352 10.0631L9.31453 10.0517C9.46896 10.0289 9.56456 10.0137 9.66382 9.99856C9.76308 9.98338 9.866 9.96441 10.0241 9.93404L10.0314 9.94923L10.0351 9.96441L9.94693 10.3402C9.91751 10.4656 9.8881 10.5908 9.86238 10.7161C9.80717 10.9819 9.78148 11.0806 9.77047 11.1527C9.75576 11.221 9.75203 11.2552 9.72997 11.3919L9.71526 11.4033L9.70056 11.4147L9.6932 11.4108ZM11.3253 10.478C11.3143 10.5464 11.2555 10.8008 11.1783 10.9071C11.1231 10.9868 11.0606 11.0362 10.9871 11.0362C10.9651 11.0362 10.84 11.0362 10.8364 10.8425C10.8364 10.7476 10.8548 10.6489 10.8768 10.5426C10.943 10.2351 11.0239 9.98073 11.2261 9.98073C11.3842 9.98073 11.3952 10.1706 11.3253 10.478ZM11.9907 10.5084C12.0789 10.106 12.0091 9.91617 11.9246 9.80227C11.7922 9.62763 11.557 9.5707 11.3143 9.5707C11.1672 9.5707 10.8217 9.58589 10.5496 9.84405C10.3548 10.0301 10.2629 10.2844 10.2114 10.5274C10.1562 10.7742 10.0938 11.2184 10.4908 11.3854C10.6121 11.4386 10.7886 11.4537 10.9025 11.4537C11.193 11.4537 11.4908 11.3702 11.715 11.1273C11.8878 10.9299 11.965 10.6337 11.9944 10.5084H11.9907ZM18.1875 11.4559C17.8787 11.4521 17.7904 11.4521 17.5073 11.4673L17.4889 11.4445C17.5661 11.1446 17.6433 10.8409 17.7132 10.5372C17.8014 10.1423 17.8235 9.97528 17.8529 9.74371L17.8749 9.72474C18.1801 9.67919 18.2646 9.66781 18.5845 9.60707L18.5918 9.63363C18.533 9.8842 18.4779 10.131 18.419 10.3777C18.3014 10.8979 18.261 11.1636 18.2169 11.437L18.1875 11.4598V11.4559Z" fill="#F5F5F5"/>
<path d="M17.7435 10.5289C17.7288 10.5934 17.6699 10.8516 17.5927 10.9579C17.5413 11.0338 17.4163 11.0832 17.3464 11.0832C17.3244 11.0832 17.2031 11.0832 17.1957 10.8933C17.1957 10.7984 17.2141 10.6997 17.2361 10.5934C17.3023 10.2935 17.3832 10.0391 17.5854 10.0391C17.7435 10.0391 17.8133 10.2251 17.7435 10.5327V10.5289ZM18.3501 10.5592C18.4383 10.1568 18.078 10.5251 18.0229 10.3922C17.9346 10.1834 17.9897 9.76576 17.6369 9.62531C17.5008 9.56834 17.181 9.64049 16.9089 9.89866C16.7178 10.0809 16.6222 10.3352 16.5707 10.5782C16.5155 10.8212 16.4531 11.2692 16.8464 11.4248C16.9715 11.4818 17.0854 11.497 17.1994 11.4894C17.5965 11.4666 17.8979 10.8477 18.1222 10.6048C18.2949 10.4112 18.3243 10.6769 18.3501 10.5592ZM13.7339 11.4098C13.4802 11.406 13.392 11.406 13.0942 11.4212L13.0831 11.3984C13.1089 11.2807 13.1383 11.1669 13.164 11.0492L13.1971 10.8897C13.2523 10.643 13.3074 10.3506 13.311 10.2633C13.3184 10.2102 13.3331 10.0773 13.1897 10.0773C13.1272 10.0773 13.0611 10.1076 12.9986 10.138C12.9655 10.2709 12.8919 10.643 12.8552 10.81C12.7853 11.1669 12.778 11.2086 12.7449 11.3833L12.7228 11.406C12.4618 11.4023 12.3699 11.4023 12.0685 11.4174L12.0537 11.3908C12.1052 11.1782 12.153 10.9656 12.2008 10.753C12.3258 10.1797 12.3552 9.95958 12.3919 9.66723L12.414 9.65205C12.7082 9.6103 12.7817 9.5989 13.0978 9.53437L13.1236 9.56475L13.0795 9.74698C13.131 9.71283 13.1861 9.67864 13.2376 9.65205C13.3883 9.57612 13.5537 9.55334 13.6456 9.55334C13.7853 9.55334 13.9361 9.59512 14.0022 9.76216C14.061 9.91021 14.0206 10.0924 13.9397 10.4531L13.8993 10.6354C13.8147 11.0378 13.8037 11.1099 13.7595 11.3833L13.7302 11.406L13.7339 11.4098ZM15.9365 8.2666L15.7233 8.27041C15.1718 8.278 14.9512 8.27419 14.863 8.26282C14.8557 8.3046 14.841 8.37671 14.841 8.37671C14.841 8.37671 14.6424 9.31824 14.6424 9.32202C14.6424 9.32202 14.1719 11.3266 14.1498 11.4215C14.6314 11.4139 14.8262 11.4139 14.9108 11.4253C14.9292 11.3304 15.0395 10.7723 15.0432 10.7723C15.0432 10.7723 15.1387 10.3623 15.1425 10.3471C15.1425 10.3471 15.1718 10.3053 15.2012 10.2863H15.2453C15.6608 10.2863 16.1277 10.2863 16.4954 10.0092C16.7453 9.81938 16.9144 9.53463 16.9916 9.19294C17.01 9.10942 17.0247 9.01071 17.0247 8.90822C17.0247 8.77533 16.999 8.64628 16.9255 8.54376C16.7379 8.27419 16.3666 8.27041 15.9365 8.2666ZM16.2122 9.24991C16.1681 9.4587 16.0358 9.63715 15.8667 9.72067C15.7269 9.79279 15.5578 9.80038 15.3814 9.80038H15.2674L15.2748 9.75482C15.2748 9.75482 15.4843 8.81329 15.4843 8.81711L15.4916 8.76773L15.4953 8.72977L15.5799 8.7374C15.5799 8.7374 16.0137 8.77533 16.021 8.77533C16.1901 8.84366 16.2637 9.0183 16.2122 9.24991ZM20.7314 9.56475L20.7058 9.53437C20.3932 9.5989 20.3344 9.6103 20.0476 9.65208L20.0257 9.67483C20.0257 9.67864 20.022 9.68246 20.022 9.69001V9.68623C19.8087 10.1987 19.8124 10.0887 19.6396 10.4911C19.6396 10.4721 19.6396 10.4607 19.6359 10.4417L19.5918 9.56852L19.5661 9.53815C19.2352 9.60271 19.2278 9.61408 18.9264 9.65586L18.9043 9.67864C18.9006 9.69001 18.9006 9.70142 18.9006 9.71279L18.9043 9.71661C18.9411 9.9178 18.9337 9.87224 18.9705 10.1874C18.9889 10.343 19.0109 10.4987 19.0293 10.6505C19.0587 10.9087 19.0771 11.034 19.1139 11.425C18.9079 11.7743 18.8602 11.9072 18.6617 12.2146L18.6727 12.245C18.9705 12.2337 19.0367 12.2337 19.2573 12.2337L19.3051 12.1767C19.4705 11.8085 20.7352 9.56856 20.7352 9.56856L20.7314 9.56475ZM9.97708 9.81622C10.1462 9.69473 10.1682 9.52769 10.0249 9.44039C9.88148 9.35305 9.62783 9.37964 9.45869 9.50113C9.28959 9.61884 9.27122 9.78585 9.4146 9.87697C9.55429 9.96053 9.80795 9.93771 9.97708 9.81622Z" fill="#F5F5F5"/>
<path d="M19.256 12.2276L19.0096 12.6643C18.9324 12.8123 18.7854 12.9262 18.5574 12.9262L18.1641 12.9186L18.278 12.5238H18.3552C18.3957 12.5238 18.4251 12.52 18.4471 12.5086C18.4692 12.501 18.4803 12.4858 18.4986 12.463L18.6457 12.2239H19.2596L19.256 12.2276Z" fill="#F5F5F5"/>
</g>
<defs>
<clipPath id="clip0_4582_1907">
<rect width="21" height="13.5882" fill="white" transform="translate(2 4.92087)"/>
</clipPath>
</defs>
</svg>
